<?xml version="1.0" encoding="UTF-8" standalone="no"?>
<!DOCTYPE svg PUBLIC "-//W3C//DTD SVG 1.1//EN"
 "http://www.w3.org/Graphics/SVG/1.1/DTD/svg11.dtd">
<!-- Generated by graphviz version 13.1.2 (20250808.2320)
 -->
<!-- Title: wc3_big4 Pages: 1 -->
<svg width="761pt" height="977pt"
 viewBox="0.00 0.00 761.00 977.00" xmlns="http://www.w3.org/2000/svg" xmlns:xlink="http://www.w3.org/1999/xlink">
<g id="graph0" class="graph" transform="scale(1 1) rotate(0) translate(36 941.25)">
<title>wc3_big4</title>
<polygon fill="white" stroke="none" points="-36,36 -36,-941.25 725.12,-941.25 725.12,36 -36,36"/>
<text xml:space="preserve" text-anchor="middle" x="344.56" y="-887.95" font-family="Helvetica,sans-Serif" font-size="14.00">WC3 — Big 4 Transactions</text>
<text xml:space="preserve" text-anchor="middle" x="344.56" y="-872.95" font-family="Helvetica,sans-Serif" font-size="14.00">Line quantity flow and pending inventory</text>
<!-- contacts -->
<g id="node1" class="node">
<title>contacts</title>
<g id="a_node1"><a xlink:href="vscode://file/Users/williamjames/Documents/CommerceExpert/webClerk3/apps/contacts/models/contact.py" xlink:title="Central identity — customers, vendors, employees, prospects.&#10;Model: apps/contacts/models/contact.py" target="_blank">
<polygon fill="#f9e79f" stroke="black" points="417.5,-845.25 363.5,-845.25 363.5,-809.25 417.5,-809.25 417.5,-845.25"/>
<text xml:space="preserve" text-anchor="middle" x="390.5" y="-823.38" font-family="Helvetica,sans-Serif" font-size="10.00">contacts</text>
</a>
</g>
</g>
<!-- customers -->
<g id="node2" class="node">
<title>customers</title>
<g id="a_node2"><a xlink:href="vscode://file/Users/williamjames/Documents/CommerceExpert/webClerk3/apps/contacts/models/contact.py" xlink:title="Contacts with customer role.&#10;Model: apps/contacts/models/contact.py" target="_blank">
<polygon fill="#f4d03f" stroke="black" points="421.38,-750.25 359.62,-750.25 359.62,-714.25 421.38,-714.25 421.38,-750.25"/>
<text xml:space="preserve" text-anchor="middle" x="390.5" y="-728.38" font-family="Helvetica,sans-Serif" font-size="10.00">customers</text>
</a>
</g>
</g>
<!-- contacts&#45;&gt;customers -->
<!-- proposals -->
<g id="node7" class="node">
<title>proposals</title>
<g id="a_node7"><a xlink:href="vscode://file/Users/williamjames/Documents/CommerceExpert/webClerk3/apps/transactions/models/proposal.py" xlink:title="Sales proposals — forecasts weighted by probability.&#10;Model: apps/transactions/models/proposal.py" target="_blank">
<polygon fill="#fcf3cf" stroke="black" points="359.5,-677.25 301.5,-677.25 301.5,-641.25 359.5,-641.25 359.5,-677.25"/>
<text xml:space="preserve" text-anchor="middle" x="330.5" y="-655.38" font-family="Helvetica,sans-Serif" font-size="10.00">proposals</text>
</a>
</g>
</g>
<!-- customers&#45;&gt;proposals -->
<g id="edge2" class="edge">
<title>customers&#45;&gt;proposals</title>
<path fill="none" stroke="#f39c12" d="M375.98,-714.06C368.83,-705.6 360.06,-695.23 352.14,-685.86"/>
<polygon fill="#f39c12" stroke="#f39c12" points="355,-683.81 345.87,-678.43 349.65,-688.33 355,-683.81"/>
</g>
<!-- orders -->
<g id="node8" class="node">
<title>orders</title>
<g id="a_node8"><a xlink:href="vscode://file/Users/williamjames/Documents/CommerceExpert/webClerk3/apps/transactions/models/order.py" xlink:title="Sales orders — customer commitments.&#10;Model: apps/transactions/models/order.py" target="_blank">
<polygon fill="#abebc6" stroke="black" points="480.5,-582.25 426.5,-582.25 426.5,-546.25 480.5,-546.25 480.5,-582.25"/>
<text xml:space="preserve" text-anchor="middle" x="453.5" y="-560.38" font-family="Helvetica,sans-Serif" font-size="10.00">orders</text>
</a>
</g>
</g>
<!-- customers&#45;&gt;orders -->
<g id="edge3" class="edge">
<title>customers&#45;&gt;orders</title>
<path fill="none" stroke="#f39c12" d="M397.56,-713.83C399.8,-708.23 402.28,-701.99 404.5,-696.25 418.16,-660.94 433.36,-620.04 443.15,-593.47"/>
<polygon fill="#f39c12" stroke="#f39c12" points="446.44,-594.69 446.6,-584.09 439.87,-592.27 446.44,-594.69"/>
</g>
<!-- vendors -->
<g id="node3" class="node">
<title>vendors</title>
<g id="a_node3"><a xlink:href="vscode://file/Users/williamjames/Documents/CommerceExpert/webClerk3/apps/contacts/models/contact.py" xlink:title="Contacts with vendor role.&#10;Model: apps/contacts/models/contact.py" target="_blank">
<polygon fill="#e59866" stroke="black" points="57.5,-677.25 3.5,-677.25 3.5,-641.25 57.5,-641.25 57.5,-677.25"/>
<text xml:space="preserve" text-anchor="middle" x="30.5" y="-655.38" font-family="Helvetica,sans-Serif" font-size="10.00">vendors</text>
</a>
</g>
</g>
<!-- purchases -->
<g id="node9" class="node">
<title>purchases</title>
<g id="a_node9"><a xlink:href="vscode://file/Users/williamjames/Documents/CommerceExpert/webClerk3/apps/transactions/models/purchase.py" xlink:title="Purchase orders to vendors.&#10;Model: apps/transactions/models/purchase.py" target="_blank">
<polygon fill="#d6eaf8" stroke="black" points="61,-582.25 0,-582.25 0,-546.25 61,-546.25 61,-582.25"/>
<text xml:space="preserve" text-anchor="middle" x="30.5" y="-560.38" font-family="Helvetica,sans-Serif" font-size="10.00">purchases</text>
</a>
</g>
</g>
<!-- vendors&#45;&gt;purchases -->
<g id="edge4" class="edge">
<title>vendors&#45;&gt;purchases</title>
<path fill="none" stroke="#e59866" d="M30.5,-640.76C30.5,-627.64 30.5,-609.39 30.5,-594.12"/>
<polygon fill="#e59866" stroke="#e59866" points="34,-594.18 30.5,-584.18 27,-594.18 34,-594.18"/>
</g>
<!-- linkage -->
<g id="node4" class="node">
<title>linkage</title>
<g id="a_node4"><a xlink:href="vscode://file/Users/williamjames/Documents/CommerceExpert/webClerk3/apps/core/models/linkage.py" xlink:title="Shared line data — specs, related records, data at time of action.&#10;Model: apps/core/models/linkage.py" target="_blank">
<polygon fill="#82e0aa" stroke="black" points="227.62,-596.38 119.38,-596.38 119.38,-532.12 227.62,-532.12 227.62,-596.38"/>
<text xml:space="preserve" text-anchor="middle" x="173.5" y="-582.88" font-family="Helvetica,sans-Serif" font-size="10.00">linkages</text>
<text xml:space="preserve" text-anchor="middle" x="173.5" y="-571.62" font-family="Helvetica,sans-Serif" font-size="10.00">shared by lines</text>
<text xml:space="preserve" text-anchor="middle" x="173.5" y="-560.38" font-family="Helvetica,sans-Serif" font-size="10.00">related data</text>
<text xml:space="preserve" text-anchor="middle" x="173.5" y="-549.12" font-family="Helvetica,sans-Serif" font-size="10.00">specs</text>
<text xml:space="preserve" text-anchor="middle" x="173.5" y="-537.88" font-family="Helvetica,sans-Serif" font-size="10.00">data at time of action</text>
</a>
</g>
</g>
<!-- order_line -->
<g id="node12" class="node">
<title>order_line</title>
<g id="a_node12"><a xlink:href="vscode://file/Users/williamjames/Documents/CommerceExpert/webClerk3/apps/transactions/models/line.py" xlink:title="Order line — quantity.placed, actioned, remaining, canceled.&#10;Model: apps/transactions/models/line.py" target="_blank">
<polygon fill="#d5f5e3" stroke="black" points="368.12,-473.25 286.88,-473.25 286.88,-393.25 368.12,-393.25 368.12,-473.25"/>
<text xml:space="preserve" text-anchor="middle" x="327.5" y="-461.65" font-family="Helvetica,sans-Serif" font-size="8.00">lines</text>
<text xml:space="preserve" text-anchor="middle" x="327.5" y="-443.65" font-family="Helvetica,sans-Serif" font-size="8.00">id</text>
<text xml:space="preserve" text-anchor="middle" x="327.5" y="-434.65" font-family="Helvetica,sans-Serif" font-size="8.00">quantity.placed</text>
<text xml:space="preserve" text-anchor="middle" x="327.5" y="-425.65" font-family="Helvetica,sans-Serif" font-size="8.00">quantity.actioned</text>
<text xml:space="preserve" text-anchor="middle" x="327.5" y="-416.65" font-family="Helvetica,sans-Serif" font-size="8.00">quantity.remaining</text>
<text xml:space="preserve" text-anchor="middle" x="327.5" y="-407.65" font-family="Helvetica,sans-Serif" font-size="8.00">quantity.canceled</text>
<text xml:space="preserve" text-anchor="middle" x="327.5" y="-398.65" font-family="Helvetica,sans-Serif" font-size="8.00">item_id</text>
</a>
</g>
</g>
<!-- linkage&#45;&gt;order_line -->
<g id="edge19" class="edge">
<title>linkage&#45;&gt;order_line</title>
<path fill="none" stroke="#27ae60" stroke-dasharray="5,2" d="M211.17,-531.69C231.21,-514.91 256.1,-494.06 277.71,-475.96"/>
<polygon fill="#27ae60" stroke="#27ae60" points="279.85,-478.73 285.27,-469.62 275.36,-473.36 279.85,-478.73"/>
</g>
<!-- purchase_line -->
<g id="node13" class="node">
<title>purchase_line</title>
<g id="a_node13"><a xlink:href="vscode://file/Users/williamjames/Documents/CommerceExpert/webClerk3/apps/transactions/models/line.py" xlink:title="Purchase line — quantity.placed, actioned, remaining, canceled, received.&#10;Model: apps/transactions/models/line.py" target="_blank">
<polygon fill="#d6eaf8" stroke="black" points="83.12,-477.75 1.88,-477.75 1.88,-388.75 83.12,-388.75 83.12,-477.75"/>
<text xml:space="preserve" text-anchor="middle" x="42.5" y="-466.15" font-family="Helvetica,sans-Serif" font-size="8.00">lines</text>
<text xml:space="preserve" text-anchor="middle" x="42.5" y="-448.15" font-family="Helvetica,sans-Serif" font-size="8.00">id</text>
<text xml:space="preserve" text-anchor="middle" x="42.5" y="-439.15" font-family="Helvetica,sans-Serif" font-size="8.00">quantity.placed</text>
<text xml:space="preserve" text-anchor="middle" x="42.5" y="-430.15" font-family="Helvetica,sans-Serif" font-size="8.00">quantity.actioned</text>
<text xml:space="preserve" text-anchor="middle" x="42.5" y="-421.15" font-family="Helvetica,sans-Serif" font-size="8.00">quantity.remaining</text>
<text xml:space="preserve" text-anchor="middle" x="42.5" y="-412.15" font-family="Helvetica,sans-Serif" font-size="8.00">quantity.canceled</text>
<text xml:space="preserve" text-anchor="middle" x="42.5" y="-403.15" font-family="Helvetica,sans-Serif" font-size="8.00">quantity.received</text>
<text xml:space="preserve" text-anchor="middle" x="42.5" y="-394.15" font-family="Helvetica,sans-Serif" font-size="8.00">item_id</text>
</a>
</g>
</g>
<!-- linkage&#45;&gt;purchase_line -->
<g id="edge20" class="edge">
<title>linkage&#45;&gt;purchase_line</title>
<path fill="none" stroke="#27ae60" stroke-dasharray="5,2" d="M141.45,-531.69C126.35,-516.82 108.01,-498.76 91.23,-482.24"/>
<polygon fill="#27ae60" stroke="#27ae60" points="93.81,-479.86 84.23,-475.34 88.9,-484.85 93.81,-479.86"/>
</g>
<!-- invoice_line -->
<g id="node14" class="node">
<title>invoice_line</title>
<g id="a_node14"><a xlink:href="vscode://file/Users/williamjames/Documents/CommerceExpert/webClerk3/apps/transactions/models/line.py" xlink:title="Invoice line — quantity.placed, actioned, remaining, canceled, parent.&#10;Model: apps/transactions/models/line.py" target="_blank">
<polygon fill="#fadbd8" stroke="black" points="402.12,-342.25 320.88,-342.25 320.88,-253.25 402.12,-253.25 402.12,-342.25"/>
<text xml:space="preserve" text-anchor="middle" x="361.5" y="-330.65" font-family="Helvetica,sans-Serif" font-size="8.00">lines</text>
<text xml:space="preserve" text-anchor="middle" x="361.5" y="-312.65" font-family="Helvetica,sans-Serif" font-size="8.00">id</text>
<text xml:space="preserve" text-anchor="middle" x="361.5" y="-303.65" font-family="Helvetica,sans-Serif" font-size="8.00">quantity.placed</text>
<text xml:space="preserve" text-anchor="middle" x="361.5" y="-294.65" font-family="Helvetica,sans-Serif" font-size="8.00">quantity.actioned</text>
<text xml:space="preserve" text-anchor="middle" x="361.5" y="-285.65" font-family="Helvetica,sans-Serif" font-size="8.00">quantity.remaining</text>
<text xml:space="preserve" text-anchor="middle" x="361.5" y="-276.65" font-family="Helvetica,sans-Serif" font-size="8.00">quantity.canceled</text>
<text xml:space="preserve" text-anchor="middle" x="361.5" y="-267.65" font-family="Helvetica,sans-Serif" font-size="8.00">quantity.parent</text>
<text xml:space="preserve" text-anchor="middle" x="361.5" y="-258.65" font-family="Helvetica,sans-Serif" font-size="8.00">item_id</text>
</a>
</g>
</g>
<!-- linkage&#45;&gt;invoice_line -->
<g id="edge21" class="edge">
<title>linkage&#45;&gt;invoice_line</title>
<path fill="none" stroke="#27ae60" stroke-dasharray="5,2" d="M184.17,-531.8C197.58,-495.11 223.08,-433.75 257.5,-388.75 266.18,-377.41 289.45,-357.01 311.79,-338.5"/>
<polygon fill="#27ae60" stroke="#27ae60" points="313.93,-341.28 319.43,-332.22 309.48,-335.87 313.93,-341.28"/>
</g>
<!-- item -->
<g id="node5" class="node">
<title>item</title>
<g id="a_node5"><a xlink:href="vscode://file/Users/williamjames/Documents/CommerceExpert/webClerk3/apps/products/models/item.py:196" xlink:title="Product with quantity JSON tracking all inventory buckets.&#10;Model: apps/products/models/item.py:196&#10;Functions:&#10; &#160;Item.quantity @ apps/products/models/item.py:238 (JSONField with on_hand, allocated, available, on_p, on_so, on_in, on_po, on_wo, on_r)" target="_blank">
<polygon fill="#7d3c98" stroke="black" points="449.5,-105.5 361.5,-105.5 361.5,0 449.5,0 449.5,-105.5"/>
<text xml:space="preserve" text-anchor="middle" x="405.5" y="-92.95" font-family="Helvetica,sans-Serif" font-size="9.00" fill="white">items</text>
<text xml:space="preserve" text-anchor="middle" x="405.5" y="-83.2" font-family="Helvetica,sans-Serif" font-size="9.00" fill="white">quantity.on_hand</text>
<text xml:space="preserve" text-anchor="middle" x="405.5" y="-73.45" font-family="Helvetica,sans-Serif" font-size="9.00" fill="white">quantity.allocated</text>
<text xml:space="preserve" text-anchor="middle" x="405.5" y="-63.7" font-family="Helvetica,sans-Serif" font-size="9.00" fill="white">quantity.available</text>
<text xml:space="preserve" text-anchor="middle" x="405.5" y="-53.95" font-family="Helvetica,sans-Serif" font-size="9.00" fill="white">quantity.on_p</text>
<text xml:space="preserve" text-anchor="middle" x="405.5" y="-44.2" font-family="Helvetica,sans-Serif" font-size="9.00" fill="white">quantity.on_so</text>
<text xml:space="preserve" text-anchor="middle" x="405.5" y="-34.45" font-family="Helvetica,sans-Serif" font-size="9.00" fill="white">quantity.on_in</text>
<text xml:space="preserve" text-anchor="middle" x="405.5" y="-24.7" font-family="Helvetica,sans-Serif" font-size="9.00" fill="white">quantity.on_po</text>
<text xml:space="preserve" text-anchor="middle" x="405.5" y="-14.95" font-family="Helvetica,sans-Serif" font-size="9.00" fill="white">quantity.on_wo</text>
<text xml:space="preserve" text-anchor="middle" x="405.5" y="-5.2" font-family="Helvetica,sans-Serif" font-size="9.00" fill="white">quantity.on_r</text>
</a>
</g>
</g>
<!-- pending -->
<g id="node6" class="node">
<title>pending</title>
<g id="a_node6"><a xlink:href="vscode://file/Users/williamjames/Documents/CommerceExpert/webClerk3/apps/core/models/pending.py:6" xlink:title="Central hub for inventory quantity deltas. All quantity changes flow through Pending before updating Item.&#10;Model: apps/core/models/pending.py:6&#10;Functions:&#10; &#160;Pending.objects.create @ apps/transactions/services/order_to_invoice.py:332 (invoice creation)&#10; &#160;Pending.objects.create @ apps/transactions/services/proposal_to_order.py:171 (order creation (+on_so))&#10; &#160;Pending.objects.create @ apps/transactions/services/proposal_to_order.py:200 (order creation (&#45;on_p))&#10; &#160;Pending.objects.create @ apps/transactions/services/flow.py:308 (receive_purchase)&#10; &#160;Pending.objects.create @ apps/transactions/services/flow.py:452 (complete_workorder)" target="_blank">
<polygon fill="#922b21" stroke="black" points="378,-189.5 287,-189.5 287,-152.25 378,-152.25 378,-189.5"/>
<text xml:space="preserve" text-anchor="middle" x="332.5" y="-176.95" font-family="Helvetica,sans-Serif" font-size="9.00" fill="white">pending</text>
<text xml:space="preserve" text-anchor="middle" x="332.5" y="-167.2" font-family="Helvetica,sans-Serif" font-size="9.00" fill="white">(PendingInventory</text>
<text xml:space="preserve" text-anchor="middle" x="332.5" y="-157.45" font-family="Helvetica,sans-Serif" font-size="9.00" fill="white">Adjustment)</text>
</a>
</g>
</g>
<!-- pending&#45;&gt;item -->
<g id="edge16" class="edge">
<title>pending&#45;&gt;item</title>
<path fill="none" stroke="#922b21" d="M343.75,-151.98C350.02,-142 358.25,-128.91 366.65,-115.56"/>
<polygon fill="#922b21" stroke="#922b21" points="369.6,-117.43 371.96,-107.11 363.67,-113.71 369.6,-117.43"/>
</g>
<!-- prop_line -->
<g id="node11" class="node">
<title>prop_line</title>
<g id="a_node11"><a xlink:href="vscode://file/Users/williamjames/Documents/CommerceExpert/webClerk3/apps/transactions/models/line.py" xlink:title="Proposal line — quantity.placed, actioned, remaining, canceled.&#10;Model: apps/transactions/models/line.py" target="_blank">
<polygon fill="#fef9e7" stroke="black" points="368.12,-604.25 286.88,-604.25 286.88,-524.25 368.12,-524.25 368.12,-604.25"/>
<text xml:space="preserve" text-anchor="middle" x="327.5" y="-592.65" font-family="Helvetica,sans-Serif" font-size="8.00">lines</text>
<text xml:space="preserve" text-anchor="middle" x="327.5" y="-574.65" font-family="Helvetica,sans-Serif" font-size="8.00">id</text>
<text xml:space="preserve" text-anchor="middle" x="327.5" y="-565.65" font-family="Helvetica,sans-Serif" font-size="8.00">quantity.placed</text>
<text xml:space="preserve" text-anchor="middle" x="327.5" y="-556.65" font-family="Helvetica,sans-Serif" font-size="8.00">quantity.actioned</text>
<text xml:space="preserve" text-anchor="middle" x="327.5" y="-547.65" font-family="Helvetica,sans-Serif" font-size="8.00">quantity.remaining</text>
<text xml:space="preserve" text-anchor="middle" x="327.5" y="-538.65" font-family="Helvetica,sans-Serif" font-size="8.00">quantity.canceled</text>
<text xml:space="preserve" text-anchor="middle" x="327.5" y="-529.65" font-family="Helvetica,sans-Serif" font-size="8.00">item_id</text>
</a>
</g>
</g>
<!-- proposals&#45;&gt;prop_line -->
<g id="edge6" class="edge">
<title>proposals&#45;&gt;prop_line</title>
<path fill="none" stroke="black" d="M329.94,-640.76C329.7,-633.58 329.42,-624.87 329.14,-615.95"/>
<polygon fill="black" stroke="black" points="332.64,-616.03 328.82,-606.15 325.64,-616.26 332.64,-616.03"/>
</g>
<!-- invoices -->
<g id="node10" class="node">
<title>invoices</title>
<g id="a_node10"><a xlink:href="vscode://file/Users/williamjames/Documents/CommerceExpert/webClerk3/apps/transactions/models/invoice.py" xlink:title="Invoices — shipment and financial events.&#10;Model: apps/transactions/models/invoice.py" target="_blank">
<polygon fill="#f5b7b1" stroke="black" points="480.5,-451.25 426.5,-451.25 426.5,-415.25 480.5,-415.25 480.5,-451.25"/>
<text xml:space="preserve" text-anchor="middle" x="453.5" y="-429.38" font-family="Helvetica,sans-Serif" font-size="10.00">invoices</text>
</a>
</g>
</g>
<!-- orders&#45;&gt;invoices -->
<g id="edge5" class="edge">
<title>orders&#45;&gt;invoices</title>
<path fill="none" stroke="#f39c12" stroke-dasharray="5,2" d="M453.5,-545.85C453.5,-524.58 453.5,-488.26 453.5,-462.86"/>
<polygon fill="#f39c12" stroke="#f39c12" points="457,-462.89 453.5,-452.89 450,-462.89 457,-462.89"/>
</g>
<!-- orders&#45;&gt;order_line -->
<g id="edge7" class="edge">
<title>orders&#45;&gt;order_line</title>
<path fill="none" stroke="black" d="M436.51,-545.85C420.47,-529.44 395.7,-504.07 373.82,-481.67"/>
<polygon fill="black" stroke="black" points="376.46,-479.36 366.97,-474.66 371.45,-484.26 376.46,-479.36"/>
</g>
<!-- purchases&#45;&gt;purchase_line -->
<g id="edge8" class="edge">
<title>purchases&#45;&gt;purchase_line</title>
<path fill="none" stroke="black" d="M32.12,-545.85C33.47,-531.36 35.46,-509.88 37.35,-489.62"/>
<polygon fill="black" stroke="black" points="40.83,-490.02 38.27,-479.74 33.86,-489.37 40.83,-490.02"/>
</g>
<!-- invoices&#45;&gt;invoice_line -->
<g id="edge9" class="edge">
<title>invoices&#45;&gt;invoice_line</title>
<path fill="none" stroke="black" d="M441.47,-414.8C430.48,-398.84 413.63,-374.4 398.23,-352.05"/>
<polygon fill="black" stroke="black" points="401.15,-350.12 392.6,-343.88 395.39,-354.1 401.15,-350.12"/>
</g>
<!-- prop_line&#45;&gt;order_line -->
<g id="edge10" class="edge">
<title>prop_line&#45;&gt;order_line</title>
<path fill="none" stroke="black" stroke-dasharray="5,2" d="M323.41,-524.03C322.93,-518.08 322.51,-512.01 322.25,-506.25 321.93,-499.35 322,-492.08 322.29,-484.93"/>
<polygon fill="black" stroke="black" points="325.78,-485.16 322.86,-474.97 318.79,-484.76 325.78,-485.16"/>
<text xml:space="preserve" text-anchor="middle" x="332.38" y="-498.65" font-family="Helvetica,sans-Serif" font-size="8.00">id→id</text>
</g>
<!-- order_line&#45;&gt;pending -->
<g id="edge12" class="edge">
<title>order_line&#45;&gt;pending</title>
<path fill="none" stroke="#e59866" d="M292.63,-392.92C281.65,-378.09 270.91,-360.39 265.25,-342.25 253.46,-304.49 251.86,-290.47 265.25,-253.25 272.87,-232.06 288.67,-212.46 303.04,-197.81"/>
<polygon fill="#e59866" stroke="#e59866" points="305.47,-200.33 310.18,-190.84 300.58,-195.32 305.47,-200.33"/>
<text xml:space="preserve" text-anchor="middle" x="278.38" y="-294.65" font-family="Helvetica,sans-Serif" font-size="8.00">+on_so</text>
</g>
<!-- order_line&#45;&gt;invoice_line -->
<g id="edge11" class="edge">
<title>order_line&#45;&gt;invoice_line</title>
<path fill="none" stroke="black" stroke-dasharray="5,2" d="M337.52,-392.92C340.67,-380.54 344.21,-366.64 347.58,-353.4"/>
<polygon fill="black" stroke="black" points="350.91,-354.5 349.99,-343.94 344.13,-352.77 350.91,-354.5"/>
<text xml:space="preserve" text-anchor="middle" x="355.64" y="-363.15" font-family="Helvetica,sans-Serif" font-size="8.00">id→id</text>
</g>
<!-- purchase_line&#45;&gt;pending -->
<g id="edge13" class="edge">
<title>purchase_line&#45;&gt;pending</title>
<path fill="none" stroke="#e59866" d="M79.1,-388.34C119.79,-341.55 189.2,-267.42 260.5,-217.25 270.77,-210.02 282.15,-202.6 292.78,-195.89"/>
<polygon fill="#e59866" stroke="#e59866" points="294.36,-199.03 300.99,-190.77 290.66,-193.1 294.36,-199.03"/>
<text xml:space="preserve" text-anchor="middle" x="226.37" y="-294.65" font-family="Helvetica,sans-Serif" font-size="8.00">+on_po</text>
</g>
<!-- invoice_line&#45;&gt;pending -->
<g id="edge14" class="edge">
<title>invoice_line&#45;&gt;pending</title>
<path fill="none" stroke="#e74c3c" d="M331.02,-253.07C328.15,-247.28 325.69,-241.27 324,-235.25 320.91,-224.26 321.68,-211.88 323.7,-200.99"/>
<polygon fill="#e74c3c" stroke="#e74c3c" points="327.08,-201.91 325.92,-191.38 320.26,-200.33 327.08,-201.91"/>
<text xml:space="preserve" text-anchor="middle" x="341.25" y="-227.65" font-family="Helvetica,sans-Serif" font-size="8.00">&#45;on_hand</text>
<text xml:space="preserve" text-anchor="middle" x="341.25" y="-218.65" font-family="Helvetica,sans-Serif" font-size="8.00">&#45;on_so</text>
</g>
<!-- receipts -->
<g id="node15" class="node">
<title>receipts</title>
<g id="a_node15"><a xlink:href="vscode://file/Users/williamjames/Documents/CommerceExpert/webClerk3/apps/transactions/models/receipt.py" xlink:title="Vendor shipping receipts.&#10;Model: apps/transactions/models/receipt.py" target="_blank">
<polygon fill="#d6eaf8" stroke="black" points="542.5,-316.38 460.5,-316.38 460.5,-279.12 542.5,-279.12 542.5,-316.38"/>
<text xml:space="preserve" text-anchor="middle" x="501.5" y="-303.82" font-family="Helvetica,sans-Serif" font-size="9.00">receipts</text>
<text xml:space="preserve" text-anchor="middle" x="501.5" y="-294.07" font-family="Helvetica,sans-Serif" font-size="9.00">vendor shipping</text>
<text xml:space="preserve" text-anchor="middle" x="501.5" y="-284.32" font-family="Helvetica,sans-Serif" font-size="9.00">document</text>
</a>
</g>
</g>
<!-- receipts&#45;&gt;pending -->
<g id="edge15" class="edge">
<title>receipts&#45;&gt;pending</title>
<path fill="none" stroke="#27ae60" d="M477.29,-278.86C448.13,-257.31 398.99,-221 366.15,-196.74"/>
<polygon fill="#27ae60" stroke="#27ae60" points="368.28,-193.96 358.16,-190.84 364.12,-199.59 368.28,-193.96"/>
<text xml:space="preserve" text-anchor="middle" x="435" y="-227.65" font-family="Helvetica,sans-Serif" font-size="8.00">+on_hand</text>
<text xml:space="preserve" text-anchor="middle" x="435" y="-218.65" font-family="Helvetica,sans-Serif" font-size="8.00">&#45;on_po</text>
</g>
<!-- inv_layer -->
<g id="node16" class="node">
<title>inv_layer</title>
<g id="a_node16"><a xlink:href="vscode://file/Users/williamjames/Documents/CommerceExpert/webClerk3/apps/products/models/inventory_layer.py" xlink:title="Inventory costing layer — tracks on_hand by receipt cost.&#10;Model: apps/products/models/inventory_layer.py" target="_blank">
<polygon fill="#7d3c98" stroke="black" points="534.5,-199.25 446.5,-199.25 446.5,-142.5 534.5,-142.5 534.5,-199.25"/>
<text xml:space="preserve" text-anchor="middle" x="490.5" y="-186.7" font-family="Helvetica,sans-Serif" font-size="9.00" fill="white">inventory layer</text>
<text xml:space="preserve" text-anchor="middle" x="490.5" y="-176.95" font-family="Helvetica,sans-Serif" font-size="9.00" fill="white">(consolidate with)</text>
<text xml:space="preserve" text-anchor="middle" x="490.5" y="-167.2" font-family="Helvetica,sans-Serif" font-size="9.00" fill="white">receipt_line</text>
<text xml:space="preserve" text-anchor="middle" x="490.5" y="-157.45" font-family="Helvetica,sans-Serif" font-size="9.00" fill="white">quantity.on_hand</text>
<text xml:space="preserve" text-anchor="middle" x="490.5" y="-147.7" font-family="Helvetica,sans-Serif" font-size="9.00" fill="white">by cost</text>
</a>
</g>
</g>
<!-- receipts&#45;&gt;inv_layer -->
<g id="edge17" class="edge">
<title>receipts&#45;&gt;inv_layer</title>
<path fill="none" stroke="#2980b9" d="M499.92,-278.86C498.37,-261.17 495.93,-233.53 493.93,-210.78"/>
<polygon fill="#2980b9" stroke="#2980b9" points="497.42,-210.56 493.06,-200.91 490.45,-211.18 497.42,-210.56"/>
</g>
<!-- inv_layer&#45;&gt;item -->
<g id="edge18" class="edge">
<title>inv_layer&#45;&gt;item</title>
<path fill="none" stroke="black" stroke-dasharray="5,2" d="M470.14,-142.06C464.11,-133.82 457.26,-124.46 450.32,-114.98"/>
<polygon fill="black" stroke="black" points="453.29,-113.12 444.56,-107.11 447.64,-117.25 453.29,-113.12"/>
</g>
<!-- rules -->
<g id="node17" class="node">
<title>rules</title>
<polygon fill="#fdfefe" stroke="black" points="683.12,-867.25 475.88,-867.25 475.88,-787.25 689.12,-787.25 689.12,-861.25 683.12,-867.25"/>
<polyline fill="none" stroke="black" points="683.12,-867.25 683.12,-861.25"/>
<polyline fill="none" stroke="black" points="689.12,-861.25 683.12,-861.25"/>
<text xml:space="preserve" text-anchor="middle" x="582.5" y="-855.65" font-family="Helvetica,sans-Serif" font-size="8.00">quantity.placed = input by user</text>
<text xml:space="preserve" text-anchor="middle" x="582.5" y="-846.65" font-family="Helvetica,sans-Serif" font-size="8.00">quantity.canceled affects quantity_ordered</text>
<text xml:space="preserve" text-anchor="middle" x="582.5" y="-837.65" font-family="Helvetica,sans-Serif" font-size="8.00">quantity.remaining = quantity_ordered &#45; all child actions</text>
<text xml:space="preserve" text-anchor="middle" x="582.5" y="-828.65" font-family="Helvetica,sans-Serif" font-size="8.00"> &#160;u2022 orders from proposals</text>
<text xml:space="preserve" text-anchor="middle" x="582.5" y="-819.65" font-family="Helvetica,sans-Serif" font-size="8.00"> &#160;u2022 invoiced from orders</text>
<text xml:space="preserve" text-anchor="middle" x="582.5" y="-810.65" font-family="Helvetica,sans-Serif" font-size="8.00"> &#160;u2022 invoices not packed</text>
<text xml:space="preserve" text-anchor="middle" x="582.5" y="-801.65" font-family="Helvetica,sans-Serif" font-size="8.00"> &#160;u2022 purchases not received</text>
<text xml:space="preserve" text-anchor="middle" x="582.5" y="-792.65" font-family="Helvetica,sans-Serif" font-size="8.00">quantity.parent = parent&#39;s remaining when child created</text>
</g>
</g>
</svg>
