<?xml version="1.0" encoding="UTF-8" standalone="no"?>
<!DOCTYPE svg PUBLIC "-//W3C//DTD SVG 1.1//EN"
 "http://www.w3.org/Graphics/SVG/1.1/DTD/svg11.dtd">
<!-- Generated by graphviz version 15.1.1 (20260805.0921)
 -->
<!-- Title: agent_sprint_cycle Pages: 1 -->
<svg width="1094pt" height="896pt"
 viewBox="0.00 0.00 1094.00 896.00" xmlns="http://www.w3.org/2000/svg" xmlns:xlink="http://www.w3.org/1999/xlink">
<g id="graph0" class="graph" transform="scale(1 1) rotate(0) translate(4 891.56)">
<title>agent_sprint_cycle</title>
<polygon fill="white" stroke="none" points="-4,4 -4,-891.56 1089.52,-891.56 1089.52,4 -4,4"/>
<text xml:space="preserve" text-anchor="middle" x="542.76" y="-868.36" font-family="Helvetica,sans-Serif" font-size="16.00">Agent Sprint Cycle</text>
<text xml:space="preserve" text-anchor="middle" x="542.76" y="-851.86" font-family="Helvetica,sans-Serif" font-size="16.00">Weekly Organizational Hippocampus</text>
<g id="clust1" class="cluster">
<title>cluster_capacities</title>
<path fill="#f0f4fa" stroke="#4a90d9" d="M208.02,-383.71C208.02,-383.71 458.02,-383.71 458.02,-383.71 464.02,-383.71 470.02,-389.71 470.02,-395.71 470.02,-395.71 470.02,-456.21 470.02,-456.21 470.02,-462.21 464.02,-468.21 458.02,-468.21 458.02,-468.21 208.02,-468.21 208.02,-468.21 202.02,-468.21 196.02,-462.21 196.02,-456.21 196.02,-456.21 196.02,-395.71 196.02,-395.71 196.02,-389.71 202.02,-383.71 208.02,-383.71"/>
<text xml:space="preserve" text-anchor="middle" x="333.02" y="-449.01" font-family="Helvetica,sans-Serif" font-size="16.00">Agent Capacities</text>
</g>
<g id="clust2" class="cluster">
<title>cluster_observe</title>
<path fill="#f8f8f8" stroke="#888888" d="M36.02,-527.71C36.02,-527.71 326.02,-527.71 326.02,-527.71 332.02,-527.71 338.02,-533.71 338.02,-539.71 338.02,-539.71 338.02,-600.21 338.02,-600.21 338.02,-606.21 332.02,-612.21 326.02,-612.21 326.02,-612.21 36.02,-612.21 36.02,-612.21 30.02,-612.21 24.02,-606.21 24.02,-600.21 24.02,-600.21 24.02,-539.71 24.02,-539.71 24.02,-533.71 30.02,-527.71 36.02,-527.71"/>
<text xml:space="preserve" text-anchor="middle" x="181.02" y="-593.01" font-family="Helvetica,sans-Serif" font-size="16.00">Continuous Observation</text>
</g>
<g id="clust3" class="cluster">
<title>cluster_sprint</title>
<path fill="#f0faf0" stroke="#2e7d32" d="M588.02,-155.5C588.02,-155.5 792.02,-155.5 792.02,-155.5 798.02,-155.5 804.02,-161.5 804.02,-167.5 804.02,-167.5 804.02,-826.56 804.02,-826.56 804.02,-832.56 798.02,-838.56 792.02,-838.56 792.02,-838.56 588.02,-838.56 588.02,-838.56 582.02,-838.56 576.02,-832.56 576.02,-826.56 576.02,-826.56 576.02,-167.5 576.02,-167.5 576.02,-161.5 582.02,-155.5 588.02,-155.5"/>
<text xml:space="preserve" text-anchor="middle" x="690.02" y="-819.36" font-family="Helvetica,sans-Serif" font-size="16.00">Weekly Sprint (Mon&#45;Fri)</text>
</g>
<g id="clust4" class="cluster">
<title>cluster_execute</title>
<path fill="#fafafa" stroke="#555555" d="M596.02,-383.71C596.02,-383.71 784.02,-383.71 784.02,-383.71 790.02,-383.71 796.02,-389.71 796.02,-395.71 796.02,-395.71 796.02,-456.21 796.02,-456.21 796.02,-462.21 790.02,-468.21 784.02,-468.21 784.02,-468.21 596.02,-468.21 596.02,-468.21 590.02,-468.21 584.02,-462.21 584.02,-456.21 584.02,-456.21 584.02,-395.71 584.02,-395.71 584.02,-389.71 590.02,-383.71 596.02,-383.71"/>
<text xml:space="preserve" text-anchor="middle" x="690.02" y="-449.01" font-family="Helvetica,sans-Serif" font-size="16.00">Execution</text>
</g>
<g id="clust5" class="cluster">
<title>cluster_wc3</title>
<path fill="#fff8e1" stroke="#5d4037" d="M824.02,-73.75C824.02,-73.75 1028.02,-73.75 1028.02,-73.75 1034.02,-73.75 1040.02,-79.75 1040.02,-85.75 1040.02,-85.75 1040.02,-334.21 1040.02,-334.21 1040.02,-340.21 1034.02,-346.21 1028.02,-346.21 1028.02,-346.21 824.02,-346.21 824.02,-346.21 818.02,-346.21 812.02,-340.21 812.02,-334.21 812.02,-334.21 812.02,-85.75 812.02,-85.75 812.02,-79.75 818.02,-73.75 824.02,-73.75"/>
<text xml:space="preserve" text-anchor="middle" x="926.02" y="-327.01" font-family="Helvetica,sans-Serif" font-size="16.00">WC3 Records</text>
</g>
<!-- ops -->
<g id="node1" class="node">
<title>ops</title>
<polygon fill="#ffb3b3" stroke="#cc0000" points="263.77,-435.71 204.27,-435.71 204.27,-391.71 263.77,-391.71 263.77,-435.71"/>
<text xml:space="preserve" text-anchor="middle" x="234.02" y="-421.26" font-family="Helvetica,sans-Serif" font-size="11.00">OPS</text>
<text xml:space="preserve" text-anchor="middle" x="234.02" y="-409.26" font-family="Helvetica,sans-Serif" font-size="11.00">(enforce)</text>
<text xml:space="preserve" text-anchor="middle" x="234.02" y="-397.26" font-family="Helvetica,sans-Serif" font-size="11.00">temp 0.1</text>
</g>
<!-- propose -->
<g id="node9" class="node">
<title>propose</title>
<polygon fill="#b3d9ff" stroke="#0066cc" points="682.64,-806.06 601.39,-806.06 601.39,-762.06 682.64,-762.06 682.64,-806.06"/>
<text xml:space="preserve" text-anchor="middle" x="642.02" y="-791.61" font-family="Helvetica,sans-Serif" font-size="11.00">HC Proposes</text>
<text xml:space="preserve" text-anchor="middle" x="642.02" y="-779.61" font-family="Helvetica,sans-Serif" font-size="11.00">Action</text>
<text xml:space="preserve" text-anchor="middle" x="642.02" y="-767.61" font-family="Helvetica,sans-Serif" font-size="11.00">(conf &gt; 0.6)</text>
</g>
<!-- ops&#45;&gt;propose -->
<g id="edge12" class="edge">
<title>ops&#45;&gt;propose</title>
<path fill="none" stroke="black" stroke-dasharray="5,2" d="M243.81,-436.06C250.2,-447.48 259.64,-460.7 272.02,-468.21 294.27,-481.7 309.91,-459.69 330.02,-476.21 379.44,-516.79 337.53,-561.9 377.02,-612.21 434.09,-684.92 531.17,-736.04 590.64,-762.42"/>
<polygon fill="black" stroke="black" points="588.98,-765.52 599.55,-766.3 591.78,-759.1 588.98,-765.52"/>
<text xml:space="preserve" text-anchor="middle" x="418.41" y="-631.16" font-family="Helvetica,sans-Serif" font-size="9.00">violation</text>
<text xml:space="preserve" text-anchor="middle" x="418.41" y="-621.41" font-family="Helvetica,sans-Serif" font-size="9.00">detected</text>
</g>
<!-- leftshoe -->
<g id="node22" class="node">
<title>leftshoe</title>
<polygon fill="#dcedc8" stroke="#558b2f" points="418.32,-303.59 325.02,-330.16 231.71,-303.59 231.8,-260.59 418.23,-260.59 418.32,-303.59"/>
<text xml:space="preserve" text-anchor="middle" x="325.02" y="-299.26" font-family="Helvetica,sans-Serif" font-size="11.00">Leftshoe</text>
<text xml:space="preserve" text-anchor="middle" x="325.02" y="-287.26" font-family="Helvetica,sans-Serif" font-size="11.00">(session start)</text>
<text xml:space="preserve" text-anchor="middle" x="325.02" y="-275.26" font-family="Helvetica,sans-Serif" font-size="11.00">TEAM LEARNING</text>
</g>
<!-- ops&#45;&gt;leftshoe -->
<g id="edge30" class="edge">
<title>ops&#45;&gt;leftshoe</title>
<path fill="none" stroke="black" stroke-dasharray="5,2" d="M250.28,-391.25C262.55,-375.07 279.74,-352.41 294.54,-332.9"/>
<polygon fill="black" stroke="black" points="297.19,-335.19 300.45,-325.11 291.61,-330.96 297.19,-335.19"/>
<text xml:space="preserve" text-anchor="middle" x="297.04" y="-360.28" font-family="Helvetica,sans-Serif" font-size="9.00">standards</text>
</g>
<!-- hc -->
<g id="node2" class="node">
<title>hc</title>
<polygon fill="#b3d9ff" stroke="#0066cc" points="368.64,-435.71 281.39,-435.71 281.39,-391.71 368.64,-391.71 368.64,-435.71"/>
<text xml:space="preserve" text-anchor="middle" x="325.02" y="-421.26" font-family="Helvetica,sans-Serif" font-size="11.00">HC</text>
<text xml:space="preserve" text-anchor="middle" x="325.02" y="-409.26" font-family="Helvetica,sans-Serif" font-size="11.00">(hippocampus)</text>
<text xml:space="preserve" text-anchor="middle" x="325.02" y="-397.26" font-family="Helvetica,sans-Serif" font-size="11.00">temp 0.4</text>
</g>
<!-- consolidation -->
<g id="node8" class="node">
<title>consolidation</title>
<polygon fill="#ffe0b2" stroke="#ff8c00" points="477.02,-601.71 386.02,-557.71 477.02,-513.71 568.02,-557.71 477.02,-601.71"/>
<text xml:space="preserve" text-anchor="middle" x="477.02" y="-565.26" font-family="Helvetica,sans-Serif" font-size="11.00">Nightly HC</text>
<text xml:space="preserve" text-anchor="middle" x="477.02" y="-553.26" font-family="Helvetica,sans-Serif" font-size="11.00">Consolidation</text>
<text xml:space="preserve" text-anchor="middle" x="477.02" y="-541.26" font-family="Helvetica,sans-Serif" font-size="11.00">(memory sleep)</text>
</g>
<!-- hc&#45;&gt;consolidation -->
<g id="edge9" class="edge">
<title>hc&#45;&gt;consolidation</title>
<path fill="none" stroke="black" d="M345.16,-436.16C354.65,-446.08 366.24,-457.92 377.02,-468.21 395.9,-486.23 417.51,-505.51 435.8,-521.47"/>
<polygon fill="black" stroke="black" points="433.5,-524.1 443.35,-528.02 438.09,-518.82 433.5,-524.1"/>
<text xml:space="preserve" text-anchor="middle" x="420.15" y="-482.28" font-family="Helvetica,sans-Serif" font-size="9.00">nightly</text>
</g>
<!-- hc&#45;&gt;propose -->
<g id="edge11" class="edge">
<title>hc&#45;&gt;propose</title>
<path fill="none" stroke="black" d="M310.51,-435.96C301.26,-447.65 288.18,-461.18 273.02,-468.21 249.37,-479.16 180.6,-467.56 156.02,-476.21 141.71,-481.24 142.06,-489.99 128.02,-495.71 82.95,-514.06 51.47,-476.58 20.02,-513.71 -8.28,-547.11 -4.42,-575.88 20.02,-612.21 106.79,-741.2 193.71,-704.35 344.02,-744.06 428.43,-766.36 529.82,-776.17 589.92,-780.29"/>
<polygon fill="black" stroke="black" points="589.66,-783.78 599.87,-780.94 590.12,-776.8 589.66,-783.78"/>
<text xml:space="preserve" text-anchor="middle" x="59.95" y="-626.28" font-family="Helvetica,sans-Serif" font-size="9.00">conf &gt; 0.6</text>
</g>
<!-- hc&#45;&gt;leftshoe -->
<g id="edge29" class="edge">
<title>hc&#45;&gt;leftshoe</title>
<path fill="none" stroke="black" stroke-dasharray="5,2" d="M325.02,-391.25C325.02,-377.43 325.02,-358.87 325.02,-341.58"/>
<polygon fill="black" stroke="black" points="328.52,-341.99 325.02,-331.99 321.52,-341.99 328.52,-341.99"/>
<text xml:space="preserve" text-anchor="middle" x="348.64" y="-360.28" font-family="Helvetica,sans-Serif" font-size="9.00">hypotheses</text>
</g>
<!-- lib -->
<g id="node3" class="node">
<title>lib</title>
<polygon fill="#b3ffb3" stroke="#006600" points="461.64,-435.71 386.39,-435.71 386.39,-391.71 461.64,-391.71 461.64,-435.71"/>
<text xml:space="preserve" text-anchor="middle" x="424.02" y="-421.26" font-family="Helvetica,sans-Serif" font-size="11.00">LIBRARIAN</text>
<text xml:space="preserve" text-anchor="middle" x="424.02" y="-409.26" font-family="Helvetica,sans-Serif" font-size="11.00">(measure)</text>
<text xml:space="preserve" text-anchor="middle" x="424.02" y="-397.26" font-family="Helvetica,sans-Serif" font-size="11.00">temp 0.2</text>
</g>
<!-- lib&#45;&gt;leftshoe -->
<g id="edge28" class="edge">
<title>lib&#45;&gt;leftshoe</title>
<path fill="none" stroke="black" stroke-dasharray="5,2" d="M406.49,-391.29C397.41,-380.21 386.13,-366.47 376.02,-354.21 370.05,-346.98 363.68,-339.28 357.54,-331.87"/>
<polygon fill="black" stroke="black" points="360.51,-329.97 351.44,-324.5 355.12,-334.44 360.51,-329.97"/>
<text xml:space="preserve" text-anchor="middle" x="409.88" y="-365.16" font-family="Helvetica,sans-Serif" font-size="9.00">grades +</text>
<text xml:space="preserve" text-anchor="middle" x="409.88" y="-355.41" font-family="Helvetica,sans-Serif" font-size="9.00">gaps</text>
</g>
<!-- transactions -->
<g id="node4" class="node">
<title>transactions</title>
<path fill="#e8e8e8" stroke="black" d="M104.14,-575.71C104.14,-577.91 87.95,-579.71 68.02,-579.71 48.08,-579.71 31.89,-577.91 31.89,-575.71 31.89,-575.71 31.89,-539.71 31.89,-539.71 31.89,-537.5 48.08,-535.71 68.02,-535.71 87.95,-535.71 104.14,-537.5 104.14,-539.71 104.14,-539.71 104.14,-575.71 104.14,-575.71"/>
<path fill="none" stroke="black" d="M104.14,-575.71C104.14,-573.5 87.95,-571.71 68.02,-571.71 48.08,-571.71 31.89,-573.5 31.89,-575.71"/>
<text xml:space="preserve" text-anchor="middle" x="68.02" y="-559.26" font-family="Helvetica,sans-Serif" font-size="11.00">Transaction</text>
<text xml:space="preserve" text-anchor="middle" x="68.02" y="-547.26" font-family="Helvetica,sans-Serif" font-size="11.00">Stream</text>
</g>
<!-- transactions&#45;&gt;ops -->
<g id="edge1" class="edge">
<title>transactions&#45;&gt;ops</title>
<path fill="none" stroke="black" d="M50.68,-535.23C39,-517.99 27.88,-493.83 40.77,-476.21 75.46,-428.75 147.1,-417.04 192.74,-414.63"/>
<polygon fill="black" stroke="black" points="192.66,-418.14 202.51,-414.25 192.39,-411.14 192.66,-418.14"/>
<text xml:space="preserve" text-anchor="middle" x="56.89" y="-482.28" font-family="Helvetica,sans-Serif" font-size="9.00">validate</text>
</g>
<!-- transactions&#45;&gt;hc -->
<g id="edge5" class="edge">
<title>transactions&#45;&gt;hc</title>
<path fill="none" stroke="black" stroke-dasharray="5,2" d="M87.35,-535.43C94.87,-527.94 103.87,-519.86 113.02,-513.71 129.18,-502.82 136.53,-506.11 153.02,-495.71 164.35,-488.55 163.63,-481.34 176.02,-476.21 215.98,-459.65 233.9,-486.67 273.02,-468.21 284.38,-462.85 294.6,-453.87 302.9,-444.78"/>
<polygon fill="black" stroke="black" points="305.45,-447.18 309.28,-437.3 300.13,-442.64 305.45,-447.18"/>
<text xml:space="preserve" text-anchor="middle" x="186.52" y="-482.28" font-family="Helvetica,sans-Serif" font-size="9.00">learn</text>
</g>
<!-- telemetry -->
<g id="node5" class="node">
<title>telemetry</title>
<path fill="#e8e8e8" stroke="black" d="M330.27,-575.71C330.27,-577.91 316.26,-579.71 299.02,-579.71 281.77,-579.71 267.77,-577.91 267.77,-575.71 267.77,-575.71 267.77,-539.71 267.77,-539.71 267.77,-537.5 281.77,-535.71 299.02,-535.71 316.26,-535.71 330.27,-537.5 330.27,-539.71 330.27,-539.71 330.27,-575.71 330.27,-575.71"/>
<path fill="none" stroke="black" d="M330.27,-575.71C330.27,-573.5 316.26,-571.71 299.02,-571.71 281.77,-571.71 267.77,-573.5 267.77,-575.71"/>
<text xml:space="preserve" text-anchor="middle" x="299.02" y="-559.26" font-family="Helvetica,sans-Serif" font-size="11.00">Vehicle</text>
<text xml:space="preserve" text-anchor="middle" x="299.02" y="-547.26" font-family="Helvetica,sans-Serif" font-size="11.00">Telemetry</text>
</g>
<!-- telemetry&#45;&gt;ops -->
<g id="edge2" class="edge">
<title>telemetry&#45;&gt;ops</title>
<path fill="none" stroke="black" d="M299.94,-535.44C299.67,-518.1 296.87,-493.7 285.02,-476.21 281.21,-470.59 276.97,-472.84 272.02,-468.21 264.92,-461.57 258.33,-453.41 252.71,-445.48"/>
<polygon fill="black" stroke="black" points="255.68,-443.64 247.19,-437.31 249.88,-447.55 255.68,-443.64"/>
<text xml:space="preserve" text-anchor="middle" x="309.74" y="-482.28" font-family="Helvetica,sans-Serif" font-size="9.00">validate</text>
</g>
<!-- telemetry&#45;&gt;hc -->
<g id="edge6" class="edge">
<title>telemetry&#45;&gt;hc</title>
<path fill="none" stroke="black" stroke-dasharray="5,2" d="M319.23,-535.7C328.4,-524.71 338.24,-510.49 343.02,-495.71 348.18,-479.71 344.9,-461.47 339.8,-446.35"/>
<polygon fill="black" stroke="black" points="343.22,-445.5 336.39,-437.39 336.67,-447.98 343.22,-445.5"/>
<text xml:space="preserve" text-anchor="middle" x="356.12" y="-482.28" font-family="Helvetica,sans-Serif" font-size="9.00">learn</text>
</g>
<!-- network_state -->
<g id="node6" class="node">
<title>network_state</title>
<path fill="#e8e8e8" stroke="black" d="M178.27,-575.71C178.27,-577.91 165.6,-579.71 150.02,-579.71 134.43,-579.71 121.77,-577.91 121.77,-575.71 121.77,-575.71 121.77,-539.71 121.77,-539.71 121.77,-537.5 134.43,-535.71 150.02,-535.71 165.6,-535.71 178.27,-537.5 178.27,-539.71 178.27,-539.71 178.27,-575.71 178.27,-575.71"/>
<path fill="none" stroke="black" d="M178.27,-575.71C178.27,-573.5 165.6,-571.71 150.02,-571.71 134.43,-571.71 121.77,-573.5 121.77,-575.71"/>
<text xml:space="preserve" text-anchor="middle" x="150.02" y="-559.26" font-family="Helvetica,sans-Serif" font-size="11.00">Network</text>
<text xml:space="preserve" text-anchor="middle" x="150.02" y="-547.26" font-family="Helvetica,sans-Serif" font-size="11.00">State</text>
</g>
<!-- network_state&#45;&gt;ops -->
<g id="edge3" class="edge">
<title>network_state&#45;&gt;ops</title>
<path fill="none" stroke="black" d="M134.4,-535.64C128.25,-528.18 120.8,-520.06 113.02,-513.71 100.3,-503.33 89.08,-509.86 80.77,-495.71 76.38,-488.23 75.91,-483.39 80.77,-476.21 105.62,-439.46 156.42,-424.66 192.72,-418.71"/>
<polygon fill="black" stroke="black" points="193.06,-422.2 202.45,-417.29 192.05,-415.27 193.06,-422.2"/>
<text xml:space="preserve" text-anchor="middle" x="96.89" y="-482.28" font-family="Helvetica,sans-Serif" font-size="9.00">validate</text>
</g>
<!-- network_state&#45;&gt;hc -->
<g id="edge7" class="edge">
<title>network_state&#45;&gt;hc</title>
<path fill="none" stroke="black" stroke-dasharray="5,2" d="M167.91,-535.56C173.92,-528.56 180.71,-520.75 187.02,-513.71 202.23,-496.73 201.88,-486.89 222.02,-476.21 242.28,-465.46 252.64,-478.75 273.02,-468.21 284.09,-462.48 294.18,-453.49 302.47,-444.51"/>
<polygon fill="black" stroke="black" points="304.95,-447 308.85,-437.15 299.66,-442.42 304.95,-447"/>
<text xml:space="preserve" text-anchor="middle" x="232.52" y="-482.28" font-family="Helvetica,sans-Serif" font-size="9.00">learn</text>
</g>
<!-- station_data -->
<g id="node7" class="node">
<title>station_data</title>
<path fill="#e8e8e8" stroke="black" d="M250.02,-575.71C250.02,-577.91 237.91,-579.71 223.02,-579.71 208.12,-579.71 196.02,-577.91 196.02,-575.71 196.02,-575.71 196.02,-539.71 196.02,-539.71 196.02,-537.5 208.12,-535.71 223.02,-535.71 237.91,-535.71 250.02,-537.5 250.02,-539.71 250.02,-539.71 250.02,-575.71 250.02,-575.71"/>
<path fill="none" stroke="black" d="M250.02,-575.71C250.02,-573.5 237.91,-571.71 223.02,-571.71 208.12,-571.71 196.02,-573.5 196.02,-575.71"/>
<text xml:space="preserve" text-anchor="middle" x="223.02" y="-559.26" font-family="Helvetica,sans-Serif" font-size="11.00">Station</text>
<text xml:space="preserve" text-anchor="middle" x="223.02" y="-547.26" font-family="Helvetica,sans-Serif" font-size="11.00">Data</text>
</g>
<!-- station_data&#45;&gt;ops -->
<g id="edge4" class="edge">
<title>station_data&#45;&gt;ops</title>
<path fill="none" stroke="black" d="M209.37,-535.45C203.37,-527.6 195.71,-519.27 187.02,-513.71 161.32,-497.25 139.3,-519.95 120.77,-495.71 115.5,-488.82 116.33,-483.66 120.77,-476.21 136.38,-449.96 167.54,-434.22 193.23,-425.24"/>
<polygon fill="black" stroke="black" points="193.97,-428.68 202.4,-422.26 191.81,-422.02 193.97,-428.68"/>
<text xml:space="preserve" text-anchor="middle" x="136.89" y="-482.28" font-family="Helvetica,sans-Serif" font-size="9.00">validate</text>
</g>
<!-- station_data&#45;&gt;hc -->
<g id="edge8" class="edge">
<title>station_data&#45;&gt;hc</title>
<path fill="none" stroke="black" stroke-dasharray="5,2" d="M229.04,-535.26C234.78,-517.82 244.82,-493.36 260.02,-476.21 264.51,-471.13 267.72,-472.45 273.02,-468.21 281.94,-461.05 290.9,-452.47 298.8,-444.29"/>
<polygon fill="black" stroke="black" points="301.27,-446.77 305.57,-437.09 296.17,-441.98 301.27,-446.77"/>
<text xml:space="preserve" text-anchor="middle" x="270.52" y="-482.28" font-family="Helvetica,sans-Serif" font-size="9.00">learn</text>
</g>
<!-- consolidation&#45;&gt;hc -->
<g id="edge10" class="edge">
<title>consolidation&#45;&gt;hc</title>
<path fill="none" stroke="black" stroke-dasharray="5,2" d="M467.11,-518.19C461.18,-502.77 451.99,-486.29 438.02,-476.21 415.84,-460.21 401.46,-480.47 377.02,-468.21 365.87,-462.62 355.76,-453.67 347.48,-444.68"/>
<polygon fill="black" stroke="black" points="350.29,-442.58 341.11,-437.3 344.99,-447.16 350.29,-442.58"/>
<text xml:space="preserve" text-anchor="middle" x="475.29" y="-487.16" font-family="Helvetica,sans-Serif" font-size="9.00">long&#45;term</text>
<text xml:space="preserve" text-anchor="middle" x="475.29" y="-477.41" font-family="Helvetica,sans-Serif" font-size="9.00">memory</text>
</g>
<!-- review -->
<g id="node10" class="node">
<title>review</title>
<polygon fill="#ffeb3b" stroke="#f9a825" points="735.98,-677.43 735.98,-705.33 691.48,-725.06 628.55,-725.06 584.05,-705.33 584.05,-677.43 628.55,-657.71 691.48,-657.71 735.98,-677.43"/>
<text xml:space="preserve" text-anchor="middle" x="660.02" y="-698.93" font-family="Helvetica,sans-Serif" font-size="11.00">Sprint Review</text>
<text xml:space="preserve" text-anchor="middle" x="660.02" y="-686.93" font-family="Helvetica,sans-Serif" font-size="11.00">(Wednesday)</text>
<text xml:space="preserve" text-anchor="middle" x="660.02" y="-674.93" font-family="Helvetica,sans-Serif" font-size="11.00">Human Approves</text>
</g>
<!-- propose&#45;&gt;review -->
<g id="edge14" class="edge">
<title>propose&#45;&gt;review</title>
<path fill="none" stroke="black" d="M646.28,-761.57C647.77,-754.07 649.5,-745.35 651.22,-736.68"/>
<polygon fill="black" stroke="black" points="654.65,-737.4 653.16,-726.91 647.78,-736.03 654.65,-737.4"/>
</g>
<!-- action_record -->
<g id="node17" class="node">
<title>action_record</title>
<polygon fill="#fff9c4" stroke="black" points="1015.89,-203.5 930.14,-203.5 930.14,-167.5 1021.89,-167.5 1021.89,-197.5 1015.89,-203.5"/>
<polyline fill="none" stroke="black" points="1015.89,-203.5 1015.89,-197.5"/>
<polyline fill="none" stroke="black" points="1021.89,-197.5 1015.89,-197.5"/>
<text xml:space="preserve" text-anchor="middle" x="976.02" y="-187.05" font-family="Helvetica,sans-Serif" font-size="11.00">Action Record</text>
<text xml:space="preserve" text-anchor="middle" x="976.02" y="-175.05" font-family="Helvetica,sans-Serif" font-size="11.00">(action JSONB)</text>
</g>
<!-- propose&#45;&gt;action_record -->
<g id="edge13" class="edge">
<title>propose&#45;&gt;action_record</title>
<path fill="none" stroke="black" d="M682.86,-782.8C788.04,-781.03 1060.02,-769.05 1060.02,-692.38 1060.02,-692.38 1060.02,-692.38 1060.02,-290.71 1060.02,-258.81 1050.28,-250.14 1030.02,-225.5 1025.58,-220.11 1020.23,-215.09 1014.65,-210.57"/>
<polygon fill="black" stroke="black" points="1017.09,-208.02 1006.99,-204.8 1012.88,-213.61 1017.09,-208.02"/>
<text xml:space="preserve" text-anchor="middle" x="1072.77" y="-482.28" font-family="Helvetica,sans-Serif" font-size="9.00">create</text>
</g>
<!-- approved -->
<g id="node11" class="node">
<title>approved</title>
<polygon fill="#c8e6c9" stroke="#2e7d32" points="744.27,-575.71 681.77,-575.71 681.77,-539.71 744.27,-539.71 744.27,-575.71"/>
<text xml:space="preserve" text-anchor="middle" x="713.02" y="-559.26" font-family="Helvetica,sans-Serif" font-size="11.00">Approved</text>
<text xml:space="preserve" text-anchor="middle" x="713.02" y="-547.26" font-family="Helvetica,sans-Serif" font-size="11.00">Action</text>
</g>
<!-- review&#45;&gt;approved -->
<g id="edge15" class="edge">
<title>review&#45;&gt;approved</title>
<path fill="none" stroke="black" d="M673.25,-657.5C682.05,-635.64 693.47,-607.27 701.82,-586.53"/>
<polygon fill="black" stroke="black" points="705.05,-587.88 705.53,-577.3 698.55,-585.27 705.05,-587.88"/>
<text xml:space="preserve" text-anchor="middle" x="704.98" y="-626.28" font-family="Helvetica,sans-Serif" font-size="9.00">approve</text>
</g>
<!-- rejected -->
<g id="node12" class="node">
<title>rejected</title>
<polygon fill="#ffcdd2" stroke="#c62828" stroke-dasharray="5,2" points="663.77,-575.71 586.27,-575.71 586.27,-539.71 663.77,-539.71 663.77,-575.71"/>
<text xml:space="preserve" text-anchor="middle" x="625.02" y="-559.26" font-family="Helvetica,sans-Serif" font-size="11.00">Rejected</text>
<text xml:space="preserve" text-anchor="middle" x="625.02" y="-547.26" font-family="Helvetica,sans-Serif" font-size="11.00">(back to HC)</text>
</g>
<!-- review&#45;&gt;rejected -->
<g id="edge16" class="edge">
<title>review&#45;&gt;rejected</title>
<path fill="none" stroke="black" d="M651.27,-657.5C645.49,-635.74 637.99,-607.53 632.49,-586.82"/>
<polygon fill="black" stroke="black" points="635.92,-586.12 629.97,-577.36 629.16,-587.92 635.92,-586.12"/>
<text xml:space="preserve" text-anchor="middle" x="656.9" y="-626.28" font-family="Helvetica,sans-Serif" font-size="9.00">reject</text>
</g>
<!-- local_exec -->
<g id="node13" class="node">
<title>local_exec</title>
<polygon fill="#e8e8e8" stroke="black" points="665.52,-435.71 592.52,-435.71 592.52,-391.71 665.52,-391.71 665.52,-435.71"/>
<text xml:space="preserve" text-anchor="middle" x="629.02" y="-421.26" font-family="Helvetica,sans-Serif" font-size="11.00">Local Agent</text>
<text xml:space="preserve" text-anchor="middle" x="629.02" y="-409.26" font-family="Helvetica,sans-Serif" font-size="11.00">Execution</text>
<text xml:space="preserve" text-anchor="middle" x="629.02" y="-397.26" font-family="Helvetica,sans-Serif" font-size="11.00">(ops model)</text>
</g>
<!-- approved&#45;&gt;local_exec -->
<g id="edge18" class="edge">
<title>approved&#45;&gt;local_exec</title>
<path fill="none" stroke="black" d="M702.72,-539.3C688.92,-515.98 664.22,-474.22 647.24,-445.52"/>
<polygon fill="black" stroke="black" points="650.47,-444.09 642.36,-437.27 644.44,-447.66 650.47,-444.09"/>
<text xml:space="preserve" text-anchor="middle" x="696.29" y="-487.16" font-family="Helvetica,sans-Serif" font-size="9.00">agent can</text>
<text xml:space="preserve" text-anchor="middle" x="696.29" y="-477.41" font-family="Helvetica,sans-Serif" font-size="9.00">handle</text>
</g>
<!-- claude_escalation -->
<g id="node14" class="node">
<title>claude_escalation</title>
<polygon fill="#e1bee7" stroke="#7b1fa2" points="788.27,-435.71 683.77,-435.71 683.77,-391.71 788.27,-391.71 788.27,-435.71"/>
<text xml:space="preserve" text-anchor="middle" x="736.02" y="-421.26" font-family="Helvetica,sans-Serif" font-size="11.00">Claude API</text>
<text xml:space="preserve" text-anchor="middle" x="736.02" y="-409.26" font-family="Helvetica,sans-Serif" font-size="11.00">Escalation</text>
<text xml:space="preserve" text-anchor="middle" x="736.02" y="-397.26" font-family="Helvetica,sans-Serif" font-size="11.00">(Connection rules)</text>
</g>
<!-- approved&#45;&gt;claude_escalation -->
<g id="edge19" class="edge">
<title>approved&#45;&gt;claude_escalation</title>
<path fill="none" stroke="black" d="M715.84,-539.3C719.55,-516.38 726.14,-475.67 730.78,-447.04"/>
<polygon fill="black" stroke="black" points="734.19,-447.89 732.33,-437.46 727.28,-446.77 734.19,-447.89"/>
<text xml:space="preserve" text-anchor="middle" x="746.89" y="-487.16" font-family="Helvetica,sans-Serif" font-size="9.00">needs</text>
<text xml:space="preserve" text-anchor="middle" x="746.89" y="-477.41" font-family="Helvetica,sans-Serif" font-size="9.00">escalation</text>
</g>
<!-- rejected&#45;&gt;hc -->
<g id="edge17" class="edge">
<title>rejected&#45;&gt;hc</title>
<path fill="none" stroke="black" stroke-dasharray="5,2" d="M608.22,-539.51C599.42,-531.08 588.18,-521.17 577.02,-513.71 545.04,-492.33 536.22,-485.98 499.02,-476.21 472.74,-469.31 401.68,-479.6 377.02,-468.21 365.52,-462.9 355.22,-453.84 346.88,-444.68"/>
<polygon fill="black" stroke="black" points="349.62,-442.5 340.49,-437.13 344.28,-447.02 349.62,-442.5"/>
<text xml:space="preserve" text-anchor="middle" x="570.83" y="-482.28" font-family="Helvetica,sans-Serif" font-size="9.00">reconsider</text>
</g>
<!-- complete -->
<g id="node15" class="node">
<title>complete</title>
<polygon fill="#c8e6c9" stroke="#2e7d32" points="670.39,-309.71 587.64,-309.71 587.64,-273.71 670.39,-273.71 670.39,-309.71"/>
<text xml:space="preserve" text-anchor="middle" x="629.02" y="-293.26" font-family="Helvetica,sans-Serif" font-size="11.00">Complete</text>
<text xml:space="preserve" text-anchor="middle" x="629.02" y="-281.26" font-family="Helvetica,sans-Serif" font-size="11.00">(result stored)</text>
</g>
<!-- local_exec&#45;&gt;complete -->
<g id="edge21" class="edge">
<title>local_exec&#45;&gt;complete</title>
<path fill="none" stroke="black" d="M629.02,-391.25C629.02,-371.78 629.02,-342.9 629.02,-321.44"/>
<polygon fill="black" stroke="black" points="632.52,-321.6 629.02,-311.6 625.52,-321.6 632.52,-321.6"/>
</g>
<!-- claude_escalation&#45;&gt;complete -->
<g id="edge22" class="edge">
<title>claude_escalation&#45;&gt;complete</title>
<path fill="none" stroke="black" d="M716.89,-391.25C698.71,-370.87 671.36,-340.2 652.01,-318.49"/>
<polygon fill="black" stroke="black" points="654.78,-316.35 645.52,-311.21 649.56,-321.01 654.78,-316.35"/>
</g>
<!-- connection_record -->
<g id="node19" class="node">
<title>connection_record</title>
<polygon fill="#fff9c4" stroke="black" points="896.02,-313.71 820.02,-313.71 820.02,-269.71 902.02,-269.71 902.02,-307.71 896.02,-313.71"/>
<polyline fill="none" stroke="black" points="896.02,-313.71 896.02,-307.71"/>
<polyline fill="none" stroke="black" points="902.02,-307.71 896.02,-307.71"/>
<text xml:space="preserve" text-anchor="middle" x="861.02" y="-299.26" font-family="Helvetica,sans-Serif" font-size="11.00">Connection</text>
<text xml:space="preserve" text-anchor="middle" x="861.02" y="-287.26" font-family="Helvetica,sans-Serif" font-size="11.00">(Claude API</text>
<text xml:space="preserve" text-anchor="middle" x="861.02" y="-275.26" font-family="Helvetica,sans-Serif" font-size="11.00">rules + creds)</text>
</g>
<!-- claude_escalation&#45;&gt;connection_record -->
<g id="edge20" class="edge">
<title>claude_escalation&#45;&gt;connection_record</title>
<path fill="none" stroke="black" stroke-dasharray="1,5" d="M767.42,-391.28C774.75,-385.83 782.35,-379.79 789.02,-373.71 806.26,-357.98 823.7,-338.48 837.09,-322.56"/>
<polygon fill="black" stroke="black" points="839.43,-325.22 843.12,-315.29 834.04,-320.75 839.43,-325.22"/>
<text xml:space="preserve" text-anchor="middle" x="819.35" y="-365.16" font-family="Helvetica,sans-Serif" font-size="9.00">rules</text>
<text xml:space="preserve" text-anchor="middle" x="819.35" y="-355.41" font-family="Helvetica,sans-Serif" font-size="9.00">creds</text>
</g>
<!-- measure -->
<g id="node16" class="node">
<title>measure</title>
<polygon fill="#b3ffb3" stroke="#006600" points="659.77,-207.5 588.27,-207.5 588.27,-163.5 659.77,-163.5 659.77,-207.5"/>
<text xml:space="preserve" text-anchor="middle" x="624.02" y="-193.05" font-family="Helvetica,sans-Serif" font-size="11.00">Librarian</text>
<text xml:space="preserve" text-anchor="middle" x="624.02" y="-181.05" font-family="Helvetica,sans-Serif" font-size="11.00">Measures</text>
<text xml:space="preserve" text-anchor="middle" x="624.02" y="-169.05" font-family="Helvetica,sans-Serif" font-size="11.00">Grades A&#45;F</text>
</g>
<!-- complete&#45;&gt;measure -->
<g id="edge23" class="edge">
<title>complete&#45;&gt;measure</title>
<path fill="none" stroke="black" d="M628.19,-273.5C627.48,-258.77 626.45,-237.17 625.58,-219.17"/>
<polygon fill="black" stroke="black" points="629.08,-219.03 625.11,-209.21 622.09,-219.37 629.08,-219.03"/>
</g>
<!-- measure&#45;&gt;lib -->
<g id="edge24" class="edge">
<title>measure&#45;&gt;lib</title>
<path fill="none" stroke="black" d="M600.09,-207.71C586.08,-220.48 568.3,-237.3 553.52,-253.25 513.8,-296.1 471.88,-349.41 446.84,-382.24"/>
<polygon fill="black" stroke="black" points="444.11,-380.05 440.86,-390.13 449.69,-384.28 444.11,-380.05"/>
<text xml:space="preserve" text-anchor="middle" x="566.27" y="-292.91" font-family="Helvetica,sans-Serif" font-size="9.00">grade</text>
<text xml:space="preserve" text-anchor="middle" x="566.27" y="-283.16" font-family="Helvetica,sans-Serif" font-size="9.00">stored</text>
</g>
<!-- project_record -->
<g id="node18" class="node">
<title>project_record</title>
<polygon fill="#fff9c4" stroke="black" points="1011.39,-117.75 934.64,-117.75 934.64,-81.75 1017.39,-81.75 1017.39,-111.75 1011.39,-117.75"/>
<polyline fill="none" stroke="black" points="1011.39,-117.75 1011.39,-111.75"/>
<polyline fill="none" stroke="black" points="1017.39,-111.75 1011.39,-111.75"/>
<text xml:space="preserve" text-anchor="middle" x="976.02" y="-101.3" font-family="Helvetica,sans-Serif" font-size="11.00">Sprint Project</text>
<text xml:space="preserve" text-anchor="middle" x="976.02" y="-89.3" font-family="Helvetica,sans-Serif" font-size="11.00">(agent_sprint)</text>
</g>
<!-- action_record&#45;&gt;project_record -->
<g id="edge25" class="edge">
<title>action_record&#45;&gt;project_record</title>
<path fill="none" stroke="black" stroke-dasharray="1,5" d="M976.02,-167.15C976.02,-156.25 976.02,-141.94 976.02,-129.4"/>
<polygon fill="black" stroke="black" points="979.52,-129.59 976.02,-119.59 972.52,-129.59 979.52,-129.59"/>
<text xml:space="preserve" text-anchor="middle" x="1004.14" y="-136.95" font-family="Helvetica,sans-Serif" font-size="9.00">project_name</text>
</g>
<!-- gantt -->
<g id="node21" class="node">
<title>gantt</title>
<polygon fill="#bbdefb" stroke="#1565c0" points="1010.64,-36 953.39,-36 953.39,-40 941.39,-40 941.39,0 1010.64,0 1010.64,-36"/>
<polyline fill="none" stroke="#1565c0" points="941.39,-36 953.39,-36"/>
<text xml:space="preserve" text-anchor="middle" x="976.02" y="-19.55" font-family="Helvetica,sans-Serif" font-size="11.00">Gantt View</text>
<text xml:space="preserve" text-anchor="middle" x="976.02" y="-7.55" font-family="Helvetica,sans-Serif" font-size="11.00">(all sprints)</text>
</g>
<!-- project_record&#45;&gt;gantt -->
<g id="edge27" class="edge">
<title>project_record&#45;&gt;gantt</title>
<path fill="none" stroke="black" d="M976.02,-81.45C976.02,-71.52 976.02,-58.81 976.02,-47.45"/>
<polygon fill="black" stroke="black" points="979.52,-47.78 976.02,-37.78 972.52,-47.78 979.52,-47.78"/>
<text xml:space="preserve" text-anchor="middle" x="997.02" y="-55.2" font-family="Helvetica,sans-Serif" font-size="9.00">aggregate</text>
</g>
<!-- contact_records -->
<g id="node20" class="node">
<title>contact_records</title>
<polygon fill="#fff9c4" stroke="black" points="1026.39,-313.71 919.64,-313.71 919.64,-269.71 1032.39,-269.71 1032.39,-307.71 1026.39,-313.71"/>
<polyline fill="none" stroke="black" points="1026.39,-313.71 1026.39,-307.71"/>
<polyline fill="none" stroke="black" points="1032.39,-307.71 1026.39,-307.71"/>
<text xml:space="preserve" text-anchor="middle" x="976.02" y="-299.26" font-family="Helvetica,sans-Serif" font-size="11.00">Agent Contacts</text>
<text xml:space="preserve" text-anchor="middle" x="976.02" y="-287.26" font-family="Helvetica,sans-Serif" font-size="11.00">(Alice, Allie, Noelle</text>
<text xml:space="preserve" text-anchor="middle" x="976.02" y="-275.26" font-family="Helvetica,sans-Serif" font-size="11.00">Natalie, Nora, Sally)</text>
</g>
<!-- contact_records&#45;&gt;action_record -->
<g id="edge26" class="edge">
<title>contact_records&#45;&gt;action_record</title>
<path fill="none" stroke="black" stroke-dasharray="1,5" d="M976.02,-269.37C976.02,-253.6 976.02,-231.96 976.02,-214.76"/>
<polygon fill="black" stroke="black" points="979.52,-215.19 976.02,-205.19 972.52,-215.19 979.52,-215.19"/>
<text xml:space="preserve" text-anchor="middle" x="1001.14" y="-226.7" font-family="Helvetica,sans-Serif" font-size="9.00">assigned_to</text>
</g>
</g>
</svg>
