<?xml version="1.0" encoding="UTF-8" standalone="no"?>
<!DOCTYPE svg PUBLIC "-//W3C//DTD SVG 1.1//EN"
 "http://www.w3.org/Graphics/SVG/1.1/DTD/svg11.dtd">
<!-- Generated by graphviz version 15.1.1 (20260805.0921)
 -->
<!-- Title: wc3_serial_tracking Pages: 1 -->
<svg width="516pt" height="720pt"
 viewBox="0.00 0.00 516.00 720.00" xmlns="http://www.w3.org/2000/svg" xmlns:xlink="http://www.w3.org/1999/xlink">
<g id="graph0" class="graph" transform="scale(0.812091 0.812091) rotate(0) translate(28.8 857.8)">
<title>wc3_serial_tracking</title>
<polygon fill="white" stroke="none" points="-28.8,28.8 -28.8,-857.8 606.3,-857.8 606.3,28.8 -28.8,28.8"/>
<text xml:space="preserve" text-anchor="middle" x="288.75" y="-813.6" font-family="Helvetica Neue,Helvetica,Arial,sans-serif" font-size="12.00">WC3 — Serial Number Tracking</text>
<text xml:space="preserve" text-anchor="middle" x="288.75" y="-798.6" font-family="Helvetica Neue,Helvetica,Arial,sans-serif" font-size="12.00">(wc2: ItemSerials → wc3: Serial + SerialLog)</text>
<!-- customer -->
<g id="node1" class="node">
<title>customer</title>
<path fill="#f4d03f" stroke="#555555" stroke-width="1.2" d="M354.75,-791C354.75,-791 267.5,-791 267.5,-791 261.5,-791 255.5,-785 255.5,-779 255.5,-779 255.5,-767 255.5,-767 255.5,-761 261.5,-755 267.5,-755 267.5,-755 354.75,-755 354.75,-755 360.75,-755 366.75,-761 366.75,-767 366.75,-767 366.75,-779 366.75,-779 366.75,-785 360.75,-791 354.75,-791"/>
<text xml:space="preserve" text-anchor="middle" x="311.12" y="-775.5" font-family="Helvetica Neue,Helvetica,Arial,sans-serif" font-size="10.00">Customer</text>
<text xml:space="preserve" text-anchor="middle" x="311.12" y="-763.5" font-family="Helvetica Neue,Helvetica,Arial,sans-serif" font-size="10.00">(Contact + Customer)</text>
</g>
<!-- orders -->
<g id="node2" class="node">
<title>orders</title>
<g id="a_node2"><a xlink:href="vscode://file/Users/williamjames/Documents/CommerceExpert/webClerk3/apps/transactions/models/order.py" xlink:title="Sales orders — customer commitments.&#10;Model: apps/transactions/models/order.py" target="_blank">
<path fill="#abebc6" stroke="#555555" stroke-width="1.2" d="M196.12,-710C196.12,-710 166.12,-710 166.12,-710 160.12,-710 154.12,-704 154.12,-698 154.12,-698 154.12,-686 154.12,-686 154.12,-680 160.12,-674 166.12,-674 166.12,-674 196.12,-674 196.12,-674 202.12,-674 208.12,-680 208.12,-686 208.12,-686 208.12,-698 208.12,-698 208.12,-704 202.12,-710 196.12,-710"/>
<text xml:space="preserve" text-anchor="middle" x="181.12" y="-694.5" font-family="Helvetica Neue,Helvetica,Arial,sans-serif" font-size="10.00">Orders</text>
<text xml:space="preserve" text-anchor="middle" x="181.12" y="-682.5" font-family="Helvetica Neue,Helvetica,Arial,sans-serif" font-size="10.00">(SOs)</text>
</a>
</g>
</g>
<!-- customer&#45;&gt;orders -->
<g id="edge1" class="edge">
<title>customer&#45;&gt;orders</title>
<path fill="none" stroke="#666666" stroke-width="2" d="M282.27,-754.47C264.83,-743.87 242.31,-730.18 222.94,-718.41"/>
<polygon fill="#666666" stroke="#666666" stroke-width="2" points="225.66,-714.33 211.15,-711.24 220.57,-722.7 225.66,-714.33"/>
</g>
<!-- invoices -->
<g id="node3" class="node">
<title>invoices</title>
<g id="a_node3"><a xlink:href="vscode://file/Users/williamjames/Documents/CommerceExpert/webClerk3/apps/transactions/models/invoice.py" xlink:title="Invoices — shipment and financial events.&#10;Model: apps/transactions/models/invoice.py" target="_blank">
<path fill="#f5b7b1" stroke="#555555" stroke-width="1.2" d="M259.12,-594C259.12,-594 229.12,-594 229.12,-594 223.12,-594 217.12,-588 217.12,-582 217.12,-582 217.12,-570 217.12,-570 217.12,-564 223.12,-558 229.12,-558 229.12,-558 259.12,-558 259.12,-558 265.12,-558 271.12,-564 271.12,-570 271.12,-570 271.12,-582 271.12,-582 271.12,-588 265.12,-594 259.12,-594"/>
<text xml:space="preserve" text-anchor="middle" x="244.12" y="-572.5" font-family="Helvetica Neue,Helvetica,Arial,sans-serif" font-size="10.00">Invoices</text>
</a>
</g>
</g>
<!-- customer&#45;&gt;invoices -->
<g id="edge2" class="edge">
<title>customer&#45;&gt;invoices</title>
<path fill="none" stroke="#666666" stroke-width="2" d="M305.18,-754.7C294.08,-722.4 270.04,-652.43 255.66,-610.57"/>
<polygon fill="#666666" stroke="#666666" stroke-width="2" points="260.32,-609.06 251.14,-597.41 251.05,-612.24 260.32,-609.06"/>
</g>
<!-- purchases -->
<g id="node4" class="node">
<title>purchases</title>
<g id="a_node4"><a xlink:href="vscode://file/Users/williamjames/Documents/CommerceExpert/webClerk3/apps/transactions/models/purchase.py" xlink:title="Purchase orders to vendors.&#10;Model: apps/transactions/models/purchase.py" target="_blank">
<path fill="#aed6f1" stroke="#555555" stroke-width="1.2" d="M379.75,-710C379.75,-710 346.5,-710 346.5,-710 340.5,-710 334.5,-704 334.5,-698 334.5,-698 334.5,-686 334.5,-686 334.5,-680 340.5,-674 346.5,-674 346.5,-674 379.75,-674 379.75,-674 385.75,-674 391.75,-680 391.75,-686 391.75,-686 391.75,-698 391.75,-698 391.75,-704 385.75,-710 379.75,-710"/>
<text xml:space="preserve" text-anchor="middle" x="363.12" y="-694.5" font-family="Helvetica Neue,Helvetica,Arial,sans-serif" font-size="10.00">Purchase</text>
<text xml:space="preserve" text-anchor="middle" x="363.12" y="-682.5" font-family="Helvetica Neue,Helvetica,Arial,sans-serif" font-size="10.00">Orders</text>
</a>
</g>
</g>
<!-- customer&#45;&gt;purchases -->
<g id="edge4" class="edge">
<title>customer&#45;&gt;purchases</title>
<path fill="none" stroke="#666666" stroke-width="2" stroke-dasharray="5,2" d="M322.67,-754.47C328.46,-745.67 335.65,-734.74 342.36,-724.55"/>
<polygon fill="#666666" stroke="#666666" stroke-width="2" points="346.35,-727.4 349.95,-713.01 338.16,-722.01 346.35,-727.4"/>
</g>
<!-- orders&#45;&gt;invoices -->
<g id="edge3" class="edge">
<title>orders&#45;&gt;invoices</title>
<path fill="none" stroke="#666666" stroke-width="2" stroke-dasharray="5,2" d="M175.04,-673.68C170.52,-657.62 166.72,-633.63 176.88,-616 182.56,-606.14 191.79,-598.54 201.63,-592.79"/>
<polygon fill="#666666" stroke="#666666" stroke-width="2" points="203.5,-597.32 213.91,-586.75 199.18,-588.53 203.5,-597.32"/>
<text xml:space="preserve" text-anchor="middle" x="214" y="-630.5" font-family="Helvetica Neue,Helvetica,Arial,sans-serif" font-size="10.00" fill="#444444">order_to_invoice</text>
</g>
<!-- order_line -->
<g id="node5" class="node">
<title>order_line</title>
<g id="a_node5"><a xlink:href="vscode://file/Users/williamjames/Documents/CommerceExpert/webClerk3/apps/transactions/models/line.py" xlink:title="Order line — quantity.placed, actioned, remaining, canceled.&#10;Model: apps/transactions/models/line.py" target="_blank">
<path fill="#d5f5e3" stroke="#555555" stroke-width="1.2" d="M137,-482.25C137,-482.25 105.25,-482.25 105.25,-482.25 99.25,-482.25 93.25,-476.25 93.25,-470.25 93.25,-470.25 93.25,-458.25 93.25,-458.25 93.25,-452.25 99.25,-446.25 105.25,-446.25 105.25,-446.25 137,-446.25 137,-446.25 143,-446.25 149,-452.25 149,-458.25 149,-458.25 149,-470.25 149,-470.25 149,-476.25 143,-482.25 137,-482.25"/>
<text xml:space="preserve" text-anchor="middle" x="121.12" y="-466.95" font-family="Helvetica Neue,Helvetica,Arial,sans-serif" font-size="9.00">OrderLine</text>
<text xml:space="preserve" text-anchor="middle" x="121.12" y="-455.7" font-family="Helvetica Neue,Helvetica,Arial,sans-serif" font-size="9.00">quantity</text>
</a>
</g>
</g>
<!-- orders&#45;&gt;order_line -->
<g id="edge5" class="edge">
<title>orders&#45;&gt;order_line</title>
<path fill="none" stroke="#666666" stroke-width="2" d="M170.95,-673.58C167.44,-666.99 163.73,-659.31 161.12,-652 142.7,-600.32 131.38,-537.42 125.68,-499.4"/>
<polygon fill="#666666" stroke="#666666" stroke-width="2" points="130.55,-498.83 123.72,-485.66 120.85,-500.21 130.55,-498.83"/>
</g>
<!-- invoice_line -->
<g id="node6" class="node">
<title>invoice_line</title>
<g id="a_node6"><a xlink:href="vscode://file/Users/williamjames/Documents/CommerceExpert/webClerk3/apps/transactions/models/line.py" xlink:title="Invoice line — quantity.placed, actioned, remaining, canceled, parent.&#10;Model: apps/transactions/models/line.py" target="_blank">
<path fill="#fadbd8" stroke="#555555" stroke-width="1.2" d="M263,-482.25C263,-482.25 225.25,-482.25 225.25,-482.25 219.25,-482.25 213.25,-476.25 213.25,-470.25 213.25,-470.25 213.25,-458.25 213.25,-458.25 213.25,-452.25 219.25,-446.25 225.25,-446.25 225.25,-446.25 263,-446.25 263,-446.25 269,-446.25 275,-452.25 275,-458.25 275,-458.25 275,-470.25 275,-470.25 275,-476.25 269,-482.25 263,-482.25"/>
<text xml:space="preserve" text-anchor="middle" x="244.12" y="-466.95" font-family="Helvetica Neue,Helvetica,Arial,sans-serif" font-size="9.00">InvoiceLine</text>
<text xml:space="preserve" text-anchor="middle" x="244.12" y="-455.7" font-family="Helvetica Neue,Helvetica,Arial,sans-serif" font-size="9.00">quantity</text>
</a>
</g>
</g>
<!-- invoices&#45;&gt;invoice_line -->
<g id="edge6" class="edge">
<title>invoices&#45;&gt;invoice_line</title>
<path fill="none" stroke="#666666" stroke-width="2" d="M244.12,-557.85C244.12,-542.32 244.12,-518.97 244.12,-499.6"/>
<polygon fill="#666666" stroke="#666666" stroke-width="2" points="249.03,-499.67 244.13,-485.67 239.23,-499.67 249.03,-499.67"/>
</g>
<!-- po_line -->
<g id="node7" class="node">
<title>po_line</title>
<path fill="#d6eaf8" stroke="#555555" stroke-width="1.2" d="M382.5,-594C382.5,-594 335.75,-594 335.75,-594 329.75,-594 323.75,-588 323.75,-582 323.75,-582 323.75,-570 323.75,-570 323.75,-564 329.75,-558 335.75,-558 335.75,-558 382.5,-558 382.5,-558 388.5,-558 394.5,-564 394.5,-570 394.5,-570 394.5,-582 394.5,-582 394.5,-588 388.5,-594 382.5,-594"/>
<text xml:space="preserve" text-anchor="middle" x="359.12" y="-578.7" font-family="Helvetica Neue,Helvetica,Arial,sans-serif" font-size="9.00">PurchaseLine</text>
<text xml:space="preserve" text-anchor="middle" x="359.12" y="-567.45" font-family="Helvetica Neue,Helvetica,Arial,sans-serif" font-size="9.00">quantity</text>
</g>
<!-- purchases&#45;&gt;po_line -->
<g id="edge7" class="edge">
<title>purchases&#45;&gt;po_line</title>
<path fill="none" stroke="#666666" stroke-width="2" d="M362.52,-673.69C361.94,-657.2 361.05,-631.91 360.33,-611.34"/>
<polygon fill="#666666" stroke="#666666" stroke-width="2" points="365.23,-611.32 359.84,-597.5 355.44,-611.67 365.23,-611.32"/>
</g>
<!-- serial -->
<g id="node9" class="node">
<title>serial</title>
<path fill="#f9e79f" stroke="#555555" stroke-width="1.2" d="M299.75,-346.5C299.75,-346.5 188.5,-346.5 188.5,-346.5 182.5,-346.5 176.5,-340.5 176.5,-334.5 176.5,-334.5 176.5,-273 176.5,-273 176.5,-267 182.5,-261 188.5,-261 188.5,-261 299.75,-261 299.75,-261 305.75,-261 311.75,-267 311.75,-273 311.75,-273 311.75,-334.5 311.75,-334.5 311.75,-340.5 305.75,-346.5 299.75,-346.5"/>
<text xml:space="preserve" text-anchor="middle" x="244.12" y="-333.95" font-family="Helvetica Neue,Helvetica,Arial,sans-serif" font-size="9.00">Serial</text>
<text xml:space="preserve" text-anchor="middle" x="244.12" y="-322.7" font-family="Helvetica Neue,Helvetica,Arial,sans-serif" font-size="9.00">(wc2: ItemSerialEntity)</text>
<text xml:space="preserve" text-anchor="middle" x="244.12" y="-301.45" font-family="Helvetica Neue,Helvetica,Arial,sans-serif" font-size="9.00">serial_ida</text>
<text xml:space="preserve" text-anchor="middle" x="244.12" y="-290.2" font-family="Helvetica Neue,Helvetica,Arial,sans-serif" font-size="9.00">status: available|sold|returned</text>
<text xml:space="preserve" text-anchor="middle" x="244.12" y="-278.95" font-family="Helvetica Neue,Helvetica,Arial,sans-serif" font-size="9.00">warranty: {}</text>
<text xml:space="preserve" text-anchor="middle" x="244.12" y="-267.7" font-family="Helvetica Neue,Helvetica,Arial,sans-serif" font-size="9.00">site: {}</text>
</g>
<!-- order_line&#45;&gt;serial -->
<g id="edge8" class="edge">
<title>order_line&#45;&gt;serial</title>
<path fill="none" stroke="#e74c3c" stroke-width="2" stroke-dasharray="5,2" d="M126.85,-445.91C134.02,-425.89 147.71,-392.62 166.62,-368.5 169.21,-365.2 172,-361.96 174.92,-358.79"/>
<polygon fill="#e74c3c" stroke="#e74c3c" stroke-width="2" points="178.16,-362.48 184.61,-349.13 171.24,-355.55 178.16,-362.48"/>
<text xml:space="preserve" text-anchor="middle" x="198.88" y="-389" font-family="Helvetica Neue,Helvetica,Arial,sans-serif" font-size="10.00" fill="#444444">may reserve</text>
<text xml:space="preserve" text-anchor="middle" x="198.88" y="-377" font-family="Helvetica Neue,Helvetica,Arial,sans-serif" font-size="10.00" fill="#444444">status=&#39;onSO&#39;</text>
</g>
<!-- linkage -->
<g id="node14" class="node">
<title>linkage</title>
<g id="a_node14"><a xlink:href="vscode://file/Users/williamjames/Documents/CommerceExpert/webClerk3/apps/core/models/linkage.py" xlink:title="Shared line data — specs, related records, data at time of action.&#10;Model: apps/core/models/linkage.py" target="_blank">
<path fill="#82e0aa" stroke="#555555" stroke-width="1.2" d="M144.25,-181C144.25,-181 12,-181 12,-181 6,-181 0,-175 0,-169 0,-169 0,-113 0,-113 0,-107 6,-101 12,-101 12,-101 144.25,-101 144.25,-101 150.25,-101 156.25,-107 156.25,-113 156.25,-113 156.25,-169 156.25,-169 156.25,-175 150.25,-181 144.25,-181"/>
<text xml:space="preserve" text-anchor="middle" x="78.12" y="-167.5" font-family="Helvetica Neue,Helvetica,Arial,sans-serif" font-size="10.00">LinkageEntry</text>
<text xml:space="preserve" text-anchor="middle" x="78.12" y="-155.5" font-family="Helvetica Neue,Helvetica,Arial,sans-serif" font-size="10.00">(wc2: Linkage)</text>
<text xml:space="preserve" text-anchor="middle" x="78.12" y="-131.5" font-family="Helvetica Neue,Helvetica,Arial,sans-serif" font-size="10.00">Related data across collections</text>
<text xml:space="preserve" text-anchor="middle" x="78.12" y="-119.5" font-family="Helvetica Neue,Helvetica,Arial,sans-serif" font-size="10.00">Many&#45;to&#45;One, One&#45;to&#45;One</text>
<text xml:space="preserve" text-anchor="middle" x="78.12" y="-107.5" font-family="Helvetica Neue,Helvetica,Arial,sans-serif" font-size="10.00">One&#45;to&#45;Many</text>
</a>
</g>
</g>
<!-- order_line&#45;&gt;linkage -->
<g id="edge9" class="edge">
<title>order_line&#45;&gt;linkage</title>
<path fill="none" stroke="#e74c3c" stroke-width="2" stroke-dasharray="5,2" d="M118.81,-445.98C112.65,-399.95 95.63,-272.78 85.66,-198.31"/>
<polygon fill="#e74c3c" stroke="#e74c3c" stroke-width="2" points="90.53,-197.71 83.81,-184.49 80.81,-199.01 90.53,-197.71"/>
</g>
<!-- invoice_line&#45;&gt;serial -->
<g id="edge10" class="edge">
<title>invoice_line&#45;&gt;serial</title>
<path fill="none" stroke="#e74c3c" stroke-width="2" d="M242.72,-445.78C241.85,-434.11 240.82,-418.39 240.38,-404.5 239.87,-388.51 239.91,-384.49 240.38,-368.5 240.42,-366.97 240.47,-365.43 240.53,-363.86"/>
<polygon fill="#e74c3c" stroke="#e74c3c" stroke-width="2" points="245.42,-364.14 241.16,-349.94 235.63,-363.7 245.42,-364.14"/>
<text xml:space="preserve" text-anchor="middle" x="275.25" y="-395" font-family="Helvetica Neue,Helvetica,Arial,sans-serif" font-size="10.00" fill="#444444">removes serials</text>
<text xml:space="preserve" text-anchor="middle" x="275.25" y="-383" font-family="Helvetica Neue,Helvetica,Arial,sans-serif" font-size="10.00" fill="#444444">equal to qty</text>
<text xml:space="preserve" text-anchor="middle" x="275.25" y="-371" font-family="Helvetica Neue,Helvetica,Arial,sans-serif" font-size="10.00" fill="#444444">status=&#39;sold&#39;</text>
</g>
<!-- inv_layer -->
<g id="node8" class="node">
<title>inv_layer</title>
<g id="a_node8"><a xlink:href="vscode://file/Users/williamjames/Documents/CommerceExpert/webClerk3/apps/products/models/inventory_layer.py" xlink:title="Inventory costing layer — tracks on_hand by receipt cost.&#10;Model: apps/products/models/inventory_layer.py" target="_blank">
<path fill="#7d3c98" stroke="#555555" stroke-width="1.2" d="M444.88,-502C444.88,-502 367.38,-502 367.38,-502 361.38,-502 355.38,-496 355.38,-490 355.38,-490 355.38,-438.5 355.38,-438.5 355.38,-432.5 361.38,-426.5 367.38,-426.5 367.38,-426.5 444.88,-426.5 444.88,-426.5 450.88,-426.5 456.88,-432.5 456.88,-438.5 456.88,-438.5 456.88,-490 456.88,-490 456.88,-496 450.88,-502 444.88,-502"/>
<text xml:space="preserve" text-anchor="middle" x="406.12" y="-489.45" font-family="Helvetica Neue,Helvetica,Arial,sans-serif" font-size="9.00" fill="white">InventoryLayer</text>
<text xml:space="preserve" text-anchor="middle" x="406.12" y="-478.2" font-family="Helvetica Neue,Helvetica,Arial,sans-serif" font-size="9.00" fill="white">(wc2: InventoryStack)</text>
<text xml:space="preserve" text-anchor="middle" x="406.12" y="-466.95" font-family="Helvetica Neue,Helvetica,Arial,sans-serif" font-size="9.00" fill="white">serial_numbers[]</text>
<text xml:space="preserve" text-anchor="middle" x="406.12" y="-455.7" font-family="Helvetica Neue,Helvetica,Arial,sans-serif" font-size="9.00" fill="white">serial_batch</text>
<text xml:space="preserve" text-anchor="middle" x="406.12" y="-444.45" font-family="Helvetica Neue,Helvetica,Arial,sans-serif" font-size="9.00" fill="white">quantity.on_hand</text>
<text xml:space="preserve" text-anchor="middle" x="406.12" y="-433.2" font-family="Helvetica Neue,Helvetica,Arial,sans-serif" font-size="9.00" fill="white">by cost</text>
</a>
</g>
</g>
<!-- po_line&#45;&gt;inv_layer -->
<g id="edge11" class="edge">
<title>po_line&#45;&gt;inv_layer</title>
<path fill="none" stroke="#2980b9" stroke-width="2" d="M354.14,-557.49C352.15,-547.4 351.15,-534.65 355.12,-524 356.06,-521.51 357.14,-519.05 358.36,-516.64"/>
<polygon fill="#2980b9" stroke="#2980b9" stroke-width="2" points="362.34,-519.52 365.6,-505.05 354.03,-514.33 362.34,-519.52"/>
<text xml:space="preserve" text-anchor="middle" x="388.12" y="-526.5" font-family="Helvetica Neue,Helvetica,Arial,sans-serif" font-size="10.00" fill="#444444">when receiving</text>
</g>
<!-- inv_layer&#45;&gt;customer -->
<g id="edge15" class="edge">
<title>inv_layer&#45;&gt;customer</title>
<path fill="none" stroke="#666666" stroke-width="2" stroke-dasharray="5,2" d="M420.8,-502.39C423.01,-509.46 424.95,-516.88 426.12,-524 439.68,-605.86 453.6,-639.33 410.12,-710 400.82,-725.12 386.31,-737.15 371.24,-746.43"/>
<polygon fill="#666666" stroke="#666666" stroke-width="2" points="369.25,-741.93 359.41,-753.03 374.02,-750.49 369.25,-741.93"/>
<text xml:space="preserve" text-anchor="middle" x="466.52" y="-642.5" font-family="Helvetica Neue,Helvetica,Arial,sans-serif" font-size="10.00" fill="#444444">may create</text>
<text xml:space="preserve" text-anchor="middle" x="466.52" y="-630.5" font-family="Helvetica Neue,Helvetica,Arial,sans-serif" font-size="10.00" fill="#444444">Customer if</text>
<text xml:space="preserve" text-anchor="middle" x="466.52" y="-618.5" font-family="Helvetica Neue,Helvetica,Arial,sans-serif" font-size="10.00" fill="#444444">transactions</text>
</g>
<!-- inv_layer&#45;&gt;serial -->
<g id="edge12" class="edge">
<title>inv_layer&#45;&gt;serial</title>
<path fill="none" stroke="#2980b9" stroke-width="2" d="M368.4,-425.91C361.43,-418.86 354.26,-411.5 347.62,-404.5 332.79,-388.86 330.39,-383.72 315.12,-368.5 311.77,-365.16 308.28,-361.76 304.73,-358.37"/>
<polygon fill="#2980b9" stroke="#2980b9" stroke-width="2" points="308.28,-354.99 294.71,-349.01 301.59,-362.15 308.28,-354.99"/>
<text xml:space="preserve" text-anchor="middle" x="384.38" y="-389" font-family="Helvetica Neue,Helvetica,Arial,sans-serif" font-size="10.00" fill="#444444">creates Serial</text>
<text xml:space="preserve" text-anchor="middle" x="384.38" y="-377" font-family="Helvetica Neue,Helvetica,Arial,sans-serif" font-size="10.00" fill="#444444">per unit received</text>
</g>
<!-- serial2 -->
<g id="node10" class="node">
<title>serial2</title>
<path fill="#f9e79f" stroke="#555555" stroke-width="1.2" d="M492.38,-321.75C492.38,-321.75 447.88,-321.75 447.88,-321.75 441.88,-321.75 435.88,-315.75 435.88,-309.75 435.88,-309.75 435.88,-297.75 435.88,-297.75 435.88,-291.75 441.88,-285.75 447.88,-285.75 447.88,-285.75 492.38,-285.75 492.38,-285.75 498.38,-285.75 504.38,-291.75 504.38,-297.75 504.38,-297.75 504.38,-309.75 504.38,-309.75 504.38,-315.75 498.38,-321.75 492.38,-321.75"/>
<text xml:space="preserve" text-anchor="middle" x="470.12" y="-306.45" font-family="Helvetica Neue,Helvetica,Arial,sans-serif" font-size="9.00">Serial</text>
<text xml:space="preserve" text-anchor="middle" x="470.12" y="-295.2" font-family="Helvetica Neue,Helvetica,Arial,sans-serif" font-size="9.00">(one per unit)</text>
</g>
<!-- inv_layer&#45;&gt;serial2 -->
<g id="edge13" class="edge">
<title>inv_layer&#45;&gt;serial2</title>
<path fill="none" stroke="#2980b9" stroke-width="2" d="M421.4,-425.97C424.3,-418.85 427.31,-411.44 430.12,-404.5 439.12,-382.27 449.17,-357.23 456.94,-337.79"/>
<polygon fill="#2980b9" stroke="#2980b9" stroke-width="2" points="461.45,-339.69 462.1,-324.87 452.35,-336.06 461.45,-339.69"/>
<text xml:space="preserve" text-anchor="middle" x="475.24" y="-389" font-family="Helvetica Neue,Helvetica,Arial,sans-serif" font-size="10.00" fill="#444444">qty = # of</text>
<text xml:space="preserve" text-anchor="middle" x="475.24" y="-377" font-family="Helvetica Neue,Helvetica,Arial,sans-serif" font-size="10.00" fill="#444444">Serial records</text>
</g>
<!-- custodian -->
<g id="node11" class="node">
<title>custodian</title>
<path fill="#e59866" stroke="#555555" stroke-width="1.2" d="M381.12,-163C381.12,-163 317.12,-163 317.12,-163 311.12,-163 305.12,-157 305.12,-151 305.12,-151 305.12,-131 305.12,-131 305.12,-125 311.12,-119 317.12,-119 317.12,-119 381.12,-119 381.12,-119 387.12,-119 393.12,-125 393.12,-131 393.12,-131 393.12,-151 393.12,-151 393.12,-157 387.12,-163 381.12,-163"/>
<text xml:space="preserve" text-anchor="middle" x="349.12" y="-149.5" font-family="Helvetica Neue,Helvetica,Arial,sans-serif" font-size="10.00">Contact</text>
<text xml:space="preserve" text-anchor="middle" x="349.12" y="-137.5" font-family="Helvetica Neue,Helvetica,Arial,sans-serif" font-size="10.00">Custodian</text>
<text xml:space="preserve" text-anchor="middle" x="349.12" y="-125.5" font-family="Helvetica Neue,Helvetica,Arial,sans-serif" font-size="10.00">(warranty owner)</text>
</g>
<!-- serial&#45;&gt;custodian -->
<g id="edge14" class="edge">
<title>serial&#45;&gt;custodian</title>
<path fill="none" stroke="#e67e22" stroke-width="2" d="M271.71,-260.51C288.62,-234.63 310.01,-201.88 326.02,-177.37"/>
<polygon fill="#e67e22" stroke="#e67e22" stroke-width="2" points="330,-180.24 333.55,-165.84 321.79,-174.88 330,-180.24"/>
<text xml:space="preserve" text-anchor="middle" x="331.99" y="-223.5" font-family="Helvetica Neue,Helvetica,Arial,sans-serif" font-size="10.00" fill="#444444">warranty</text>
<text xml:space="preserve" text-anchor="middle" x="331.99" y="-211.5" font-family="Helvetica Neue,Helvetica,Arial,sans-serif" font-size="10.00" fill="#444444">ownership</text>
</g>
<!-- serial_log -->
<g id="node12" class="node">
<title>serial_log</title>
<path fill="#fcf3cf" stroke="#555555" stroke-width="1.2" d="M565.5,-172.5C565.5,-172.5 440.75,-172.5 440.75,-172.5 434.75,-172.5 428.75,-166.5 428.75,-160.5 428.75,-160.5 428.75,-121.5 428.75,-121.5 428.75,-115.5 434.75,-109.5 440.75,-109.5 440.75,-109.5 565.5,-109.5 565.5,-109.5 571.5,-109.5 577.5,-115.5 577.5,-121.5 577.5,-121.5 577.5,-160.5 577.5,-160.5 577.5,-166.5 571.5,-172.5 565.5,-172.5"/>
<text xml:space="preserve" text-anchor="middle" x="503.12" y="-159.95" font-family="Helvetica Neue,Helvetica,Arial,sans-serif" font-size="9.00">SerialLog</text>
<text xml:space="preserve" text-anchor="middle" x="503.12" y="-148.7" font-family="Helvetica Neue,Helvetica,Arial,sans-serif" font-size="9.00">(wc2: ItemSerialAction)</text>
<text xml:space="preserve" text-anchor="middle" x="503.12" y="-127.45" font-family="Helvetica Neue,Helvetica,Arial,sans-serif" font-size="9.00">action: received|shipped|returned</text>
<text xml:space="preserve" text-anchor="middle" x="503.12" y="-116.2" font-family="Helvetica Neue,Helvetica,Arial,sans-serif" font-size="9.00">dt, data{}</text>
</g>
<!-- serial&#45;&gt;serial_log -->
<g id="edge16" class="edge">
<title>serial&#45;&gt;serial_log</title>
<path fill="none" stroke="#666666" stroke-width="2" d="M312.2,-268.42C329.38,-259.26 347.62,-249.09 364.12,-239 392.38,-221.72 422.65,-200.89 447.71,-182.97"/>
<polygon fill="#666666" stroke="#666666" stroke-width="2" points="450.48,-187.01 458.97,-174.85 444.75,-179.06 450.48,-187.01"/>
<text xml:space="preserve" text-anchor="middle" x="437.45" y="-229.5" font-family="Helvetica Neue,Helvetica,Arial,sans-serif" font-size="10.00" fill="#444444">received</text>
<text xml:space="preserve" text-anchor="middle" x="437.45" y="-217.5" font-family="Helvetica Neue,Helvetica,Arial,sans-serif" font-size="10.00" fill="#444444">shipped</text>
<text xml:space="preserve" text-anchor="middle" x="437.45" y="-205.5" font-family="Helvetica Neue,Helvetica,Arial,sans-serif" font-size="10.00" fill="#444444">returned</text>
</g>
<!-- serial_log2 -->
<g id="node13" class="node">
<title>serial_log2</title>
<path fill="#fcf3cf" stroke="#555555" stroke-width="1.2" d="M257.5,-159C257.5,-159 204.75,-159 204.75,-159 198.75,-159 192.75,-153 192.75,-147 192.75,-147 192.75,-135 192.75,-135 192.75,-129 198.75,-123 204.75,-123 204.75,-123 257.5,-123 257.5,-123 263.5,-123 269.5,-129 269.5,-135 269.5,-135 269.5,-147 269.5,-147 269.5,-153 263.5,-159 257.5,-159"/>
<text xml:space="preserve" text-anchor="middle" x="231.12" y="-143.7" font-family="Helvetica Neue,Helvetica,Arial,sans-serif" font-size="9.00">SerialLog</text>
<text xml:space="preserve" text-anchor="middle" x="231.12" y="-132.45" font-family="Helvetica Neue,Helvetica,Arial,sans-serif" font-size="9.00">(claims, events)</text>
</g>
<!-- serial&#45;&gt;serial_log2 -->
<g id="edge17" class="edge">
<title>serial&#45;&gt;serial_log2</title>
<path fill="none" stroke="#666666" stroke-width="2" d="M240.71,-260.51C238.59,-234.27 235.89,-200.97 233.9,-176.36"/>
<polygon fill="#666666" stroke="#666666" stroke-width="2" points="238.8,-176.06 232.78,-162.5 229.03,-176.85 238.8,-176.06"/>
<text xml:space="preserve" text-anchor="middle" x="253.41" y="-223.5" font-family="Helvetica Neue,Helvetica,Arial,sans-serif" font-size="10.00" fill="#444444">claims</text>
<text xml:space="preserve" text-anchor="middle" x="253.41" y="-211.5" font-family="Helvetica Neue,Helvetica,Arial,sans-serif" font-size="10.00" fill="#444444">events</text>
</g>
<!-- serial&#45;&gt;linkage -->
<g id="edge18" class="edge">
<title>serial&#45;&gt;linkage</title>
<path fill="none" stroke="#666666" stroke-width="2" d="M200.51,-260.51C179.19,-239.87 153.37,-214.86 130.94,-193.15"/>
<polygon fill="#666666" stroke="#666666" stroke-width="2" points="134.52,-189.79 121.06,-183.57 127.71,-196.83 134.52,-189.79"/>
</g>
<!-- qa -->
<g id="node15" class="node">
<title>qa</title>
<polygon fill="#82e0aa" stroke="#555555" stroke-width="1.2" stroke-dasharray="5,2" points="144.25,-56 12,-56 12,0 144.25,0 144.25,-56"/>
<text xml:space="preserve" text-anchor="middle" x="78.12" y="-42.5" font-family="Helvetica Neue,Helvetica,Arial,sans-serif" font-size="10.00">QA Entity</text>
<text xml:space="preserve" text-anchor="middle" x="78.12" y="-30.5" font-family="Helvetica Neue,Helvetica,Arial,sans-serif" font-size="10.00">(NOT YET IN WC3)</text>
<text xml:space="preserve" text-anchor="middle" x="78.12" y="-6.5" font-family="Helvetica Neue,Helvetica,Arial,sans-serif" font-size="10.00">Quality inspection records</text>
</g>
<!-- linkage&#45;&gt;qa -->
<g id="edge19" class="edge">
<title>linkage&#45;&gt;qa</title>
<path fill="none" stroke="#666666" stroke-width="2" stroke-dasharray="5,2" d="M78.12,-100.55C78.12,-91.78 78.12,-82.42 78.12,-73.47"/>
<polygon fill="#666666" stroke="#666666" stroke-width="2" points="83.03,-73.51 78.13,-59.51 73.23,-73.51 83.03,-73.51"/>
</g>
</g>
</svg>
