<?xml version="1.0" encoding="UTF-8" standalone="no"?>
<!DOCTYPE svg PUBLIC "-//W3C//DTD SVG 1.1//EN"
 "http://www.w3.org/Graphics/SVG/1.1/DTD/svg11.dtd">
<!-- Generated by graphviz version 13.1.2 (20250808.2320)
 -->
<!-- Title: wc3_order_to_invoice Pages: 1 -->
<svg width="1392pt" height="1096pt"
 viewBox="0.00 0.00 1392.00 1096.00" xmlns="http://www.w3.org/2000/svg" xmlns:xlink="http://www.w3.org/1999/xlink">
<g id="graph0" class="graph" transform="scale(1 1) rotate(0) translate(28.8 1067.3)">
<title>wc3_order_to_invoice</title>
<polygon fill="white" stroke="none" points="-28.8,28.8 -28.8,-1067.3 1362.8,-1067.3 1362.8,28.8 -28.8,28.8"/>
<text xml:space="preserve" text-anchor="middle" x="667" y="-1023.1" font-family="Helvetica Neue,Helvetica,Arial,sans-serif" font-size="12.00">WC3 — Order to Invoice Flow</text>
<text xml:space="preserve" text-anchor="middle" x="667" y="-1008.1" font-family="Helvetica Neue,Helvetica,Arial,sans-serif" font-size="12.00">(with inventory bucket effects)</text>
<g id="clust1" class="cluster">
<title>cluster_customer_attrs</title>
<polygon fill="#ebf5fb" stroke="#aed6f1" points="592,-888.75 592,-989.73 1326,-989.73 1326,-888.75 592,-888.75"/>
<text xml:space="preserve" text-anchor="middle" x="959" y="-974.33" font-family="Helvetica Neue,Helvetica,Arial,sans-serif" font-size="12.00">Customer Attributes</text>
</g>
<g id="clust2" class="cluster">
<title>cluster_production</title>
<polygon fill="#fef9e7" stroke="#f9e79f" points="8,-491.62 8,-742.9 358,-742.9 358,-491.62 8,-491.62"/>
<text xml:space="preserve" text-anchor="middle" x="183" y="-727.5" font-family="Helvetica Neue,Helvetica,Arial,sans-serif" font-size="12.00">Production Records</text>
</g>
<!-- customer -->
<g id="node1" class="node">
<title>customer</title>
<path fill="#d4e6f1" stroke="#555555" stroke-width="1.2" d="M671.26,-827C671.26,-827 582.74,-827 582.74,-827 576.74,-827 570.74,-821 570.74,-815 570.74,-815 570.74,-803 570.74,-803 570.74,-797 576.74,-791 582.74,-791 582.74,-791 671.26,-791 671.26,-791 677.26,-791 683.26,-797 683.26,-803 683.26,-803 683.26,-815 683.26,-815 683.26,-821 677.26,-827 671.26,-827"/>
<text xml:space="preserve" text-anchor="middle" x="627" y="-811.5" font-family="Helvetica Neue,Helvetica,Arial,sans-serif" font-size="10.00">Customer</text>
<text xml:space="preserve" text-anchor="middle" x="627" y="-799.5" font-family="Helvetica Neue,Helvetica,Arial,sans-serif" font-size="10.00">(Contact + Customer)</text>
</g>
<!-- verify -->
<g id="node11" class="node">
<title>verify</title>
<path fill="#f5cba7" stroke="#555555" stroke-width="1.2" d="M573.85,-669.28C573.85,-669.28 573.85,-678.72 573.85,-678.72 573.85,-683.43 569.81,-690.58 565.76,-693.01 565.76,-693.01 548.64,-703.31 548.64,-703.31 544.59,-705.74 535.83,-708.17 531.11,-708.17 531.11,-708.17 502.89,-708.17 502.89,-708.17 498.17,-708.17 489.41,-705.74 485.36,-703.31 485.36,-703.31 468.24,-693.01 468.24,-693.01 464.19,-690.58 460.15,-683.43 460.15,-678.72 460.15,-678.72 460.15,-669.28 460.15,-669.28 460.15,-664.57 464.19,-657.42 468.24,-654.99 468.24,-654.99 485.36,-644.69 485.36,-644.69 489.41,-642.26 498.17,-639.83 502.89,-639.83 502.89,-639.83 531.11,-639.83 531.11,-639.83 535.83,-639.83 544.59,-642.26 548.64,-644.69 548.64,-644.69 565.76,-654.99 565.76,-654.99 569.81,-657.42 573.85,-664.57 573.85,-669.28"/>
<text xml:space="preserve" text-anchor="middle" x="517" y="-682.5" font-family="Helvetica Neue,Helvetica,Arial,sans-serif" font-size="10.00">Verify details</text>
<text xml:space="preserve" text-anchor="middle" x="517" y="-670.5" font-family="Helvetica Neue,Helvetica,Arial,sans-serif" font-size="10.00">price point</text>
<text xml:space="preserve" text-anchor="middle" x="517" y="-658.5" font-family="Helvetica Neue,Helvetica,Arial,sans-serif" font-size="10.00">availability</text>
</g>
<!-- customer&#45;&gt;verify -->
<g id="edge1" class="edge">
<title>customer&#45;&gt;verify</title>
<path fill="none" stroke="#666666" stroke-width="2" d="M612.62,-790.61C597.83,-772.73 574.18,-744.14 554.11,-719.87"/>
<polygon fill="#666666" stroke="#666666" stroke-width="2" points="558.03,-716.92 545.33,-709.26 550.48,-723.17 558.03,-716.92"/>
</g>
<!-- carrier -->
<g id="node2" class="node">
<title>carrier</title>
<path fill="#fdfefe" stroke="#555555" stroke-width="1.2" d="M642,-942C642,-942 612,-942 612,-942 606,-942 600,-936 600,-930 600,-930 600,-918 600,-918 600,-912 606,-906 612,-906 612,-906 642,-906 642,-906 648,-906 654,-912 654,-918 654,-918 654,-930 654,-930 654,-936 648,-942 642,-942"/>
<text xml:space="preserve" text-anchor="middle" x="627" y="-921.65" font-family="Helvetica Neue,Helvetica,Arial,sans-serif" font-size="8.00">Carrier</text>
</g>
<!-- carrier&#45;&gt;customer -->
<!-- typesale -->
<g id="node3" class="node">
<title>typesale</title>
<path fill="#fdfefe" stroke="#555555" stroke-width="1.2" d="M737.64,-942C737.64,-942 702.36,-942 702.36,-942 696.36,-942 690.36,-936 690.36,-930 690.36,-930 690.36,-918 690.36,-918 690.36,-912 696.36,-906 702.36,-906 702.36,-906 737.64,-906 737.64,-906 743.64,-906 749.64,-912 749.64,-918 749.64,-918 749.64,-930 749.64,-930 749.64,-936 743.64,-942 737.64,-942"/>
<text xml:space="preserve" text-anchor="middle" x="720" y="-926.9" font-family="Helvetica Neue,Helvetica,Arial,sans-serif" font-size="8.00">Type Sale</text>
<text xml:space="preserve" text-anchor="middle" x="720" y="-916.4" font-family="Helvetica Neue,Helvetica,Arial,sans-serif" font-size="8.00">(price_level)</text>
</g>
<!-- credit -->
<g id="node4" class="node">
<title>credit</title>
<path fill="#fdfefe" stroke="#555555" stroke-width="1.2" d="M828,-942C828,-942 798,-942 798,-942 792,-942 786,-936 786,-930 786,-930 786,-918 786,-918 786,-912 792,-906 798,-906 798,-906 828,-906 828,-906 834,-906 840,-912 840,-918 840,-918 840,-930 840,-930 840,-936 834,-942 828,-942"/>
<text xml:space="preserve" text-anchor="middle" x="813" y="-926.9" font-family="Helvetica Neue,Helvetica,Arial,sans-serif" font-size="8.00">Credit</text>
<text xml:space="preserve" text-anchor="middle" x="813" y="-916.4" font-family="Helvetica Neue,Helvetica,Arial,sans-serif" font-size="8.00">(financial)</text>
</g>
<!-- source -->
<g id="node5" class="node">
<title>source</title>
<path fill="#fdfefe" stroke="#555555" stroke-width="1.2" d="M945.89,-942C945.89,-942 888.11,-942 888.11,-942 882.11,-942 876.11,-936 876.11,-930 876.11,-930 876.11,-918 876.11,-918 876.11,-912 882.11,-906 888.11,-906 888.11,-906 945.89,-906 945.89,-906 951.89,-906 957.89,-912 957.89,-918 957.89,-918 957.89,-930 957.89,-930 957.89,-936 951.89,-942 945.89,-942"/>
<text xml:space="preserve" text-anchor="middle" x="917" y="-926.9" font-family="Helvetica Neue,Helvetica,Arial,sans-serif" font-size="8.00">AdSource</text>
<text xml:space="preserve" text-anchor="middle" x="917" y="-916.4" font-family="Helvetica Neue,Helvetica,Arial,sans-serif" font-size="8.00">(metadata.source)</text>
</g>
<!-- salesid -->
<g id="node6" class="node">
<title>salesid</title>
<path fill="#fdfefe" stroke="#555555" stroke-width="1.2" d="M1036,-942C1036,-942 1006,-942 1006,-942 1000,-942 994,-936 994,-930 994,-930 994,-918 994,-918 994,-912 1000,-906 1006,-906 1006,-906 1036,-906 1036,-906 1042,-906 1048,-912 1048,-918 1048,-918 1048,-930 1048,-930 1048,-936 1042,-942 1036,-942"/>
<text xml:space="preserve" text-anchor="middle" x="1021" y="-921.65" font-family="Helvetica Neue,Helvetica,Arial,sans-serif" font-size="8.00">Sales ID</text>
</g>
<!-- rep -->
<g id="node7" class="node">
<title>rep</title>
<path fill="#fdfefe" stroke="#555555" stroke-width="1.2" d="M1126,-942C1126,-942 1096,-942 1096,-942 1090,-942 1084,-936 1084,-930 1084,-930 1084,-918 1084,-918 1084,-912 1090,-906 1096,-906 1096,-906 1126,-906 1126,-906 1132,-906 1138,-912 1138,-918 1138,-918 1138,-930 1138,-930 1138,-936 1132,-942 1126,-942"/>
<text xml:space="preserve" text-anchor="middle" x="1111" y="-921.65" font-family="Helvetica Neue,Helvetica,Arial,sans-serif" font-size="8.00">Rep</text>
</g>
<!-- terms -->
<g id="node8" class="node">
<title>terms</title>
<path fill="#fdfefe" stroke="#555555" stroke-width="1.2" d="M1216,-942C1216,-942 1186,-942 1186,-942 1180,-942 1174,-936 1174,-930 1174,-930 1174,-918 1174,-918 1174,-912 1180,-906 1186,-906 1186,-906 1216,-906 1216,-906 1222,-906 1228,-912 1228,-918 1228,-918 1228,-930 1228,-930 1228,-936 1222,-942 1216,-942"/>
<text xml:space="preserve" text-anchor="middle" x="1201" y="-921.65" font-family="Helvetica Neue,Helvetica,Arial,sans-serif" font-size="8.00">Terms</text>
</g>
<!-- taxjuris -->
<g id="node9" class="node">
<title>taxjuris</title>
<path fill="#fdfefe" stroke="#555555" stroke-width="1.2" d="M1306,-942C1306,-942 1276,-942 1276,-942 1270,-942 1264,-936 1264,-930 1264,-930 1264,-918 1264,-918 1264,-912 1270,-906 1276,-906 1276,-906 1306,-906 1306,-906 1312,-906 1318,-912 1318,-918 1318,-918 1318,-930 1318,-930 1318,-936 1312,-942 1306,-942"/>
<text xml:space="preserve" text-anchor="middle" x="1291" y="-926.9" font-family="Helvetica Neue,Helvetica,Arial,sans-serif" font-size="8.00">Tax Juris</text>
<text xml:space="preserve" text-anchor="middle" x="1291" y="-916.4" font-family="Helvetica Neue,Helvetica,Arial,sans-serif" font-size="8.00">(Setting)</text>
</g>
<!-- items -->
<g id="node10" class="node">
<title>items</title>
<path fill="#fcf3cf" stroke="#555555" stroke-width="1.2" d="M522.76,-827C522.76,-827 485.24,-827 485.24,-827 479.24,-827 473.24,-821 473.24,-815 473.24,-815 473.24,-803 473.24,-803 473.24,-797 479.24,-791 485.24,-791 485.24,-791 522.76,-791 522.76,-791 528.76,-791 534.76,-797 534.76,-803 534.76,-803 534.76,-815 534.76,-815 534.76,-821 528.76,-827 522.76,-827"/>
<text xml:space="preserve" text-anchor="middle" x="504" y="-811.5" font-family="Helvetica Neue,Helvetica,Arial,sans-serif" font-size="10.00">Item</text>
<text xml:space="preserve" text-anchor="middle" x="504" y="-799.5" font-family="Helvetica Neue,Helvetica,Arial,sans-serif" font-size="10.00">(products)</text>
</g>
<!-- items&#45;&gt;verify -->
<g id="edge2" class="edge">
<title>items&#45;&gt;verify</title>
<path fill="none" stroke="#666666" stroke-width="2" d="M505.7,-790.61C507.32,-774.06 509.83,-748.34 512.08,-725.35"/>
<polygon fill="#666666" stroke="#666666" stroke-width="2" points="516.95,-725.93 513.43,-711.52 507.19,-724.97 516.95,-725.93"/>
</g>
<!-- order -->
<g id="node12" class="node">
<title>order</title>
<g id="a_node12"><a xlink:href="vscode://file/Users/williamjames/Documents/CommerceExpert/webClerk3/apps/transactions/models/order.py" xlink:title="Sales order — customer commitment. Creates +on_so and &#45;on_p pending records.&#10;Model: apps/transactions/models/order.py&#10;Functions:&#10; &#160;transfer_proposal_to_order @ apps/transactions/services/proposal_to_order.py:219 (creates order from proposal)&#10; &#160;_create_transfer_pending_records @ apps/transactions/services/proposal_to_order.py:131 (pending records for +on_so, &#45;on_p)&#10;Pending deltas: on_so: +qty, on_p: &#45;qty" target="_blank">
<path fill="#fcf3cf" stroke="#555555" stroke-width="1.2" d="M447.64,-557.32C447.64,-557.32 394.36,-557.32 394.36,-557.32 388.36,-557.32 382.36,-551.32 382.36,-545.32 382.36,-545.32 382.36,-512.68 382.36,-512.68 382.36,-506.68 388.36,-500.68 394.36,-500.68 394.36,-500.68 447.64,-500.68 447.64,-500.68 453.64,-500.68 459.64,-506.68 459.64,-512.68 459.64,-512.68 459.64,-545.32 459.64,-545.32 459.64,-551.32 453.64,-557.32 447.64,-557.32"/>
<text xml:space="preserve" text-anchor="middle" x="421" y="-543.5" font-family="Helvetica Neue,Helvetica,Arial,sans-serif" font-size="10.00">Order</text>
<text xml:space="preserve" text-anchor="middle" x="421" y="-531.5" font-family="Helvetica Neue,Helvetica,Arial,sans-serif" font-size="10.00">(Order model)</text>
<text xml:space="preserve" text-anchor="middle" x="421" y="-507.5" font-family="Helvetica Neue,Helvetica,Arial,sans-serif" font-size="10.00">on_so += qty</text>
</a>
</g>
</g>
<!-- verify&#45;&gt;order -->
<g id="edge6" class="edge">
<title>verify&#45;&gt;order</title>
<path fill="none" stroke="#666666" stroke-width="2" d="M494.49,-639.47C480.89,-619.22 463.45,-593.23 448.97,-571.66"/>
<polygon fill="#666666" stroke="#666666" stroke-width="2" points="453.06,-568.97 441.19,-560.07 444.92,-574.43 453.06,-568.97"/>
</g>
<!-- production -->
<g id="node13" class="node">
<title>production</title>
<path fill="#f5cba7" stroke="#555555" stroke-width="1.2" d="M297.54,-393.55C297.54,-393.55 297.54,-400.45 297.54,-400.45 297.54,-403.9 294.45,-408.88 291.35,-410.4 291.35,-410.4 274.12,-418.92 274.12,-418.92 271.03,-420.45 264.48,-421.98 261.03,-421.98 261.03,-421.98 232.97,-421.98 232.97,-421.98 229.52,-421.98 222.97,-420.45 219.88,-418.92 219.88,-418.92 202.65,-410.4 202.65,-410.4 199.55,-408.88 196.46,-403.9 196.46,-400.45 196.46,-400.45 196.46,-393.55 196.46,-393.55 196.46,-390.1 199.55,-385.12 202.65,-383.6 202.65,-383.6 219.88,-375.08 219.88,-375.08 222.97,-373.55 229.52,-372.02 232.97,-372.02 232.97,-372.02 261.03,-372.02 261.03,-372.02 264.48,-372.02 271.03,-373.55 274.12,-375.08 274.12,-375.08 291.35,-383.6 291.35,-383.6 294.45,-385.12 297.54,-390.1 297.54,-393.55"/>
<text xml:space="preserve" text-anchor="middle" x="247" y="-399.5" font-family="Helvetica Neue,Helvetica,Arial,sans-serif" font-size="10.00">Order</text>
<text xml:space="preserve" text-anchor="middle" x="247" y="-387.5" font-family="Helvetica Neue,Helvetica,Arial,sans-serif" font-size="10.00">Production</text>
</g>
<!-- order&#45;&gt;production -->
<g id="edge7" class="edge">
<title>order&#45;&gt;production</title>
<path fill="none" stroke="#666666" stroke-width="2" d="M383.67,-500.11C355.7,-479.21 317.42,-450.61 288.48,-428.99"/>
<polygon fill="#666666" stroke="#666666" stroke-width="2" points="291.69,-425.27 277.54,-420.82 285.83,-433.12 291.69,-425.27"/>
</g>
<!-- workflow -->
<g id="node21" class="node">
<title>workflow</title>
<path fill="#fadbd8" stroke="#555555" stroke-width="1.2" d="M251.24,-255.32C251.24,-255.32 206.73,-233.32 206.73,-233.32 201.35,-230.66 201.35,-225.34 206.73,-222.68 206.73,-222.68 251.24,-200.68 251.24,-200.68 256.62,-198.02 267.38,-198.02 272.76,-200.68 272.76,-200.68 317.27,-222.68 317.27,-222.68 322.65,-225.34 322.65,-230.66 317.27,-233.32 317.27,-233.32 272.76,-255.32 272.76,-255.32 267.38,-257.98 256.62,-257.98 251.24,-255.32"/>
<text xml:space="preserve" text-anchor="middle" x="262" y="-230.5" font-family="Helvetica Neue,Helvetica,Arial,sans-serif" font-size="10.00">Work Flow</text>
<text xml:space="preserve" text-anchor="middle" x="262" y="-218.5" font-family="Helvetica Neue,Helvetica,Arial,sans-serif" font-size="10.00">Complete?</text>
</g>
<!-- production&#45;&gt;workflow -->
<g id="edge13" class="edge">
<title>production&#45;&gt;workflow</title>
<path fill="none" stroke="#666666" stroke-width="2" d="M249.18,-371.72C251.41,-346.87 254.94,-307.62 257.73,-276.56"/>
<polygon fill="#666666" stroke="#666666" stroke-width="2" points="262.59,-277.24 258.96,-262.86 252.83,-276.37 262.59,-277.24"/>
</g>
<!-- po -->
<g id="node14" class="node">
<title>po</title>
<path fill="#fdfefe" stroke="#555555" stroke-width="1.2" d="M67.52,-694.07C67.52,-694.07 28.48,-694.07 28.48,-694.07 22.49,-694.07 16.49,-688.07 16.49,-682.07 16.49,-682.07 16.49,-665.93 16.49,-665.93 16.49,-659.93 22.49,-653.93 28.49,-653.93 28.49,-653.93 67.52,-653.93 67.52,-653.93 73.52,-653.93 79.52,-659.93 79.52,-665.93 79.52,-665.93 79.52,-682.07 79.52,-682.07 79.52,-688.07 73.52,-694.07 67.52,-694.07"/>
<text xml:space="preserve" text-anchor="middle" x="48" y="-682.15" font-family="Helvetica Neue,Helvetica,Arial,sans-serif" font-size="8.00">Purchase</text>
<text xml:space="preserve" text-anchor="middle" x="48" y="-671.65" font-family="Helvetica Neue,Helvetica,Arial,sans-serif" font-size="8.00">Orders</text>
<text xml:space="preserve" text-anchor="middle" x="48" y="-661.15" font-family="Helvetica Neue,Helvetica,Arial,sans-serif" font-size="8.00">on_po += qty</text>
</g>
<!-- po&#45;&gt;production -->
<g id="edge8" class="edge">
<title>po&#45;&gt;production</title>
<path fill="none" stroke="#666666" stroke-width="2" stroke-dasharray="5,2" d="M61.99,-653.66C94.69,-608.48 176.56,-495.34 219.59,-435.88"/>
<polygon fill="#666666" stroke="#666666" stroke-width="2" points="223.38,-439 227.62,-424.78 215.44,-433.25 223.38,-439"/>
</g>
<!-- wo -->
<g id="node15" class="node">
<title>wo</title>
<path fill="#fdfefe" stroke="#555555" stroke-width="1.2" d="M334.26,-549.07C334.26,-549.07 293.74,-549.07 293.74,-549.07 287.74,-549.07 281.74,-543.07 281.74,-537.07 281.74,-537.07 281.74,-520.93 281.74,-520.93 281.74,-514.93 287.74,-508.93 293.74,-508.93 293.74,-508.93 334.26,-508.93 334.26,-508.93 340.26,-508.93 346.26,-514.93 346.26,-520.93 346.26,-520.93 346.26,-537.07 346.26,-537.07 346.26,-543.07 340.26,-549.07 334.26,-549.07"/>
<text xml:space="preserve" text-anchor="middle" x="314" y="-537.15" font-family="Helvetica Neue,Helvetica,Arial,sans-serif" font-size="8.00">Work</text>
<text xml:space="preserve" text-anchor="middle" x="314" y="-526.65" font-family="Helvetica Neue,Helvetica,Arial,sans-serif" font-size="8.00">Orders</text>
<text xml:space="preserve" text-anchor="middle" x="314" y="-516.15" font-family="Helvetica Neue,Helvetica,Arial,sans-serif" font-size="8.00">on_wo += qty</text>
</g>
<!-- wo&#45;&gt;production -->
<g id="edge9" class="edge">
<title>wo&#45;&gt;production</title>
<path fill="none" stroke="#666666" stroke-width="2" stroke-dasharray="5,2" d="M303.97,-508.54C294.31,-489.8 279.43,-460.92 267.3,-437.38"/>
<polygon fill="#666666" stroke="#666666" stroke-width="2" points="271.77,-435.37 261,-425.17 263.06,-439.86 271.77,-435.37"/>
</g>
<!-- time_rec -->
<g id="node16" class="node">
<title>time_rec</title>
<path fill="#fdfefe" stroke="#555555" stroke-width="1.2" d="M158,-692C158,-692 128,-692 128,-692 122,-692 116,-686 116,-680 116,-680 116,-668 116,-668 116,-662 122,-656 128,-656 128,-656 158,-656 158,-656 164,-656 170,-662 170,-668 170,-668 170,-680 170,-680 170,-686 164,-692 158,-692"/>
<text xml:space="preserve" text-anchor="middle" x="143" y="-671.65" font-family="Helvetica Neue,Helvetica,Arial,sans-serif" font-size="8.00">Time</text>
</g>
<!-- time_rec&#45;&gt;production -->
<g id="edge10" class="edge">
<title>time_rec&#45;&gt;production</title>
<path fill="none" stroke="#666666" stroke-width="2" stroke-dasharray="5,2" d="M149.51,-655.8C165.81,-612.7 208.73,-499.18 231.81,-438.16"/>
<polygon fill="#666666" stroke="#666666" stroke-width="2" points="236.31,-440.11 236.68,-425.28 227.15,-436.64 236.31,-440.11"/>
</g>
<!-- materials -->
<g id="node17" class="node">
<title>materials</title>
<path fill="#fdfefe" stroke="#555555" stroke-width="1.2" d="M248,-692C248,-692 218,-692 218,-692 212,-692 206,-686 206,-680 206,-680 206,-668 206,-668 206,-662 212,-656 218,-656 218,-656 248,-656 248,-656 254,-656 260,-662 260,-668 260,-668 260,-680 260,-680 260,-686 254,-692 248,-692"/>
<text xml:space="preserve" text-anchor="middle" x="233" y="-671.65" font-family="Helvetica Neue,Helvetica,Arial,sans-serif" font-size="8.00">Materials</text>
</g>
<!-- materials&#45;&gt;production -->
<g id="edge11" class="edge">
<title>materials&#45;&gt;production</title>
<path fill="none" stroke="#666666" stroke-width="2" stroke-dasharray="5,2" d="M233.88,-655.8C236.06,-612.97 241.77,-500.64 244.9,-439.34"/>
<polygon fill="#666666" stroke="#666666" stroke-width="2" points="249.78,-439.7 245.6,-425.47 240,-439.2 249.78,-439.7"/>
</g>
<!-- wo_steps -->
<g id="node18" class="node">
<title>wo_steps</title>
<path fill="#fdfefe" stroke="#555555" stroke-width="1.2" d="M338,-692C338,-692 308,-692 308,-692 302,-692 296,-686 296,-680 296,-680 296,-668 296,-668 296,-662 302,-656 308,-656 308,-656 338,-656 338,-656 344,-656 350,-662 350,-668 350,-668 350,-680 350,-680 350,-686 344,-692 338,-692"/>
<text xml:space="preserve" text-anchor="middle" x="323" y="-671.65" font-family="Helvetica Neue,Helvetica,Arial,sans-serif" font-size="8.00">WO Steps</text>
</g>
<!-- wo_steps&#45;&gt;wo -->
<g id="edge12" class="edge">
<title>wo_steps&#45;&gt;wo</title>
<path fill="none" stroke="#666666" stroke-width="2" stroke-dasharray="5,2" d="M321.9,-655.47C320.5,-633.34 318.07,-594.72 316.28,-566.15"/>
<polygon fill="#666666" stroke="#666666" stroke-width="2" points="321.19,-566.19 315.42,-552.53 311.41,-566.81 321.19,-566.19"/>
</g>
<!-- proposal -->
<g id="node19" class="node">
<title>proposal</title>
<g id="a_node19"><a xlink:href="vscode://file/Users/williamjames/Documents/CommerceExpert/webClerk3/apps/transactions/models/proposal.py" xlink:title="Sales proposal — forecast. on_p tracks weighted probability.&#10;Model: apps/transactions/models/proposal.py&#10;Functions:&#10; &#160;transfer_proposal_to_order @ apps/transactions/services/proposal_to_order.py:219 (converts proposal to order)&#10;Pending deltas: on_p: +qty_x_prob" target="_blank">
<path fill="#e8daef" stroke="#555555" stroke-width="1.2" d="M353.51,-946.32C353.51,-946.32 278.49,-946.32 278.49,-946.32 272.49,-946.32 266.49,-940.32 266.49,-934.32 266.49,-934.32 266.49,-913.68 266.49,-913.68 266.49,-907.68 272.49,-901.68 278.49,-901.68 278.49,-901.68 353.51,-901.68 353.51,-901.68 359.51,-901.68 365.51,-907.68 365.51,-913.68 365.51,-913.68 365.51,-934.32 365.51,-934.32 365.51,-940.32 359.51,-946.32 353.51,-946.32"/>
<text xml:space="preserve" text-anchor="middle" x="316" y="-932.5" font-family="Helvetica Neue,Helvetica,Arial,sans-serif" font-size="10.00">Proposal</text>
<text xml:space="preserve" text-anchor="middle" x="316" y="-908.5" font-family="Helvetica Neue,Helvetica,Arial,sans-serif" font-size="10.00">on_p += qty×prob</text>
</a>
</g>
</g>
<!-- proposal&#45;&gt;order -->
<g id="edge3" class="edge">
<title>proposal&#45;&gt;order</title>
<path fill="none" stroke="#666666" stroke-width="2" stroke-dasharray="5,2" d="M321.79,-901.31C338.45,-838.97 386.71,-658.35 409.2,-574.17"/>
<polygon fill="#666666" stroke="#666666" stroke-width="2" points="413.93,-575.46 412.81,-560.67 404.46,-572.93 413.93,-575.46"/>
</g>
<!-- requisition -->
<g id="node20" class="node">
<title>requisition</title>
<path fill="#e8daef" stroke="#555555" stroke-width="1.2" d="M271.39,-827C271.39,-827 228.61,-827 228.61,-827 222.61,-827 216.61,-821 216.61,-815 216.61,-815 216.61,-803 216.61,-803 216.61,-797 222.61,-791 228.61,-791 228.61,-791 271.39,-791 271.39,-791 277.39,-791 283.39,-797 283.39,-803 283.39,-803 283.39,-815 283.39,-815 283.39,-821 277.39,-827 271.39,-827"/>
<text xml:space="preserve" text-anchor="middle" x="250" y="-805.5" font-family="Helvetica Neue,Helvetica,Arial,sans-serif" font-size="10.00">Requisition</text>
</g>
<!-- proposal&#45;&gt;requisition -->
<g id="edge4" class="edge">
<title>proposal&#45;&gt;requisition</title>
<path fill="none" stroke="#666666" stroke-width="2" stroke-dasharray="5,2" d="M303.27,-901.21C293.44,-884.38 279.69,-860.83 268.62,-841.88"/>
<polygon fill="#666666" stroke="#666666" stroke-width="2" points="272.91,-839.52 261.62,-829.9 264.45,-844.46 272.91,-839.52"/>
</g>
<!-- requisition&#45;&gt;po -->
<g id="edge5" class="edge">
<title>requisition&#45;&gt;po</title>
<path fill="none" stroke="#666666" stroke-width="2" stroke-dasharray="5,2" d="M216.03,-792.93C184.08,-777.98 135.66,-753.27 98,-725.07 90.69,-719.6 83.41,-713.08 76.76,-706.58"/>
<polygon fill="#666666" stroke="#666666" stroke-width="2" points="80.29,-703.19 67.01,-696.58 73.27,-710.03 80.29,-703.19"/>
</g>
<!-- backorder -->
<g id="node22" class="node">
<title>backorder</title>
<path fill="#f5cba7" stroke="#555555" stroke-width="1.2" d="M440.24,-50.55C440.24,-50.55 440.24,-57.45 440.24,-57.45 440.24,-60.9 437.18,-65.93 434.12,-67.52 434.12,-67.52 418.11,-75.81 418.11,-75.81 415.05,-77.4 408.53,-78.98 405.08,-78.98 405.08,-78.98 378.92,-78.98 378.92,-78.98 375.47,-78.98 368.95,-77.4 365.89,-75.81 365.89,-75.81 349.88,-67.52 349.88,-67.52 346.82,-65.93 343.76,-60.9 343.76,-57.45 343.76,-57.45 343.76,-50.55 343.76,-50.55 343.76,-47.1 346.82,-42.07 349.88,-40.48 349.88,-40.48 365.89,-32.19 365.89,-32.19 368.95,-30.6 375.47,-29.02 378.92,-29.02 378.92,-29.02 405.08,-29.02 405.08,-29.02 408.53,-29.02 415.05,-30.6 418.11,-32.19 418.11,-32.19 434.12,-40.48 434.12,-40.48 437.18,-42.07 440.24,-47.1 440.24,-50.55"/>
<text xml:space="preserve" text-anchor="middle" x="392" y="-56.5" font-family="Helvetica Neue,Helvetica,Arial,sans-serif" font-size="10.00">Maintain</text>
<text xml:space="preserve" text-anchor="middle" x="392" y="-44.5" font-family="Helvetica Neue,Helvetica,Arial,sans-serif" font-size="10.00">Backorder</text>
</g>
<!-- workflow&#45;&gt;backorder -->
<g id="edge14" class="edge">
<title>workflow&#45;&gt;backorder</title>
<path fill="none" stroke="#666666" stroke-width="2" d="M279.53,-203.8C301,-175.4 337.66,-126.9 363.27,-93.02"/>
<polygon fill="#666666" stroke="#666666" stroke-width="2" points="367.13,-96.03 371.66,-81.91 359.31,-90.12 367.13,-96.03"/>
<text xml:space="preserve" text-anchor="middle" x="340.5" y="-142.5" font-family="Helvetica Neue,Helvetica,Arial,sans-serif" font-size="10.00" fill="#444444">partial</text>
</g>
<!-- invoice -->
<g id="node23" class="node">
<title>invoice</title>
<g id="a_node23"><a xlink:href="vscode://file/Users/williamjames/Documents/CommerceExpert/webClerk3/apps/transactions/models/invoice.py" xlink:title="Invoice — shipment event. Financial event triggers GL and inventory movement.&#10;Model: apps/transactions/models/invoice.py&#10;Functions:&#10; &#160;transfer_order_to_invoice @ apps/transactions/services/order_to_invoice.py:16 (creates invoice from order)&#10; &#160;Pending.objects.create @ apps/transactions/services/order_to_invoice.py:332 (&#45;on_hand, &#45;on_so, +on_in)&#10;Pending deltas: on_hand: &#45;qty, on_so: &#45;qty, on_in: +qty&#10;GL: AR debit, Revenue credit, Tax credit, COGS debit, Inventory credit, Commission" target="_blank">
<path fill="#abebc6" stroke="#555555" stroke-width="1.2" d="M292.76,-94.32C292.76,-94.32 231.24,-94.32 231.24,-94.32 225.24,-94.32 219.24,-88.32 219.24,-82.32 219.24,-82.32 219.24,-25.68 219.24,-25.68 219.24,-19.68 225.24,-13.68 231.24,-13.68 231.24,-13.68 292.76,-13.68 292.76,-13.68 298.76,-13.68 304.76,-19.68 304.76,-25.68 304.76,-25.68 304.76,-82.32 304.76,-82.32 304.76,-88.32 298.76,-94.32 292.76,-94.32"/>
<text xml:space="preserve" text-anchor="middle" x="262" y="-80.5" font-family="Helvetica Neue,Helvetica,Arial,sans-serif" font-size="10.00">Invoice</text>
<text xml:space="preserve" text-anchor="middle" x="262" y="-68.5" font-family="Helvetica Neue,Helvetica,Arial,sans-serif" font-size="10.00">(Invoice model)</text>
<text xml:space="preserve" text-anchor="middle" x="262" y="-44.5" font-family="Helvetica Neue,Helvetica,Arial,sans-serif" font-size="10.00">on_hand &#45;= qty</text>
<text xml:space="preserve" text-anchor="middle" x="262" y="-32.5" font-family="Helvetica Neue,Helvetica,Arial,sans-serif" font-size="10.00">on_so &#45;= qty</text>
<text xml:space="preserve" text-anchor="middle" x="262" y="-20.5" font-family="Helvetica Neue,Helvetica,Arial,sans-serif" font-size="10.00">on_in += qty</text>
</a>
</g>
</g>
<!-- workflow&#45;&gt;invoice -->
<g id="edge15" class="edge">
<title>workflow&#45;&gt;invoice</title>
<path fill="none" stroke="#666666" stroke-width="2" d="M260.85,-195.62C260.41,-182.19 259.96,-166.33 259.75,-152 259.55,-138.88 259.68,-124.77 259.96,-111.48"/>
<polygon fill="#666666" stroke="#666666" stroke-width="2" points="264.86,-111.79 260.32,-97.67 255.06,-111.54 264.86,-111.79"/>
<text xml:space="preserve" text-anchor="middle" x="280.38" y="-142.5" font-family="Helvetica Neue,Helvetica,Arial,sans-serif" font-size="10.00" fill="#444444">complete</text>
</g>
<!-- backorder&#45;&gt;order -->
<g id="edge16" class="edge">
<title>backorder&#45;&gt;order</title>
<path fill="none" stroke="#666666" stroke-width="2" stroke-dasharray="5,2" d="M393.49,-79.33C398.11,-154.72 412.25,-385.29 418.26,-483.23"/>
<polygon fill="#666666" stroke="#666666" stroke-width="2" points="413.36,-483.48 419.11,-497.16 423.14,-482.88 413.36,-483.48"/>
<text xml:space="preserve" text-anchor="middle" x="430.21" y="-320.5" font-family="Helvetica Neue,Helvetica,Arial,sans-serif" font-size="10.00" fill="#444444">remaining</text>
<text xml:space="preserve" text-anchor="middle" x="430.21" y="-308.5" font-family="Helvetica Neue,Helvetica,Arial,sans-serif" font-size="10.00" fill="#444444">qty</text>
</g>
</g>
</svg>
