<?xml version="1.0" encoding="UTF-8" standalone="no"?>
<!DOCTYPE svg PUBLIC "-//W3C//DTD SVG 1.1//EN"
 "http://www.w3.org/Graphics/SVG/1.1/DTD/svg11.dtd">
<!-- Generated by graphviz version 15.1.1 (20260805.0921)
 -->
<!-- Title: wc3_conn_deploy Pages: 1 -->
<svg width="331pt" height="720pt"
 viewBox="0.00 0.00 331.00 720.00" xmlns="http://www.w3.org/2000/svg" xmlns:xlink="http://www.w3.org/1999/xlink">
<g id="graph0" class="graph" transform="scale(0.673092 0.673092) rotate(0) translate(28.8 1040.89)">
<title>wc3_conn_deploy</title>
<polygon fill="white" stroke="none" points="-28.8,28.8 -28.8,-1040.89 463.45,-1040.89 463.45,28.8 -28.8,28.8"/>
<text xml:space="preserve" text-anchor="middle" x="217.32" y="-996.69" font-family="Helvetica Neue,Helvetica,Arial,sans-serif" font-size="12.00">WC3 Connection — Local Server Deployment</text>
<g id="clust1" class="cluster">
<title>cluster_andi</title>
<polygon fill="#f8f9f9" stroke="#bdc3c7" points="12.25,-117 12.25,-695 254.25,-695 254.25,-117 12.25,-117"/>
<text xml:space="preserve" text-anchor="middle" x="133.25" y="-679.6" font-family="Helvetica Neue,Helvetica,Arial,sans-serif" font-size="12.00">Andi (Mac Mini / IT15)</text>
<text xml:space="preserve" text-anchor="middle" x="133.25" y="-664.6" font-family="Helvetica Neue,Helvetica,Arial,sans-serif" font-size="12.00">User&#45;owned hardware</text>
</g>
<!-- dev -->
<g id="node1" class="node">
<title>dev</title>
<path fill="#d4e6f1" stroke="#555555" stroke-width="1.2" d="M232.62,-989.09C232.62,-989.09 173.88,-989.09 173.88,-989.09 167.88,-989.09 161.88,-983.09 161.88,-977.09 161.88,-977.09 161.88,-921.09 161.88,-921.09 161.88,-915.09 167.88,-909.09 173.88,-909.09 173.88,-909.09 232.62,-909.09 232.62,-909.09 238.62,-909.09 244.62,-915.09 244.62,-921.09 244.62,-921.09 244.62,-977.09 244.62,-977.09 244.62,-983.09 238.62,-989.09 232.62,-989.09"/>
<text xml:space="preserve" text-anchor="middle" x="203.25" y="-975.59" font-family="Helvetica Neue,Helvetica,Arial,sans-serif" font-size="10.00">Dev Mac</text>
<text xml:space="preserve" text-anchor="middle" x="203.25" y="-963.59" font-family="Helvetica Neue,Helvetica,Arial,sans-serif" font-size="10.00">(MacBook Pro)</text>
<text xml:space="preserve" text-anchor="middle" x="203.25" y="-939.59" font-family="Helvetica Neue,Helvetica,Arial,sans-serif" font-size="10.00">Code + test</text>
<text xml:space="preserve" text-anchor="middle" x="203.25" y="-927.59" font-family="Helvetica Neue,Helvetica,Arial,sans-serif" font-size="10.00">runserver.sh</text>
<text xml:space="preserve" text-anchor="middle" x="203.25" y="-915.59" font-family="Helvetica Neue,Helvetica,Arial,sans-serif" font-size="10.00">localhost:8000</text>
</g>
<!-- rsync -->
<g id="node2" class="node">
<title>rsync</title>
<path fill="#f5cba7" stroke="#555555" stroke-width="1.2" d="M301.6,-791.49C301.6,-791.49 301.6,-810.6 301.6,-810.6 301.6,-816.6 296.3,-825.41 290.99,-828.22 290.99,-828.22 254.59,-847.48 254.59,-847.48 249.29,-850.28 237.99,-853.09 231.99,-853.09 231.99,-853.09 174.51,-853.09 174.51,-853.09 168.51,-853.09 157.21,-850.28 151.91,-847.48 151.91,-847.48 115.51,-828.22 115.51,-828.22 110.2,-825.41 104.9,-816.6 104.9,-810.6 104.9,-810.6 104.9,-791.49 104.9,-791.49 104.9,-785.49 110.2,-776.68 115.51,-773.87 115.51,-773.87 151.91,-754.61 151.91,-754.61 157.21,-751.81 168.51,-749 174.51,-749 174.51,-749 231.99,-749 231.99,-749 237.99,-749 249.29,-751.81 254.59,-754.61 254.59,-754.61 290.99,-773.87 290.99,-773.87 296.3,-776.68 301.6,-785.49 301.6,-791.49"/>
<text xml:space="preserve" text-anchor="middle" x="203.25" y="-821.54" font-family="Helvetica Neue,Helvetica,Arial,sans-serif" font-size="10.00">rsync</text>
<text xml:space="preserve" text-anchor="middle" x="203.25" y="-797.54" font-family="Helvetica Neue,Helvetica,Arial,sans-serif" font-size="10.00">Deploy to Andi</text>
<text xml:space="preserve" text-anchor="middle" x="203.25" y="-785.54" font-family="Helvetica Neue,Helvetica,Arial,sans-serif" font-size="10.00">Exclude: venv, .git,</text>
<text xml:space="preserve" text-anchor="middle" x="203.25" y="-773.54" font-family="Helvetica Neue,Helvetica,Arial,sans-serif" font-size="10.00">credentials, __pycache__</text>
</g>
<!-- dev&#45;&gt;rsync -->
<g id="edge1" class="edge">
<title>dev&#45;&gt;rsync</title>
<path fill="none" stroke="#666666" stroke-width="2" d="M203.25,-908.57C203.25,-896.82 203.25,-883.6 203.25,-870.56"/>
<polygon fill="#666666" stroke="#666666" stroke-width="2" points="208.15,-870.71 203.25,-856.71 198.35,-870.71 208.15,-870.71"/>
<text xml:space="preserve" text-anchor="middle" x="218.62" y="-877.59" font-family="Helvetica Neue,Helvetica,Arial,sans-serif" font-size="10.00" fill="#444444">deploy</text>
</g>
<!-- nginx -->
<g id="node3" class="node">
<title>nginx</title>
<path fill="#fcf3cf" stroke="#555555" stroke-width="1.2" d="M234.5,-649C234.5,-649 172,-649 172,-649 166,-649 160,-643 160,-637 160,-637 160,-581 160,-581 160,-575 166,-569 172,-569 172,-569 234.5,-569 234.5,-569 240.5,-569 246.5,-575 246.5,-581 246.5,-581 246.5,-637 246.5,-637 246.5,-643 240.5,-649 234.5,-649"/>
<text xml:space="preserve" text-anchor="middle" x="203.25" y="-635.5" font-family="Helvetica Neue,Helvetica,Arial,sans-serif" font-size="10.00">nginx</text>
<text xml:space="preserve" text-anchor="middle" x="203.25" y="-623.5" font-family="Helvetica Neue,Helvetica,Arial,sans-serif" font-size="10.00">(80 / 443)</text>
<text xml:space="preserve" text-anchor="middle" x="203.25" y="-599.5" font-family="Helvetica Neue,Helvetica,Arial,sans-serif" font-size="10.00">SSL termination</text>
<text xml:space="preserve" text-anchor="middle" x="203.25" y="-587.5" font-family="Helvetica Neue,Helvetica,Arial,sans-serif" font-size="10.00">Static files</text>
<text xml:space="preserve" text-anchor="middle" x="203.25" y="-575.5" font-family="Helvetica Neue,Helvetica,Arial,sans-serif" font-size="10.00">Proxy pass</text>
</g>
<!-- rsync&#45;&gt;nginx -->
<g id="edge2" class="edge">
<title>rsync&#45;&gt;nginx</title>
<path fill="none" stroke="#666666" stroke-width="2" d="M203.25,-748.62C203.25,-723.13 203.25,-692.3 203.25,-666.19"/>
<polygon fill="#666666" stroke="#666666" stroke-width="2" points="208.15,-666.44 203.25,-652.44 198.35,-666.44 208.15,-666.44"/>
<text xml:space="preserve" text-anchor="middle" x="218.25" y="-717.5" font-family="Helvetica Neue,Helvetica,Arial,sans-serif" font-size="10.00" fill="#444444">files to</text>
<text xml:space="preserve" text-anchor="middle" x="218.25" y="-705.5" font-family="Helvetica Neue,Helvetica,Arial,sans-serif" font-size="10.00" fill="#444444">Andi</text>
</g>
<!-- gunicorn -->
<g id="node4" class="node">
<title>gunicorn</title>
<path fill="#fcf3cf" stroke="#555555" stroke-width="1.2" d="M214.88,-501C214.88,-501 169.62,-501 169.62,-501 163.62,-501 157.62,-495 157.62,-489 157.62,-489 157.62,-433 157.62,-433 157.62,-427 163.62,-421 169.62,-421 169.62,-421 214.88,-421 214.88,-421 220.88,-421 226.88,-427 226.88,-433 226.88,-433 226.88,-489 226.88,-489 226.88,-495 220.88,-501 214.88,-501"/>
<text xml:space="preserve" text-anchor="middle" x="192.25" y="-487.5" font-family="Helvetica Neue,Helvetica,Arial,sans-serif" font-size="10.00">gunicorn</text>
<text xml:space="preserve" text-anchor="middle" x="192.25" y="-475.5" font-family="Helvetica Neue,Helvetica,Arial,sans-serif" font-size="10.00">(8000)</text>
<text xml:space="preserve" text-anchor="middle" x="192.25" y="-451.5" font-family="Helvetica Neue,Helvetica,Arial,sans-serif" font-size="10.00">4 workers</text>
<text xml:space="preserve" text-anchor="middle" x="192.25" y="-439.5" font-family="Helvetica Neue,Helvetica,Arial,sans-serif" font-size="10.00">Unix socket</text>
<text xml:space="preserve" text-anchor="middle" x="192.25" y="-427.5" font-family="Helvetica Neue,Helvetica,Arial,sans-serif" font-size="10.00">WSGI</text>
</g>
<!-- nginx&#45;&gt;gunicorn -->
<g id="edge3" class="edge">
<title>nginx&#45;&gt;gunicorn</title>
<path fill="none" stroke="#666666" stroke-width="2" d="M200.27,-568.49C199.11,-553.07 197.76,-535.11 196.5,-518.37"/>
<polygon fill="#666666" stroke="#666666" stroke-width="2" points="201.39,-518.15 195.46,-504.56 191.62,-518.89 201.39,-518.15"/>
<text xml:space="preserve" text-anchor="middle" x="211.16" y="-537.5" font-family="Helvetica Neue,Helvetica,Arial,sans-serif" font-size="10.00" fill="#444444">proxy</text>
<text xml:space="preserve" text-anchor="middle" x="211.16" y="-525.5" font-family="Helvetica Neue,Helvetica,Arial,sans-serif" font-size="10.00" fill="#444444">pass</text>
</g>
<!-- cloudflare -->
<g id="node8" class="node">
<title>cloudflare</title>
<path fill="#e8daef" stroke="#555555" stroke-width="1.2" d="M343.88,-501C343.88,-501 274.62,-501 274.62,-501 268.62,-501 262.62,-495 262.62,-489 262.62,-489 262.62,-433 262.62,-433 262.62,-427 268.62,-421 274.62,-421 274.62,-421 343.88,-421 343.88,-421 349.88,-421 355.88,-427 355.88,-433 355.88,-433 355.88,-489 355.88,-489 355.88,-495 349.88,-501 343.88,-501"/>
<text xml:space="preserve" text-anchor="middle" x="309.25" y="-487.5" font-family="Helvetica Neue,Helvetica,Arial,sans-serif" font-size="10.00">Cloudflare Tunnel</text>
<text xml:space="preserve" text-anchor="middle" x="309.25" y="-475.5" font-family="Helvetica Neue,Helvetica,Arial,sans-serif" font-size="10.00">(optional)</text>
<text xml:space="preserve" text-anchor="middle" x="309.25" y="-451.5" font-family="Helvetica Neue,Helvetica,Arial,sans-serif" font-size="10.00">Public access</text>
<text xml:space="preserve" text-anchor="middle" x="309.25" y="-439.5" font-family="Helvetica Neue,Helvetica,Arial,sans-serif" font-size="10.00">DDoS protection</text>
<text xml:space="preserve" text-anchor="middle" x="309.25" y="-427.5" font-family="Helvetica Neue,Helvetica,Arial,sans-serif" font-size="10.00">SSL at edge</text>
</g>
<!-- nginx&#45;&gt;cloudflare -->
<g id="edge7" class="edge">
<title>nginx&#45;&gt;cloudflare</title>
<path fill="none" stroke="#666666" stroke-width="2" d="M231.94,-568.49C243.84,-552.1 257.83,-532.83 270.61,-515.22"/>
<polygon fill="#666666" stroke="#666666" stroke-width="2" points="274.5,-518.2 278.76,-503.99 266.57,-512.44 274.5,-518.2"/>
<text xml:space="preserve" text-anchor="middle" x="282.85" y="-537.5" font-family="Helvetica Neue,Helvetica,Arial,sans-serif" font-size="10.00" fill="#444444">tunnel</text>
<text xml:space="preserve" text-anchor="middle" x="282.85" y="-525.5" font-family="Helvetica Neue,Helvetica,Arial,sans-serif" font-size="10.00" fill="#444444">(optional)</text>
</g>
<!-- public -->
<g id="node9" class="node">
<title>public</title>
<path fill="#d4e6f1" stroke="#555555" stroke-width="1.2" d="M415.12,-347C415.12,-347 341.38,-347 341.38,-347 335.38,-347 329.38,-341 329.38,-335 329.38,-335 329.38,-291 329.38,-291 329.38,-285 335.38,-279 341.38,-279 341.38,-279 415.12,-279 415.12,-279 421.12,-279 427.12,-285 427.12,-291 427.12,-291 427.12,-335 427.12,-335 427.12,-341 421.12,-347 415.12,-347"/>
<text xml:space="preserve" text-anchor="middle" x="378.25" y="-333.5" font-family="Helvetica Neue,Helvetica,Arial,sans-serif" font-size="10.00">Public Internet</text>
<text xml:space="preserve" text-anchor="middle" x="378.25" y="-309.5" font-family="Helvetica Neue,Helvetica,Arial,sans-serif" font-size="10.00">webclerk.com</text>
<text xml:space="preserve" text-anchor="middle" x="378.25" y="-297.5" font-family="Helvetica Neue,Helvetica,Arial,sans-serif" font-size="10.00">/sort /app/ /wcapi/</text>
<text xml:space="preserve" text-anchor="middle" x="378.25" y="-285.5" font-family="Helvetica Neue,Helvetica,Arial,sans-serif" font-size="10.00">/admin/</text>
</g>
<!-- nginx&#45;&gt;public -->
<g id="edge9" class="edge">
<title>nginx&#45;&gt;public</title>
<path fill="none" stroke="#666666" stroke-width="2" stroke-dasharray="5,2" d="M246.74,-592.22C286.17,-575.62 342.78,-545.66 374.25,-501 407.46,-453.86 417.18,-431.42 405.25,-375 404.42,-371.08 403.32,-367.11 402.04,-363.16"/>
<polygon fill="#666666" stroke="#666666" stroke-width="2" points="406.66,-361.51 397.07,-350.18 397.5,-365.01 406.66,-361.51"/>
<text xml:space="preserve" text-anchor="middle" x="422.27" y="-463.5" font-family="Helvetica Neue,Helvetica,Arial,sans-serif" font-size="10.00" fill="#444444">LAN</text>
<text xml:space="preserve" text-anchor="middle" x="422.27" y="-451.5" font-family="Helvetica Neue,Helvetica,Arial,sans-serif" font-size="10.00" fill="#444444">direct</text>
</g>
<!-- django -->
<g id="node5" class="node">
<title>django</title>
<path fill="#abebc6" stroke="#555555" stroke-width="1.2" d="M231,-353C231,-353 153.5,-353 153.5,-353 147.5,-353 141.5,-347 141.5,-341 141.5,-341 141.5,-285 141.5,-285 141.5,-279 147.5,-273 153.5,-273 153.5,-273 231,-273 231,-273 237,-273 243,-279 243,-285 243,-285 243,-341 243,-341 243,-347 237,-353 231,-353"/>
<text xml:space="preserve" text-anchor="middle" x="192.25" y="-339.5" font-family="Helvetica Neue,Helvetica,Arial,sans-serif" font-size="10.00">Django</text>
<text xml:space="preserve" text-anchor="middle" x="192.25" y="-327.5" font-family="Helvetica Neue,Helvetica,Arial,sans-serif" font-size="10.00">(WebClerk3)</text>
<text xml:space="preserve" text-anchor="middle" x="192.25" y="-303.5" font-family="Helvetica Neue,Helvetica,Arial,sans-serif" font-size="10.00">wcapi endpoints</text>
<text xml:space="preserve" text-anchor="middle" x="192.25" y="-291.5" font-family="Helvetica Neue,Helvetica,Arial,sans-serif" font-size="10.00">RBAC enforcement</text>
<text xml:space="preserve" text-anchor="middle" x="192.25" y="-279.5" font-family="Helvetica Neue,Helvetica,Arial,sans-serif" font-size="10.00">Business logic</text>
</g>
<!-- gunicorn&#45;&gt;django -->
<g id="edge4" class="edge">
<title>gunicorn&#45;&gt;django</title>
<path fill="none" stroke="#666666" stroke-width="2" d="M192.25,-420.49C192.25,-405.07 192.25,-387.11 192.25,-370.37"/>
<polygon fill="#666666" stroke="#666666" stroke-width="2" points="197.15,-370.57 192.25,-356.57 187.35,-370.57 197.15,-370.57"/>
</g>
<!-- postgres -->
<g id="node6" class="node">
<title>postgres</title>
<path fill="#fcf3cf" stroke="#555555" stroke-width="1.2" d="M120.25,-205C120.25,-205 32.25,-205 32.25,-205 26.25,-205 20.25,-199 20.25,-193 20.25,-193 20.25,-137 20.25,-137 20.25,-131 26.25,-125 32.25,-125 32.25,-125 120.25,-125 120.25,-125 126.25,-125 132.25,-131 132.25,-137 132.25,-137 132.25,-193 132.25,-193 132.25,-199 126.25,-205 120.25,-205"/>
<text xml:space="preserve" text-anchor="middle" x="76.25" y="-191.5" font-family="Helvetica Neue,Helvetica,Arial,sans-serif" font-size="10.00">PostgreSQL</text>
<text xml:space="preserve" text-anchor="middle" x="76.25" y="-179.5" font-family="Helvetica Neue,Helvetica,Arial,sans-serif" font-size="10.00">(5432)</text>
<text xml:space="preserve" text-anchor="middle" x="76.25" y="-155.5" font-family="Helvetica Neue,Helvetica,Arial,sans-serif" font-size="10.00">commerce_expert DB</text>
<text xml:space="preserve" text-anchor="middle" x="76.25" y="-143.5" font-family="Helvetica Neue,Helvetica,Arial,sans-serif" font-size="10.00">All production data</text>
<text xml:space="preserve" text-anchor="middle" x="76.25" y="-131.5" font-family="Helvetica Neue,Helvetica,Arial,sans-serif" font-size="10.00">Local backups</text>
</g>
<!-- django&#45;&gt;postgres -->
<g id="edge5" class="edge">
<title>django&#45;&gt;postgres</title>
<path fill="none" stroke="#666666" stroke-width="2" d="M150.41,-259.34C139.94,-246.16 128.71,-232.03 118.24,-218.85"/>
<polygon fill="#666666" stroke="#666666" stroke-width="2" points="146.43,-262.21 158.98,-270.12 154.1,-256.11 146.43,-262.21"/>
<polygon fill="#666666" stroke="#666666" stroke-width="2" points="122.1,-215.82 109.55,-207.91 114.42,-221.92 122.1,-215.82"/>
<text xml:space="preserve" text-anchor="middle" x="152.82" y="-235.5" font-family="Helvetica Neue,Helvetica,Arial,sans-serif" font-size="10.00" fill="#444444">ORM</text>
</g>
<!-- redis -->
<g id="node7" class="node">
<title>redis</title>
<path fill="#fcf3cf" stroke="#555555" stroke-width="1.2" d="M234,-205C234,-205 180.5,-205 180.5,-205 174.5,-205 168.5,-199 168.5,-193 168.5,-193 168.5,-137 168.5,-137 168.5,-131 174.5,-125 180.5,-125 180.5,-125 234,-125 234,-125 240,-125 246,-131 246,-137 246,-137 246,-193 246,-193 246,-199 240,-205 234,-205"/>
<text xml:space="preserve" text-anchor="middle" x="207.25" y="-191.5" font-family="Helvetica Neue,Helvetica,Arial,sans-serif" font-size="10.00">Redis</text>
<text xml:space="preserve" text-anchor="middle" x="207.25" y="-179.5" font-family="Helvetica Neue,Helvetica,Arial,sans-serif" font-size="10.00">(6379)</text>
<text xml:space="preserve" text-anchor="middle" x="207.25" y="-155.5" font-family="Helvetica Neue,Helvetica,Arial,sans-serif" font-size="10.00">Cache</text>
<text xml:space="preserve" text-anchor="middle" x="207.25" y="-143.5" font-family="Helvetica Neue,Helvetica,Arial,sans-serif" font-size="10.00">Session store</text>
<text xml:space="preserve" text-anchor="middle" x="207.25" y="-131.5" font-family="Helvetica Neue,Helvetica,Arial,sans-serif" font-size="10.00">Celery broker</text>
</g>
<!-- django&#45;&gt;redis -->
<g id="edge6" class="edge">
<title>django&#45;&gt;redis</title>
<path fill="none" stroke="#666666" stroke-width="2" d="M198.04,-255.66C199.17,-244.68 200.35,-233.17 201.48,-222.19"/>
<polygon fill="#666666" stroke="#666666" stroke-width="2" points="193.18,-255.05 196.62,-269.48 202.92,-256.05 193.18,-255.05"/>
<polygon fill="#666666" stroke="#666666" stroke-width="2" points="206.32,-222.98 202.88,-208.55 196.57,-221.98 206.32,-222.98"/>
<text xml:space="preserve" text-anchor="middle" x="220.52" y="-241.5" font-family="Helvetica Neue,Helvetica,Arial,sans-serif" font-size="10.00" fill="#444444">cache</text>
<text xml:space="preserve" text-anchor="middle" x="220.52" y="-229.5" font-family="Helvetica Neue,Helvetica,Arial,sans-serif" font-size="10.00" fill="#444444">sessions</text>
</g>
<!-- boundary -->
<g id="node10" class="node">
<title>boundary</title>
<polygon fill="#fadbd8" stroke="#555555" stroke-width="1.2" points="146.5,-80 0,-80 0,0 152.5,0 152.5,-74 146.5,-80"/>
<polyline fill="none" stroke="#555555" stroke-width="1.2" points="146.5,-80 146.5,-74"/>
<polyline fill="none" stroke="#555555" stroke-width="1.2" points="152.5,-74 146.5,-74"/>
<text xml:space="preserve" text-anchor="middle" x="76.25" y="-66.5" font-family="Helvetica Neue,Helvetica,Arial,sans-serif" font-size="10.00">DATA SOVEREIGNTY</text>
<text xml:space="preserve" text-anchor="middle" x="76.25" y="-42.5" font-family="Helvetica Neue,Helvetica,Arial,sans-serif" font-size="10.00">User owns hardware and data.</text>
<text xml:space="preserve" text-anchor="middle" x="76.25" y="-30.5" font-family="Helvetica Neue,Helvetica,Arial,sans-serif" font-size="10.00">WC_HQ has no access.</text>
<text xml:space="preserve" text-anchor="middle" x="76.25" y="-18.5" font-family="Helvetica Neue,Helvetica,Arial,sans-serif" font-size="10.00">No cloud dependency.</text>
<text xml:space="preserve" text-anchor="middle" x="76.25" y="-6.5" font-family="Helvetica Neue,Helvetica,Arial,sans-serif" font-size="10.00">Works offline.</text>
</g>
<!-- postgres&#45;&gt;boundary -->
<!-- cloudflare&#45;&gt;public -->
<g id="edge8" class="edge">
<title>cloudflare&#45;&gt;public</title>
<path fill="none" stroke="#666666" stroke-width="2" d="M327.92,-420.49C336.3,-402.77 346.27,-381.68 355.11,-362.96"/>
<polygon fill="#666666" stroke="#666666" stroke-width="2" points="359.53,-365.09 361.08,-350.34 350.66,-360.9 359.53,-365.09"/>
<text xml:space="preserve" text-anchor="middle" x="372.63" y="-389.5" font-family="Helvetica Neue,Helvetica,Arial,sans-serif" font-size="10.00" fill="#444444">expose</text>
<text xml:space="preserve" text-anchor="middle" x="372.63" y="-377.5" font-family="Helvetica Neue,Helvetica,Arial,sans-serif" font-size="10.00" fill="#444444">public URL</text>
</g>
</g>
</svg>
