<?xml version="1.0" encoding="UTF-8" standalone="no"?>
<!DOCTYPE svg PUBLIC "-//W3C//DTD SVG 1.1//EN"
 "http://www.w3.org/Graphics/SVG/1.1/DTD/svg11.dtd">
<!-- Generated by graphviz version 15.1.1 (20260805.0921)
 -->
<!-- Title: wc3_conn_accounting Pages: 1 -->
<svg width="437pt" height="720pt"
 viewBox="0.00 0.00 437.00 720.00" xmlns="http://www.w3.org/2000/svg" xmlns:xlink="http://www.w3.org/1999/xlink">
<g id="graph0" class="graph" transform="scale(0.758227 0.758227) rotate(0) translate(28.8 920.78)">
<title>wc3_conn_accounting</title>
<polygon fill="white" stroke="none" points="-28.8,28.8 -28.8,-920.78 546.92,-920.78 546.92,28.8 -28.8,28.8"/>
<text xml:space="preserve" text-anchor="middle" x="259.06" y="-876.58" font-family="Helvetica Neue,Helvetica,Arial,sans-serif" font-size="12.00">WC3 Connection — Accounting Export Flow</text>
<g id="clust1" class="cluster">
<title>cluster_wc3</title>
<polygon fill="#f8f9f9" stroke="#bdc3c7" points="150,-467 150,-542 481,-542 481,-467 150,-467"/>
<text xml:space="preserve" text-anchor="middle" x="315.5" y="-526.6" font-family="Helvetica Neue,Helvetica,Arial,sans-serif" font-size="12.00">WC3 Production Data</text>
</g>
<g id="clust2" class="cluster">
<title>cluster_accounting</title>
<polygon fill="#f8f9f9" stroke="#bdc3c7" points="8,-8 8,-83 318,-83 318,-8 8,-8"/>
<text xml:space="preserve" text-anchor="middle" x="163" y="-67.6" font-family="Helvetica Neue,Helvetica,Arial,sans-serif" font-size="12.00">External Accounting Program</text>
</g>
<!-- sales -->
<g id="node1" class="node">
<title>sales</title>
<path fill="#fcf3cf" stroke="#555555" stroke-width="1.2" d="M228.38,-511C228.38,-511 169.62,-511 169.62,-511 163.62,-511 157.62,-505 157.62,-499 157.62,-499 157.62,-487 157.62,-487 157.62,-481 163.62,-475 169.62,-475 169.62,-475 228.38,-475 228.38,-475 234.38,-475 240.38,-481 240.38,-487 240.38,-487 240.38,-499 240.38,-499 240.38,-505 234.38,-511 228.38,-511"/>
<text xml:space="preserve" text-anchor="middle" x="199" y="-495.5" font-family="Helvetica Neue,Helvetica,Arial,sans-serif" font-size="10.00">Sales</text>
<text xml:space="preserve" text-anchor="middle" x="199" y="-483.5" font-family="Helvetica Neue,Helvetica,Arial,sans-serif" font-size="10.00">(Invoice model)</text>
</g>
<!-- sales_jrnl -->
<g id="node4" class="node">
<title>sales_jrnl</title>
<path fill="#d5f5e3" stroke="#555555" stroke-width="1.2" d="M234.88,-419C234.88,-419 149.12,-419 149.12,-419 143.12,-419 137.12,-413 137.12,-407 137.12,-407 137.12,-387 137.12,-387 137.12,-381 143.12,-375 149.12,-375 149.12,-375 234.88,-375 234.88,-375 240.88,-375 246.88,-381 246.88,-387 246.88,-387 246.88,-407 246.88,-407 246.88,-413 240.88,-419 234.88,-419"/>
<text xml:space="preserve" text-anchor="middle" x="192" y="-405.5" font-family="Helvetica Neue,Helvetica,Arial,sans-serif" font-size="10.00">Sales Journal</text>
<text xml:space="preserve" text-anchor="middle" x="192" y="-393.5" font-family="Helvetica Neue,Helvetica,Arial,sans-serif" font-size="10.00">Debit AR(1200)</text>
<text xml:space="preserve" text-anchor="middle" x="192" y="-381.5" font-family="Helvetica Neue,Helvetica,Arial,sans-serif" font-size="10.00">Credit Revenue(4000)</text>
</g>
<!-- sales&#45;&gt;sales_jrnl -->
<g id="edge1" class="edge">
<title>sales&#45;&gt;sales_jrnl</title>
<path fill="none" stroke="#666666" stroke-width="2" d="M197.72,-474.76C196.91,-463.92 195.84,-449.51 194.84,-436.09"/>
<polygon fill="#666666" stroke="#666666" stroke-width="2" points="199.75,-436.04 193.82,-422.44 189.97,-436.77 199.75,-436.04"/>
<text xml:space="preserve" text-anchor="middle" x="206.04" y="-443.5" font-family="Helvetica Neue,Helvetica,Arial,sans-serif" font-size="10.00" fill="#444444">post</text>
</g>
<!-- payments -->
<g id="node2" class="node">
<title>payments</title>
<path fill="#fcf3cf" stroke="#555555" stroke-width="1.2" d="M355.12,-511C355.12,-511 288.88,-511 288.88,-511 282.88,-511 276.88,-505 276.88,-499 276.88,-499 276.88,-487 276.88,-487 276.88,-481 282.88,-475 288.88,-475 288.88,-475 355.12,-475 355.12,-475 361.12,-475 367.12,-481 367.12,-487 367.12,-487 367.12,-499 367.12,-499 367.12,-505 361.12,-511 355.12,-511"/>
<text xml:space="preserve" text-anchor="middle" x="322" y="-495.5" font-family="Helvetica Neue,Helvetica,Arial,sans-serif" font-size="10.00">Payments</text>
<text xml:space="preserve" text-anchor="middle" x="322" y="-483.5" font-family="Helvetica Neue,Helvetica,Arial,sans-serif" font-size="10.00">(Payment model)</text>
</g>
<!-- cash_jrnl -->
<g id="node5" class="node">
<title>cash_jrnl</title>
<path fill="#d5f5e3" stroke="#555555" stroke-width="1.2" d="M361.5,-419C361.5,-419 294.5,-419 294.5,-419 288.5,-419 282.5,-413 282.5,-407 282.5,-407 282.5,-387 282.5,-387 282.5,-381 288.5,-375 294.5,-375 294.5,-375 361.5,-375 361.5,-375 367.5,-375 373.5,-381 373.5,-387 373.5,-387 373.5,-407 373.5,-407 373.5,-413 367.5,-419 361.5,-419"/>
<text xml:space="preserve" text-anchor="middle" x="328" y="-405.5" font-family="Helvetica Neue,Helvetica,Arial,sans-serif" font-size="10.00">Cash Journal</text>
<text xml:space="preserve" text-anchor="middle" x="328" y="-393.5" font-family="Helvetica Neue,Helvetica,Arial,sans-serif" font-size="10.00">Debit Cash(1000)</text>
<text xml:space="preserve" text-anchor="middle" x="328" y="-381.5" font-family="Helvetica Neue,Helvetica,Arial,sans-serif" font-size="10.00">Credit AR(1200)</text>
</g>
<!-- payments&#45;&gt;cash_jrnl -->
<g id="edge2" class="edge">
<title>payments&#45;&gt;cash_jrnl</title>
<path fill="none" stroke="#666666" stroke-width="2" d="M323.1,-474.76C323.79,-463.92 324.71,-449.51 325.57,-436.09"/>
<polygon fill="#666666" stroke="#666666" stroke-width="2" points="330.44,-436.73 326.44,-422.44 320.66,-436.1 330.44,-436.73"/>
<text xml:space="preserve" text-anchor="middle" x="335.3" y="-443.5" font-family="Helvetica Neue,Helvetica,Arial,sans-serif" font-size="10.00" fill="#444444">post</text>
</g>
<!-- inventory -->
<g id="node3" class="node">
<title>inventory</title>
<path fill="#fcf3cf" stroke="#555555" stroke-width="1.2" d="M461,-511C461,-511 415,-511 415,-511 409,-511 403,-505 403,-499 403,-499 403,-487 403,-487 403,-481 409,-475 415,-475 415,-475 461,-475 461,-475 467,-475 473,-481 473,-487 473,-487 473,-499 473,-499 473,-505 467,-511 461,-511"/>
<text xml:space="preserve" text-anchor="middle" x="438" y="-495.5" font-family="Helvetica Neue,Helvetica,Arial,sans-serif" font-size="10.00">Inventory</text>
<text xml:space="preserve" text-anchor="middle" x="438" y="-483.5" font-family="Helvetica Neue,Helvetica,Arial,sans-serif" font-size="10.00">(Item model)</text>
</g>
<!-- purch_jrnl -->
<g id="node6" class="node">
<title>purch_jrnl</title>
<path fill="#d5f5e3" stroke="#555555" stroke-width="1.2" d="M506.12,-419C506.12,-419 421.88,-419 421.88,-419 415.88,-419 409.88,-413 409.88,-407 409.88,-407 409.88,-387 409.88,-387 409.88,-381 415.88,-375 421.88,-375 421.88,-375 506.12,-375 506.12,-375 512.12,-375 518.12,-381 518.12,-387 518.12,-387 518.12,-407 518.12,-407 518.12,-413 512.12,-419 506.12,-419"/>
<text xml:space="preserve" text-anchor="middle" x="464" y="-405.5" font-family="Helvetica Neue,Helvetica,Arial,sans-serif" font-size="10.00">Purchase Journal</text>
<text xml:space="preserve" text-anchor="middle" x="464" y="-393.5" font-family="Helvetica Neue,Helvetica,Arial,sans-serif" font-size="10.00">Debit Inventory(1300)</text>
<text xml:space="preserve" text-anchor="middle" x="464" y="-381.5" font-family="Helvetica Neue,Helvetica,Arial,sans-serif" font-size="10.00">Credit AP(2000)</text>
</g>
<!-- inventory&#45;&gt;purch_jrnl -->
<g id="edge3" class="edge">
<title>inventory&#45;&gt;purch_jrnl</title>
<path fill="none" stroke="#666666" stroke-width="2" d="M442.77,-474.76C445.8,-463.8 449.84,-449.18 453.59,-435.64"/>
<polygon fill="#666666" stroke="#666666" stroke-width="2" points="458.26,-437.14 457.27,-422.34 448.81,-434.53 458.26,-437.14"/>
<text xml:space="preserve" text-anchor="middle" x="461.9" y="-443.5" font-family="Helvetica Neue,Helvetica,Arial,sans-serif" font-size="10.00" fill="#444444">post</text>
</g>
<!-- gl -->
<g id="node7" class="node">
<title>gl</title>
<path fill="#abebc6" stroke="#555555" stroke-width="1.2" d="M363,-330C363,-330 287,-330 287,-330 281,-330 275,-324 275,-318 275,-318 275,-274 275,-274 275,-268 281,-262 287,-262 287,-262 363,-262 363,-262 369,-262 375,-268 375,-274 375,-274 375,-318 375,-318 375,-324 369,-330 363,-330"/>
<text xml:space="preserve" text-anchor="middle" x="325" y="-316.5" font-family="Helvetica Neue,Helvetica,Arial,sans-serif" font-size="10.00">General Ledger</text>
<text xml:space="preserve" text-anchor="middle" x="325" y="-304.5" font-family="Helvetica Neue,Helvetica,Arial,sans-serif" font-size="10.00">(JournalEntry)</text>
<text xml:space="preserve" text-anchor="middle" x="325" y="-280.5" font-family="Helvetica Neue,Helvetica,Arial,sans-serif" font-size="10.00">Debits = Credits</text>
<text xml:space="preserve" text-anchor="middle" x="325" y="-268.5" font-family="Helvetica Neue,Helvetica,Arial,sans-serif" font-size="10.00">Double&#45;post guard</text>
</g>
<!-- sales_jrnl&#45;&gt;gl -->
<g id="edge4" class="edge">
<title>sales_jrnl&#45;&gt;gl</title>
<path fill="none" stroke="#666666" stroke-width="2" d="M220.86,-374.52C234.21,-364.58 250.59,-352.39 266.36,-340.65"/>
<polygon fill="#666666" stroke="#666666" stroke-width="2" points="269.25,-344.61 277.55,-332.32 263.4,-336.75 269.25,-344.61"/>
</g>
<!-- cash_jrnl&#45;&gt;gl -->
<g id="edge5" class="edge">
<title>cash_jrnl&#45;&gt;gl</title>
<path fill="none" stroke="#666666" stroke-width="2" d="M327.35,-374.52C327.11,-366.49 326.82,-356.99 326.53,-347.44"/>
<polygon fill="#666666" stroke="#666666" stroke-width="2" points="331.43,-347.38 326.11,-333.54 321.63,-347.68 331.43,-347.38"/>
</g>
<!-- purch_jrnl&#45;&gt;gl -->
<g id="edge6" class="edge">
<title>purch_jrnl&#45;&gt;gl</title>
<path fill="none" stroke="#666666" stroke-width="2" d="M433.84,-374.52C419.74,-364.48 402.42,-352.14 385.78,-340.29"/>
<polygon fill="#666666" stroke="#666666" stroke-width="2" points="388.76,-336.4 374.52,-332.27 383.08,-344.38 388.76,-336.4"/>
</g>
<!-- export -->
<g id="node8" class="node">
<title>export</title>
<path fill="#f5cba7" stroke="#555555" stroke-width="1.2" d="M199.13,-149.35C199.13,-149.35 199.13,-158.65 199.13,-158.65 199.13,-163.3 195.27,-170.54 191.41,-173.13 191.41,-173.13 177.48,-182.49 177.48,-182.49 173.62,-185.08 165.12,-187.68 160.47,-187.68 160.47,-187.68 137.53,-187.68 137.53,-187.68 132.88,-187.68 124.38,-185.08 120.52,-182.49 120.52,-182.49 106.59,-173.13 106.59,-173.13 102.73,-170.54 98.87,-163.3 98.87,-158.65 98.87,-158.65 98.87,-149.35 98.87,-149.35 98.87,-144.7 102.73,-137.46 106.59,-134.87 106.59,-134.87 120.52,-125.51 120.52,-125.51 124.38,-122.92 132.88,-120.32 137.53,-120.32 137.53,-120.32 160.47,-120.32 160.47,-120.32 165.12,-120.32 173.62,-122.92 177.48,-125.51 177.48,-125.51 191.41,-134.87 191.41,-134.87 195.27,-137.46 199.13,-144.7 199.13,-149.35"/>
<text xml:space="preserve" text-anchor="middle" x="149" y="-162.5" font-family="Helvetica Neue,Helvetica,Arial,sans-serif" font-size="10.00">Export</text>
<text xml:space="preserve" text-anchor="middle" x="149" y="-150.5" font-family="Helvetica Neue,Helvetica,Arial,sans-serif" font-size="10.00">GL Entries</text>
<text xml:space="preserve" text-anchor="middle" x="149" y="-138.5" font-family="Helvetica Neue,Helvetica,Arial,sans-serif" font-size="10.00">(CSV / API)</text>
</g>
<!-- gl&#45;&gt;export -->
<g id="edge7" class="edge">
<title>gl&#45;&gt;export</title>
<path fill="none" stroke="#666666" stroke-width="2" d="M282.84,-261.47C256.14,-240.22 221.61,-212.76 194.32,-191.05"/>
<polygon fill="#666666" stroke="#666666" stroke-width="2" points="197.55,-187.36 183.54,-182.48 191.45,-195.03 197.55,-187.36"/>
<text xml:space="preserve" text-anchor="middle" x="273.01" y="-230.5" font-family="Helvetica Neue,Helvetica,Arial,sans-serif" font-size="10.00" fill="#444444">balanced</text>
<text xml:space="preserve" text-anchor="middle" x="273.01" y="-218.5" font-family="Helvetica Neue,Helvetica,Arial,sans-serif" font-size="10.00" fill="#444444">entries</text>
</g>
<!-- boundary -->
<g id="node16" class="node">
<title>boundary</title>
<polygon fill="#fadbd8" stroke="#555555" stroke-width="1.2" points="403.12,-194 240.88,-194 240.88,-114 409.12,-114 409.12,-188 403.12,-194"/>
<polyline fill="none" stroke="#555555" stroke-width="1.2" points="403.12,-194 403.12,-188"/>
<polyline fill="none" stroke="#555555" stroke-width="1.2" points="409.12,-188 403.12,-188"/>
<text xml:space="preserve" text-anchor="middle" x="325" y="-180.5" font-family="Helvetica Neue,Helvetica,Arial,sans-serif" font-size="10.00">HARD BOUNDARY</text>
<text xml:space="preserve" text-anchor="middle" x="325" y="-156.5" font-family="Helvetica Neue,Helvetica,Arial,sans-serif" font-size="10.00">WC3 produces GL entries.</text>
<text xml:space="preserve" text-anchor="middle" x="325" y="-144.5" font-family="Helvetica Neue,Helvetica,Arial,sans-serif" font-size="10.00">Accounting program consumes.</text>
<text xml:space="preserve" text-anchor="middle" x="325" y="-132.5" font-family="Helvetica Neue,Helvetica,Arial,sans-serif" font-size="10.00">WC3 does NOT do checkbooks,</text>
<text xml:space="preserve" text-anchor="middle" x="325" y="-120.5" font-family="Helvetica Neue,Helvetica,Arial,sans-serif" font-size="10.00">payables, P&amp;L, or balance sheets.</text>
</g>
<!-- gl&#45;&gt;boundary -->
<!-- quickbooks -->
<g id="node9" class="node">
<title>quickbooks</title>
<path fill="#e8daef" stroke="#555555" stroke-width="1.2" d="M74.38,-52C74.38,-52 27.62,-52 27.62,-52 21.63,-52 15.62,-46 15.62,-40 15.62,-40 15.62,-28 15.62,-28 15.62,-22 21.62,-16 27.62,-16 27.62,-16 74.38,-16 74.38,-16 80.38,-16 86.38,-22 86.38,-28 86.38,-28 86.38,-40 86.38,-40 86.38,-46 80.38,-52 74.38,-52"/>
<text xml:space="preserve" text-anchor="middle" x="51" y="-30.5" font-family="Helvetica Neue,Helvetica,Arial,sans-serif" font-size="10.00">QuickBooks</text>
</g>
<!-- export&#45;&gt;quickbooks -->
<g id="edge8" class="edge">
<title>export&#45;&gt;quickbooks</title>
<path fill="none" stroke="#666666" stroke-width="2" d="M123.76,-122.61C109.17,-105.05 90.88,-83.02 76.28,-65.44"/>
<polygon fill="#666666" stroke="#666666" stroke-width="2" points="80.16,-62.44 67.45,-54.8 72.62,-68.7 80.16,-62.44"/>
</g>
<!-- xero -->
<g id="node10" class="node">
<title>xero</title>
<path fill="#e8daef" stroke="#555555" stroke-width="1.2" d="M164,-52C164,-52 134,-52 134,-52 128,-52 122,-46 122,-40 122,-40 122,-28 122,-28 122,-22 128,-16 134,-16 134,-16 164,-16 164,-16 170,-16 176,-22 176,-28 176,-28 176,-40 176,-40 176,-46 170,-52 164,-52"/>
<text xml:space="preserve" text-anchor="middle" x="149" y="-30.5" font-family="Helvetica Neue,Helvetica,Arial,sans-serif" font-size="10.00">Xero</text>
</g>
<!-- export&#45;&gt;xero -->
<g id="edge9" class="edge">
<title>export&#45;&gt;xero</title>
<path fill="none" stroke="#666666" stroke-width="2" d="M149,-119.82C149,-104.04 149,-85.2 149,-69.28"/>
<polygon fill="#666666" stroke="#666666" stroke-width="2" points="153.9,-69.33 149,-55.33 144.1,-69.33 153.9,-69.33"/>
</g>
<!-- other_acct -->
<g id="node11" class="node">
<title>other_acct</title>
<path fill="#e8daef" stroke="#555555" stroke-width="1.2" d="M298.25,-52C298.25,-52 223.75,-52 223.75,-52 217.75,-52 211.75,-46 211.75,-40 211.75,-40 211.75,-28 211.75,-28 211.75,-22 217.75,-16 223.75,-16 223.75,-16 298.25,-16 298.25,-16 304.25,-16 310.25,-22 310.25,-28 310.25,-28 310.25,-40 310.25,-40 310.25,-46 304.25,-52 298.25,-52"/>
<text xml:space="preserve" text-anchor="middle" x="261" y="-36.5" font-family="Helvetica Neue,Helvetica,Arial,sans-serif" font-size="10.00">Other</text>
<text xml:space="preserve" text-anchor="middle" x="261" y="-24.5" font-family="Helvetica Neue,Helvetica,Arial,sans-serif" font-size="10.00">(any GL consumer)</text>
</g>
<!-- export&#45;&gt;other_acct -->
<g id="edge10" class="edge">
<title>export&#45;&gt;other_acct</title>
<path fill="none" stroke="#666666" stroke-width="2" d="M176.4,-124.13C193.49,-106.13 215.44,-83 232.7,-64.81"/>
<polygon fill="#666666" stroke="#666666" stroke-width="2" points="236.14,-68.31 242.22,-54.79 229.03,-61.57 236.14,-68.31"/>
</g>
<!-- vendor_bills -->
<g id="node12" class="node">
<title>vendor_bills</title>
<path fill="#d4e6f1" stroke="#555555" stroke-width="1.2" d="M391.62,-868.98C391.62,-868.98 316.38,-868.98 316.38,-868.98 310.38,-868.98 304.38,-862.98 304.38,-856.98 304.38,-856.98 304.38,-836.98 304.38,-836.98 304.38,-830.98 310.38,-824.98 316.38,-824.98 316.38,-824.98 391.62,-824.98 391.62,-824.98 397.62,-824.98 403.62,-830.98 403.62,-836.98 403.62,-836.98 403.62,-856.98 403.62,-856.98 403.62,-862.98 397.62,-868.98 391.62,-868.98"/>
<text xml:space="preserve" text-anchor="middle" x="354" y="-855.48" font-family="Helvetica Neue,Helvetica,Arial,sans-serif" font-size="10.00">Purchase Receipts</text>
<text xml:space="preserve" text-anchor="middle" x="354" y="-843.48" font-family="Helvetica Neue,Helvetica,Arial,sans-serif" font-size="10.00">Vendor Bills</text>
<text xml:space="preserve" text-anchor="middle" x="354" y="-831.48" font-family="Helvetica Neue,Helvetica,Arial,sans-serif" font-size="10.00">(user uploads)</text>
</g>
<!-- import_proc -->
<g id="node13" class="node">
<title>import_proc</title>
<path fill="#f5cba7" stroke="#555555" stroke-width="1.2" d="M408.15,-729.11C408.15,-729.11 408.15,-735.87 408.15,-735.87 408.15,-739.25 405.07,-744.03 401.99,-745.42 401.99,-745.42 382.59,-754.2 382.59,-754.2 379.51,-755.59 373.05,-756.98 369.67,-756.98 369.67,-756.98 338.33,-756.98 338.33,-756.98 334.95,-756.98 328.49,-755.59 325.41,-754.2 325.41,-754.2 306.01,-745.42 306.01,-745.42 302.93,-744.03 299.85,-739.25 299.85,-735.87 299.85,-735.87 299.85,-729.11 299.85,-729.11 299.85,-725.73 302.93,-720.95 306.01,-719.56 306.01,-719.56 325.41,-710.79 325.41,-710.79 328.49,-709.39 334.95,-708 338.33,-708 338.33,-708 369.67,-708 369.67,-708 373.05,-708 379.51,-709.39 382.59,-710.79 382.59,-710.79 401.99,-719.56 401.99,-719.56 405.07,-720.95 408.15,-725.73 408.15,-729.11"/>
<text xml:space="preserve" text-anchor="middle" x="354" y="-734.99" font-family="Helvetica Neue,Helvetica,Arial,sans-serif" font-size="10.00">Import</text>
<text xml:space="preserve" text-anchor="middle" x="354" y="-722.99" font-family="Helvetica Neue,Helvetica,Arial,sans-serif" font-size="10.00">Vendor Data</text>
</g>
<!-- vendor_bills&#45;&gt;import_proc -->
<g id="edge11" class="edge">
<title>vendor_bills&#45;&gt;import_proc</title>
<path fill="none" stroke="#666666" stroke-width="2" d="M354,-824.56C354,-810.44 354,-791.5 354,-774.54"/>
<polygon fill="#666666" stroke="#666666" stroke-width="2" points="358.9,-774.59 354,-760.59 349.1,-774.59 358.9,-774.59"/>
<text xml:space="preserve" text-anchor="middle" x="369.75" y="-793.48" font-family="Helvetica Neue,Helvetica,Arial,sans-serif" font-size="10.00" fill="#444444">manual</text>
<text xml:space="preserve" text-anchor="middle" x="369.75" y="-781.48" font-family="Helvetica Neue,Helvetica,Arial,sans-serif" font-size="10.00" fill="#444444">upload</text>
</g>
<!-- landed_cost -->
<g id="node14" class="node">
<title>landed_cost</title>
<path fill="#abebc6" stroke="#555555" stroke-width="1.2" d="M439.88,-640C439.88,-640 390.12,-640 390.12,-640 384.12,-640 378.12,-634 378.12,-628 378.12,-628 378.12,-608 378.12,-608 378.12,-602 384.12,-596 390.12,-596 390.12,-596 439.88,-596 439.88,-596 445.88,-596 451.88,-602 451.88,-608 451.88,-608 451.88,-628 451.88,-628 451.88,-634 445.88,-640 439.88,-640"/>
<text xml:space="preserve" text-anchor="middle" x="415" y="-626.5" font-family="Helvetica Neue,Helvetica,Arial,sans-serif" font-size="10.00">Landed Cost</text>
<text xml:space="preserve" text-anchor="middle" x="415" y="-614.5" font-family="Helvetica Neue,Helvetica,Arial,sans-serif" font-size="10.00">Update</text>
<text xml:space="preserve" text-anchor="middle" x="415" y="-602.5" font-family="Helvetica Neue,Helvetica,Arial,sans-serif" font-size="10.00">(Item.cost)</text>
</g>
<!-- import_proc&#45;&gt;landed_cost -->
<g id="edge12" class="edge">
<title>import_proc&#45;&gt;landed_cost</title>
<path fill="none" stroke="#666666" stroke-width="2" d="M366.94,-707.64C375.18,-692.43 386.03,-672.43 395.33,-655.27"/>
<polygon fill="#666666" stroke="#666666" stroke-width="2" points="399.51,-657.84 401.88,-643.2 390.9,-653.17 399.51,-657.84"/>
<text xml:space="preserve" text-anchor="middle" x="413.21" y="-676.5" font-family="Helvetica Neue,Helvetica,Arial,sans-serif" font-size="10.00" fill="#444444">update</text>
<text xml:space="preserve" text-anchor="middle" x="413.21" y="-664.5" font-family="Helvetica Neue,Helvetica,Arial,sans-serif" font-size="10.00" fill="#444444">cost basis</text>
</g>
<!-- landed_cost&#45;&gt;inventory -->
<g id="edge13" class="edge">
<title>landed_cost&#45;&gt;inventory</title>
<path fill="none" stroke="#666666" stroke-width="2" stroke-dasharray="5,2" d="M419.01,-595.58C422.49,-576.97 427.59,-549.7 431.62,-528.1"/>
<polygon fill="#666666" stroke="#666666" stroke-width="2" points="436.4,-529.24 434.15,-514.57 426.76,-527.43 436.4,-529.24"/>
<text xml:space="preserve" text-anchor="middle" x="451.56" y="-564.5" font-family="Helvetica Neue,Helvetica,Arial,sans-serif" font-size="10.00" fill="#444444">cost</text>
<text xml:space="preserve" text-anchor="middle" x="451.56" y="-552.5" font-family="Helvetica Neue,Helvetica,Arial,sans-serif" font-size="10.00" fill="#444444">adjustment</text>
</g>
<!-- alice -->
<g id="node15" class="node">
<title>alice</title>
<path fill="#aed6f1" stroke="#555555" stroke-width="1.2" d="M237.75,-868.98C237.75,-868.98 202.25,-868.98 202.25,-868.98 196.25,-868.98 190.25,-862.98 190.25,-856.98 190.25,-856.98 190.25,-836.98 190.25,-836.98 190.25,-830.98 196.25,-824.98 202.25,-824.98 202.25,-824.98 237.75,-824.98 237.75,-824.98 243.75,-824.98 249.75,-830.98 249.75,-836.98 249.75,-836.98 249.75,-856.98 249.75,-856.98 249.75,-862.98 243.75,-868.98 237.75,-868.98"/>
<text xml:space="preserve" text-anchor="middle" x="220" y="-855.48" font-family="Helvetica Neue,Helvetica,Arial,sans-serif" font-size="10.00">Alice</text>
<text xml:space="preserve" text-anchor="middle" x="220" y="-843.48" font-family="Helvetica Neue,Helvetica,Arial,sans-serif" font-size="10.00">Monitors</text>
<text xml:space="preserve" text-anchor="middle" x="220" y="-831.48" font-family="Helvetica Neue,Helvetica,Arial,sans-serif" font-size="10.00">Sync Drift</text>
</g>
<!-- alice&#45;&gt;export -->
<g id="edge14" class="edge">
<title>alice&#45;&gt;export</title>
<path fill="none" stroke="#666666" stroke-width="2" stroke-dasharray="5,2" d="M189.72,-836.47C149.09,-821.59 82,-788.67 82,-733.49 82,-733.49 82,-733.49 82,-295 82,-260.83 98.44,-226.16 115.04,-199.87"/>
<polygon fill="#666666" stroke="#666666" stroke-width="2" points="119.05,-202.68 122.75,-188.32 110.9,-197.24 119.05,-202.68"/>
<text xml:space="preserve" text-anchor="middle" x="98.88" y="-495.5" font-family="Helvetica Neue,Helvetica,Arial,sans-serif" font-size="10.00" fill="#444444">monitor</text>
<text xml:space="preserve" text-anchor="middle" x="98.88" y="-483.5" font-family="Helvetica Neue,Helvetica,Arial,sans-serif" font-size="10.00" fill="#444444">drift</text>
</g>
<!-- alice&#45;&gt;import_proc -->
<g id="edge15" class="edge">
<title>alice&#45;&gt;import_proc</title>
<path fill="none" stroke="#666666" stroke-width="2" stroke-dasharray="5,2" d="M241.68,-824.45C255.6,-810.95 274.28,-793.43 291.75,-778.98 297.79,-773.98 304.33,-768.89 310.82,-764.01"/>
<polygon fill="#666666" stroke="#666666" stroke-width="2" points="313.5,-768.12 321.88,-755.87 307.7,-760.22 313.5,-768.12"/>
<text xml:space="preserve" text-anchor="middle" x="318.38" y="-793.48" font-family="Helvetica Neue,Helvetica,Arial,sans-serif" font-size="10.00" fill="#444444">flag</text>
<text xml:space="preserve" text-anchor="middle" x="318.38" y="-781.48" font-family="Helvetica Neue,Helvetica,Arial,sans-serif" font-size="10.00" fill="#444444">mismatches</text>
</g>
</g>
</svg>
