<?xml version="1.0" encoding="UTF-8" standalone="no"?>
<!DOCTYPE svg PUBLIC "-//W3C//DTD SVG 1.1//EN"
 "http://www.w3.org/Graphics/SVG/1.1/DTD/svg11.dtd">
<!-- Generated by graphviz version 15.1.1 (20260805.0921)
 -->
<!-- Title: exchange_rates Pages: 1 -->
<svg width="366pt" height="720pt"
 viewBox="0.00 0.00 366.00 720.00" xmlns="http://www.w3.org/2000/svg" xmlns:xlink="http://www.w3.org/1999/xlink">
<g id="graph0" class="graph" transform="scale(0.735745 0.735745) rotate(0) translate(28.8 949.8)">
<title>exchange_rates</title>
<polygon fill="white" stroke="none" points="-28.8,28.8 -28.8,-949.8 469.22,-949.8 469.22,28.8 -28.8,28.8"/>
<g id="clust1" class="cluster">
<title>cluster_transaction</title>
<path fill="white" stroke="#666666" d="M132,-238C132,-238 254,-238 254,-238 260,-238 266,-244 266,-250 266,-250 266,-799 266,-799 266,-805 260,-811 254,-811 254,-811 132,-811 132,-811 126,-811 120,-805 120,-799 120,-799 120,-250 120,-250 120,-244 126,-238 132,-238"/>
<text xml:space="preserve" text-anchor="middle" x="193" y="-795.6" font-family="Helvetica Neue,Helvetica,Arial,sans-serif" font-size="12.00">Transaction Lifecycle</text>
</g>
<g id="clust2" class="cluster">
<title>cluster_settlement</title>
<path fill="white" stroke="#666666" d="M20,-8C20,-8 364,-8 364,-8 370,-8 376,-14 376,-20 376,-20 376,-180 376,-180 376,-186 370,-192 364,-192 364,-192 20,-192 20,-192 14,-192 8,-186 8,-180 8,-180 8,-20 8,-20 8,-14 14,-8 20,-8"/>
<text xml:space="preserve" text-anchor="middle" x="192" y="-176.6" font-family="Helvetica Neue,Helvetica,Arial,sans-serif" font-size="12.00">Settlement</text>
</g>
<!-- setting -->
<g id="node1" class="node">
<title>setting</title>
<polygon fill="#e8f5e9" stroke="#555555" stroke-width="1.2" points="430.75,-792 275.25,-792 275.25,-700 436.75,-700 436.75,-786 430.75,-792"/>
<polyline fill="none" stroke="#555555" stroke-width="1.2" points="430.75,-792 430.75,-786"/>
<polyline fill="none" stroke="#555555" stroke-width="1.2" points="436.75,-786 430.75,-786"/>
<text xml:space="preserve" text-anchor="middle" x="356" y="-778.5" font-family="Helvetica Neue,Helvetica,Arial,sans-serif" font-size="10.00">Setting</text>
<text xml:space="preserve" text-anchor="middle" x="356" y="-766.5" font-family="Helvetica Neue,Helvetica,Arial,sans-serif" font-size="10.00">purpose=&#39;exchange_rates&#39;</text>
<text xml:space="preserve" text-anchor="middle" x="356" y="-742.5" font-family="Helvetica Neue,Helvetica,Arial,sans-serif" font-size="10.00">base_currency: USD</text>
<text xml:space="preserve" text-anchor="middle" x="356" y="-730.5" font-family="Helvetica Neue,Helvetica,Arial,sans-serif" font-size="10.00">rates: {EUR: 0.92, GBP: 0.79, ...}</text>
<text xml:space="preserve" text-anchor="middle" x="356" y="-718.5" font-family="Helvetica Neue,Helvetica,Arial,sans-serif" font-size="10.00">precision_convert: 4</text>
<text xml:space="preserve" text-anchor="middle" x="356" y="-706.5" font-family="Helvetica Neue,Helvetica,Arial,sans-serif" font-size="10.00">precision_display: 2</text>
</g>
<!-- capture -->
<g id="node4" class="node">
<title>capture</title>
<path fill="#fff3e0" stroke="#555555" stroke-width="1.2" d="M245.62,-632C245.62,-632 140.38,-632 140.38,-632 134.38,-632 128.38,-626 128.38,-620 128.38,-620 128.38,-564 128.38,-564 128.38,-558 134.38,-552 140.38,-552 140.38,-552 245.62,-552 245.62,-552 251.62,-552 257.62,-558 257.62,-564 257.62,-564 257.62,-620 257.62,-620 257.62,-626 251.62,-632 245.62,-632"/>
<text xml:space="preserve" text-anchor="middle" x="193" y="-618.5" font-family="Helvetica Neue,Helvetica,Arial,sans-serif" font-size="10.00">capture_rate()</text>
<text xml:space="preserve" text-anchor="middle" x="193" y="-594.5" font-family="Helvetica Neue,Helvetica,Arial,sans-serif" font-size="10.00">Stamps on sell envelope:</text>
<text xml:space="preserve" text-anchor="middle" x="193" y="-582.5" font-family="Helvetica Neue,Helvetica,Arial,sans-serif" font-size="10.00">exchange_rate</text>
<text xml:space="preserve" text-anchor="middle" x="193" y="-570.5" font-family="Helvetica Neue,Helvetica,Arial,sans-serif" font-size="10.00">exchange_currency</text>
<text xml:space="preserve" text-anchor="middle" x="193" y="-558.5" font-family="Helvetica Neue,Helvetica,Arial,sans-serif" font-size="10.00">exchange_dt</text>
</g>
<!-- setting&#45;&gt;capture -->
<g id="edge2" class="edge">
<title>setting&#45;&gt;capture</title>
<path fill="none" stroke="#666666" stroke-width="2" d="M315.67,-699.78C301.66,-684.76 285.55,-668.25 270,-654 266.04,-650.37 261.89,-646.71 257.65,-643.08"/>
<polygon fill="#666666" stroke="#666666" stroke-width="2" points="261.01,-639.5 247.12,-634.3 254.73,-647.03 261.01,-639.5"/>
<text xml:space="preserve" text-anchor="middle" x="314.95" y="-662.5" font-family="Helvetica Neue,Helvetica,Arial,sans-serif" font-size="10.00" fill="#444444">get_rate()</text>
</g>
<!-- conn -->
<g id="node2" class="node">
<title>conn</title>
<polygon fill="#e3f2fd" stroke="#555555" stroke-width="1.2" stroke-dasharray="5,2" points="325.12,-921 210.88,-921 210.88,-917 206.88,-917 206.88,-913 210.88,-913 210.88,-861 206.88,-861 206.88,-857 210.88,-857 210.88,-853 325.12,-853 325.12,-921"/>
<polyline fill="none" stroke="#555555" stroke-width="1.2" stroke-dasharray="5,2" points="210.88,-917 214.88,-917 214.88,-913 210.88,-913"/>
<polyline fill="none" stroke="#555555" stroke-width="1.2" stroke-dasharray="5,2" points="210.88,-861 214.88,-861 214.88,-857 210.88,-857"/>
<text xml:space="preserve" text-anchor="middle" x="268" y="-907.5" font-family="Helvetica Neue,Helvetica,Arial,sans-serif" font-size="10.00">Connection</text>
<text xml:space="preserve" text-anchor="middle" x="268" y="-895.5" font-family="Helvetica Neue,Helvetica,Arial,sans-serif" font-size="10.00">(exchange rate API)</text>
<text xml:space="preserve" text-anchor="middle" x="268" y="-871.5" font-family="Helvetica Neue,Helvetica,Arial,sans-serif" font-size="10.00">Auto&#45;update rates</text>
<text xml:space="preserve" text-anchor="middle" x="268" y="-859.5" font-family="Helvetica Neue,Helvetica,Arial,sans-serif" font-size="10.00">on customer schedule</text>
</g>
<!-- conn&#45;&gt;setting -->
<g id="edge1" class="edge">
<title>conn&#45;&gt;setting</title>
<path fill="none" stroke="#666666" stroke-width="2" stroke-dasharray="5,2" d="M289.08,-852.71C297.84,-838.87 308.28,-822.38 318.28,-806.58"/>
<polygon fill="#666666" stroke="#666666" stroke-width="2" points="322.31,-809.38 325.66,-794.93 314.03,-804.14 322.31,-809.38"/>
<text xml:space="preserve" text-anchor="middle" x="329.24" y="-821.5" font-family="Helvetica Neue,Helvetica,Arial,sans-serif" font-size="10.00" fill="#444444">set_rate()</text>
</g>
<!-- create -->
<g id="node3" class="node">
<title>create</title>
<path fill="#fff3e0" stroke="#555555" stroke-width="1.2" d="M227.38,-780C227.38,-780 144.62,-780 144.62,-780 138.62,-780 132.62,-774 132.62,-768 132.62,-768 132.62,-724 132.62,-724 132.62,-718 138.62,-712 144.62,-712 144.62,-712 227.38,-712 227.38,-712 233.38,-712 239.38,-718 239.38,-724 239.38,-724 239.38,-768 239.38,-768 239.38,-774 233.38,-780 227.38,-780"/>
<text xml:space="preserve" text-anchor="middle" x="186" y="-766.5" font-family="Helvetica Neue,Helvetica,Arial,sans-serif" font-size="10.00">Order / Invoice</text>
<text xml:space="preserve" text-anchor="middle" x="186" y="-754.5" font-family="Helvetica Neue,Helvetica,Arial,sans-serif" font-size="10.00">Created</text>
<text xml:space="preserve" text-anchor="middle" x="186" y="-730.5" font-family="Helvetica Neue,Helvetica,Arial,sans-serif" font-size="10.00">All amounts in</text>
<text xml:space="preserve" text-anchor="middle" x="186" y="-718.5" font-family="Helvetica Neue,Helvetica,Arial,sans-serif" font-size="10.00">base currency (USD)</text>
</g>
<!-- create&#45;&gt;capture -->
<g id="edge3" class="edge">
<title>create&#45;&gt;capture</title>
<path fill="none" stroke="#666666" stroke-width="2" d="M187.54,-711.64C188.38,-693.41 189.44,-670.35 190.4,-649.41"/>
<polygon fill="#666666" stroke="#666666" stroke-width="2" points="195.29,-649.71 191.04,-635.5 185.5,-649.26 195.29,-649.71"/>
<text xml:space="preserve" text-anchor="middle" x="225.75" y="-668.5" font-family="Helvetica Neue,Helvetica,Arial,sans-serif" font-size="10.00" fill="#444444">foreign currency</text>
<text xml:space="preserve" text-anchor="middle" x="225.75" y="-656.5" font-family="Helvetica Neue,Helvetica,Arial,sans-serif" font-size="10.00" fill="#444444">customer</text>
</g>
<!-- display -->
<g id="node5" class="node">
<title>display</title>
<path fill="#e8eaf6" stroke="#555555" stroke-width="1.2" d="M239.38,-507C239.38,-507 144.62,-507 144.62,-507 138.62,-507 132.62,-501 132.62,-495 132.62,-495 132.62,-451 132.62,-451 132.62,-445 138.62,-439 144.62,-439 144.62,-439 239.38,-439 239.38,-439 245.38,-439 251.38,-445 251.38,-451 251.38,-451 251.38,-495 251.38,-495 251.38,-501 245.38,-507 239.38,-507"/>
<text xml:space="preserve" text-anchor="middle" x="192" y="-493.5" font-family="Helvetica Neue,Helvetica,Arial,sans-serif" font-size="10.00">Print / Share</text>
<text xml:space="preserve" text-anchor="middle" x="192" y="-481.5" font-family="Helvetica Neue,Helvetica,Arial,sans-serif" font-size="10.00">with Trading Partner</text>
<text xml:space="preserve" text-anchor="middle" x="192" y="-457.5" font-family="Helvetica Neue,Helvetica,Arial,sans-serif" font-size="10.00">convert(amount, &#39;EUR&#39;)</text>
<text xml:space="preserve" text-anchor="middle" x="192" y="-445.5" font-family="Helvetica Neue,Helvetica,Arial,sans-serif" font-size="10.00">using captured rate</text>
</g>
<!-- capture&#45;&gt;display -->
<g id="edge4" class="edge">
<title>capture&#45;&gt;display</title>
<path fill="none" stroke="#666666" stroke-width="2" d="M192.66,-551.72C192.59,-542.98 192.51,-533.6 192.43,-524.48"/>
<polygon fill="#666666" stroke="#666666" stroke-width="2" points="197.33,-524.5 192.31,-510.54 187.53,-524.58 197.33,-524.5"/>
</g>
<!-- payment -->
<g id="node6" class="node">
<title>payment</title>
<g id="a_node6"><a xlink:href="vscode://file/Users/williamjames/Documents/CommerceExpert/webClerk3/apps/transactions/models/payment.py" xlink:title="Payment — handles AR (received) and AP (expense). Signed amounts. Category maps to GL. Statement Sorter feeds expense side.&#10;Model: apps/transactions/models/payment.py&#10;Functions:&#10; &#160;Payment @ apps/transactions/models/payment.py:1 (AR+AP via type field; signed amounts)" target="_blank">
<path fill="#e8f5e9" stroke="#555555" stroke-width="1.2" d="M208.62,-383C208.62,-383 175.38,-383 175.38,-383 169.38,-383 163.38,-377 163.38,-371 163.38,-371 163.38,-359 163.38,-359 163.38,-353 169.38,-347 175.38,-347 175.38,-347 208.62,-347 208.62,-347 214.62,-347 220.62,-353 220.62,-359 220.62,-359 220.62,-371 220.62,-371 220.62,-377 214.62,-383 208.62,-383"/>
<text xml:space="preserve" text-anchor="middle" x="192" y="-367.5" font-family="Helvetica Neue,Helvetica,Arial,sans-serif" font-size="10.00">Payment</text>
<text xml:space="preserve" text-anchor="middle" x="192" y="-355.5" font-family="Helvetica Neue,Helvetica,Arial,sans-serif" font-size="10.00">Received</text>
</a>
</g>
</g>
<!-- display&#45;&gt;payment -->
<g id="edge5" class="edge">
<title>display&#45;&gt;payment</title>
<path fill="none" stroke="#666666" stroke-width="2" d="M192,-438.46C192,-426.3 192,-412.54 192,-400.32"/>
<polygon fill="#666666" stroke="#666666" stroke-width="2" points="196.9,-400.35 192,-386.35 187.1,-400.35 196.9,-400.35"/>
<text xml:space="preserve" text-anchor="middle" x="225" y="-407.5" font-family="Helvetica Neue,Helvetica,Arial,sans-serif" font-size="10.00" fill="#444444">customer pays</text>
</g>
<!-- settle -->
<g id="node7" class="node">
<title>settle</title>
<path fill="#fce4ec" stroke="#555555" stroke-width="1.2" d="M233.38,-302C233.38,-302 150.62,-302 150.62,-302 144.62,-302 138.62,-296 138.62,-290 138.62,-290 138.62,-258 138.62,-258 138.62,-252 144.62,-246 150.62,-246 150.62,-246 233.38,-246 233.38,-246 239.38,-246 245.38,-252 245.38,-258 245.38,-258 245.38,-290 245.38,-290 245.38,-296 239.38,-302 233.38,-302"/>
<text xml:space="preserve" text-anchor="middle" x="192" y="-288.5" font-family="Helvetica Neue,Helvetica,Arial,sans-serif" font-size="10.00">settle_fx_difference()</text>
<text xml:space="preserve" text-anchor="middle" x="192" y="-264.5" font-family="Helvetica Neue,Helvetica,Arial,sans-serif" font-size="10.00">Captured rate vs</text>
<text xml:space="preserve" text-anchor="middle" x="192" y="-252.5" font-family="Helvetica Neue,Helvetica,Arial,sans-serif" font-size="10.00">current bank rate</text>
</g>
<!-- payment&#45;&gt;settle -->
<g id="edge6" class="edge">
<title>payment&#45;&gt;settle</title>
<path fill="none" stroke="#666666" stroke-width="2" d="M192,-346.42C192,-338.56 192,-328.92 192,-319.29"/>
<polygon fill="#666666" stroke="#666666" stroke-width="2" points="196.9,-319.39 192,-305.39 187.1,-319.39 196.9,-319.39"/>
</g>
<!-- no_diff -->
<g id="node8" class="node">
<title>no_diff</title>
<path fill="#e8f5e9" stroke="#555555" stroke-width="1.2" d="M97.62,-155C97.62,-155 28.37,-155 28.37,-155 22.38,-155 16.38,-149 16.38,-143 16.38,-143 16.38,-123 16.38,-123 16.38,-117 22.38,-111 28.38,-111 28.38,-111 97.62,-111 97.62,-111 103.62,-111 109.62,-117 109.62,-123 109.62,-123 109.62,-143 109.62,-143 109.62,-149 103.62,-155 97.62,-155"/>
<text xml:space="preserve" text-anchor="middle" x="63" y="-141.5" font-family="Helvetica Neue,Helvetica,Arial,sans-serif" font-size="10.00">Rates unchanged</text>
<text xml:space="preserve" text-anchor="middle" x="63" y="-117.5" font-family="Helvetica Neue,Helvetica,Arial,sans-serif" font-size="10.00">No action</text>
</g>
<!-- settle&#45;&gt;no_diff -->
<g id="edge7" class="edge">
<title>settle&#45;&gt;no_diff</title>
<path fill="none" stroke="#666666" stroke-width="2" d="M157.4,-245.57C149.52,-238.8 141.38,-231.37 134.25,-224 117.69,-206.87 101.07,-186.12 88.04,-168.86"/>
<polygon fill="#666666" stroke="#666666" stroke-width="2" points="92.1,-166.1 79.83,-157.77 84.22,-171.94 92.1,-166.1"/>
<text xml:space="preserve" text-anchor="middle" x="158.62" y="-208.5" font-family="Helvetica Neue,Helvetica,Arial,sans-serif" font-size="10.00" fill="#444444">rates equal</text>
</g>
<!-- fx_gain -->
<g id="node9" class="node">
<title>fx_gain</title>
<path fill="#c8e6c9" stroke="#555555" stroke-width="1.2" d="M226.62,-161C226.62,-161 157.38,-161 157.38,-161 151.38,-161 145.38,-155 145.38,-149 145.38,-149 145.38,-117 145.38,-117 145.38,-111 151.38,-105 157.38,-105 157.38,-105 226.62,-105 226.62,-105 232.62,-105 238.62,-111 238.62,-117 238.62,-117 238.62,-149 238.62,-149 238.62,-155 232.62,-161 226.62,-161"/>
<text xml:space="preserve" text-anchor="middle" x="192" y="-147.5" font-family="Helvetica Neue,Helvetica,Arial,sans-serif" font-size="10.00">FX Gain</text>
<text xml:space="preserve" text-anchor="middle" x="192" y="-123.5" font-family="Helvetica Neue,Helvetica,Arial,sans-serif" font-size="10.00">Balancing Ledger</text>
<text xml:space="preserve" text-anchor="middle" x="192" y="-111.5" font-family="Helvetica Neue,Helvetica,Arial,sans-serif" font-size="10.00">source=&#39;FX&#39;</text>
</g>
<!-- settle&#45;&gt;fx_gain -->
<g id="edge8" class="edge">
<title>settle&#45;&gt;fx_gain</title>
<path fill="none" stroke="#666666" stroke-width="2" d="M192,-245.54C192,-226.4 192,-200.46 192,-178.41"/>
<polygon fill="#666666" stroke="#666666" stroke-width="2" points="196.9,-178.43 192,-164.43 187.1,-178.43 196.9,-178.43"/>
<text xml:space="preserve" text-anchor="middle" x="217.12" y="-214.5" font-family="Helvetica Neue,Helvetica,Arial,sans-serif" font-size="10.00" fill="#444444">rate moved</text>
<text xml:space="preserve" text-anchor="middle" x="217.12" y="-202.5" font-family="Helvetica Neue,Helvetica,Arial,sans-serif" font-size="10.00" fill="#444444">in our favor</text>
</g>
<!-- fx_loss -->
<g id="node10" class="node">
<title>fx_loss</title>
<path fill="#ffcdd2" stroke="#555555" stroke-width="1.2" d="M355.62,-161C355.62,-161 286.38,-161 286.38,-161 280.38,-161 274.38,-155 274.38,-149 274.38,-149 274.38,-117 274.38,-117 274.38,-111 280.38,-105 286.38,-105 286.38,-105 355.62,-105 355.62,-105 361.62,-105 367.62,-111 367.62,-117 367.62,-117 367.62,-149 367.62,-149 367.62,-155 361.62,-161 355.62,-161"/>
<text xml:space="preserve" text-anchor="middle" x="321" y="-147.5" font-family="Helvetica Neue,Helvetica,Arial,sans-serif" font-size="10.00">FX Loss</text>
<text xml:space="preserve" text-anchor="middle" x="321" y="-123.5" font-family="Helvetica Neue,Helvetica,Arial,sans-serif" font-size="10.00">Balancing Ledger</text>
<text xml:space="preserve" text-anchor="middle" x="321" y="-111.5" font-family="Helvetica Neue,Helvetica,Arial,sans-serif" font-size="10.00">source=&#39;FX&#39;</text>
</g>
<!-- settle&#45;&gt;fx_loss -->
<g id="edge9" class="edge">
<title>settle&#45;&gt;fx_loss</title>
<path fill="none" stroke="#666666" stroke-width="2" d="M227.74,-245.43C235.69,-238.73 243.87,-231.36 251,-224 265.7,-208.82 280.31,-190.66 292.35,-174.63"/>
<polygon fill="#666666" stroke="#666666" stroke-width="2" points="296.07,-177.85 300.41,-163.67 288.17,-172.04 296.07,-177.85"/>
<text xml:space="preserve" text-anchor="middle" x="296.94" y="-214.5" font-family="Helvetica Neue,Helvetica,Arial,sans-serif" font-size="10.00" fill="#444444">rate moved</text>
<text xml:space="preserve" text-anchor="middle" x="296.94" y="-202.5" font-family="Helvetica Neue,Helvetica,Arial,sans-serif" font-size="10.00" fill="#444444">against us</text>
</g>
<!-- journal -->
<g id="node11" class="node">
<title>journal</title>
<path fill="#e8eaf6" stroke="#555555" stroke-width="1.2" d="M282,-60C282,-60 230,-60 230,-60 224,-60 218,-54 218,-48 218,-48 218,-28 218,-28 218,-22 224,-16 230,-16 230,-16 282,-16 282,-16 288,-16 294,-22 294,-28 294,-28 294,-48 294,-48 294,-54 288,-60 282,-60"/>
<text xml:space="preserve" text-anchor="middle" x="256" y="-46.5" font-family="Helvetica Neue,Helvetica,Arial,sans-serif" font-size="10.00">Journalize</text>
<text xml:space="preserve" text-anchor="middle" x="256" y="-34.5" font-family="Helvetica Neue,Helvetica,Arial,sans-serif" font-size="10.00">FX Gain/Loss</text>
<text xml:space="preserve" text-anchor="middle" x="256" y="-22.5" font-family="Helvetica Neue,Helvetica,Arial,sans-serif" font-size="10.00">GL Account</text>
</g>
<!-- fx_gain&#45;&gt;journal -->
<g id="edge10" class="edge">
<title>fx_gain&#45;&gt;journal</title>
<path fill="none" stroke="#666666" stroke-width="2" d="M210.86,-104.6C217.4,-95.1 224.82,-84.3 231.74,-74.26"/>
<polygon fill="#666666" stroke="#666666" stroke-width="2" points="235.72,-77.11 239.62,-62.8 227.65,-71.56 235.72,-77.11"/>
</g>
<!-- fx_loss&#45;&gt;journal -->
<g id="edge11" class="edge">
<title>fx_loss&#45;&gt;journal</title>
<path fill="none" stroke="#666666" stroke-width="2" d="M301.85,-104.6C295.21,-95.1 287.66,-84.3 280.64,-74.26"/>
<polygon fill="#666666" stroke="#666666" stroke-width="2" points="284.66,-71.46 272.63,-62.79 276.63,-77.07 284.66,-71.46"/>
</g>
<!-- manual -->
<g id="node12" class="node">
<title>manual</title>
<ellipse fill="#fff9c4" stroke="#555555" stroke-width="1.2" cx="401" cy="-887" rx="39.42" ry="22.63"/>
<text xml:space="preserve" text-anchor="middle" x="401" y="-889.5" font-family="Helvetica Neue,Helvetica,Arial,sans-serif" font-size="10.00">Manual</text>
<text xml:space="preserve" text-anchor="middle" x="401" y="-877.5" font-family="Helvetica Neue,Helvetica,Arial,sans-serif" font-size="10.00">set_rate()</text>
</g>
<!-- manual&#45;&gt;setting -->
<g id="edge12" class="edge">
<title>manual&#45;&gt;setting</title>
<path fill="none" stroke="#666666" stroke-width="2" d="M393.97,-864.28C389.1,-849.23 382.35,-828.39 375.89,-808.45"/>
<polygon fill="#666666" stroke="#666666" stroke-width="2" points="380.61,-807.11 371.64,-795.3 371.29,-810.13 380.61,-807.11"/>
</g>
</g>
</svg>
