<?xml version="1.0" encoding="UTF-8" standalone="no"?>
<!DOCTYPE svg PUBLIC "-//W3C//DTD SVG 1.1//EN"
 "http://www.w3.org/Graphics/SVG/1.1/DTD/svg11.dtd">
<!-- Generated by graphviz version 13.1.2 (20250808.2320)
 -->
<!-- Title: exchange_rates Pages: 1 -->
<svg width="469pt" height="877pt"
 viewBox="0.00 0.00 469.00 877.00" xmlns="http://www.w3.org/2000/svg" xmlns:xlink="http://www.w3.org/1999/xlink">
<g id="graph0" class="graph" transform="scale(1 1) rotate(0) translate(4 872.5)">
<title>exchange_rates</title>
<polygon fill="#fafafa" stroke="none" points="-4,4 -4,-872.5 465.19,-872.5 465.19,4 -4,4"/>
<g id="clust1" class="cluster">
<title>cluster_transaction</title>
<path fill="#ffffff" stroke="#666666" d="M120,-224C120,-224 248,-224 248,-224 254,-224 260,-230 260,-236 260,-236 260,-751.75 260,-751.75 260,-757.75 254,-763.75 248,-763.75 248,-763.75 120,-763.75 120,-763.75 114,-763.75 108,-757.75 108,-751.75 108,-751.75 108,-236 108,-236 108,-230 114,-224 120,-224"/>
<text xml:space="preserve" text-anchor="middle" x="184" y="-746.45" font-family="Times,serif" font-size="14.00">Transaction Lifecycle</text>
</g>
<g id="clust2" class="cluster">
<title>cluster_settlement</title>
<path fill="#ffffff" stroke="#666666" d="M20,-8C20,-8 348,-8 348,-8 354,-8 360,-14 360,-20 360,-20 360,-174.5 360,-174.5 360,-180.5 354,-186.5 348,-186.5 348,-186.5 20,-186.5 20,-186.5 14,-186.5 8,-180.5 8,-174.5 8,-174.5 8,-20 8,-20 8,-14 14,-8 20,-8"/>
<text xml:space="preserve" text-anchor="middle" x="184" y="-169.2" font-family="Times,serif" font-size="14.00">Settlement</text>
</g>
<!-- setting -->
<g id="node1" class="node">
<title>setting</title>
<polygon fill="#e8f5e9" stroke="black" points="437.88,-743.25 268.12,-743.25 268.12,-650.25 443.88,-650.25 443.88,-737.25 437.88,-743.25"/>
<polyline fill="none" stroke="black" points="437.88,-743.25 437.88,-737.25"/>
<polyline fill="none" stroke="black" points="443.88,-737.25 437.88,-737.25"/>
<text xml:space="preserve" text-anchor="middle" x="356" y="-728.8" font-family="Helvetica,sans-Serif" font-size="11.00">Setting</text>
<text xml:space="preserve" text-anchor="middle" x="356" y="-716.8" font-family="Helvetica,sans-Serif" font-size="11.00">purpose=&#39;exchange_rates&#39;</text>
<text xml:space="preserve" text-anchor="middle" x="356" y="-691.8" font-family="Helvetica,sans-Serif" font-size="11.00">base_currency: USD</text>
<text xml:space="preserve" text-anchor="middle" x="356" y="-679.8" font-family="Helvetica,sans-Serif" font-size="11.00">rates: {EUR: 0.92, GBP: 0.79, ...}</text>
<text xml:space="preserve" text-anchor="middle" x="356" y="-667.8" font-family="Helvetica,sans-Serif" font-size="11.00">precision_convert: 4</text>
<text xml:space="preserve" text-anchor="middle" x="356" y="-655.8" font-family="Helvetica,sans-Serif" font-size="11.00">precision_display: 2</text>
</g>
<!-- capture -->
<g id="node4" class="node">
<title>capture</title>
<polygon fill="#fff3e0" stroke="black" points="252,-594.75 116,-594.75 116,-513.75 252,-513.75 252,-594.75"/>
<text xml:space="preserve" text-anchor="middle" x="184" y="-580.3" font-family="Helvetica,sans-Serif" font-size="11.00">capture_rate()</text>
<text xml:space="preserve" text-anchor="middle" x="184" y="-555.3" font-family="Helvetica,sans-Serif" font-size="11.00">Stamps on sell envelope:</text>
<text xml:space="preserve" text-anchor="middle" x="184" y="-543.3" font-family="Helvetica,sans-Serif" font-size="11.00">exchange_rate</text>
<text xml:space="preserve" text-anchor="middle" x="184" y="-531.3" font-family="Helvetica,sans-Serif" font-size="11.00">exchange_currency</text>
<text xml:space="preserve" text-anchor="middle" x="184" y="-519.3" font-family="Helvetica,sans-Serif" font-size="11.00">exchange_dt</text>
</g>
<!-- setting&#45;&gt;capture -->
<g id="edge2" class="edge">
<title>setting&#45;&gt;capture</title>
<path fill="none" stroke="black" d="M300.16,-650.13C281.44,-634.85 260.55,-617.78 241.69,-602.38"/>
<polygon fill="black" stroke="black" points="244.04,-599.77 234.08,-596.16 239.61,-605.19 244.04,-599.77"/>
<text xml:space="preserve" text-anchor="middle" x="295.03" y="-618.83" font-family="Helvetica,sans-Serif" font-size="9.00">get_rate()</text>
</g>
<!-- conn -->
<g id="node2" class="node">
<title>conn</title>
<polygon fill="#e3f2fd" stroke="black" stroke-dasharray="5,2" points="354.5,-868.5 233.5,-868.5 233.5,-864.5 229.5,-864.5 229.5,-860.5 233.5,-860.5 233.5,-807.5 229.5,-807.5 229.5,-803.5 233.5,-803.5 233.5,-799.5 354.5,-799.5 354.5,-868.5"/>
<polyline fill="none" stroke="black" stroke-dasharray="5,2" points="233.5,-864.5 237.5,-864.5 237.5,-860.5 233.5,-860.5"/>
<polyline fill="none" stroke="black" stroke-dasharray="5,2" points="233.5,-807.5 237.5,-807.5 237.5,-803.5 233.5,-803.5"/>
<text xml:space="preserve" text-anchor="middle" x="294" y="-854.05" font-family="Helvetica,sans-Serif" font-size="11.00">Connection</text>
<text xml:space="preserve" text-anchor="middle" x="294" y="-842.05" font-family="Helvetica,sans-Serif" font-size="11.00">(exchange rate API)</text>
<text xml:space="preserve" text-anchor="middle" x="294" y="-817.05" font-family="Helvetica,sans-Serif" font-size="11.00">Auto&#45;update rates</text>
<text xml:space="preserve" text-anchor="middle" x="294" y="-805.05" font-family="Helvetica,sans-Serif" font-size="11.00">on customer schedule</text>
</g>
<!-- conn&#45;&gt;setting -->
<g id="edge1" class="edge">
<title>conn&#45;&gt;setting</title>
<path fill="none" stroke="black" stroke-dasharray="5,2" d="M309.49,-799.22C315.75,-785.55 323.16,-769.4 330.19,-754.05"/>
<polygon fill="black" stroke="black" points="333.37,-755.51 334.36,-744.96 327.01,-752.6 333.37,-755.51"/>
<text xml:space="preserve" text-anchor="middle" x="340.79" y="-772.95" font-family="Helvetica,sans-Serif" font-size="9.00">set_rate()</text>
</g>
<!-- create -->
<g id="node3" class="node">
<title>create</title>
<polygon fill="#fff3e0" stroke="black" points="243,-731.25 125,-731.25 125,-662.25 243,-662.25 243,-731.25"/>
<text xml:space="preserve" text-anchor="middle" x="184" y="-716.8" font-family="Helvetica,sans-Serif" font-size="11.00">Order / Invoice</text>
<text xml:space="preserve" text-anchor="middle" x="184" y="-704.8" font-family="Helvetica,sans-Serif" font-size="11.00">Created</text>
<text xml:space="preserve" text-anchor="middle" x="184" y="-679.8" font-family="Helvetica,sans-Serif" font-size="11.00">All amounts in</text>
<text xml:space="preserve" text-anchor="middle" x="184" y="-667.8" font-family="Helvetica,sans-Serif" font-size="11.00">base currency (USD)</text>
</g>
<!-- create&#45;&gt;capture -->
<g id="edge3" class="edge">
<title>create&#45;&gt;capture</title>
<path fill="none" stroke="black" d="M184,-662.1C184,-645.42 184,-624.94 184,-606.37"/>
<polygon fill="black" stroke="black" points="187.5,-606.63 184,-596.63 180.5,-606.63 187.5,-606.63"/>
<text xml:space="preserve" text-anchor="middle" x="217" y="-623.7" font-family="Helvetica,sans-Serif" font-size="9.00">foreign currency</text>
<text xml:space="preserve" text-anchor="middle" x="217" y="-613.95" font-family="Helvetica,sans-Serif" font-size="9.00">customer</text>
</g>
<!-- display -->
<g id="node5" class="node">
<title>display</title>
<polygon fill="#e8eaf6" stroke="black" points="248.62,-476.75 119.38,-476.75 119.38,-407.75 248.62,-407.75 248.62,-476.75"/>
<text xml:space="preserve" text-anchor="middle" x="184" y="-462.3" font-family="Helvetica,sans-Serif" font-size="11.00">Print / Share</text>
<text xml:space="preserve" text-anchor="middle" x="184" y="-450.3" font-family="Helvetica,sans-Serif" font-size="11.00">with Trading Partner</text>
<text xml:space="preserve" text-anchor="middle" x="184" y="-425.3" font-family="Helvetica,sans-Serif" font-size="11.00">convert(amount, &#39;EUR&#39;)</text>
<text xml:space="preserve" text-anchor="middle" x="184" y="-413.3" font-family="Helvetica,sans-Serif" font-size="11.00">using captured rate</text>
</g>
<!-- capture&#45;&gt;display -->
<g id="edge4" class="edge">
<title>capture&#45;&gt;display</title>
<path fill="none" stroke="black" d="M184,-513.54C184,-505.42 184,-496.83 184,-488.53"/>
<polygon fill="black" stroke="black" points="187.5,-488.61 184,-478.61 180.5,-488.61 187.5,-488.61"/>
</g>
<!-- payment -->
<g id="node6" class="node">
<title>payment</title>
<polygon fill="#e8f5e9" stroke="black" points="214.5,-362 153.5,-362 153.5,-326 214.5,-326 214.5,-362"/>
<text xml:space="preserve" text-anchor="middle" x="184" y="-345.55" font-family="Helvetica,sans-Serif" font-size="11.00">Payment</text>
<text xml:space="preserve" text-anchor="middle" x="184" y="-333.55" font-family="Helvetica,sans-Serif" font-size="11.00">Received</text>
</g>
<!-- display&#45;&gt;payment -->
<g id="edge5" class="edge">
<title>display&#45;&gt;payment</title>
<path fill="none" stroke="black" d="M184,-407.32C184,-396.42 184,-384.47 184,-373.96"/>
<polygon fill="black" stroke="black" points="187.5,-373.97 184,-363.97 180.5,-373.97 187.5,-373.97"/>
<text xml:space="preserve" text-anchor="middle" x="213.62" y="-381.2" font-family="Helvetica,sans-Serif" font-size="9.00">customer pays</text>
</g>
<!-- settle -->
<g id="node7" class="node">
<title>settle</title>
<polygon fill="#fce4ec" stroke="black" points="242.25,-289 125.75,-289 125.75,-232 242.25,-232 242.25,-289"/>
<text xml:space="preserve" text-anchor="middle" x="184" y="-274.55" font-family="Helvetica,sans-Serif" font-size="11.00">settle_fx_difference()</text>
<text xml:space="preserve" text-anchor="middle" x="184" y="-249.55" font-family="Helvetica,sans-Serif" font-size="11.00">Captured rate vs</text>
<text xml:space="preserve" text-anchor="middle" x="184" y="-237.55" font-family="Helvetica,sans-Serif" font-size="11.00">current bank rate</text>
</g>
<!-- payment&#45;&gt;settle -->
<g id="edge6" class="edge">
<title>payment&#45;&gt;settle</title>
<path fill="none" stroke="black" d="M184,-325.72C184,-318.37 184,-309.49 184,-300.7"/>
<polygon fill="black" stroke="black" points="187.5,-300.85 184,-290.85 180.5,-300.85 187.5,-300.85"/>
</g>
<!-- no_diff -->
<g id="node8" class="node">
<title>no_diff</title>
<polygon fill="#e8f5e9" stroke="black" points="116.38,-148 15.62,-148 15.62,-103 116.38,-103 116.38,-148"/>
<text xml:space="preserve" text-anchor="middle" x="66" y="-133.55" font-family="Helvetica,sans-Serif" font-size="11.00">Rates unchanged</text>
<text xml:space="preserve" text-anchor="middle" x="66" y="-108.55" font-family="Helvetica,sans-Serif" font-size="11.00">No action</text>
</g>
<!-- settle&#45;&gt;no_diff -->
<g id="edge7" class="edge">
<title>settle&#45;&gt;no_diff</title>
<path fill="none" stroke="black" d="M151.92,-231.63C145.87,-225.97 139.73,-219.93 134.25,-214 117.7,-196.1 100.83,-174.51 88,-157.26"/>
<polygon fill="black" stroke="black" points="90.96,-155.37 82.22,-149.39 85.32,-159.52 90.96,-155.37"/>
<text xml:space="preserve" text-anchor="middle" x="157.12" y="-200.57" font-family="Helvetica,sans-Serif" font-size="9.00">rates equal</text>
</g>
<!-- fx_gain -->
<g id="node9" class="node">
<title>fx_gain</title>
<polygon fill="#c8e6c9" stroke="black" points="234,-154 134,-154 134,-97 234,-97 234,-154"/>
<text xml:space="preserve" text-anchor="middle" x="184" y="-139.55" font-family="Helvetica,sans-Serif" font-size="11.00">FX Gain</text>
<text xml:space="preserve" text-anchor="middle" x="184" y="-114.55" font-family="Helvetica,sans-Serif" font-size="11.00">Balancing Ledger</text>
<text xml:space="preserve" text-anchor="middle" x="184" y="-102.55" font-family="Helvetica,sans-Serif" font-size="11.00">source=&#39;FX&#39;</text>
</g>
<!-- settle&#45;&gt;fx_gain -->
<g id="edge8" class="edge">
<title>settle&#45;&gt;fx_gain</title>
<path fill="none" stroke="black" d="M184,-231.62C184,-212.47 184,-186.77 184,-165.58"/>
<polygon fill="black" stroke="black" points="187.5,-165.86 184,-155.86 180.5,-165.86 187.5,-165.86"/>
<text xml:space="preserve" text-anchor="middle" x="206.88" y="-205.45" font-family="Helvetica,sans-Serif" font-size="9.00">rate moved</text>
<text xml:space="preserve" text-anchor="middle" x="206.88" y="-195.7" font-family="Helvetica,sans-Serif" font-size="9.00">in our favor</text>
</g>
<!-- fx_loss -->
<g id="node10" class="node">
<title>fx_loss</title>
<polygon fill="#ffcdd2" stroke="black" points="352,-154 252,-154 252,-97 352,-97 352,-154"/>
<text xml:space="preserve" text-anchor="middle" x="302" y="-139.55" font-family="Helvetica,sans-Serif" font-size="11.00">FX Loss</text>
<text xml:space="preserve" text-anchor="middle" x="302" y="-114.55" font-family="Helvetica,sans-Serif" font-size="11.00">Balancing Ledger</text>
<text xml:space="preserve" text-anchor="middle" x="302" y="-102.55" font-family="Helvetica,sans-Serif" font-size="11.00">source=&#39;FX&#39;</text>
</g>
<!-- settle&#45;&gt;fx_loss -->
<g id="edge9" class="edge">
<title>settle&#45;&gt;fx_loss</title>
<path fill="none" stroke="black" d="M216.26,-231.65C222.33,-225.99 228.5,-219.94 234,-214 248.64,-198.18 263.48,-179.45 275.55,-163.39"/>
<polygon fill="black" stroke="black" points="278.26,-165.61 281.42,-155.5 272.64,-161.44 278.26,-165.61"/>
<text xml:space="preserve" text-anchor="middle" x="272.87" y="-205.45" font-family="Helvetica,sans-Serif" font-size="9.00">rate moved</text>
<text xml:space="preserve" text-anchor="middle" x="272.87" y="-195.7" font-family="Helvetica,sans-Serif" font-size="9.00">against us</text>
</g>
<!-- journal -->
<g id="node11" class="node">
<title>journal</title>
<polygon fill="#e8eaf6" stroke="black" points="283.62,-60 202.38,-60 202.38,-16 283.62,-16 283.62,-60"/>
<text xml:space="preserve" text-anchor="middle" x="243" y="-45.55" font-family="Helvetica,sans-Serif" font-size="11.00">Journalize</text>
<text xml:space="preserve" text-anchor="middle" x="243" y="-33.55" font-family="Helvetica,sans-Serif" font-size="11.00">FX Gain/Loss</text>
<text xml:space="preserve" text-anchor="middle" x="243" y="-21.55" font-family="Helvetica,sans-Serif" font-size="11.00">GL Account</text>
</g>
<!-- fx_gain&#45;&gt;journal -->
<g id="edge10" class="edge">
<title>fx_gain&#45;&gt;journal</title>
<path fill="none" stroke="black" d="M203.32,-96.5C209.23,-87.94 215.76,-78.48 221.79,-69.74"/>
<polygon fill="black" stroke="black" points="224.66,-71.74 227.46,-61.52 218.9,-67.76 224.66,-71.74"/>
</g>
<!-- fx_loss&#45;&gt;journal -->
<g id="edge11" class="edge">
<title>fx_loss&#45;&gt;journal</title>
<path fill="none" stroke="black" d="M282.68,-96.5C276.77,-87.94 270.24,-78.48 264.21,-69.74"/>
<polygon fill="black" stroke="black" points="267.1,-67.76 258.54,-61.52 261.34,-71.74 267.1,-67.76"/>
</g>
<!-- manual -->
<g id="node12" class="node">
<title>manual</title>
<ellipse fill="#fff9c4" stroke="black" cx="417" cy="-834" rx="44.19" ry="22.63"/>
<text xml:space="preserve" text-anchor="middle" x="417" y="-835.55" font-family="Helvetica,sans-Serif" font-size="11.00">Manual</text>
<text xml:space="preserve" text-anchor="middle" x="417" y="-823.55" font-family="Helvetica,sans-Serif" font-size="11.00">set_rate()</text>
</g>
<!-- manual&#45;&gt;setting -->
<g id="edge12" class="edge">
<title>manual&#45;&gt;setting</title>
<path fill="none" stroke="black" d="M407.33,-811.57C400.35,-796.09 390.58,-774.43 381.44,-754.16"/>
<polygon fill="black" stroke="black" points="384.66,-752.78 377.36,-745.1 378.28,-755.65 384.66,-752.78"/>
</g>
</g>
</svg>
