<?xml version="1.0" encoding="UTF-8" standalone="no"?>
<!DOCTYPE svg PUBLIC "-//W3C//DTD SVG 1.1//EN"
 "http://www.w3.org/Graphics/SVG/1.1/DTD/svg11.dtd">
<!-- Generated by graphviz version 15.1.1 (20260805.0921)
 -->
<!-- Title: wc3_conn_internal Pages: 1 -->
<svg width="420pt" height="720pt"
 viewBox="0.00 0.00 420.00 720.00" xmlns="http://www.w3.org/2000/svg" xmlns:xlink="http://www.w3.org/1999/xlink">
<g id="graph0" class="graph" transform="scale(0.726364 0.726364) rotate(0) translate(28.8 962.44)">
<title>wc3_conn_internal</title>
<polygon fill="white" stroke="none" points="-28.8,28.8 -28.8,-962.44 548.85,-962.44 548.85,28.8 -28.8,28.8"/>
<text xml:space="preserve" text-anchor="middle" x="260.03" y="-918.24" font-family="Helvetica Neue,Helvetica,Arial,sans-serif" font-size="12.00">WC3 Connection — Internal Agent Communication</text>
<!-- alice -->
<g id="node1" class="node">
<title>alice</title>
<path fill="#aed6f1" stroke="#555555" stroke-width="1.2" d="M337.8,-910.64C337.8,-910.64 244.55,-910.64 244.55,-910.64 238.55,-910.64 232.55,-904.64 232.55,-898.64 232.55,-898.64 232.55,-842.64 232.55,-842.64 232.55,-836.64 238.55,-830.64 244.55,-830.64 244.55,-830.64 337.8,-830.64 337.8,-830.64 343.8,-830.64 349.8,-836.64 349.8,-842.64 349.8,-842.64 349.8,-898.64 349.8,-898.64 349.8,-904.64 343.8,-910.64 337.8,-910.64"/>
<text xml:space="preserve" text-anchor="middle" x="291.18" y="-897.14" font-family="Helvetica Neue,Helvetica,Arial,sans-serif" font-size="10.00">Alice</text>
<text xml:space="preserve" text-anchor="middle" x="291.18" y="-885.14" font-family="Helvetica Neue,Helvetica,Arial,sans-serif" font-size="10.00">(AI Agent)</text>
<text xml:space="preserve" text-anchor="middle" x="291.18" y="-861.14" font-family="Helvetica Neue,Helvetica,Arial,sans-serif" font-size="10.00">Pattern recognition</text>
<text xml:space="preserve" text-anchor="middle" x="291.18" y="-849.14" font-family="Helvetica Neue,Helvetica,Arial,sans-serif" font-size="10.00">Transaction monitoring</text>
<text xml:space="preserve" text-anchor="middle" x="291.18" y="-837.14" font-family="Helvetica Neue,Helvetica,Arial,sans-serif" font-size="10.00">Housekeeping</text>
</g>
<!-- action -->
<g id="node2" class="node">
<title>action</title>
<g id="a_node2"><a xlink:href="vscode://file/Users/williamjames/Documents/CommerceExpert/webClerk3/apps/core/models/action.py:10" xlink:title="Universal task — who, what, why, when, where, how. References any record. Tracks communication touches.&#10;Model: apps/core/models/action.py:10&#10;Functions:&#10; &#160;Action._pending_attachments @ apps/core/models/action.py:198 (pre_save captures attachment list)&#10; &#160;Action.post_save (linkage) @ apps/core/models/action.py:230 (creates LinkageEntry group for documents)&#10; &#160;Action.contact_id resolve @ apps/core/models/action.py:285 (auto&#45;resolves contact from assigned_to)" target="_blank">
<path fill="#fcf3cf" stroke="#555555" stroke-width="1.2" d="M204.05,-762.64C204.05,-762.64 136.3,-762.64 136.3,-762.64 130.3,-762.64 124.3,-756.64 124.3,-750.64 124.3,-750.64 124.3,-694.64 124.3,-694.64 124.3,-688.64 130.3,-682.64 136.3,-682.64 136.3,-682.64 204.05,-682.64 204.05,-682.64 210.05,-682.64 216.05,-688.64 216.05,-694.64 216.05,-694.64 216.05,-750.64 216.05,-750.64 216.05,-756.64 210.05,-762.64 204.05,-762.64"/>
<text xml:space="preserve" text-anchor="middle" x="170.18" y="-749.14" font-family="Helvetica Neue,Helvetica,Arial,sans-serif" font-size="10.00">Action Record</text>
<text xml:space="preserve" text-anchor="middle" x="170.18" y="-737.14" font-family="Helvetica Neue,Helvetica,Arial,sans-serif" font-size="10.00">(Action model)</text>
<text xml:space="preserve" text-anchor="middle" x="170.18" y="-713.14" font-family="Helvetica Neue,Helvetica,Arial,sans-serif" font-size="10.00">config.escalation</text>
<text xml:space="preserve" text-anchor="middle" x="170.18" y="-701.14" font-family="Helvetica Neue,Helvetica,Arial,sans-serif" font-size="10.00">owner / sunset</text>
<text xml:space="preserve" text-anchor="middle" x="170.18" y="-689.14" font-family="Helvetica Neue,Helvetica,Arial,sans-serif" font-size="10.00">status tracking</text>
</a>
</g>
</g>
<!-- alice&#45;&gt;action -->
<g id="edge1" class="edge">
<title>alice&#45;&gt;action</title>
<path fill="none" stroke="#666666" stroke-width="2" d="M242.61,-830.05C235.41,-823.24 228.34,-815.99 222.18,-808.64 214.15,-799.07 206.52,-788.14 199.69,-777.38"/>
<polygon fill="#666666" stroke="#666666" stroke-width="2" points="203.95,-774.95 192.5,-765.53 195.58,-780.04 203.95,-774.95"/>
<text xml:space="preserve" text-anchor="middle" x="244.68" y="-799.14" font-family="Helvetica Neue,Helvetica,Arial,sans-serif" font-size="10.00" fill="#444444">creates</text>
<text xml:space="preserve" text-anchor="middle" x="244.68" y="-787.14" font-family="Helvetica Neue,Helvetica,Arial,sans-serif" font-size="10.00" fill="#444444">escalation</text>
</g>
<!-- wc3_instance -->
<g id="node5" class="node">
<title>wc3_instance</title>
<path fill="#fcf3cf" stroke="#555555" stroke-width="1.2" d="M461.93,-756.64C461.93,-756.64 396.43,-756.64 396.43,-756.64 390.43,-756.64 384.43,-750.64 384.43,-744.64 384.43,-744.64 384.43,-700.64 384.43,-700.64 384.43,-694.64 390.43,-688.64 396.43,-688.64 396.43,-688.64 461.93,-688.64 461.93,-688.64 467.93,-688.64 473.93,-694.64 473.93,-700.64 473.93,-700.64 473.93,-744.64 473.93,-744.64 473.93,-750.64 467.93,-756.64 461.93,-756.64"/>
<text xml:space="preserve" text-anchor="middle" x="429.18" y="-743.14" font-family="Helvetica Neue,Helvetica,Arial,sans-serif" font-size="10.00">WC3 Instance</text>
<text xml:space="preserve" text-anchor="middle" x="429.18" y="-731.14" font-family="Helvetica Neue,Helvetica,Arial,sans-serif" font-size="10.00">(retailer/org)</text>
<text xml:space="preserve" text-anchor="middle" x="429.18" y="-707.14" font-family="Helvetica Neue,Helvetica,Arial,sans-serif" font-size="10.00">Local database</text>
<text xml:space="preserve" text-anchor="middle" x="429.18" y="-695.14" font-family="Helvetica Neue,Helvetica,Arial,sans-serif" font-size="10.00">Local commerce</text>
</g>
<!-- alice&#45;&gt;wc3_instance -->
<g id="edge11" class="edge">
<title>alice&#45;&gt;wc3_instance</title>
<path fill="none" stroke="#666666" stroke-width="2" stroke-dasharray="5,2" d="M328.52,-830.13C346.2,-811.42 367.42,-788.97 385.81,-769.52"/>
<polygon fill="#666666" stroke="#666666" stroke-width="2" points="389.28,-772.98 395.34,-759.44 382.16,-766.25 389.28,-772.98"/>
<text xml:space="preserve" text-anchor="middle" x="387.19" y="-799.14" font-family="Helvetica Neue,Helvetica,Arial,sans-serif" font-size="10.00" fill="#444444">monitor</text>
<text xml:space="preserve" text-anchor="middle" x="387.19" y="-787.14" font-family="Helvetica Neue,Helvetica,Arial,sans-serif" font-size="10.00" fill="#444444">patterns</text>
</g>
<!-- alice_review -->
<g id="node7" class="node">
<title>alice_review</title>
<path fill="#aed6f1" stroke="#555555" stroke-width="1.2" d="M414.44,-362.58C414.44,-362.58 414.44,-381.69 414.44,-381.69 414.44,-387.69 409.44,-397.02 404.44,-400.34 404.44,-400.34 378.58,-417.53 378.58,-417.53 373.59,-420.86 362.59,-424.18 356.59,-424.18 356.59,-424.18 315.76,-424.18 315.76,-424.18 309.76,-424.18 298.76,-420.86 293.77,-417.53 293.77,-417.53 267.91,-400.34 267.91,-400.34 262.91,-397.02 257.92,-387.69 257.92,-381.69 257.92,-381.69 257.92,-362.58 257.92,-362.58 257.92,-356.58 262.91,-347.25 267.91,-343.93 267.91,-343.93 293.77,-326.74 293.77,-326.74 298.76,-323.41 309.76,-320.09 315.76,-320.09 315.76,-320.09 356.59,-320.09 356.59,-320.09 362.59,-320.09 373.59,-323.41 378.58,-326.74 378.58,-326.74 404.44,-343.93 404.44,-343.93 409.44,-347.25 414.44,-356.58 414.44,-362.58"/>
<text xml:space="preserve" text-anchor="middle" x="336.18" y="-392.63" font-family="Helvetica Neue,Helvetica,Arial,sans-serif" font-size="10.00">Alice Reviews</text>
<text xml:space="preserve" text-anchor="middle" x="336.18" y="-368.63" font-family="Helvetica Neue,Helvetica,Arial,sans-serif" font-size="10.00">Validate bundle</text>
<text xml:space="preserve" text-anchor="middle" x="336.18" y="-356.63" font-family="Helvetica Neue,Helvetica,Arial,sans-serif" font-size="10.00">Check schema drift</text>
<text xml:space="preserve" text-anchor="middle" x="336.18" y="-344.63" font-family="Helvetica Neue,Helvetica,Arial,sans-serif" font-size="10.00">Flag anomalies</text>
</g>
<!-- alice&#45;&gt;alice_review -->
<g id="edge12" class="edge">
<title>alice&#45;&gt;alice_review</title>
<path fill="none" stroke="#666666" stroke-width="2" stroke-dasharray="5,2" d="M294.75,-830.26C302.4,-745.86 320.45,-546.62 330,-441.23"/>
<polygon fill="#666666" stroke="#666666" stroke-width="2" points="334.86,-441.94 331.24,-427.56 325.1,-441.06 334.86,-441.94"/>
<text xml:space="preserve" text-anchor="middle" x="335.37" y="-651.14" font-family="Helvetica Neue,Helvetica,Arial,sans-serif" font-size="10.00" fill="#444444">schema</text>
<text xml:space="preserve" text-anchor="middle" x="335.37" y="-639.14" font-family="Helvetica Neue,Helvetica,Arial,sans-serif" font-size="10.00" fill="#444444">drift check</text>
</g>
<!-- leftshoe -->
<g id="node4" class="node">
<title>leftshoe</title>
<path fill="#f5cba7" stroke="#555555" stroke-width="1.2" d="M239.82,-540.05C239.82,-540.05 239.82,-566.77 239.82,-566.77 239.82,-572.77 235.32,-582.73 230.81,-586.69 230.81,-586.69 208.04,-606.72 208.04,-606.72 203.53,-610.68 193.03,-614.64 187.03,-614.64 187.03,-614.64 153.33,-614.64 153.33,-614.64 147.33,-614.64 136.82,-610.68 132.31,-606.72 132.31,-606.72 109.54,-586.69 109.54,-586.69 105.03,-582.73 100.53,-572.77 100.53,-566.77 100.53,-566.77 100.53,-540.05 100.53,-540.05 100.53,-534.05 105.03,-524.09 109.54,-520.12 109.54,-520.12 132.31,-500.1 132.31,-500.1 136.82,-496.14 147.33,-492.18 153.33,-492.18 153.33,-492.18 187.03,-492.18 187.03,-492.18 193.03,-492.18 203.53,-496.14 208.04,-500.1 208.04,-500.1 230.81,-520.12 230.81,-520.12 235.32,-524.09 239.82,-534.05 239.82,-540.05"/>
<text xml:space="preserve" text-anchor="middle" x="170.18" y="-579.91" font-family="Helvetica Neue,Helvetica,Arial,sans-serif" font-size="10.00">leftshoe</text>
<text xml:space="preserve" text-anchor="middle" x="170.18" y="-567.91" font-family="Helvetica Neue,Helvetica,Arial,sans-serif" font-size="10.00">(MCP tool)</text>
<text xml:space="preserve" text-anchor="middle" x="170.18" y="-543.91" font-family="Helvetica Neue,Helvetica,Arial,sans-serif" font-size="10.00">Session opening</text>
<text xml:space="preserve" text-anchor="middle" x="170.18" y="-531.91" font-family="Helvetica Neue,Helvetica,Arial,sans-serif" font-size="10.00">Team status</text>
<text xml:space="preserve" text-anchor="middle" x="170.18" y="-519.91" font-family="Helvetica Neue,Helvetica,Arial,sans-serif" font-size="10.00">Action queue</text>
</g>
<!-- action&#45;&gt;leftshoe -->
<g id="edge2" class="edge">
<title>action&#45;&gt;leftshoe</title>
<path fill="none" stroke="#666666" stroke-width="2" d="M170.18,-682.43C170.18,-667.29 170.18,-649.42 170.18,-631.9"/>
<polygon fill="#666666" stroke="#666666" stroke-width="2" points="175.08,-632 170.18,-618 165.28,-632 175.08,-632"/>
<text xml:space="preserve" text-anchor="middle" x="194.18" y="-651.14" font-family="Helvetica Neue,Helvetica,Arial,sans-serif" font-size="10.00" fill="#444444">queued for</text>
<text xml:space="preserve" text-anchor="middle" x="194.18" y="-639.14" font-family="Helvetica Neue,Helvetica,Arial,sans-serif" font-size="10.00" fill="#444444">pickup</text>
</g>
<!-- claude -->
<g id="node3" class="node">
<title>claude</title>
<path fill="#d4e6f1" stroke="#555555" stroke-width="1.2" d="M86.3,-406.13C86.3,-406.13 14.05,-406.13 14.05,-406.13 8.05,-406.13 2.05,-400.13 2.05,-394.13 2.05,-394.13 2.05,-350.13 2.05,-350.13 2.05,-344.13 8.05,-338.13 14.05,-338.13 14.05,-338.13 86.3,-338.13 86.3,-338.13 92.3,-338.13 98.3,-344.13 98.3,-350.13 98.3,-350.13 98.3,-394.13 98.3,-394.13 98.3,-400.13 92.3,-406.13 86.3,-406.13"/>
<text xml:space="preserve" text-anchor="middle" x="50.18" y="-392.63" font-family="Helvetica Neue,Helvetica,Arial,sans-serif" font-size="10.00">Claude Code</text>
<text xml:space="preserve" text-anchor="middle" x="50.18" y="-368.63" font-family="Helvetica Neue,Helvetica,Arial,sans-serif" font-size="10.00">Pickup at leftshoe</text>
<text xml:space="preserve" text-anchor="middle" x="50.18" y="-356.63" font-family="Helvetica Neue,Helvetica,Arial,sans-serif" font-size="10.00">Process actions</text>
<text xml:space="preserve" text-anchor="middle" x="50.18" y="-344.63" font-family="Helvetica Neue,Helvetica,Arial,sans-serif" font-size="10.00">Write code / fixes</text>
</g>
<!-- claude&#45;&gt;action -->
<g id="edge4" class="edge">
<title>claude&#45;&gt;action</title>
<path fill="none" stroke="#666666" stroke-width="2" stroke-dasharray="5,2" d="M33.63,-406.49C12.02,-455.14 -19.14,-547.1 16.18,-614.64 35.67,-651.92 74.72,-678.82 108.61,-696.33"/>
<polygon fill="#666666" stroke="#666666" stroke-width="2" points="106.29,-700.65 121.02,-702.39 110.59,-691.84 106.29,-700.65"/>
<text xml:space="preserve" text-anchor="middle" x="49.18" y="-555.91" font-family="Helvetica Neue,Helvetica,Arial,sans-serif" font-size="10.00" fill="#444444">resolves</text>
<text xml:space="preserve" text-anchor="middle" x="49.18" y="-543.91" font-family="Helvetica Neue,Helvetica,Arial,sans-serif" font-size="10.00" fill="#444444">updates status</text>
</g>
<!-- leftshoe&#45;&gt;claude -->
<g id="edge3" class="edge">
<title>leftshoe&#45;&gt;claude</title>
<path fill="none" stroke="#666666" stroke-width="2" d="M133.85,-498.13C117.34,-473.47 97.98,-444.55 82.05,-420.75"/>
<polygon fill="#666666" stroke="#666666" stroke-width="2" points="86.16,-418.09 74.31,-409.18 78.02,-423.54 86.16,-418.09"/>
<text xml:space="preserve" text-anchor="middle" x="131.77" y="-460.68" font-family="Helvetica Neue,Helvetica,Arial,sans-serif" font-size="10.00" fill="#444444">session</text>
<text xml:space="preserve" text-anchor="middle" x="131.77" y="-448.68" font-family="Helvetica Neue,Helvetica,Arial,sans-serif" font-size="10.00" fill="#444444">opening</text>
</g>
<!-- bundle -->
<g id="node6" class="node">
<title>bundle</title>
<path fill="#f5cba7" stroke="#555555" stroke-width="1.2" d="M443.8,-593.41C443.8,-593.41 362.55,-593.41 362.55,-593.41 356.55,-593.41 350.55,-587.41 350.55,-581.41 350.55,-581.41 350.55,-525.41 350.55,-525.41 350.55,-519.41 356.55,-513.41 362.55,-513.41 362.55,-513.41 443.8,-513.41 443.8,-513.41 449.8,-513.41 455.8,-519.41 455.8,-525.41 455.8,-525.41 455.8,-581.41 455.8,-581.41 455.8,-587.41 449.8,-593.41 443.8,-593.41"/>
<text xml:space="preserve" text-anchor="middle" x="403.18" y="-579.91" font-family="Helvetica Neue,Helvetica,Arial,sans-serif" font-size="10.00">Bundle</text>
<text xml:space="preserve" text-anchor="middle" x="403.18" y="-555.91" font-family="Helvetica Neue,Helvetica,Arial,sans-serif" font-size="10.00">Template sync</text>
<text xml:space="preserve" text-anchor="middle" x="403.18" y="-543.91" font-family="Helvetica Neue,Helvetica,Arial,sans-serif" font-size="10.00">Schema feedback</text>
<text xml:space="preserve" text-anchor="middle" x="403.18" y="-531.91" font-family="Helvetica Neue,Helvetica,Arial,sans-serif" font-size="10.00">Layout submissions</text>
<text xml:space="preserve" text-anchor="middle" x="403.18" y="-519.91" font-family="Helvetica Neue,Helvetica,Arial,sans-serif" font-size="10.00">Audit trail</text>
</g>
<!-- wc3_instance&#45;&gt;bundle -->
<g id="edge5" class="edge">
<title>wc3_instance&#45;&gt;bundle</title>
<path fill="none" stroke="#666666" stroke-width="2" d="M423.98,-688.2C420.53,-666.02 415.92,-636.37 411.92,-610.62"/>
<polygon fill="#666666" stroke="#666666" stroke-width="2" points="416.78,-610.04 409.79,-596.96 407.1,-611.54 416.78,-610.04"/>
<text xml:space="preserve" text-anchor="middle" x="439.89" y="-651.14" font-family="Helvetica Neue,Helvetica,Arial,sans-serif" font-size="10.00" fill="#444444">submit</text>
<text xml:space="preserve" text-anchor="middle" x="439.89" y="-639.14" font-family="Helvetica Neue,Helvetica,Arial,sans-serif" font-size="10.00" fill="#444444">feedback</text>
</g>
<!-- bundle&#45;&gt;alice_review -->
<g id="edge6" class="edge">
<title>bundle&#45;&gt;alice_review</title>
<path fill="none" stroke="#666666" stroke-width="2" d="M388.47,-513.07C380.51,-491.76 370.45,-464.85 361.29,-440.33"/>
<polygon fill="#666666" stroke="#666666" stroke-width="2" points="365.98,-438.88 356.49,-427.48 356.8,-442.31 365.98,-438.88"/>
<text xml:space="preserve" text-anchor="middle" x="388.94" y="-454.68" font-family="Helvetica Neue,Helvetica,Arial,sans-serif" font-size="10.00" fill="#444444">validate</text>
</g>
<!-- wc_hq -->
<g id="node8" class="node">
<title>wc_hq</title>
<path fill="#d4e6f1" stroke="#555555" stroke-width="1.2" d="M400.55,-252.09C400.55,-252.09 311.8,-252.09 311.8,-252.09 305.8,-252.09 299.8,-246.09 299.8,-240.09 299.8,-240.09 299.8,-184.09 299.8,-184.09 299.8,-178.09 305.8,-172.09 311.8,-172.09 311.8,-172.09 400.55,-172.09 400.55,-172.09 406.55,-172.09 412.55,-178.09 412.55,-184.09 412.55,-184.09 412.55,-240.09 412.55,-240.09 412.55,-246.09 406.55,-252.09 400.55,-252.09"/>
<text xml:space="preserve" text-anchor="middle" x="356.18" y="-238.59" font-family="Helvetica Neue,Helvetica,Arial,sans-serif" font-size="10.00">WC_HQ</text>
<text xml:space="preserve" text-anchor="middle" x="356.18" y="-226.59" font-family="Helvetica Neue,Helvetica,Arial,sans-serif" font-size="10.00">(headquarters)</text>
<text xml:space="preserve" text-anchor="middle" x="356.18" y="-202.59" font-family="Helvetica Neue,Helvetica,Arial,sans-serif" font-size="10.00">Reviews submissions</text>
<text xml:space="preserve" text-anchor="middle" x="356.18" y="-190.59" font-family="Helvetica Neue,Helvetica,Arial,sans-serif" font-size="10.00">Distributes updates</text>
<text xml:space="preserve" text-anchor="middle" x="356.18" y="-178.59" font-family="Helvetica Neue,Helvetica,Arial,sans-serif" font-size="10.00">Maintains standards</text>
</g>
<!-- alice_review&#45;&gt;wc_hq -->
<g id="edge7" class="edge">
<title>alice_review&#45;&gt;wc_hq</title>
<path fill="none" stroke="#666666" stroke-width="2" d="M342.67,-319.82C344.71,-303.72 346.97,-285.86 349.05,-269.43"/>
<polygon fill="#666666" stroke="#666666" stroke-width="2" points="353.9,-270.14 350.79,-255.64 344.17,-268.91 353.9,-270.14"/>
<text xml:space="preserve" text-anchor="middle" x="369.34" y="-288.59" font-family="Helvetica Neue,Helvetica,Arial,sans-serif" font-size="10.00" fill="#444444">approved</text>
<text xml:space="preserve" text-anchor="middle" x="369.34" y="-276.59" font-family="Helvetica Neue,Helvetica,Arial,sans-serif" font-size="10.00" fill="#444444">bundles</text>
</g>
<!-- distribute -->
<g id="node9" class="node">
<title>distribute</title>
<path fill="#f5cba7" stroke="#555555" stroke-width="1.2" d="M501.88,-42.49C501.88,-42.49 501.88,-61.6 501.88,-61.6 501.88,-67.6 496.82,-76.83 491.76,-80.05 491.76,-80.05 464.14,-97.64 464.14,-97.64 459.08,-100.87 448.02,-104.09 442.02,-104.09 442.02,-104.09 398.33,-104.09 398.33,-104.09 392.33,-104.09 381.27,-100.87 376.21,-97.64 376.21,-97.64 348.59,-80.05 348.59,-80.05 343.53,-76.83 338.47,-67.6 338.47,-61.6 338.47,-61.6 338.47,-42.49 338.47,-42.49 338.47,-36.49 343.53,-27.26 348.59,-24.04 348.59,-24.04 376.21,-6.45 376.21,-6.45 381.27,-3.22 392.33,0 398.33,0 398.33,0 442.02,0 442.02,0 448.02,0 459.08,-3.22 464.14,-6.45 464.14,-6.45 491.76,-24.04 491.76,-24.04 496.82,-27.26 501.88,-36.49 501.88,-42.49"/>
<text xml:space="preserve" text-anchor="middle" x="420.18" y="-72.54" font-family="Helvetica Neue,Helvetica,Arial,sans-serif" font-size="10.00">Distribute</text>
<text xml:space="preserve" text-anchor="middle" x="420.18" y="-48.54" font-family="Helvetica Neue,Helvetica,Arial,sans-serif" font-size="10.00">Approved templates</text>
<text xml:space="preserve" text-anchor="middle" x="420.18" y="-36.54" font-family="Helvetica Neue,Helvetica,Arial,sans-serif" font-size="10.00">Schema updates</text>
<text xml:space="preserve" text-anchor="middle" x="420.18" y="-24.54" font-family="Helvetica Neue,Helvetica,Arial,sans-serif" font-size="10.00">Policy changes</text>
</g>
<!-- wc_hq&#45;&gt;distribute -->
<g id="edge8" class="edge">
<title>wc_hq&#45;&gt;distribute</title>
<path fill="none" stroke="#666666" stroke-width="2" d="M372.16,-171.62C378.45,-156.08 385.86,-137.79 392.95,-120.29"/>
<polygon fill="#666666" stroke="#666666" stroke-width="2" points="397.48,-122.16 398.19,-107.34 388.39,-118.48 397.48,-122.16"/>
<text xml:space="preserve" text-anchor="middle" x="408.47" y="-140.59" font-family="Helvetica Neue,Helvetica,Arial,sans-serif" font-size="10.00" fill="#444444">review</text>
<text xml:space="preserve" text-anchor="middle" x="408.47" y="-128.59" font-family="Helvetica Neue,Helvetica,Arial,sans-serif" font-size="10.00" fill="#444444">approve</text>
</g>
<!-- distribute&#45;&gt;wc3_instance -->
<g id="edge9" class="edge">
<title>distribute&#45;&gt;wc3_instance</title>
<path fill="none" stroke="#666666" stroke-width="2" stroke-dasharray="5,2" d="M432.18,-104.39C433.66,-111.65 435.04,-119.04 436.18,-126.09 470.77,-341.11 485.96,-397.17 474.18,-614.64 473.06,-635.17 476.12,-641.28 469.18,-660.64 467.57,-665.11 465.58,-669.58 463.35,-673.95"/>
<polygon fill="#666666" stroke="#666666" stroke-width="2" points="459.33,-671.12 456.56,-685.69 467.81,-676.02 459.33,-671.12"/>
<text xml:space="preserve" text-anchor="middle" x="498.3" y="-374.63" font-family="Helvetica Neue,Helvetica,Arial,sans-serif" font-size="10.00" fill="#444444">updates</text>
<text xml:space="preserve" text-anchor="middle" x="498.3" y="-362.63" font-family="Helvetica Neue,Helvetica,Arial,sans-serif" font-size="10.00" fill="#444444">templates</text>
</g>
<!-- internal_tools -->
<g id="node10" class="node">
<title>internal_tools</title>
<path fill="#d5f5e3" stroke="#555555" stroke-width="1.2" d="M478.43,-904.64C478.43,-904.64 397.93,-904.64 397.93,-904.64 391.93,-904.64 385.93,-898.64 385.93,-892.64 385.93,-892.64 385.93,-848.64 385.93,-848.64 385.93,-842.64 391.93,-836.64 397.93,-836.64 397.93,-836.64 478.43,-836.64 478.43,-836.64 484.43,-836.64 490.43,-842.64 490.43,-848.64 490.43,-848.64 490.43,-892.64 490.43,-892.64 490.43,-898.64 484.43,-904.64 478.43,-904.64"/>
<text xml:space="preserve" text-anchor="middle" x="438.18" y="-891.14" font-family="Helvetica Neue,Helvetica,Arial,sans-serif" font-size="10.00">Internal Tools</text>
<text xml:space="preserve" text-anchor="middle" x="438.18" y="-867.14" font-family="Helvetica Neue,Helvetica,Arial,sans-serif" font-size="10.00">Statement Sorter</text>
<text xml:space="preserve" text-anchor="middle" x="438.18" y="-855.14" font-family="Helvetica Neue,Helvetica,Arial,sans-serif" font-size="10.00">databrowser</text>
<text xml:space="preserve" text-anchor="middle" x="438.18" y="-843.14" font-family="Helvetica Neue,Helvetica,Arial,sans-serif" font-size="10.00">Conversion pipeline</text>
</g>
<!-- internal_tools&#45;&gt;wc3_instance -->
<g id="edge10" class="edge">
<title>internal_tools&#45;&gt;wc3_instance</title>
<path fill="none" stroke="#666666" stroke-width="2" d="M435.08,-819.34C434.18,-804.75 433.19,-788.82 432.29,-774.21"/>
<polygon fill="#666666" stroke="#666666" stroke-width="2" points="430.17,-819.45 435.93,-833.12 439.95,-818.85 430.17,-819.45"/>
<polygon fill="#666666" stroke="#666666" stroke-width="2" points="437.19,-773.92 431.43,-760.25 427.4,-774.53 437.19,-773.92"/>
<text xml:space="preserve" text-anchor="middle" x="459.72" y="-799.14" font-family="Helvetica Neue,Helvetica,Arial,sans-serif" font-size="10.00" fill="#444444">self&#45;service</text>
<text xml:space="preserve" text-anchor="middle" x="459.72" y="-787.14" font-family="Helvetica Neue,Helvetica,Arial,sans-serif" font-size="10.00" fill="#444444">tools</text>
</g>
</g>
</svg>
