<?xml version="1.0" encoding="UTF-8" standalone="no"?>
<!DOCTYPE svg PUBLIC "-//W3C//DTD SVG 1.1//EN"
 "http://www.w3.org/Graphics/SVG/1.1/DTD/svg11.dtd">
<!-- Generated by graphviz version 13.1.2 (20250808.2320)
 -->
<!-- Title: wc3_conn_accounting Pages: 1 -->
<svg width="1222pt" height="954pt"
 viewBox="0.00 0.00 1222.00 954.00" xmlns="http://www.w3.org/2000/svg" xmlns:xlink="http://www.w3.org/1999/xlink">
<g id="graph0" class="graph" transform="scale(1 1) rotate(0) translate(28.8 924.96)">
<title>wc3_conn_accounting</title>
<polygon fill="white" stroke="none" points="-28.8,28.8 -28.8,-924.96 1193.02,-924.96 1193.02,28.8 -28.8,28.8"/>
<text xml:space="preserve" text-anchor="middle" x="582.11" y="-880.76" font-family="Helvetica Neue,Helvetica,Arial,sans-serif" font-size="12.00">WC3 Connection — Accounting Export Flow</text>
<g id="clust1" class="cluster">
<title>cluster_wc3</title>
<polygon fill="#f8f9f9" stroke="#bdc3c7" points="380.53,-468.92 380.53,-543.92 1084.82,-543.92 1084.82,-468.92 380.53,-468.92"/>
<text xml:space="preserve" text-anchor="middle" x="732.68" y="-528.52" font-family="Helvetica Neue,Helvetica,Arial,sans-serif" font-size="12.00">WC3 Production Data</text>
</g>
<g id="clust2" class="cluster">
<title>cluster_accounting</title>
<polygon fill="#f8f9f9" stroke="#bdc3c7" points="16.82,-8 16.82,-83 676.96,-83 676.96,-8 16.82,-8"/>
<text xml:space="preserve" text-anchor="middle" x="346.89" y="-67.6" font-family="Helvetica Neue,Helvetica,Arial,sans-serif" font-size="12.00">External Accounting Program</text>
</g>
<!-- sales -->
<g id="node1" class="node">
<title>sales</title>
<path fill="#fcf3cf" stroke="#555555" stroke-width="1.2" d="M516.09,-513C516.09,-513 456.06,-513 456.06,-513 450.06,-513 444.06,-507 444.06,-501 444.06,-501 444.06,-489 444.06,-489 444.06,-483 450.06,-477 456.06,-477 456.06,-477 516.09,-477 516.09,-477 522.09,-477 528.09,-483 528.09,-489 528.09,-489 528.09,-501 528.09,-501 528.09,-507 522.09,-513 516.09,-513"/>
<text xml:space="preserve" text-anchor="middle" x="486.08" y="-497.5" font-family="Helvetica Neue,Helvetica,Arial,sans-serif" font-size="10.00">Sales</text>
<text xml:space="preserve" text-anchor="middle" x="486.08" y="-485.5" font-family="Helvetica Neue,Helvetica,Arial,sans-serif" font-size="10.00">(Invoice model)</text>
</g>
<!-- sales_jrnl -->
<g id="node4" class="node">
<title>sales_jrnl</title>
<path fill="#d5f5e3" stroke="#555555" stroke-width="1.2" d="M514.59,-421.32C514.59,-421.32 427.56,-421.32 427.56,-421.32 421.56,-421.32 415.56,-415.32 415.56,-409.32 415.56,-409.32 415.56,-388.68 415.56,-388.68 415.56,-382.68 421.56,-376.68 427.56,-376.68 427.56,-376.68 514.59,-376.68 514.59,-376.68 520.59,-376.68 526.59,-382.68 526.59,-388.68 526.59,-388.68 526.59,-409.32 526.59,-409.32 526.59,-415.32 520.59,-421.32 514.59,-421.32"/>
<text xml:space="preserve" text-anchor="middle" x="471.08" y="-407.5" font-family="Helvetica Neue,Helvetica,Arial,sans-serif" font-size="10.00">Sales Journal</text>
<text xml:space="preserve" text-anchor="middle" x="471.08" y="-395.5" font-family="Helvetica Neue,Helvetica,Arial,sans-serif" font-size="10.00">Debit AR(1200)</text>
<text xml:space="preserve" text-anchor="middle" x="471.08" y="-383.5" font-family="Helvetica Neue,Helvetica,Arial,sans-serif" font-size="10.00">Credit Revenue(4000)</text>
</g>
<!-- sales&#45;&gt;sales_jrnl -->
<g id="edge1" class="edge">
<title>sales&#45;&gt;sales_jrnl</title>
<path fill="none" stroke="#666666" stroke-width="2" d="M483.33,-476.76C481.61,-466 479.33,-451.7 477.2,-438.36"/>
<polygon fill="#666666" stroke="#666666" stroke-width="2" points="482.07,-437.81 475.03,-424.75 472.4,-439.35 482.07,-437.81"/>
<text xml:space="preserve" text-anchor="middle" x="489.6" y="-445.5" font-family="Helvetica Neue,Helvetica,Arial,sans-serif" font-size="10.00" fill="#444444">post</text>
</g>
<!-- payments -->
<g id="node2" class="node">
<title>payments</title>
<path fill="#fcf3cf" stroke="#555555" stroke-width="1.2" d="M779.84,-513C779.84,-513 712.31,-513 712.31,-513 706.31,-513 700.31,-507 700.31,-501 700.31,-501 700.31,-489 700.31,-489 700.31,-483 706.31,-477 712.31,-477 712.31,-477 779.84,-477 779.84,-477 785.84,-477 791.84,-483 791.84,-489 791.84,-489 791.84,-501 791.84,-501 791.84,-507 785.84,-513 779.84,-513"/>
<text xml:space="preserve" text-anchor="middle" x="746.08" y="-497.5" font-family="Helvetica Neue,Helvetica,Arial,sans-serif" font-size="10.00">Payments</text>
<text xml:space="preserve" text-anchor="middle" x="746.08" y="-485.5" font-family="Helvetica Neue,Helvetica,Arial,sans-serif" font-size="10.00">(Payment model)</text>
</g>
<!-- cash_jrnl -->
<g id="node5" class="node">
<title>cash_jrnl</title>
<path fill="#d5f5e3" stroke="#555555" stroke-width="1.2" d="M795.22,-421.32C795.22,-421.32 726.94,-421.32 726.94,-421.32 720.94,-421.32 714.94,-415.32 714.94,-409.32 714.94,-409.32 714.94,-388.68 714.94,-388.68 714.94,-382.68 720.94,-376.68 726.94,-376.68 726.94,-376.68 795.22,-376.68 795.22,-376.68 801.22,-376.68 807.22,-382.68 807.22,-388.68 807.22,-388.68 807.22,-409.32 807.22,-409.32 807.22,-415.32 801.22,-421.32 795.22,-421.32"/>
<text xml:space="preserve" text-anchor="middle" x="761.08" y="-407.5" font-family="Helvetica Neue,Helvetica,Arial,sans-serif" font-size="10.00">Cash Journal</text>
<text xml:space="preserve" text-anchor="middle" x="761.08" y="-395.5" font-family="Helvetica Neue,Helvetica,Arial,sans-serif" font-size="10.00">Debit Cash(1000)</text>
<text xml:space="preserve" text-anchor="middle" x="761.08" y="-383.5" font-family="Helvetica Neue,Helvetica,Arial,sans-serif" font-size="10.00">Credit AR(1200)</text>
</g>
<!-- payments&#45;&gt;cash_jrnl -->
<g id="edge2" class="edge">
<title>payments&#45;&gt;cash_jrnl</title>
<path fill="none" stroke="#666666" stroke-width="2" d="M748.83,-476.76C750.55,-466 752.83,-451.7 754.96,-438.36"/>
<polygon fill="#666666" stroke="#666666" stroke-width="2" points="759.76,-439.35 757.13,-424.75 750.08,-437.81 759.76,-439.35"/>
<text xml:space="preserve" text-anchor="middle" x="764.15" y="-445.5" font-family="Helvetica Neue,Helvetica,Arial,sans-serif" font-size="10.00" fill="#444444">post</text>
</g>
<!-- inventory -->
<g id="node3" class="node">
<title>inventory</title>
<path fill="#fcf3cf" stroke="#555555" stroke-width="1.2" d="M1015.72,-513C1015.72,-513 968.44,-513 968.44,-513 962.44,-513 956.44,-507 956.44,-501 956.44,-501 956.44,-489 956.44,-489 956.44,-483 962.44,-477 968.44,-477 968.44,-477 1015.72,-477 1015.72,-477 1021.72,-477 1027.72,-483 1027.72,-489 1027.72,-489 1027.72,-501 1027.72,-501 1027.72,-507 1021.72,-513 1015.72,-513"/>
<text xml:space="preserve" text-anchor="middle" x="992.08" y="-497.5" font-family="Helvetica Neue,Helvetica,Arial,sans-serif" font-size="10.00">Inventory</text>
<text xml:space="preserve" text-anchor="middle" x="992.08" y="-485.5" font-family="Helvetica Neue,Helvetica,Arial,sans-serif" font-size="10.00">(Item model)</text>
</g>
<!-- purch_jrnl -->
<g id="node6" class="node">
<title>purch_jrnl</title>
<path fill="#d5f5e3" stroke="#555555" stroke-width="1.2" d="M1091.84,-421.32C1091.84,-421.32 1006.31,-421.32 1006.31,-421.32 1000.31,-421.32 994.31,-415.32 994.31,-409.32 994.31,-409.32 994.31,-388.68 994.31,-388.68 994.31,-382.68 1000.31,-376.68 1006.31,-376.68 1006.31,-376.68 1091.84,-376.68 1091.84,-376.68 1097.84,-376.68 1103.84,-382.68 1103.84,-388.68 1103.84,-388.68 1103.84,-409.32 1103.84,-409.32 1103.84,-415.32 1097.84,-421.32 1091.84,-421.32"/>
<text xml:space="preserve" text-anchor="middle" x="1049.08" y="-407.5" font-family="Helvetica Neue,Helvetica,Arial,sans-serif" font-size="10.00">Purchase Journal</text>
<text xml:space="preserve" text-anchor="middle" x="1049.08" y="-395.5" font-family="Helvetica Neue,Helvetica,Arial,sans-serif" font-size="10.00">Debit Inventory(1300)</text>
<text xml:space="preserve" text-anchor="middle" x="1049.08" y="-383.5" font-family="Helvetica Neue,Helvetica,Arial,sans-serif" font-size="10.00">Credit AP(2000)</text>
</g>
<!-- inventory&#45;&gt;purch_jrnl -->
<g id="edge3" class="edge">
<title>inventory&#45;&gt;purch_jrnl</title>
<path fill="none" stroke="#666666" stroke-width="2" d="M1002.53,-476.76C1009.43,-465.39 1018.71,-450.08 1027.17,-436.13"/>
<polygon fill="#666666" stroke="#666666" stroke-width="2" points="1031.24,-438.86 1034.31,-424.35 1022.86,-433.78 1031.24,-438.86"/>
<text xml:space="preserve" text-anchor="middle" x="1032.41" y="-445.5" font-family="Helvetica Neue,Helvetica,Arial,sans-serif" font-size="10.00" fill="#444444">post</text>
</g>
<!-- gl -->
<g id="node7" class="node">
<title>gl</title>
<path fill="#abebc6" stroke="#555555" stroke-width="1.2" d="M757.72,-331.32C757.72,-331.32 680.44,-331.32 680.44,-331.32 674.44,-331.32 668.44,-325.32 668.44,-319.32 668.44,-319.32 668.44,-274.68 668.44,-274.68 668.44,-268.68 674.44,-262.68 680.44,-262.68 680.44,-262.68 757.72,-262.68 757.72,-262.68 763.72,-262.68 769.72,-268.68 769.72,-274.68 769.72,-274.68 769.72,-319.32 769.72,-319.32 769.72,-325.32 763.72,-331.32 757.72,-331.32"/>
<text xml:space="preserve" text-anchor="middle" x="719.08" y="-317.5" font-family="Helvetica Neue,Helvetica,Arial,sans-serif" font-size="10.00">General Ledger</text>
<text xml:space="preserve" text-anchor="middle" x="719.08" y="-305.5" font-family="Helvetica Neue,Helvetica,Arial,sans-serif" font-size="10.00">(JournalEntry)</text>
<text xml:space="preserve" text-anchor="middle" x="719.08" y="-281.5" font-family="Helvetica Neue,Helvetica,Arial,sans-serif" font-size="10.00">Debits = Credits</text>
<text xml:space="preserve" text-anchor="middle" x="719.08" y="-269.5" font-family="Helvetica Neue,Helvetica,Arial,sans-serif" font-size="10.00">Double&#45;post guard</text>
</g>
<!-- sales_jrnl&#45;&gt;gl -->
<g id="edge4" class="edge">
<title>sales_jrnl&#45;&gt;gl</title>
<path fill="none" stroke="#666666" stroke-width="2" d="M525.2,-376.18C562.61,-361.09 612.62,-340.93 652.48,-324.85"/>
<polygon fill="#666666" stroke="#666666" stroke-width="2" points="654.08,-329.49 665.23,-319.71 650.42,-320.4 654.08,-329.49"/>
</g>
<!-- cash_jrnl&#45;&gt;gl -->
<g id="edge5" class="edge">
<title>cash_jrnl&#45;&gt;gl</title>
<path fill="none" stroke="#666666" stroke-width="2" d="M751.97,-376.3C748.39,-367.78 744.12,-357.63 739.87,-347.5"/>
<polygon fill="#666666" stroke="#666666" stroke-width="2" points="744.41,-345.65 734.47,-334.64 735.37,-349.45 744.41,-345.65"/>
</g>
<!-- purch_jrnl&#45;&gt;gl -->
<g id="edge6" class="edge">
<title>purch_jrnl&#45;&gt;gl</title>
<path fill="none" stroke="#666666" stroke-width="2" d="M993.84,-381.26C936.7,-363.95 847.41,-336.89 786.22,-318.35"/>
<polygon fill="#666666" stroke="#666666" stroke-width="2" points="787.87,-313.72 773.05,-314.35 785.02,-323.1 787.87,-313.72"/>
</g>
<!-- export -->
<g id="node8" class="node">
<title>export</title>
<path fill="#f5cba7" stroke="#555555" stroke-width="1.2" d="M368.19,-149.28C368.19,-149.28 368.19,-158.72 368.19,-158.72 368.19,-163.43 364.27,-170.77 360.35,-173.4 360.35,-173.4 346.09,-182.92 346.09,-182.92 342.17,-185.54 333.53,-188.17 328.82,-188.17 328.82,-188.17 305.34,-188.17 305.34,-188.17 300.63,-188.17 291.99,-185.54 288.06,-182.92 288.06,-182.92 273.81,-173.4 273.81,-173.4 269.89,-170.77 265.97,-163.43 265.97,-158.72 265.97,-158.72 265.97,-149.28 265.97,-149.28 265.97,-144.57 269.89,-137.23 273.81,-134.6 273.81,-134.6 288.06,-125.08 288.06,-125.08 291.99,-122.46 300.63,-119.83 305.34,-119.83 305.34,-119.83 328.82,-119.83 328.82,-119.83 333.53,-119.83 342.17,-122.46 346.09,-125.08 346.09,-125.08 360.35,-134.6 360.35,-134.6 364.27,-137.23 368.19,-144.57 368.19,-149.28"/>
<text xml:space="preserve" text-anchor="middle" x="317.08" y="-162.5" font-family="Helvetica Neue,Helvetica,Arial,sans-serif" font-size="10.00">Export</text>
<text xml:space="preserve" text-anchor="middle" x="317.08" y="-150.5" font-family="Helvetica Neue,Helvetica,Arial,sans-serif" font-size="10.00">GL Entries</text>
<text xml:space="preserve" text-anchor="middle" x="317.08" y="-138.5" font-family="Helvetica Neue,Helvetica,Arial,sans-serif" font-size="10.00">(CSV / API)</text>
</g>
<!-- gl&#45;&gt;export -->
<g id="edge7" class="edge">
<title>gl&#45;&gt;export</title>
<path fill="none" stroke="#666666" stroke-width="2" d="M668.17,-278.14C594.74,-252.39 459.22,-204.85 379.74,-176.98"/>
<polygon fill="#666666" stroke="#666666" stroke-width="2" points="381.84,-172.52 367.01,-172.51 378.6,-181.77 381.84,-172.52"/>
<text xml:space="preserve" text-anchor="middle" x="574.34" y="-231.5" font-family="Helvetica Neue,Helvetica,Arial,sans-serif" font-size="10.00" fill="#444444">balanced</text>
<text xml:space="preserve" text-anchor="middle" x="574.34" y="-219.5" font-family="Helvetica Neue,Helvetica,Arial,sans-serif" font-size="10.00" fill="#444444">entries</text>
</g>
<!-- boundary -->
<g id="node16" class="node">
<title>boundary</title>
<polygon fill="#fadbd8" stroke="#555555" stroke-width="1.2" points="797.84,-194.32 634.31,-194.32 634.31,-113.68 803.84,-113.68 803.84,-188.32 797.84,-194.32"/>
<polyline fill="none" stroke="#555555" stroke-width="1.2" points="797.84,-194.32 797.84,-188.32"/>
<polyline fill="none" stroke="#555555" stroke-width="1.2" points="803.84,-188.32 797.84,-188.32"/>
<text xml:space="preserve" text-anchor="middle" x="719.08" y="-180.5" font-family="Helvetica Neue,Helvetica,Arial,sans-serif" font-size="10.00">HARD BOUNDARY</text>
<text xml:space="preserve" text-anchor="middle" x="719.08" y="-156.5" font-family="Helvetica Neue,Helvetica,Arial,sans-serif" font-size="10.00">WC3 produces GL entries.</text>
<text xml:space="preserve" text-anchor="middle" x="719.08" y="-144.5" font-family="Helvetica Neue,Helvetica,Arial,sans-serif" font-size="10.00">Accounting program consumes.</text>
<text xml:space="preserve" text-anchor="middle" x="719.08" y="-132.5" font-family="Helvetica Neue,Helvetica,Arial,sans-serif" font-size="10.00">WC3 does NOT do checkbooks,</text>
<text xml:space="preserve" text-anchor="middle" x="719.08" y="-120.5" font-family="Helvetica Neue,Helvetica,Arial,sans-serif" font-size="10.00">payables, P&amp;L, or balance sheets.</text>
</g>
<!-- gl&#45;&gt;boundary -->
<!-- quickbooks -->
<g id="node9" class="node">
<title>quickbooks</title>
<path fill="#e8daef" stroke="#555555" stroke-width="1.2" d="M133.09,-52C133.09,-52 85.06,-52 85.06,-52 79.06,-52 73.06,-46 73.06,-40 73.06,-40 73.06,-28 73.06,-28 73.06,-22 79.06,-16 85.06,-16 85.06,-16 133.09,-16 133.09,-16 139.09,-16 145.09,-22 145.09,-28 145.09,-28 145.09,-40 145.09,-40 145.09,-46 139.09,-52 133.09,-52"/>
<text xml:space="preserve" text-anchor="middle" x="109.08" y="-30.5" font-family="Helvetica Neue,Helvetica,Arial,sans-serif" font-size="10.00">QuickBooks</text>
</g>
<!-- export&#45;&gt;quickbooks -->
<g id="edge8" class="edge">
<title>export&#45;&gt;quickbooks</title>
<path fill="none" stroke="#666666" stroke-width="2" d="M278.44,-131.08C243.34,-111.16 191.52,-81.77 154.45,-60.74"/>
<polygon fill="#666666" stroke="#666666" stroke-width="2" points="157.28,-56.71 142.69,-54.07 152.45,-65.24 157.28,-56.71"/>
</g>
<!-- xero -->
<g id="node10" class="node">
<title>xero</title>
<path fill="#e8daef" stroke="#555555" stroke-width="1.2" d="M332.08,-52C332.08,-52 302.08,-52 302.08,-52 296.08,-52 290.08,-46 290.08,-40 290.08,-40 290.08,-28 290.08,-28 290.08,-22 296.08,-16 302.08,-16 302.08,-16 332.08,-16 332.08,-16 338.08,-16 344.08,-22 344.08,-28 344.08,-28 344.08,-40 344.08,-40 344.08,-46 338.08,-52 332.08,-52"/>
<text xml:space="preserve" text-anchor="middle" x="317.08" y="-30.5" font-family="Helvetica Neue,Helvetica,Arial,sans-serif" font-size="10.00">Xero</text>
</g>
<!-- export&#45;&gt;xero -->
<g id="edge9" class="edge">
<title>export&#45;&gt;xero</title>
<path fill="none" stroke="#666666" stroke-width="2" d="M317.08,-119.5C317.08,-103.83 317.08,-85.19 317.08,-69.4"/>
<polygon fill="#666666" stroke="#666666" stroke-width="2" points="321.98,-69.57 317.08,-55.57 312.18,-69.57 321.98,-69.57"/>
</g>
<!-- other_acct -->
<g id="node11" class="node">
<title>other_acct</title>
<path fill="#e8daef" stroke="#555555" stroke-width="1.2" d="M592.97,-52C592.97,-52 517.19,-52 517.19,-52 511.19,-52 505.19,-46 505.19,-40 505.19,-40 505.19,-28 505.19,-28 505.19,-22 511.19,-16 517.19,-16 517.19,-16 592.97,-16 592.97,-16 598.97,-16 604.97,-22 604.97,-28 604.97,-28 604.97,-40 604.97,-40 604.97,-46 598.97,-52 592.97,-52"/>
<text xml:space="preserve" text-anchor="middle" x="555.08" y="-36.5" font-family="Helvetica Neue,Helvetica,Arial,sans-serif" font-size="10.00">Other</text>
<text xml:space="preserve" text-anchor="middle" x="555.08" y="-24.5" font-family="Helvetica Neue,Helvetica,Arial,sans-serif" font-size="10.00">(any GL consumer)</text>
</g>
<!-- export&#45;&gt;other_acct -->
<g id="edge10" class="edge">
<title>export&#45;&gt;other_acct</title>
<path fill="none" stroke="#666666" stroke-width="2" d="M358.26,-132.58C398.91,-112.43 461.12,-81.59 504.69,-59.98"/>
<polygon fill="#666666" stroke="#666666" stroke-width="2" points="506.74,-64.43 517.11,-53.83 502.39,-55.65 506.74,-64.43"/>
</g>
<!-- vendor_bills -->
<g id="node12" class="node">
<title>vendor_bills</title>
<path fill="#d4e6f1" stroke="#555555" stroke-width="1.2" d="M856.34,-873.32C856.34,-873.32 779.81,-873.32 779.81,-873.32 773.81,-873.32 767.81,-867.32 767.81,-861.32 767.81,-861.32 767.81,-840.68 767.81,-840.68 767.81,-834.68 773.81,-828.68 779.81,-828.68 779.81,-828.68 856.34,-828.68 856.34,-828.68 862.34,-828.68 868.34,-834.68 868.34,-840.68 868.34,-840.68 868.34,-861.32 868.34,-861.32 868.34,-867.32 862.34,-873.32 856.34,-873.32"/>
<text xml:space="preserve" text-anchor="middle" x="818.08" y="-859.5" font-family="Helvetica Neue,Helvetica,Arial,sans-serif" font-size="10.00">Purchase Receipts</text>
<text xml:space="preserve" text-anchor="middle" x="818.08" y="-847.5" font-family="Helvetica Neue,Helvetica,Arial,sans-serif" font-size="10.00">Vendor Bills</text>
<text xml:space="preserve" text-anchor="middle" x="818.08" y="-835.5" font-family="Helvetica Neue,Helvetica,Arial,sans-serif" font-size="10.00">(user uploads)</text>
</g>
<!-- import_proc -->
<g id="node13" class="node">
<title>import_proc</title>
<path fill="#f5cba7" stroke="#555555" stroke-width="1.2" d="M873.21,-732.55C873.21,-732.55 873.21,-739.45 873.21,-739.45 873.21,-742.9 870.07,-747.77 866.93,-749.2 866.93,-749.2 847.2,-758.13 847.2,-758.13 844.06,-759.56 837.47,-760.98 834.02,-760.98 834.02,-760.98 802.14,-760.98 802.14,-760.98 798.69,-760.98 792.1,-759.56 788.96,-758.13 788.96,-758.13 769.23,-749.2 769.23,-749.2 766.09,-747.77 762.95,-742.9 762.95,-739.45 762.95,-739.45 762.95,-732.55 762.95,-732.55 762.95,-729.1 766.09,-724.23 769.23,-722.8 769.23,-722.8 788.96,-713.87 788.96,-713.87 792.1,-712.44 798.69,-711.02 802.14,-711.02 802.14,-711.02 834.02,-711.02 834.02,-711.02 837.47,-711.02 844.06,-712.44 847.2,-713.87 847.2,-713.87 866.93,-722.8 866.93,-722.8 870.07,-724.23 873.21,-729.1 873.21,-732.55"/>
<text xml:space="preserve" text-anchor="middle" x="818.08" y="-738.5" font-family="Helvetica Neue,Helvetica,Arial,sans-serif" font-size="10.00">Import</text>
<text xml:space="preserve" text-anchor="middle" x="818.08" y="-726.5" font-family="Helvetica Neue,Helvetica,Arial,sans-serif" font-size="10.00">Vendor Data</text>
</g>
<!-- vendor_bills&#45;&gt;import_proc -->
<g id="edge11" class="edge">
<title>vendor_bills&#45;&gt;import_proc</title>
<path fill="none" stroke="#666666" stroke-width="2" d="M818.08,-828.21C818.08,-814.1 818.08,-795.28 818.08,-778.39"/>
<polygon fill="#666666" stroke="#666666" stroke-width="2" points="822.98,-778.49 818.08,-764.49 813.18,-778.49 822.98,-778.49"/>
<text xml:space="preserve" text-anchor="middle" x="833.83" y="-797.5" font-family="Helvetica Neue,Helvetica,Arial,sans-serif" font-size="10.00" fill="#444444">manual</text>
<text xml:space="preserve" text-anchor="middle" x="833.83" y="-785.5" font-family="Helvetica Neue,Helvetica,Arial,sans-serif" font-size="10.00" fill="#444444">upload</text>
</g>
<!-- landed_cost -->
<g id="node14" class="node">
<title>landed_cost</title>
<path fill="#abebc6" stroke="#555555" stroke-width="1.2" d="M973.59,-642.32C973.59,-642.32 922.56,-642.32 922.56,-642.32 916.56,-642.32 910.56,-636.32 910.56,-630.32 910.56,-630.32 910.56,-609.68 910.56,-609.68 910.56,-603.68 916.56,-597.68 922.56,-597.68 922.56,-597.68 973.59,-597.68 973.59,-597.68 979.59,-597.68 985.59,-603.68 985.59,-609.68 985.59,-609.68 985.59,-630.32 985.59,-630.32 985.59,-636.32 979.59,-642.32 973.59,-642.32"/>
<text xml:space="preserve" text-anchor="middle" x="948.08" y="-628.5" font-family="Helvetica Neue,Helvetica,Arial,sans-serif" font-size="10.00">Landed Cost</text>
<text xml:space="preserve" text-anchor="middle" x="948.08" y="-616.5" font-family="Helvetica Neue,Helvetica,Arial,sans-serif" font-size="10.00">Update</text>
<text xml:space="preserve" text-anchor="middle" x="948.08" y="-604.5" font-family="Helvetica Neue,Helvetica,Arial,sans-serif" font-size="10.00">(Item.cost)</text>
</g>
<!-- import_proc&#45;&gt;landed_cost -->
<g id="edge12" class="edge">
<title>import_proc&#45;&gt;landed_cost</title>
<path fill="none" stroke="#666666" stroke-width="2" d="M844.07,-712.2C863.22,-695.42 889.53,-672.35 910.89,-653.61"/>
<polygon fill="#666666" stroke="#666666" stroke-width="2" points="913.88,-657.51 921.17,-644.59 907.42,-650.14 913.88,-657.51"/>
<text xml:space="preserve" text-anchor="middle" x="917.97" y="-679.5" font-family="Helvetica Neue,Helvetica,Arial,sans-serif" font-size="10.00" fill="#444444">update</text>
<text xml:space="preserve" text-anchor="middle" x="917.97" y="-667.5" font-family="Helvetica Neue,Helvetica,Arial,sans-serif" font-size="10.00" fill="#444444">cost basis</text>
</g>
<!-- landed_cost&#45;&gt;inventory -->
<g id="edge13" class="edge">
<title>landed_cost&#45;&gt;inventory</title>
<path fill="none" stroke="#666666" stroke-width="2" stroke-dasharray="5,2" d="M955.84,-597.29C962.58,-578.46 972.44,-550.91 980.17,-529.3"/>
<polygon fill="#666666" stroke="#666666" stroke-width="2" points="984.69,-531.2 984.79,-516.36 975.47,-527.9 984.69,-531.2"/>
<text xml:space="preserve" text-anchor="middle" x="995.77" y="-566.5" font-family="Helvetica Neue,Helvetica,Arial,sans-serif" font-size="10.00" fill="#444444">cost</text>
<text xml:space="preserve" text-anchor="middle" x="995.77" y="-554.5" font-family="Helvetica Neue,Helvetica,Arial,sans-serif" font-size="10.00" fill="#444444">adjustment</text>
</g>
<!-- alice -->
<g id="node15" class="node">
<title>alice</title>
<path fill="#aed6f1" stroke="#555555" stroke-width="1.2" d="M552.47,-873.32C552.47,-873.32 515.69,-873.32 515.69,-873.32 509.69,-873.32 503.69,-867.32 503.69,-861.32 503.69,-861.32 503.69,-840.68 503.69,-840.68 503.69,-834.68 509.69,-828.68 515.69,-828.68 515.69,-828.68 552.47,-828.68 552.47,-828.68 558.47,-828.68 564.47,-834.68 564.47,-840.68 564.47,-840.68 564.47,-861.32 564.47,-861.32 564.47,-867.32 558.47,-873.32 552.47,-873.32"/>
<text xml:space="preserve" text-anchor="middle" x="534.08" y="-859.5" font-family="Helvetica Neue,Helvetica,Arial,sans-serif" font-size="10.00">Alice</text>
<text xml:space="preserve" text-anchor="middle" x="534.08" y="-847.5" font-family="Helvetica Neue,Helvetica,Arial,sans-serif" font-size="10.00">Monitors</text>
<text xml:space="preserve" text-anchor="middle" x="534.08" y="-835.5" font-family="Helvetica Neue,Helvetica,Arial,sans-serif" font-size="10.00">Sync Drift</text>
</g>
<!-- alice&#45;&gt;export -->
<g id="edge14" class="edge">
<title>alice&#45;&gt;export</title>
<path fill="none" stroke="#666666" stroke-width="2" stroke-dasharray="5,2" d="M503.14,-845.02C427.07,-831.9 237.08,-793.48 237.08,-737 237.08,-737 237.08,-737 237.08,-296 237.08,-259.21 257.94,-223.23 278.35,-196.82"/>
<polygon fill="#666666" stroke="#666666" stroke-width="2" points="281.9,-200.22 286.96,-186.28 274.31,-194.02 281.9,-200.22"/>
<text xml:space="preserve" text-anchor="middle" x="253.95" y="-497.5" font-family="Helvetica Neue,Helvetica,Arial,sans-serif" font-size="10.00" fill="#444444">monitor</text>
<text xml:space="preserve" text-anchor="middle" x="253.95" y="-485.5" font-family="Helvetica Neue,Helvetica,Arial,sans-serif" font-size="10.00" fill="#444444">drift</text>
</g>
<!-- alice&#45;&gt;import_proc -->
<g id="edge15" class="edge">
<title>alice&#45;&gt;import_proc</title>
<path fill="none" stroke="#666666" stroke-width="2" stroke-dasharray="5,2" d="M565.01,-837.69C612.06,-818.97 702.34,-783.05 761.38,-759.56"/>
<polygon fill="#666666" stroke="#666666" stroke-width="2" points="763.13,-764.14 774.32,-754.41 759.5,-755.03 763.13,-764.14"/>
<text xml:space="preserve" text-anchor="middle" x="728.14" y="-797.5" font-family="Helvetica Neue,Helvetica,Arial,sans-serif" font-size="10.00" fill="#444444">flag</text>
<text xml:space="preserve" text-anchor="middle" x="728.14" y="-785.5" font-family="Helvetica Neue,Helvetica,Arial,sans-serif" font-size="10.00" fill="#444444">mismatches</text>
</g>
</g>
</svg>
