<?xml version="1.0" encoding="UTF-8" standalone="no"?>
<!DOCTYPE svg PUBLIC "-//W3C//DTD SVG 1.1//EN"
 "http://www.w3.org/Graphics/SVG/1.1/DTD/svg11.dtd">
<!-- Generated by graphviz version 13.1.2 (20250808.2320)
 -->
<!-- Title: wc3_conn_identity Pages: 1 -->
<svg width="1347pt" height="1048pt"
 viewBox="0.00 0.00 1347.00 1048.00" xmlns="http://www.w3.org/2000/svg" xmlns:xlink="http://www.w3.org/1999/xlink">
<g id="graph0" class="graph" transform="scale(1 1) rotate(0) translate(28.8 1019.08)">
<title>wc3_conn_identity</title>
<polygon fill="white" stroke="none" points="-28.8,28.8 -28.8,-1019.08 1318.5,-1019.08 1318.5,28.8 -28.8,28.8"/>
<text xml:space="preserve" text-anchor="middle" x="644.85" y="-974.88" font-family="Helvetica Neue,Helvetica,Arial,sans-serif" font-size="12.00">WC3 Connection — MyCarryOn Identity Flow</text>
<!-- person -->
<g id="node1" class="node">
<title>person</title>
<path fill="#d4e6f1" stroke="#555555" stroke-width="1.2" d="M960.34,-967.32C960.34,-967.32 859.06,-967.32 859.06,-967.32 853.06,-967.32 847.06,-961.32 847.06,-955.32 847.06,-955.32 847.06,-910.68 847.06,-910.68 847.06,-904.68 853.06,-898.68 859.06,-898.68 859.06,-898.68 960.34,-898.68 960.34,-898.68 966.34,-898.68 972.34,-904.68 972.34,-910.68 972.34,-910.68 972.34,-955.32 972.34,-955.32 972.34,-961.32 966.34,-967.32 960.34,-967.32"/>
<text xml:space="preserve" text-anchor="middle" x="909.7" y="-953.5" font-family="Helvetica Neue,Helvetica,Arial,sans-serif" font-size="10.00">Person</text>
<text xml:space="preserve" text-anchor="middle" x="909.7" y="-941.5" font-family="Helvetica Neue,Helvetica,Arial,sans-serif" font-size="10.00">(sovereign individual)</text>
<text xml:space="preserve" text-anchor="middle" x="909.7" y="-917.5" font-family="Helvetica Neue,Helvetica,Arial,sans-serif" font-size="10.00">Owns their identity</text>
<text xml:space="preserve" text-anchor="middle" x="909.7" y="-905.5" font-family="Helvetica Neue,Helvetica,Arial,sans-serif" font-size="10.00">Controls all permissions</text>
</g>
<!-- mycarryon -->
<g id="node2" class="node">
<title>mycarryon</title>
<path fill="#e8daef" stroke="#555555" stroke-width="1.2" d="M360.47,-545.32C360.47,-545.32 268.94,-545.32 268.94,-545.32 262.94,-545.32 256.94,-539.32 256.94,-533.32 256.94,-533.32 256.94,-476.68 256.94,-476.68 256.94,-470.68 262.94,-464.68 268.94,-464.68 268.94,-464.68 360.47,-464.68 360.47,-464.68 366.47,-464.68 372.47,-470.68 372.47,-476.68 372.47,-476.68 372.47,-533.32 372.47,-533.32 372.47,-539.32 366.47,-545.32 360.47,-545.32"/>
<text xml:space="preserve" text-anchor="middle" x="314.7" y="-531.5" font-family="Helvetica Neue,Helvetica,Arial,sans-serif" font-size="10.00">MyCarryOn</text>
<text xml:space="preserve" text-anchor="middle" x="314.7" y="-519.5" font-family="Helvetica Neue,Helvetica,Arial,sans-serif" font-size="10.00">(mycarryon.io)</text>
<text xml:space="preserve" text-anchor="middle" x="314.7" y="-495.5" font-family="Helvetica Neue,Helvetica,Arial,sans-serif" font-size="10.00">Portable identity store</text>
<text xml:space="preserve" text-anchor="middle" x="314.7" y="-483.5" font-family="Helvetica Neue,Helvetica,Arial,sans-serif" font-size="10.00">Owner&#45;controlled</text>
<text xml:space="preserve" text-anchor="middle" x="314.7" y="-471.5" font-family="Helvetica Neue,Helvetica,Arial,sans-serif" font-size="10.00">Encrypted at rest</text>
</g>
<!-- person&#45;&gt;mycarryon -->
<g id="edge1" class="edge">
<title>person&#45;&gt;mycarryon</title>
<path fill="none" stroke="#666666" stroke-width="2" d="M862.52,-898.22C757.97,-823.37 506.45,-643.28 384,-555.62"/>
<polygon fill="#666666" stroke="#666666" stroke-width="2" points="387.14,-551.83 372.9,-547.67 381.43,-559.8 387.14,-551.83"/>
<text xml:space="preserve" text-anchor="middle" x="635.19" y="-718.5" font-family="Helvetica Neue,Helvetica,Arial,sans-serif" font-size="10.00" fill="#444444">stores</text>
<text xml:space="preserve" text-anchor="middle" x="635.19" y="-706.5" font-family="Helvetica Neue,Helvetica,Arial,sans-serif" font-size="10.00" fill="#444444">identity</text>
</g>
<!-- permissions -->
<g id="node3" class="node">
<title>permissions</title>
<path fill="#fcf3cf" stroke="#555555" stroke-width="1.2" d="M952.47,-830.32C952.47,-830.32 866.94,-830.32 866.94,-830.32 860.94,-830.32 854.94,-824.32 854.94,-818.32 854.94,-818.32 854.94,-761.68 854.94,-761.68 854.94,-755.68 860.94,-749.68 866.94,-749.68 866.94,-749.68 952.47,-749.68 952.47,-749.68 958.47,-749.68 964.47,-755.68 964.47,-761.68 964.47,-761.68 964.47,-818.32 964.47,-818.32 964.47,-824.32 958.47,-830.32 952.47,-830.32"/>
<text xml:space="preserve" text-anchor="middle" x="909.7" y="-816.5" font-family="Helvetica Neue,Helvetica,Arial,sans-serif" font-size="10.00">Permissions</text>
<text xml:space="preserve" text-anchor="middle" x="909.7" y="-792.5" font-family="Helvetica Neue,Helvetica,Arial,sans-serif" font-size="10.00">Enumerated</text>
<text xml:space="preserve" text-anchor="middle" x="909.7" y="-780.5" font-family="Helvetica Neue,Helvetica,Arial,sans-serif" font-size="10.00">Revocable</text>
<text xml:space="preserve" text-anchor="middle" x="909.7" y="-768.5" font-family="Helvetica Neue,Helvetica,Arial,sans-serif" font-size="10.00">Sunset date required</text>
<text xml:space="preserve" text-anchor="middle" x="909.7" y="-756.5" font-family="Helvetica Neue,Helvetica,Arial,sans-serif" font-size="10.00">No blanket grants</text>
</g>
<!-- person&#45;&gt;permissions -->
<g id="edge2" class="edge">
<title>person&#45;&gt;permissions</title>
<path fill="none" stroke="#666666" stroke-width="2" d="M909.7,-898.23C909.7,-883.09 909.7,-864.82 909.7,-847.69"/>
<polygon fill="#666666" stroke="#666666" stroke-width="2" points="914.6,-847.78 909.7,-833.78 904.8,-847.78 914.6,-847.78"/>
<text xml:space="preserve" text-anchor="middle" x="936.7" y="-867.5" font-family="Helvetica Neue,Helvetica,Arial,sans-serif" font-size="10.00" fill="#444444">grants</text>
<text xml:space="preserve" text-anchor="middle" x="936.7" y="-855.5" font-family="Helvetica Neue,Helvetica,Arial,sans-serif" font-size="10.00" fill="#444444">permissions</text>
</g>
<!-- pointer -->
<g id="node5" class="node">
<title>pointer</title>
<path fill="#f5cba7" stroke="#555555" stroke-width="1.2" d="M955.97,-408.32C955.97,-408.32 855.44,-408.32 855.44,-408.32 849.44,-408.32 843.44,-402.32 843.44,-396.32 843.44,-396.32 843.44,-351.68 843.44,-351.68 843.44,-345.68 849.44,-339.68 855.44,-339.68 855.44,-339.68 955.97,-339.68 955.97,-339.68 961.97,-339.68 967.97,-345.68 967.97,-351.68 967.97,-351.68 967.97,-396.32 967.97,-396.32 967.97,-402.32 961.97,-408.32 955.97,-408.32"/>
<text xml:space="preserve" text-anchor="middle" x="905.7" y="-394.5" font-family="Helvetica Neue,Helvetica,Arial,sans-serif" font-size="10.00">carryon_uuid</text>
<text xml:space="preserve" text-anchor="middle" x="905.7" y="-370.5" font-family="Helvetica Neue,Helvetica,Arial,sans-serif" font-size="10.00">Pointer only</text>
<text xml:space="preserve" text-anchor="middle" x="905.7" y="-358.5" font-family="Helvetica Neue,Helvetica,Arial,sans-serif" font-size="10.00">No identity data stored</text>
<text xml:space="preserve" text-anchor="middle" x="905.7" y="-346.5" font-family="Helvetica Neue,Helvetica,Arial,sans-serif" font-size="10.00">Resolves to MyCarryOn</text>
</g>
<!-- mycarryon&#45;&gt;pointer -->
<g id="edge6" class="edge">
<title>mycarryon&#45;&gt;pointer</title>
<path fill="none" stroke="#666666" stroke-width="2" d="M372.99,-491.28C479.54,-468.02 705.86,-418.62 826.35,-392.32"/>
<polygon fill="#666666" stroke="#666666" stroke-width="2" points="827.39,-397.11 840.02,-389.34 825.3,-387.53 827.39,-397.11"/>
<text xml:space="preserve" text-anchor="middle" x="664.34" y="-433.5" font-family="Helvetica Neue,Helvetica,Arial,sans-serif" font-size="10.00" fill="#444444">resolves</text>
</g>
<!-- sync -->
<g id="node7" class="node">
<title>sync</title>
<path fill="#f5cba7" stroke="#555555" stroke-width="1.2" d="M389.92,-48.44C389.92,-48.44 389.92,-75.56 389.92,-75.56 389.92,-81.56 385.28,-91.37 380.64,-95.18 380.64,-95.18 355.14,-116.11 355.14,-116.11 350.5,-119.91 339.86,-123.72 333.86,-123.72 333.86,-123.72 295.54,-123.72 295.54,-123.72 289.54,-123.72 278.91,-119.91 274.27,-116.11 274.27,-116.11 248.76,-95.18 248.76,-95.18 244.12,-91.37 239.48,-81.56 239.48,-75.56 239.48,-75.56 239.48,-48.44 239.48,-48.44 239.48,-42.44 244.12,-32.63 248.76,-28.82 248.76,-28.82 274.27,-7.89 274.27,-7.89 278.91,-4.09 289.54,-0.28 295.54,-0.28 295.54,-0.28 333.86,-0.28 333.86,-0.28 339.86,-0.28 350.5,-4.09 355.14,-7.89 355.14,-7.89 380.64,-28.82 380.64,-28.82 385.28,-32.63 389.92,-42.44 389.92,-48.44"/>
<text xml:space="preserve" text-anchor="middle" x="314.7" y="-88.5" font-family="Helvetica Neue,Helvetica,Arial,sans-serif" font-size="10.00">Bidirectional</text>
<text xml:space="preserve" text-anchor="middle" x="314.7" y="-76.5" font-family="Helvetica Neue,Helvetica,Arial,sans-serif" font-size="10.00">Context Sync</text>
<text xml:space="preserve" text-anchor="middle" x="314.7" y="-52.5" font-family="Helvetica Neue,Helvetica,Arial,sans-serif" font-size="10.00">Bundle exchange</text>
<text xml:space="preserve" text-anchor="middle" x="314.7" y="-40.5" font-family="Helvetica Neue,Helvetica,Arial,sans-serif" font-size="10.00">Conflict resolution</text>
<text xml:space="preserve" text-anchor="middle" x="314.7" y="-28.5" font-family="Helvetica Neue,Helvetica,Arial,sans-serif" font-size="10.00">Audit trail</text>
</g>
<!-- mycarryon&#45;&gt;sync -->
<g id="edge9" class="edge">
<title>mycarryon&#45;&gt;sync</title>
<path fill="none" stroke="#666666" stroke-width="2" d="M314.7,-447.22C314.7,-369.23 314.7,-228.65 314.7,-140.88"/>
<polygon fill="#666666" stroke="#666666" stroke-width="2" points="309.8,-447.06 314.7,-461.06 319.6,-447.06 309.8,-447.06"/>
<polygon fill="#666666" stroke="#666666" stroke-width="2" points="319.6,-141.09 314.7,-127.09 309.8,-141.09 319.6,-141.09"/>
<text xml:space="preserve" text-anchor="middle" x="336.08" y="-308.5" font-family="Helvetica Neue,Helvetica,Arial,sans-serif" font-size="10.00" fill="#444444">context</text>
<text xml:space="preserve" text-anchor="middle" x="336.08" y="-296.5" font-family="Helvetica Neue,Helvetica,Arial,sans-serif" font-size="10.00" fill="#444444">exchange</text>
</g>
<!-- perm_check -->
<g id="node4" class="node">
<title>perm_check</title>
<path fill="#fadbd8" stroke="#555555" stroke-width="1.2" d="M998.92,-532.37C998.92,-532.37 953.7,-510.27 953.7,-510.27 948.31,-507.63 948.31,-502.37 953.7,-499.73 953.7,-499.73 998.92,-477.63 998.92,-477.63 1004.31,-474.99 1015.09,-474.99 1020.48,-477.63 1020.48,-477.63 1065.7,-499.73 1065.7,-499.73 1071.09,-502.37 1071.09,-507.63 1065.7,-510.27 1065.7,-510.27 1020.48,-532.37 1020.48,-532.37 1015.09,-535.01 1004.31,-535.01 998.92,-532.37"/>
<text xml:space="preserve" text-anchor="middle" x="1009.7" y="-507.5" font-family="Helvetica Neue,Helvetica,Arial,sans-serif" font-size="10.00">Permission</text>
<text xml:space="preserve" text-anchor="middle" x="1009.7" y="-495.5" font-family="Helvetica Neue,Helvetica,Arial,sans-serif" font-size="10.00">Granted?</text>
</g>
<!-- permissions&#45;&gt;perm_check -->
<g id="edge3" class="edge">
<title>permissions&#45;&gt;perm_check</title>
<path fill="none" stroke="#666666" stroke-width="2" d="M923.71,-749.35C942.33,-696.67 975.11,-603.9 994.37,-549.39"/>
<polygon fill="#666666" stroke="#666666" stroke-width="2" points="998.94,-551.15 998.99,-536.32 989.7,-547.89 998.94,-551.15"/>
</g>
<!-- sunset -->
<g id="node9" class="node">
<title>sunset</title>
<path fill="#d5f5e3" stroke="#555555" stroke-width="1.2" d="M1105.59,-682.32C1105.59,-682.32 1023.81,-682.32 1023.81,-682.32 1017.81,-682.32 1011.81,-676.32 1011.81,-670.32 1011.81,-670.32 1011.81,-625.68 1011.81,-625.68 1011.81,-619.68 1017.81,-613.68 1023.81,-613.68 1023.81,-613.68 1105.59,-613.68 1105.59,-613.68 1111.59,-613.68 1117.59,-619.68 1117.59,-625.68 1117.59,-625.68 1117.59,-670.32 1117.59,-670.32 1117.59,-676.32 1111.59,-682.32 1105.59,-682.32"/>
<text xml:space="preserve" text-anchor="middle" x="1064.7" y="-668.5" font-family="Helvetica Neue,Helvetica,Arial,sans-serif" font-size="10.00">Permission Sunset</text>
<text xml:space="preserve" text-anchor="middle" x="1064.7" y="-644.5" font-family="Helvetica Neue,Helvetica,Arial,sans-serif" font-size="10.00">Auto&#45;expires</text>
<text xml:space="preserve" text-anchor="middle" x="1064.7" y="-632.5" font-family="Helvetica Neue,Helvetica,Arial,sans-serif" font-size="10.00">Requires renewal</text>
<text xml:space="preserve" text-anchor="middle" x="1064.7" y="-620.5" font-family="Helvetica Neue,Helvetica,Arial,sans-serif" font-size="10.00">No perpetual grants</text>
</g>
<!-- permissions&#45;&gt;sunset -->
<g id="edge10" class="edge">
<title>permissions&#45;&gt;sunset</title>
<path fill="none" stroke="#666666" stroke-width="2" d="M953.7,-749.26C972.72,-732.08 995.07,-711.9 1014.71,-694.16"/>
<polygon fill="#666666" stroke="#666666" stroke-width="2" points="1017.81,-697.96 1024.91,-684.94 1011.24,-690.69 1017.81,-697.96"/>
<text xml:space="preserve" text-anchor="middle" x="1034.46" y="-718.5" font-family="Helvetica Neue,Helvetica,Arial,sans-serif" font-size="10.00" fill="#444444">all permissions</text>
<text xml:space="preserve" text-anchor="middle" x="1034.46" y="-706.5" font-family="Helvetica Neue,Helvetica,Arial,sans-serif" font-size="10.00" fill="#444444">have sunset</text>
</g>
<!-- perm_check&#45;&gt;person -->
<g id="edge5" class="edge">
<title>perm_check&#45;&gt;person</title>
<path fill="none" stroke="#666666" stroke-width="2" stroke-dasharray="5,2" d="M1042.49,-522.26C1073.67,-539.86 1118.29,-571.21 1135.7,-613.68 1147.27,-641.91 1146.12,-653.65 1135.7,-682.32 1104.25,-768.88 1025.94,-843.44 970.35,-888"/>
<polygon fill="#666666" stroke="#666666" stroke-width="2" points="967.47,-884.04 959.48,-896.54 973.52,-891.75 967.47,-884.04"/>
<text xml:space="preserve" text-anchor="middle" x="1141.41" y="-718.5" font-family="Helvetica Neue,Helvetica,Arial,sans-serif" font-size="10.00" fill="#444444">no</text>
<text xml:space="preserve" text-anchor="middle" x="1141.41" y="-706.5" font-family="Helvetica Neue,Helvetica,Arial,sans-serif" font-size="10.00" fill="#444444">denied</text>
</g>
<!-- perm_check&#45;&gt;pointer -->
<g id="edge4" class="edge">
<title>perm_check&#45;&gt;pointer</title>
<path fill="none" stroke="#666666" stroke-width="2" d="M991.11,-480.94C977.85,-464.49 959.56,-441.81 943.31,-421.65"/>
<polygon fill="#666666" stroke="#666666" stroke-width="2" points="947.24,-418.71 934.64,-410.89 939.61,-424.86 947.24,-418.71"/>
<text xml:space="preserve" text-anchor="middle" x="965.58" y="-433.5" font-family="Helvetica Neue,Helvetica,Arial,sans-serif" font-size="10.00" fill="#444444">yes</text>
</g>
<!-- contact -->
<g id="node6" class="node">
<title>contact</title>
<g id="a_node6"><a xlink:href="vscode://file/Users/williamjames/Documents/CommerceExpert/webClerk3/apps/contacts/models/contact.py" xlink:title="Central identity — customers, vendors, employees. Has related Email, Phone, Address models.&#10;Model: apps/contacts/models/contact.py" target="_blank">
<path fill="#abebc6" stroke="#555555" stroke-width="1.2" d="M961.22,-272.32C961.22,-272.32 850.19,-272.32 850.19,-272.32 844.19,-272.32 838.19,-266.32 838.19,-260.32 838.19,-260.32 838.19,-203.68 838.19,-203.68 838.19,-197.68 844.19,-191.68 850.19,-191.68 850.19,-191.68 961.22,-191.68 961.22,-191.68 967.22,-191.68 973.22,-197.68 973.22,-203.68 973.22,-203.68 973.22,-260.32 973.22,-260.32 973.22,-266.32 967.22,-272.32 961.22,-272.32"/>
<text xml:space="preserve" text-anchor="middle" x="905.7" y="-258.5" font-family="Helvetica Neue,Helvetica,Arial,sans-serif" font-size="10.00">WC3 Contact</text>
<text xml:space="preserve" text-anchor="middle" x="905.7" y="-246.5" font-family="Helvetica Neue,Helvetica,Arial,sans-serif" font-size="10.00">(Contact model)</text>
<text xml:space="preserve" text-anchor="middle" x="905.7" y="-222.5" font-family="Helvetica Neue,Helvetica,Arial,sans-serif" font-size="10.00">Holds pointer</text>
<text xml:space="preserve" text-anchor="middle" x="905.7" y="-210.5" font-family="Helvetica Neue,Helvetica,Arial,sans-serif" font-size="10.00">Not identity</text>
<text xml:space="preserve" text-anchor="middle" x="905.7" y="-198.5" font-family="Helvetica Neue,Helvetica,Arial,sans-serif" font-size="10.00">Local commerce data only</text>
</a>
</g>
</g>
<!-- pointer&#45;&gt;contact -->
<g id="edge7" class="edge">
<title>pointer&#45;&gt;contact</title>
<path fill="none" stroke="#666666" stroke-width="2" d="M905.7,-339.11C905.7,-324.27 905.7,-306.46 905.7,-289.7"/>
<polygon fill="#666666" stroke="#666666" stroke-width="2" points="910.6,-289.81 905.7,-275.81 900.8,-289.81 910.6,-289.81"/>
<text xml:space="preserve" text-anchor="middle" x="932.33" y="-308.5" font-family="Helvetica Neue,Helvetica,Arial,sans-serif" font-size="10.00" fill="#444444">links to</text>
<text xml:space="preserve" text-anchor="middle" x="932.33" y="-296.5" font-family="Helvetica Neue,Helvetica,Arial,sans-serif" font-size="10.00" fill="#444444">WC3 record</text>
</g>
<!-- contact&#45;&gt;sync -->
<g id="edge8" class="edge">
<title>contact&#45;&gt;sync</title>
<path fill="none" stroke="#666666" stroke-width="2" d="M821.28,-207C711.39,-175.76 520.03,-121.37 406.59,-89.12"/>
<polygon fill="#666666" stroke="#666666" stroke-width="2" points="819.9,-211.7 834.71,-210.82 822.58,-202.28 819.9,-211.7"/>
<polygon fill="#666666" stroke="#666666" stroke-width="2" points="408.16,-84.47 393.35,-85.36 405.48,-93.9 408.16,-84.47"/>
<text xml:space="preserve" text-anchor="middle" x="701.89" y="-159.5" font-family="Helvetica Neue,Helvetica,Arial,sans-serif" font-size="10.00" fill="#444444">context</text>
<text xml:space="preserve" text-anchor="middle" x="701.89" y="-147.5" font-family="Helvetica Neue,Helvetica,Arial,sans-serif" font-size="10.00" fill="#444444">exchange</text>
</g>
<!-- boundary -->
<g id="node8" class="node">
<title>boundary</title>
<polygon fill="#fadbd8" stroke="#555555" stroke-width="1.2" points="1074.09,-108.32 965.31,-108.32 965.31,-15.68 1080.09,-15.68 1080.09,-102.32 1074.09,-108.32"/>
<polyline fill="none" stroke="#555555" stroke-width="1.2" points="1074.09,-108.32 1074.09,-102.32"/>
<polyline fill="none" stroke="#555555" stroke-width="1.2" points="1080.09,-102.32 1074.09,-102.32"/>
<text xml:space="preserve" text-anchor="middle" x="1022.7" y="-94.5" font-family="Helvetica Neue,Helvetica,Arial,sans-serif" font-size="10.00">SOVEREIGNTY RULE</text>
<text xml:space="preserve" text-anchor="middle" x="1022.7" y="-70.5" font-family="Helvetica Neue,Helvetica,Arial,sans-serif" font-size="10.00">WC3 holds pointer,</text>
<text xml:space="preserve" text-anchor="middle" x="1022.7" y="-58.5" font-family="Helvetica Neue,Helvetica,Arial,sans-serif" font-size="10.00">not identity.</text>
<text xml:space="preserve" text-anchor="middle" x="1022.7" y="-46.5" font-family="Helvetica Neue,Helvetica,Arial,sans-serif" font-size="10.00">Person is sovereign.</text>
<text xml:space="preserve" text-anchor="middle" x="1022.7" y="-34.5" font-family="Helvetica Neue,Helvetica,Arial,sans-serif" font-size="10.00">Person can revoke</text>
<text xml:space="preserve" text-anchor="middle" x="1022.7" y="-22.5" font-family="Helvetica Neue,Helvetica,Arial,sans-serif" font-size="10.00">at any time.</text>
</g>
<!-- contact&#45;&gt;boundary -->
<!-- sunset&#45;&gt;perm_check -->
<g id="edge11" class="edge">
<title>sunset&#45;&gt;perm_check</title>
<path fill="none" stroke="#666666" stroke-width="2" stroke-dasharray="5,2" d="M1051.53,-613.23C1043.95,-593.81 1034.37,-569.24 1026.29,-548.52"/>
<polygon fill="#666666" stroke="#666666" stroke-width="2" points="1030.95,-546.98 1021.29,-535.72 1021.82,-550.54 1030.95,-546.98"/>
<text xml:space="preserve" text-anchor="middle" x="1061.25" y="-581.5" font-family="Helvetica Neue,Helvetica,Arial,sans-serif" font-size="10.00" fill="#444444">expired?</text>
<text xml:space="preserve" text-anchor="middle" x="1061.25" y="-569.5" font-family="Helvetica Neue,Helvetica,Arial,sans-serif" font-size="10.00" fill="#444444">re&#45;check</text>
</g>
</g>
</svg>
