<?xml version="1.0" encoding="UTF-8" standalone="no"?>
<!DOCTYPE svg PUBLIC "-//W3C//DTD SVG 1.1//EN"
 "http://www.w3.org/Graphics/SVG/1.1/DTD/svg11.dtd">
<!-- Generated by graphviz version 13.1.2 (20250808.2320)
 -->
<!-- Title: wc3_customer_centered Pages: 1 -->
<svg width="1085pt" height="621pt"
 viewBox="0.00 0.00 1085.00 621.00" xmlns="http://www.w3.org/2000/svg" xmlns:xlink="http://www.w3.org/1999/xlink">
<g id="graph0" class="graph" transform="scale(1 1) rotate(0) translate(36 585)">
<title>wc3_customer_centered</title>
<polygon fill="white" stroke="none" points="-36,36 -36,-585 1048.5,-585 1048.5,36 -36,36"/>
<text xml:space="preserve" text-anchor="middle" x="506.25" y="-531.7" font-family="Helvetica,sans-Serif" font-size="14.00">WC3 — Customer&#45;Centered Sales</text>
<text xml:space="preserve" text-anchor="middle" x="506.25" y="-516.7" font-family="Helvetica,sans-Serif" font-size="14.00">The commerce flow from the customer&#39;s perspective</text>
<g id="clust1" class="cluster">
<title>cluster_requests</title>
<polygon fill="#ebf5fb" stroke="#aed6f1" points="414,-217 414,-503 526,-503 526,-217 414,-217"/>
<text xml:space="preserve" text-anchor="middle" x="470" y="-490.45" font-family="Helvetica,sans-Serif" font-size="9.00">Requests and Catalogs</text>
</g>
<g id="clust2" class="cluster">
<title>cluster_purchases</title>
<polygon fill="#ebf5fb" stroke="#aed6f1" points="649.75,-84 649.75,-370 733.5,-370 733.5,-84 649.75,-84"/>
<text xml:space="preserve" text-anchor="middle" x="691.62" y="-357.45" font-family="Helvetica,sans-Serif" font-size="9.00">Purchases</text>
</g>
<!-- sales -->
<g id="node1" class="node">
<title>sales</title>
<polygon fill="#82e0aa" stroke="black" points="79.75,-295.88 0,-295.88 0,-254.12 79.75,-254.12 79.75,-295.88"/>
<text xml:space="preserve" text-anchor="middle" x="39.88" y="-282.38" font-family="Helvetica,sans-Serif" font-size="10.00">Sales Effort</text>
<text xml:space="preserve" text-anchor="middle" x="39.88" y="-271.12" font-family="Helvetica,sans-Serif" font-size="10.00">Relationship</text>
<text xml:space="preserve" text-anchor="middle" x="39.88" y="-259.88" font-family="Helvetica,sans-Serif" font-size="10.00">with Customer</text>
</g>
<!-- cloud -->
<g id="node2" class="node">
<title>cloud</title>
<ellipse fill="#fcf3cf" stroke="black" cx="205.75" cy="-197" rx="90" ry="54"/>
<text xml:space="preserve" text-anchor="middle" x="205.75" y="-204.72" font-family="Helvetica,sans-Serif" font-size="12.00">Customer&#39;s</text>
<text xml:space="preserve" text-anchor="middle" x="205.75" y="-191.97" font-family="Helvetica,sans-Serif" font-size="12.00">Cloud of</text>
<text xml:space="preserve" text-anchor="middle" x="205.75" y="-179.22" font-family="Helvetica,sans-Serif" font-size="12.00">Options</text>
</g>
<!-- sales&#45;&gt;cloud -->
<g id="edge1" class="edge">
<title>sales&#45;&gt;cloud</title>
<path fill="none" stroke="black" d="M80.13,-256.32C93.49,-249.96 108.95,-242.6 124.34,-235.27"/>
<polygon fill="black" stroke="black" points="125.52,-238.59 133.05,-231.13 122.52,-232.26 125.52,-238.59"/>
</g>
<!-- proposal -->
<g id="node5" class="node">
<title>proposal</title>
<g id="a_node5"><a xlink:href="vscode://file/Users/williamjames/Documents/CommerceExpert/webClerk3/apps/transactions/models/proposal.py" xlink:title="Sales proposal — forecast. on_p tracks weighted probability.&#10;Model: apps/transactions/models/proposal.py&#10;Functions:&#10; &#160;transfer_proposal_to_order @ apps/transactions/services/proposal_to_order.py:219 (converts proposal to order)&#10;Pending deltas: on_p: +qty_x_prob" target="_blank">
<polygon fill="#82e0aa" stroke="black" points="386,-313 331.75,-313 331.75,-277 386,-277 386,-313"/>
<text xml:space="preserve" text-anchor="middle" x="358.88" y="-291.12" font-family="Helvetica,sans-Serif" font-size="10.00">Proposal</text>
</a>
</g>
</g>
<!-- sales&#45;&gt;proposal -->
<g id="edge2" class="edge">
<title>sales&#45;&gt;proposal</title>
<path fill="none" stroke="black" d="M80.06,-277.47C141.56,-281.35 259.94,-288.82 320.38,-292.63"/>
<polygon fill="black" stroke="black" points="319.95,-296.11 330.15,-293.25 320.39,-289.13 319.95,-296.11"/>
</g>
<!-- cloud&#45;&gt;proposal -->
<g id="edge3" class="edge">
<title>cloud&#45;&gt;proposal</title>
<path fill="none" stroke="black" d="M267.78,-236.58C286.1,-248.46 305.6,-261.1 321.76,-271.58"/>
<polygon fill="black" stroke="black" points="319.78,-274.47 330.07,-276.97 323.59,-268.59 319.78,-274.47"/>
</g>
<!-- order -->
<g id="node11" class="node">
<title>order</title>
<g id="a_node11"><a xlink:href="vscode://file/Users/williamjames/Documents/CommerceExpert/webClerk3/apps/transactions/models/order.py" xlink:title="Sales order — customer commitment. Creates +on_so and &#45;on_p pending records.&#10;Model: apps/transactions/models/order.py&#10;Functions:&#10; &#160;transfer_proposal_to_order @ apps/transactions/services/proposal_to_order.py:219 (creates order from proposal)&#10; &#160;_create_transfer_pending_records @ apps/transactions/services/proposal_to_order.py:131 (pending records for +on_so, &#45;on_p)&#10;Pending deltas: on_so: +qty, on_p: &#45;qty" target="_blank">
<polygon fill="#82e0aa" stroke="black" points="496.5,-207 442.5,-207 442.5,-171 496.5,-171 496.5,-207"/>
<text xml:space="preserve" text-anchor="middle" x="469.5" y="-185.12" font-family="Helvetica,sans-Serif" font-size="10.00">Order</text>
</a>
</g>
</g>
<!-- cloud&#45;&gt;order -->
<g id="edge4" class="edge">
<title>cloud&#45;&gt;order</title>
<path fill="none" stroke="black" d="M296.1,-194.27C342.14,-192.86 395.82,-191.22 430.9,-190.15"/>
<polygon fill="black" stroke="black" points="430.64,-193.66 440.53,-189.85 430.43,-186.66 430.64,-193.66"/>
</g>
<!-- workorders -->
<g id="node18" class="node">
<title>workorders</title>
<polygon fill="#82e0aa" stroke="black" points="621.75,-155 554,-155 554,-119 621.75,-119 621.75,-155"/>
<text xml:space="preserve" text-anchor="middle" x="587.88" y="-138.75" font-family="Helvetica,sans-Serif" font-size="10.00">Installation</text>
<text xml:space="preserve" text-anchor="middle" x="587.88" y="-127.5" font-family="Helvetica,sans-Serif" font-size="10.00">WorkOrders</text>
</g>
<!-- cloud&#45;&gt;workorders -->
<g id="edge5" class="edge">
<title>cloud&#45;&gt;workorders</title>
<path fill="none" stroke="black" d="M292.64,-182.03C329.91,-175.65 374.07,-168.26 414,-162 457.61,-155.17 507.51,-148.02 542.45,-143.13"/>
<polygon fill="black" stroke="black" points="542.78,-146.62 552.2,-141.77 541.81,-139.68 542.78,-146.62"/>
</g>
<!-- competitors -->
<g id="node3" class="node">
<title>competitors</title>
<polygon fill="#e74c3c" stroke="black" stroke-width="2" points="72.62,-168 7.12,-168 7.12,-132 72.62,-132 72.62,-168"/>
<text xml:space="preserve" text-anchor="middle" x="39.88" y="-146.32" font-family="Helvetica,sans-Serif" font-size="9.00" fill="white">Competitors</text>
</g>
<!-- competitors&#45;&gt;cloud -->
<g id="edge6" class="edge">
<title>competitors&#45;&gt;cloud</title>
<path fill="none" stroke="#e74c3c" stroke-dasharray="5,2" d="M72.86,-159.17C84.59,-162.54 98.52,-166.53 112.87,-170.65"/>
<polygon fill="#e74c3c" stroke="#e74c3c" points="111.86,-174 122.44,-173.39 113.79,-167.27 111.86,-174"/>
</g>
<!-- other -->
<g id="node4" class="node">
<title>other</title>
<polygon fill="#f5b7b1" stroke="black" points="66.88,-223.62 12.88,-223.62 12.88,-186.38 66.88,-186.38 66.88,-223.62"/>
<text xml:space="preserve" text-anchor="middle" x="39.88" y="-211.07" font-family="Helvetica,sans-Serif" font-size="9.00">Other</text>
<text xml:space="preserve" text-anchor="middle" x="39.88" y="-201.32" font-family="Helvetica,sans-Serif" font-size="9.00">Use</text>
<text xml:space="preserve" text-anchor="middle" x="39.88" y="-191.57" font-family="Helvetica,sans-Serif" font-size="9.00">of Funds</text>
</g>
<!-- other&#45;&gt;cloud -->
<g id="edge7" class="edge">
<title>other&#45;&gt;cloud</title>
<path fill="none" stroke="#e74c3c" stroke-dasharray="5,2" d="M67.2,-203.71C77.84,-203.2 90.85,-202.56 104.57,-201.89"/>
<polygon fill="#e74c3c" stroke="#e74c3c" points="104.37,-205.4 114.19,-201.42 104.03,-198.41 104.37,-205.4"/>
</g>
<!-- req_carpenters -->
<g id="node6" class="node">
<title>req_carpenters</title>
<polygon fill="#d6eaf8" stroke="black" points="497.75,-261 441.25,-261 441.25,-225 497.75,-225 497.75,-261"/>
<text xml:space="preserve" text-anchor="middle" x="469.5" y="-239.9" font-family="Helvetica,sans-Serif" font-size="8.00">Carpenters</text>
</g>
<!-- proposal&#45;&gt;req_carpenters -->
<g id="edge8" class="edge">
<title>proposal&#45;&gt;req_carpenters</title>
<path fill="none" stroke="black" d="M386.45,-282.28C399.79,-275.89 416.19,-268.04 430.81,-261.04"/>
<polygon fill="black" stroke="black" points="432.19,-264.26 439.7,-256.79 429.17,-257.95 432.19,-264.26"/>
</g>
<!-- req_mfg -->
<g id="node7" class="node">
<title>req_mfg</title>
<polygon fill="#d6eaf8" stroke="black" points="503.38,-315 435.62,-315 435.62,-279 503.38,-279 503.38,-315"/>
<text xml:space="preserve" text-anchor="middle" x="469.5" y="-293.9" font-family="Helvetica,sans-Serif" font-size="8.00">Manufacturers</text>
</g>
<!-- proposal&#45;&gt;req_mfg -->
<g id="edge9" class="edge">
<title>proposal&#45;&gt;req_mfg</title>
<path fill="none" stroke="black" d="M386.45,-295.49C397.7,-295.7 411.12,-295.94 423.82,-296.18"/>
<polygon fill="black" stroke="black" points="423.62,-299.67 433.68,-296.36 423.75,-292.68 423.62,-299.67"/>
</g>
<!-- req_masons -->
<g id="node8" class="node">
<title>req_masons</title>
<polygon fill="#d6eaf8" stroke="black" points="496.5,-369 442.5,-369 442.5,-333 496.5,-333 496.5,-369"/>
<text xml:space="preserve" text-anchor="middle" x="469.5" y="-347.9" font-family="Helvetica,sans-Serif" font-size="8.00">Masons</text>
</g>
<!-- proposal&#45;&gt;req_masons -->
<g id="edge10" class="edge">
<title>proposal&#45;&gt;req_masons</title>
<path fill="none" stroke="black" d="M386.49,-309.48C395.22,-314.17 405,-319.36 414,-324 419.83,-327.01 426.04,-330.14 432.11,-333.17"/>
<polygon fill="black" stroke="black" points="430.21,-336.14 440.72,-337.45 433.32,-329.87 430.21,-336.14"/>
</g>
<!-- req_bricks -->
<g id="node9" class="node">
<title>req_bricks</title>
<polygon fill="#d6eaf8" stroke="black" points="496.5,-423 442.5,-423 442.5,-387 496.5,-387 496.5,-423"/>
<text xml:space="preserve" text-anchor="middle" x="469.5" y="-401.9" font-family="Helvetica,sans-Serif" font-size="8.00">Bricks</text>
</g>
<!-- proposal&#45;&gt;req_bricks -->
<g id="edge11" class="edge">
<title>proposal&#45;&gt;req_bricks</title>
<path fill="none" stroke="black" d="M368.15,-313.21C377.23,-331.52 393.3,-359.6 414,-378 419.34,-382.74 425.65,-386.86 432.06,-390.36"/>
<polygon fill="black" stroke="black" points="430.21,-393.35 440.72,-394.66 433.33,-387.08 430.21,-393.35"/>
</g>
<!-- req_etc -->
<g id="node10" class="node">
<title>req_etc</title>
<polygon fill="#d6eaf8" stroke="black" points="496.5,-477 442.5,-477 442.5,-441 496.5,-441 496.5,-477"/>
<text xml:space="preserve" text-anchor="middle" x="469.5" y="-455.9" font-family="Helvetica,sans-Serif" font-size="8.00">Etc...</text>
</g>
<!-- proposal&#45;&gt;req_etc -->
<g id="edge12" class="edge">
<title>proposal&#45;&gt;req_etc</title>
<path fill="none" stroke="black" d="M362.75,-313.2C368.12,-341.74 382.15,-397.36 414,-432 418.97,-437.41 425.27,-441.87 431.8,-445.5"/>
<polygon fill="black" stroke="black" points="430.22,-448.62 440.74,-449.87 433.29,-442.34 430.22,-448.62"/>
</g>
<!-- proposal&#45;&gt;order -->
<g id="edge13" class="edge">
<title>proposal&#45;&gt;order</title>
<path fill="none" stroke="black" d="M368.03,-276.82C377.02,-258.58 393.01,-230.72 414,-213 419.21,-208.6 425.36,-204.87 431.61,-201.77"/>
<polygon fill="black" stroke="black" points="432.99,-204.98 440.7,-197.72 430.14,-198.59 432.99,-204.98"/>
</g>
<!-- purchase -->
<g id="node12" class="node">
<title>purchase</title>
<g id="a_node12"><a xlink:href="vscode://file/Users/williamjames/Documents/CommerceExpert/webClerk3/apps/transactions/models/purchase.py" xlink:title="Purchase order to vendor. GAP: +on_po pending record is NOT created.&#10;Model: apps/transactions/models/purchase.py&#10;Functions:&#10; &#160;transfer_order_to_purchase @ apps/transactions/services/order_to_purchase.py:14 (creates PO from order)&#10; &#160;transfer_proposal_to_purchase @ apps/transactions/services/proposal_to_purchase.py:13 (creates PO from proposal)&#10;Pending deltas: on_po: +qty (GAP: not implemented — no Pending.objects.create)" target="_blank">
<polygon fill="#82e0aa" stroke="black" points="616.5,-209 559.25,-209 559.25,-173 616.5,-173 616.5,-209"/>
<text xml:space="preserve" text-anchor="middle" x="587.88" y="-187.12" font-family="Helvetica,sans-Serif" font-size="10.00">Purchase</text>
</a>
</g>
</g>
<!-- order&#45;&gt;purchase -->
<g id="edge14" class="edge">
<title>order&#45;&gt;purchase</title>
<path fill="none" stroke="black" d="M496.91,-189.45C511.95,-189.71 531.07,-190.04 547.82,-190.33"/>
<polygon fill="black" stroke="black" points="547.38,-193.82 557.44,-190.49 547.5,-186.82 547.38,-193.82"/>
</g>
<!-- order&#45;&gt;workorders -->
<g id="edge15" class="edge">
<title>order&#45;&gt;workorders</title>
<path fill="none" stroke="black" d="M496.91,-177.2C510.77,-171.01 528.1,-163.26 543.85,-156.23"/>
<polygon fill="black" stroke="black" points="544.83,-159.62 552.53,-152.35 541.97,-153.23 544.83,-159.62"/>
</g>
<!-- invoice -->
<g id="node19" class="node">
<title>invoice</title>
<g id="a_node19"><a xlink:href="vscode://file/Users/williamjames/Documents/CommerceExpert/webClerk3/apps/transactions/models/invoice.py" xlink:title="Invoice — shipment event. Financial event triggers GL and inventory movement.&#10;Model: apps/transactions/models/invoice.py&#10;Functions:&#10; &#160;transfer_order_to_invoice @ apps/transactions/services/order_to_invoice.py:16 (creates invoice from order)&#10; &#160;Pending.objects.create @ apps/transactions/services/order_to_invoice.py:332 (&#45;on_hand, &#45;on_so, +on_in)&#10;Pending deltas: on_hand: &#45;qty, on_so: &#45;qty, on_in: +qty&#10;GL: AR debit, Revenue credit, Tax credit, COGS debit, Inventory credit, Commission" target="_blank">
<polygon fill="#82e0aa" stroke="black" points="916.25,-82 862.25,-82 862.25,-46 916.25,-46 916.25,-82"/>
<text xml:space="preserve" text-anchor="middle" x="889.25" y="-60.12" font-family="Helvetica,sans-Serif" font-size="10.00">Invoice</text>
</a>
</g>
</g>
<!-- order&#45;&gt;invoice -->
<g id="edge21" class="edge">
<title>order&#45;&gt;invoice</title>
<path fill="none" stroke="black" d="M496.85,-197.24C506.61,-201.07 517.39,-206.29 526,-213 597.2,-268.46 568.79,-334.12 649.75,-374 683.14,-390.45 701.84,-393.58 733.5,-374 835.6,-310.85 872.56,-157.75 883.89,-93.34"/>
<polygon fill="black" stroke="black" points="887.28,-94.31 885.47,-83.87 880.37,-93.16 887.28,-94.31"/>
</g>
<!-- pur_carpenters -->
<g id="node13" class="node">
<title>pur_carpenters</title>
<polygon fill="#d6eaf8" stroke="black" points="719.88,-128 663.38,-128 663.38,-92 719.88,-92 719.88,-128"/>
<text xml:space="preserve" text-anchor="middle" x="691.62" y="-106.9" font-family="Helvetica,sans-Serif" font-size="8.00">Carpenters</text>
</g>
<!-- purchase&#45;&gt;pur_carpenters -->
<g id="edge16" class="edge">
<title>purchase&#45;&gt;pur_carpenters</title>
<path fill="none" stroke="black" d="M611.71,-172.64C615.11,-169.79 618.55,-166.85 621.75,-164 634.66,-152.5 636.26,-147.81 649.75,-137 651.21,-135.83 652.72,-134.66 654.26,-133.5"/>
<polygon fill="black" stroke="black" points="655.98,-136.58 662.07,-127.92 651.9,-130.89 655.98,-136.58"/>
</g>
<!-- pur_mfg -->
<g id="node14" class="node">
<title>pur_mfg</title>
<polygon fill="#d6eaf8" stroke="black" points="725.5,-182 657.75,-182 657.75,-146 725.5,-146 725.5,-182"/>
<text xml:space="preserve" text-anchor="middle" x="691.62" y="-160.9" font-family="Helvetica,sans-Serif" font-size="8.00">Manufacturers</text>
</g>
<!-- purchase&#45;&gt;pur_mfg -->
<g id="edge17" class="edge">
<title>purchase&#45;&gt;pur_mfg</title>
<path fill="none" stroke="black" d="M616.95,-183.55C626.09,-181.12 636.48,-178.37 646.51,-175.71"/>
<polygon fill="black" stroke="black" points="647.36,-179.1 656.13,-173.15 645.57,-172.33 647.36,-179.1"/>
</g>
<!-- pur_masons -->
<g id="node15" class="node">
<title>pur_masons</title>
<polygon fill="#d6eaf8" stroke="black" points="718.62,-236 664.62,-236 664.62,-200 718.62,-200 718.62,-236"/>
<text xml:space="preserve" text-anchor="middle" x="691.62" y="-214.9" font-family="Helvetica,sans-Serif" font-size="8.00">Masons</text>
</g>
<!-- purchase&#45;&gt;pur_masons -->
<g id="edge18" class="edge">
<title>purchase&#45;&gt;pur_masons</title>
<path fill="none" stroke="black" d="M616.95,-198.45C628.18,-201.43 641.28,-204.91 653.3,-208.1"/>
<polygon fill="black" stroke="black" points="652.36,-211.47 662.93,-210.65 654.16,-204.7 652.36,-211.47"/>
</g>
<!-- pur_bricks -->
<g id="node16" class="node">
<title>pur_bricks</title>
<polygon fill="#d6eaf8" stroke="black" points="718.62,-290 664.62,-290 664.62,-254 718.62,-254 718.62,-290"/>
<text xml:space="preserve" text-anchor="middle" x="691.62" y="-268.9" font-family="Helvetica,sans-Serif" font-size="8.00">Bricks</text>
</g>
<!-- purchase&#45;&gt;pur_bricks -->
<g id="edge19" class="edge">
<title>purchase&#45;&gt;pur_bricks</title>
<path fill="none" stroke="black" d="M608.28,-209.49C619.95,-220.28 635.29,-233.9 649.75,-245 651.47,-246.32 653.25,-247.65 655.07,-248.96"/>
<polygon fill="black" stroke="black" points="652.85,-251.68 663.05,-254.53 656.86,-245.94 652.85,-251.68"/>
</g>
<!-- pur_etc -->
<g id="node17" class="node">
<title>pur_etc</title>
<polygon fill="#d6eaf8" stroke="black" points="718.62,-344 664.62,-344 664.62,-308 718.62,-308 718.62,-344"/>
<text xml:space="preserve" text-anchor="middle" x="691.62" y="-322.9" font-family="Helvetica,sans-Serif" font-size="8.00">Etc...</text>
</g>
<!-- purchase&#45;&gt;pur_etc -->
<g id="edge20" class="edge">
<title>purchase&#45;&gt;pur_etc</title>
<path fill="none" stroke="black" d="M595.92,-209.11C605.49,-232.01 624.36,-271.76 649.75,-299 651.63,-301.01 653.68,-302.95 655.84,-304.8"/>
<polygon fill="black" stroke="black" points="653.26,-307.23 663.33,-310.53 657.51,-301.67 653.26,-307.23"/>
</g>
<!-- purchase&#45;&gt;invoice -->
<g id="edge22" class="edge">
<title>purchase&#45;&gt;invoice</title>
<path fill="none" stroke="black" stroke-dasharray="5,2" d="M614.41,-172.6C617.13,-169.93 619.66,-167.04 621.75,-164 644.05,-131.58 618.61,-104.07 649.75,-80 707.93,-35.03 799.84,-44.65 850.9,-54.83"/>
<polygon fill="black" stroke="black" points="850.07,-58.23 860.58,-56.88 851.52,-51.38 850.07,-58.23"/>
</g>
<!-- receipts -->
<g id="node20" class="node">
<title>receipts</title>
<g id="a_node20"><a xlink:href="vscode://file/Users/williamjames/Documents/CommerceExpert/webClerk3/apps/transactions/models/receipt.py" xlink:title="Vendor shipping receipts.&#10;Model: apps/transactions/models/receipt.py" target="_blank">
<polygon fill="#aed6f1" stroke="black" points="719.12,-36 664.12,-36 664.12,0 719.12,0 719.12,-36"/>
<text xml:space="preserve" text-anchor="middle" x="691.62" y="-14.12" font-family="Helvetica,sans-Serif" font-size="10.00">Receipts</text>
</a>
</g>
</g>
<!-- workorders&#45;&gt;receipts -->
<g id="edge24" class="edge">
<title>workorders&#45;&gt;receipts</title>
<path fill="none" stroke="black" d="M599.58,-118.5C610.75,-100.04 629.46,-71.41 649.75,-50 651.9,-47.73 654.22,-45.49 656.62,-43.31"/>
<polygon fill="black" stroke="black" points="658.49,-46.32 663.83,-37.17 653.95,-40.99 658.49,-46.32"/>
</g>
<!-- payments -->
<g id="node22" class="node">
<title>payments</title>
<polygon fill="#82e0aa" stroke="black" points="1012.5,-82 952.25,-82 952.25,-46 1012.5,-46 1012.5,-82"/>
<text xml:space="preserve" text-anchor="middle" x="982.38" y="-60.12" font-family="Helvetica,sans-Serif" font-size="10.00">Payments</text>
</g>
<!-- invoice&#45;&gt;payments -->
<g id="edge23" class="edge">
<title>invoice&#45;&gt;payments</title>
<path fill="none" stroke="black" d="M916.61,-64C924.11,-64 932.46,-64 940.61,-64"/>
<polygon fill="black" stroke="black" points="940.36,-67.5 950.36,-64 940.36,-60.5 940.36,-67.5"/>
</g>
<!-- accounting -->
<g id="node21" class="node">
<title>accounting</title>
<polygon fill="#aed6f1" stroke="black" points="826.25,-36 761.5,-36 761.5,0 826.25,0 826.25,-36"/>
<text xml:space="preserve" text-anchor="middle" x="793.88" y="-14.12" font-family="Helvetica,sans-Serif" font-size="10.00">Accounting</text>
</g>
<!-- receipts&#45;&gt;accounting -->
<g id="edge25" class="edge">
<title>receipts&#45;&gt;accounting</title>
<path fill="none" stroke="black" d="M719.49,-18C728.85,-18 739.59,-18 749.92,-18"/>
<polygon fill="black" stroke="black" points="749.79,-21.5 759.79,-18 749.79,-14.5 749.79,-21.5"/>
</g>
<!-- accounting&#45;&gt;invoice -->
<g id="edge26" class="edge">
<title>accounting&#45;&gt;invoice</title>
<path fill="none" stroke="black" stroke-dasharray="5,2" d="M836.9,-38.7C845.37,-42.87 854.04,-47.15 861.79,-50.97"/>
<polygon fill="black" stroke="black" points="838.62,-35.65 828.11,-34.37 835.53,-41.93 838.62,-35.65"/>
</g>
</g>
</svg>
