<?xml version="1.0" encoding="UTF-8" standalone="no"?>
<!DOCTYPE svg PUBLIC "-//W3C//DTD SVG 1.1//EN"
 "http://www.w3.org/Graphics/SVG/1.1/DTD/svg11.dtd">
<!-- Generated by graphviz version 13.1.2 (20250808.2320)
 -->
<!-- Title: wc3_conn_shipping Pages: 1 -->
<svg width="424pt" height="1023pt"
 viewBox="0.00 0.00 424.00 1023.00" xmlns="http://www.w3.org/2000/svg" xmlns:xlink="http://www.w3.org/1999/xlink">
<g id="graph0" class="graph" transform="scale(1 1) rotate(0) translate(36 987)">
<title>wc3_conn_shipping</title>
<polygon fill="white" stroke="none" points="-36,36 -36,-987 388,-987 388,36 -36,36"/>
<text xml:space="preserve" text-anchor="middle" x="176" y="-933.7" font-family="Helvetica,sans-Serif" font-size="14.00">WC3 — Shipping Carrier Flow</text>
<g id="clust1" class="cluster">
<title>cluster_carriers</title>
<polygon fill="#f5eef8" stroke="#d7bde2" points="40,-851 40,-920 326,-920 326,-851 40,-851"/>
<text xml:space="preserve" text-anchor="middle" x="183" y="-908.4" font-family="Helvetica,sans-Serif" font-size="8.00">Carrier APIs</text>
</g>
<!-- order -->
<g id="node1" class="node">
<title>order</title>
<g id="a_node1"><a xlink:href="vscode://file/Users/williamjames/Documents/CommerceExpert/webClerk3/apps/transactions/models/order.py" xlink:title="Sales order — customer commitment. Creates +on_so and &#45;on_p pending records.&#10;Model: apps/transactions/models/order.py&#10;Functions:&#10; &#160;transfer_proposal_to_order @ apps/transactions/services/proposal_to_order.py:219 (creates order from proposal)&#10; &#160;_create_transfer_pending_records @ apps/transactions/services/proposal_to_order.py:131 (pending records for +on_so, &#45;on_p)&#10;Pending deltas: on_so: +qty, on_p: &#45;qty" target="_blank">
<polygon fill="#d4e6f1" stroke="black" points="165.62,-157.25 90.38,-157.25 90.38,-121.25 165.62,-121.25 165.62,-157.25"/>
<text xml:space="preserve" text-anchor="middle" x="128" y="-141" font-family="Helvetica,sans-Serif" font-size="10.00">Order</text>
<text xml:space="preserve" text-anchor="middle" x="128" y="-129.75" font-family="Helvetica,sans-Serif" font-size="10.00">(Order model)</text>
</a>
</g>
</g>
<!-- package -->
<g id="node2" class="node">
<title>package</title>
<polygon fill="#fcf3cf" stroke="black" points="172,-76.25 84,-76.25 84,0 172,0 172,-76.25"/>
<text xml:space="preserve" text-anchor="middle" x="128" y="-62.75" font-family="Helvetica,sans-Serif" font-size="10.00">Package Details</text>
<text xml:space="preserve" text-anchor="middle" x="128" y="-39.5" font-family="Helvetica,sans-Serif" font-size="10.00">weight</text>
<text xml:space="preserve" text-anchor="middle" x="128" y="-28.25" font-family="Helvetica,sans-Serif" font-size="10.00">dimensions</text>
<text xml:space="preserve" text-anchor="middle" x="128" y="-17" font-family="Helvetica,sans-Serif" font-size="10.00">ship&#45;to address</text>
<text xml:space="preserve" text-anchor="middle" x="128" y="-5.75" font-family="Helvetica,sans-Serif" font-size="10.00">service level</text>
</g>
<!-- order&#45;&gt;package -->
<g id="edge1" class="edge">
<title>order&#45;&gt;package</title>
<path fill="none" stroke="black" d="M128,-120.98C128,-111.74 128,-99.83 128,-87.98"/>
<polygon fill="black" stroke="black" points="131.5,-88.24 128,-78.24 124.5,-88.24 131.5,-88.24"/>
<text xml:space="preserve" text-anchor="middle" x="144.12" y="-95.65" font-family="Helvetica,sans-Serif" font-size="8.00">pick/pack</text>
</g>
<!-- ups -->
<g id="node3" class="node">
<title>ups</title>
<polygon fill="#e8daef" stroke="black" points="102,-895 48,-895 48,-859 102,-859 102,-895"/>
<text xml:space="preserve" text-anchor="middle" x="75" y="-873.9" font-family="Helvetica,sans-Serif" font-size="8.00">UPS</text>
</g>
<!-- package&#45;&gt;ups -->
<g id="edge2" class="edge">
<title>package&#45;&gt;ups</title>
<path fill="none" stroke="black" d="M83.59,-53.04C46.62,-67.71 0,-94.83 0,-138.25 0,-773.25 0,-773.25 0,-773.25 0,-804.36 22.71,-832.35 43.14,-851.22"/>
<polygon fill="black" stroke="black" points="40.72,-853.76 50.54,-857.74 45.35,-848.51 40.72,-853.76"/>
</g>
<!-- fedex -->
<g id="node4" class="node">
<title>fedex</title>
<polygon fill="#e8daef" stroke="black" points="174,-895 120,-895 120,-859 174,-859 174,-895"/>
<text xml:space="preserve" text-anchor="middle" x="147" y="-873.9" font-family="Helvetica,sans-Serif" font-size="8.00">FedEx</text>
</g>
<!-- package&#45;&gt;fedex -->
<g id="edge3" class="edge">
<title>package&#45;&gt;fedex</title>
<path fill="none" stroke="black" d="M83.53,-65.97C60.85,-83.33 38,-108.26 38,-138.25 38,-479.5 38,-479.5 38,-479.5 38,-634.44 37.62,-681.53 103,-822 107.65,-831.98 114.56,-841.7 121.53,-850.07"/>
<polygon fill="black" stroke="black" points="118.78,-852.25 128.02,-857.44 124.04,-847.62 118.78,-852.25"/>
</g>
<!-- usps -->
<g id="node5" class="node">
<title>usps</title>
<polygon fill="#e8daef" stroke="black" points="246,-895 192,-895 192,-859 246,-859 246,-895"/>
<text xml:space="preserve" text-anchor="middle" x="219" y="-873.9" font-family="Helvetica,sans-Serif" font-size="8.00">USPS</text>
</g>
<!-- package&#45;&gt;usps -->
<g id="edge4" class="edge">
<title>package&#45;&gt;usps</title>
<path fill="none" stroke="black" d="M172.08,-43.38C227.08,-51.41 314,-74.22 314,-138.25 314,-479.5 314,-479.5 314,-479.5 314,-633.4 325.16,-681.21 263,-822 258.55,-832.07 251.7,-841.81 244.72,-850.18"/>
<polygon fill="black" stroke="black" points="242.21,-847.73 238.2,-857.54 247.45,-852.37 242.21,-847.73"/>
</g>
<!-- dhl -->
<g id="node6" class="node">
<title>dhl</title>
<polygon fill="#e8daef" stroke="black" points="318,-895 264,-895 264,-859 318,-859 318,-895"/>
<text xml:space="preserve" text-anchor="middle" x="291" y="-873.9" font-family="Helvetica,sans-Serif" font-size="8.00">DHL</text>
</g>
<!-- package&#45;&gt;dhl -->
<g id="edge5" class="edge">
<title>package&#45;&gt;dhl</title>
<path fill="none" stroke="black" d="M172.26,-39.72C237.54,-43.21 352,-60.43 352,-138.25 352,-773.25 352,-773.25 352,-773.25 352,-802.44 333.57,-830.58 316.97,-850.01"/>
<polygon fill="black" stroke="black" points="314.39,-847.65 310.31,-857.43 319.6,-852.33 314.39,-847.65"/>
</g>
<!-- rates -->
<g id="node7" class="node">
<title>rates</title>
<polygon fill="#f5cba7" stroke="black" points="253.8,-751.64 253.8,-792.86 212.32,-822 153.68,-822 112.2,-792.86 112.2,-751.64 153.68,-722.5 212.32,-722.5 253.8,-751.64"/>
<text xml:space="preserve" text-anchor="middle" x="183" y="-791.25" font-family="Helvetica,sans-Serif" font-size="10.00">Rate Comparison</text>
<text xml:space="preserve" text-anchor="middle" x="183" y="-768" font-family="Helvetica,sans-Serif" font-size="10.00">cost</text>
<text xml:space="preserve" text-anchor="middle" x="183" y="-756.75" font-family="Helvetica,sans-Serif" font-size="10.00">transit time</text>
<text xml:space="preserve" text-anchor="middle" x="183" y="-745.5" font-family="Helvetica,sans-Serif" font-size="10.00">service level</text>
</g>
<!-- ups&#45;&gt;rates -->
<g id="edge6" class="edge">
<title>ups&#45;&gt;rates</title>
<path fill="none" stroke="black" d="M93.32,-858.57C104.19,-848.23 118.54,-834.57 132.57,-821.22"/>
<polygon fill="black" stroke="black" points="134.84,-823.9 139.67,-814.47 130.02,-818.83 134.84,-823.9"/>
</g>
<!-- fedex&#45;&gt;rates -->
<g id="edge7" class="edge">
<title>fedex&#45;&gt;rates</title>
<path fill="none" stroke="black" d="M153.11,-858.57C155.67,-851.25 158.82,-842.26 162.1,-832.9"/>
<polygon fill="black" stroke="black" points="165.33,-834.26 165.34,-823.66 158.73,-831.94 165.33,-834.26"/>
</g>
<!-- usps&#45;&gt;rates -->
<g id="edge8" class="edge">
<title>usps&#45;&gt;rates</title>
<path fill="none" stroke="black" d="M212.89,-858.57C210.33,-851.25 207.18,-842.26 203.9,-832.9"/>
<polygon fill="black" stroke="black" points="207.27,-831.94 200.66,-823.66 200.67,-834.26 207.27,-831.94"/>
</g>
<!-- dhl&#45;&gt;rates -->
<g id="edge9" class="edge">
<title>dhl&#45;&gt;rates</title>
<path fill="none" stroke="black" d="M272.68,-858.57C261.81,-848.23 247.46,-834.57 233.43,-821.22"/>
<polygon fill="black" stroke="black" points="235.98,-818.83 226.33,-814.47 231.16,-823.9 235.98,-818.83"/>
</g>
<!-- select -->
<g id="node8" class="node">
<title>select</title>
<polygon fill="#fadbd8" stroke="black" points="168,-685.5 125.75,-655 168,-624.5 210.25,-655 168,-685.5"/>
<text xml:space="preserve" text-anchor="middle" x="168" y="-656.75" font-family="Helvetica,sans-Serif" font-size="10.00">Best</text>
<text xml:space="preserve" text-anchor="middle" x="168" y="-645.5" font-family="Helvetica,sans-Serif" font-size="10.00">Rate?</text>
</g>
<!-- rates&#45;&gt;select -->
<g id="edge10" class="edge">
<title>rates&#45;&gt;select</title>
<path fill="none" stroke="black" d="M176.6,-722.04C175.41,-712.95 174.19,-703.58 173.06,-694.86"/>
<polygon fill="black" stroke="black" points="176.53,-694.41 171.77,-684.95 169.59,-695.31 176.53,-694.41"/>
</g>
<!-- label_gen -->
<g id="node9" class="node">
<title>label_gen</title>
<polygon fill="#fcf3cf" stroke="black" points="206.75,-570.5 117.25,-570.5 117.25,-505.5 206.75,-505.5 206.75,-570.5"/>
<text xml:space="preserve" text-anchor="middle" x="162" y="-557" font-family="Helvetica,sans-Serif" font-size="10.00">Label Generation</text>
<text xml:space="preserve" text-anchor="middle" x="162" y="-533.75" font-family="Helvetica,sans-Serif" font-size="10.00">tracking number</text>
<text xml:space="preserve" text-anchor="middle" x="162" y="-522.5" font-family="Helvetica,sans-Serif" font-size="10.00">barcode</text>
<text xml:space="preserve" text-anchor="middle" x="162" y="-511.25" font-family="Helvetica,sans-Serif" font-size="10.00">return label</text>
</g>
<!-- select&#45;&gt;label_gen -->
<g id="edge11" class="edge">
<title>select&#45;&gt;label_gen</title>
<path fill="none" stroke="black" d="M166.49,-624.98C165.81,-611.96 164.99,-596.33 164.24,-581.99"/>
<polygon fill="black" stroke="black" points="167.76,-582.16 163.74,-572.35 160.77,-582.52 167.76,-582.16"/>
<text xml:space="preserve" text-anchor="middle" x="179.98" y="-598.9" font-family="Helvetica,sans-Serif" font-size="8.00">selected</text>
<text xml:space="preserve" text-anchor="middle" x="179.98" y="-589.9" font-family="Helvetica,sans-Serif" font-size="8.00">carrier</text>
</g>
<!-- tracking -->
<g id="node10" class="node">
<title>tracking</title>
<polygon fill="#f5cba7" stroke="black" points="247.62,-451.5 160.38,-451.5 160.38,-352.75 247.62,-352.75 247.62,-451.5"/>
<text xml:space="preserve" text-anchor="middle" x="204" y="-438" font-family="Helvetica,sans-Serif" font-size="10.00">Tracking Events</text>
<text xml:space="preserve" text-anchor="middle" x="204" y="-426.75" font-family="Helvetica,sans-Serif" font-size="10.00">(webhook)</text>
<text xml:space="preserve" text-anchor="middle" x="204" y="-403.5" font-family="Helvetica,sans-Serif" font-size="10.00">pickup</text>
<text xml:space="preserve" text-anchor="middle" x="204" y="-392.25" font-family="Helvetica,sans-Serif" font-size="10.00">in&#45;transit</text>
<text xml:space="preserve" text-anchor="middle" x="204" y="-381" font-family="Helvetica,sans-Serif" font-size="10.00">out&#45;for&#45;delivery</text>
<text xml:space="preserve" text-anchor="middle" x="204" y="-369.75" font-family="Helvetica,sans-Serif" font-size="10.00">delivered</text>
<text xml:space="preserve" text-anchor="middle" x="204" y="-358.5" font-family="Helvetica,sans-Serif" font-size="10.00">exception</text>
</g>
<!-- label_gen&#45;&gt;tracking -->
<g id="edge12" class="edge">
<title>label_gen&#45;&gt;tracking</title>
<path fill="none" stroke="black" d="M171.95,-505.27C175.97,-492.46 180.75,-477.23 185.37,-462.5"/>
<polygon fill="black" stroke="black" points="188.59,-463.94 188.24,-453.35 181.91,-461.84 188.59,-463.94"/>
<text xml:space="preserve" text-anchor="middle" x="196.88" y="-479.9" font-family="Helvetica,sans-Serif" font-size="8.00">tracking</text>
<text xml:space="preserve" text-anchor="middle" x="196.88" y="-470.9" font-family="Helvetica,sans-Serif" font-size="8.00">number</text>
</g>
<!-- invoice -->
<g id="node12" class="node">
<title>invoice</title>
<g id="a_node12"><a xlink:href="vscode://file/Users/williamjames/Documents/CommerceExpert/webClerk3/apps/transactions/models/invoice.py" xlink:title="Invoice — shipment event. Financial event triggers GL and inventory movement.&#10;Model: apps/transactions/models/invoice.py&#10;Functions:&#10; &#160;transfer_order_to_invoice @ apps/transactions/services/order_to_invoice.py:16 (creates invoice from order)&#10; &#160;Pending.objects.create @ apps/transactions/services/order_to_invoice.py:332 (&#45;on_hand, &#45;on_so, +on_in)&#10;Pending deltas: on_hand: &#45;qty, on_so: &#45;qty, on_in: +qty&#10;GL: AR debit, Revenue credit, Tax credit, COGS debit, Inventory credit, Commission" target="_blank">
<polygon fill="#abebc6" stroke="black" points="142.38,-423 65.62,-423 65.62,-381.25 142.38,-381.25 142.38,-423"/>
<text xml:space="preserve" text-anchor="middle" x="104" y="-409.5" font-family="Helvetica,sans-Serif" font-size="10.00">Invoice</text>
<text xml:space="preserve" text-anchor="middle" x="104" y="-398.25" font-family="Helvetica,sans-Serif" font-size="10.00">(shipping cost</text>
<text xml:space="preserve" text-anchor="middle" x="104" y="-387" font-family="Helvetica,sans-Serif" font-size="10.00">line item)</text>
</a>
</g>
</g>
<!-- label_gen&#45;&gt;invoice -->
<g id="edge15" class="edge">
<title>label_gen&#45;&gt;invoice</title>
<path fill="none" stroke="black" d="M148.25,-505.27C138.9,-483.68 126.58,-455.24 117.32,-433.86"/>
<polygon fill="black" stroke="black" points="120.57,-432.57 113.38,-424.78 114.15,-435.35 120.57,-432.57"/>
<text xml:space="preserve" text-anchor="middle" x="154.53" y="-479.9" font-family="Helvetica,sans-Serif" font-size="8.00">shipping</text>
<text xml:space="preserve" text-anchor="middle" x="154.53" y="-470.9" font-family="Helvetica,sans-Serif" font-size="8.00">cost</text>
</g>
<!-- status -->
<g id="node11" class="node">
<title>status</title>
<polygon fill="#abebc6" stroke="black" points="163.75,-293.12 92.25,-293.12 92.25,-216.88 163.75,-216.88 163.75,-293.12"/>
<text xml:space="preserve" text-anchor="middle" x="128" y="-279.62" font-family="Helvetica,sans-Serif" font-size="10.00">Order Status</text>
<text xml:space="preserve" text-anchor="middle" x="128" y="-268.38" font-family="Helvetica,sans-Serif" font-size="10.00">Update</text>
<text xml:space="preserve" text-anchor="middle" x="128" y="-245.12" font-family="Helvetica,sans-Serif" font-size="10.00">shipped</text>
<text xml:space="preserve" text-anchor="middle" x="128" y="-233.88" font-family="Helvetica,sans-Serif" font-size="10.00">in&#45;transit</text>
<text xml:space="preserve" text-anchor="middle" x="128" y="-222.62" font-family="Helvetica,sans-Serif" font-size="10.00">delivered</text>
</g>
<!-- tracking&#45;&gt;status -->
<g id="edge13" class="edge">
<title>tracking&#45;&gt;status</title>
<path fill="none" stroke="black" d="M178.48,-352.4C170.2,-336.59 161.04,-319.09 152.81,-303.38"/>
<polygon fill="black" stroke="black" points="156,-301.93 148.26,-294.69 149.8,-305.18 156,-301.93"/>
<text xml:space="preserve" text-anchor="middle" x="182.53" y="-327.15" font-family="Helvetica,sans-Serif" font-size="8.00">event</text>
<text xml:space="preserve" text-anchor="middle" x="182.53" y="-318.15" font-family="Helvetica,sans-Serif" font-size="8.00">updates</text>
</g>
<!-- alice -->
<g id="node13" class="node">
<title>alice</title>
<polygon fill="#aed6f1" stroke="black" points="285.88,-298.75 182.12,-298.75 182.12,-211.25 285.88,-211.25 285.88,-298.75"/>
<text xml:space="preserve" text-anchor="middle" x="234" y="-285.25" font-family="Helvetica,sans-Serif" font-size="10.00">Alice</text>
<text xml:space="preserve" text-anchor="middle" x="234" y="-274" font-family="Helvetica,sans-Serif" font-size="10.00">Carrier Performance</text>
<text xml:space="preserve" text-anchor="middle" x="234" y="-262.75" font-family="Helvetica,sans-Serif" font-size="10.00">Monitoring</text>
<text xml:space="preserve" text-anchor="middle" x="234" y="-239.5" font-family="Helvetica,sans-Serif" font-size="10.00">on&#45;time %</text>
<text xml:space="preserve" text-anchor="middle" x="234" y="-228.25" font-family="Helvetica,sans-Serif" font-size="10.00">exception rate</text>
<text xml:space="preserve" text-anchor="middle" x="234" y="-217" font-family="Helvetica,sans-Serif" font-size="10.00">cost trends</text>
</g>
<!-- tracking&#45;&gt;alice -->
<g id="edge16" class="edge">
<title>tracking&#45;&gt;alice</title>
<path fill="none" stroke="black" stroke-dasharray="5,2" d="M209.91,-352.28C211.65,-340.59 213.76,-328.18 216.25,-316.75 216.74,-314.49 217.27,-312.18 217.84,-309.86"/>
<polygon fill="black" stroke="black" points="221.16,-310.97 220.27,-300.42 214.38,-309.23 221.16,-310.97"/>
<text xml:space="preserve" text-anchor="middle" x="239.12" y="-327.15" font-family="Helvetica,sans-Serif" font-size="8.00">performance</text>
<text xml:space="preserve" text-anchor="middle" x="239.12" y="-318.15" font-family="Helvetica,sans-Serif" font-size="8.00">data</text>
</g>
<!-- status&#45;&gt;order -->
<g id="edge14" class="edge">
<title>status&#45;&gt;order</title>
<path fill="none" stroke="black" stroke-dasharray="5,2" d="M128,-216.44C128,-200.97 128,-183.33 128,-168.93"/>
<polygon fill="black" stroke="black" points="131.5,-169.22 128,-159.22 124.5,-169.22 131.5,-169.22"/>
<text xml:space="preserve" text-anchor="middle" x="140.38" y="-185.65" font-family="Helvetica,sans-Serif" font-size="8.00">update</text>
<text xml:space="preserve" text-anchor="middle" x="140.38" y="-176.65" font-family="Helvetica,sans-Serif" font-size="8.00">order</text>
</g>
<!-- alice&#45;&gt;rates -->
<g id="edge17" class="edge">
<title>alice&#45;&gt;rates</title>
<path fill="none" stroke="black" stroke-dasharray="5,2" d="M256.54,-299.01C258.78,-304.84 260.71,-310.85 262,-316.75 263.71,-324.56 262.17,-326.75 262,-334.75 258.64,-491.77 262.29,-534.53 219,-685.5 216.53,-694.11 213.44,-703.01 210.12,-711.67"/>
<polygon fill="black" stroke="black" points="206.98,-710.1 206.54,-720.68 213.49,-712.69 206.98,-710.1"/>
<text xml:space="preserve" text-anchor="middle" x="277.35" y="-539.4" font-family="Helvetica,sans-Serif" font-size="8.00">recommend</text>
<text xml:space="preserve" text-anchor="middle" x="277.35" y="-530.4" font-family="Helvetica,sans-Serif" font-size="8.00">carrier</text>
</g>
</g>
</svg>
