<?xml version="1.0" encoding="UTF-8" standalone="no"?>
<!DOCTYPE svg PUBLIC "-//W3C//DTD SVG 1.1//EN"
 "http://www.w3.org/Graphics/SVG/1.1/DTD/svg11.dtd">
<!-- Generated by graphviz version 13.1.2 (20250808.2320)
 -->
<!-- Title: wc3_celery Pages: 1 -->
<svg width="1835pt" height="905pt"
 viewBox="0.00 0.00 1835.00 905.00" xmlns="http://www.w3.org/2000/svg" xmlns:xlink="http://www.w3.org/1999/xlink">
<g id="graph0" class="graph" transform="scale(1 1) rotate(0) translate(36 868.72)">
<title>wc3_celery</title>
<polygon fill="white" stroke="none" points="-36,36 -36,-868.72 1799,-868.72 1799,36 -36,36"/>
<text xml:space="preserve" text-anchor="middle" x="881.5" y="-815.42" font-family="Helvetica,sans-Serif" font-size="14.00">WC3 — Celery Task Pipeline</text>
<text xml:space="preserve" text-anchor="middle" x="881.5" y="-800.42" font-family="Helvetica,sans-Serif" font-size="14.00">Redis broker · UTC · 30 min hard limit</text>
<text xml:space="preserve" text-anchor="middle" x="881.5" y="-785.42" font-family="Helvetica,sans-Serif" font-size="14.00">Alice owns library, data quality, health, schema, commerce analytics</text>
<g id="clust1" class="cluster">
<title>cluster_high_freq</title>
<polygon fill="#fef9e7" stroke="#f9e79f" points="8,-419.62 8,-497.38 208,-497.38 208,-419.62 8,-419.62"/>
<text xml:space="preserve" text-anchor="middle" x="108" y="-484.82" font-family="Helvetica,sans-Serif" font-size="9.00">High Frequency (seconds)</text>
</g>
<g id="clust2" class="cluster">
<title>cluster_periodic</title>
<polygon fill="#ebf5fb" stroke="#aed6f1" points="1229,-419.62 1229,-497.38 1494,-497.38 1494,-419.62 1229,-419.62"/>
<text xml:space="preserve" text-anchor="middle" x="1361.5" y="-484.82" font-family="Helvetica,sans-Serif" font-size="9.00">Periodic (minutes / hours)</text>
</g>
<g id="clust3" class="cluster">
<title>cluster_nightly</title>
<polygon fill="#e8daef" stroke="#d2b4de" points="216,-423.62 216,-493.38 1221,-493.38 1221,-423.62 216,-423.62"/>
<text xml:space="preserve" text-anchor="middle" x="718.5" y="-480.82" font-family="Helvetica,sans-Serif" font-size="9.00">Nightly Tasks (1:30 AM – 5:00 AM UTC)</text>
</g>
<g id="clust4" class="cluster">
<title>cluster_weekly</title>
<polygon fill="#fadbd8" stroke="#f5b7b1" points="500,-701.97 500,-771.72 908,-771.72 908,-701.97 500,-701.97"/>
<text xml:space="preserve" text-anchor="middle" x="704" y="-759.17" font-family="Helvetica,sans-Serif" font-size="9.00">Weekly Tasks (Sunday / Monday)</text>
</g>
<g id="clust5" class="cluster">
<title>cluster_library</title>
<polygon fill="#d5f5e3" stroke="#82e0aa" points="1571,-76 1571,-498.12 1755,-498.12 1755,-76 1571,-76"/>
<text xml:space="preserve" text-anchor="middle" x="1663" y="-485.57" font-family="Helvetica,sans-Serif" font-size="9.00">Alice Library Pipeline (Celery tasks)</text>
</g>
<!-- redis -->
<g id="node1" class="node">
<title>redis</title>
<path fill="#fadbd8" stroke="black" d="M481.38,-660.44C481.38,-663.01 461.49,-665.09 437,-665.09 412.51,-665.09 392.62,-663.01 392.62,-660.44 392.62,-660.44 392.62,-618.53 392.62,-618.53 392.62,-615.96 412.51,-613.88 437,-613.88 461.49,-613.88 481.38,-615.96 481.38,-618.53 481.38,-618.53 481.38,-660.44 481.38,-660.44"/>
<path fill="none" stroke="black" d="M481.38,-660.44C481.38,-657.87 461.49,-655.78 437,-655.78 412.51,-655.78 392.62,-657.87 392.62,-660.44"/>
<text xml:space="preserve" text-anchor="middle" x="437" y="-645.56" font-family="Helvetica,sans-Serif" font-size="9.00">Redis</text>
<text xml:space="preserve" text-anchor="middle" x="437" y="-635.81" font-family="Helvetica,sans-Serif" font-size="9.00">localhost:6379/0</text>
<text xml:space="preserve" text-anchor="middle" x="437" y="-626.06" font-family="Helvetica,sans-Serif" font-size="9.00">Broker + Backend</text>
</g>
<!-- worker -->
<g id="node2" class="node">
<title>worker</title>
<polygon fill="#d4e6f1" stroke="black" points="480.62,-569.62 393.38,-569.62 393.38,-532.38 480.62,-532.38 480.62,-569.62"/>
<text xml:space="preserve" text-anchor="middle" x="437" y="-557.08" font-family="Helvetica,sans-Serif" font-size="9.00">Celery Worker</text>
<text xml:space="preserve" text-anchor="middle" x="437" y="-547.33" font-family="Helvetica,sans-Serif" font-size="9.00">concurrency=4</text>
<text xml:space="preserve" text-anchor="middle" x="437" y="-537.58" font-family="Helvetica,sans-Serif" font-size="9.00">&#45;A webclerk3_api</text>
</g>
<!-- redis&#45;&gt;worker -->
<g id="edge1" class="edge">
<title>redis&#45;&gt;worker</title>
<path fill="none" stroke="black" d="M437,-613.47C437,-603.5 437,-591.95 437,-581.57"/>
<polygon fill="black" stroke="black" points="440.5,-581.61 437,-571.61 433.5,-581.61 440.5,-581.61"/>
<text xml:space="preserve" text-anchor="middle" x="454.25" y="-589.23" font-family="Helvetica,sans-Serif" font-size="7.00">task queue</text>
</g>
<!-- inv_drain -->
<g id="node4" class="node">
<title>inv_drain</title>
<polygon fill="#fdfefe" stroke="black" points="96.25,-471.62 15.75,-471.62 15.75,-427.62 96.25,-427.62 96.25,-471.62"/>
<text xml:space="preserve" text-anchor="middle" x="56" y="-460.02" font-family="Helvetica,sans-Serif" font-size="8.00">Inventory Pending</text>
<text xml:space="preserve" text-anchor="middle" x="56" y="-451.02" font-family="Helvetica,sans-Serif" font-size="8.00">Drain</text>
<text xml:space="preserve" text-anchor="middle" x="56" y="-442.02" font-family="Helvetica,sans-Serif" font-size="8.00">30s · adaptive</text>
<text xml:space="preserve" text-anchor="middle" x="56" y="-433.02" font-family="Helvetica,sans-Serif" font-size="8.00">limit=200</text>
</g>
<!-- worker&#45;&gt;inv_drain -->
<g id="edge11" class="edge">
<title>worker&#45;&gt;inv_drain</title>
<path fill="none" stroke="black" stroke-dasharray="1,5" d="M392.99,-546.45C314.71,-539.58 154.8,-522.95 105,-498.12 96.01,-493.64 87.59,-486.92 80.36,-479.93"/>
<polygon fill="black" stroke="black" points="82.97,-477.58 73.51,-472.81 77.92,-482.44 82.97,-477.58"/>
</g>
<!-- layout_apply -->
<g id="node5" class="node">
<title>layout_apply</title>
<polygon fill="#fdfefe" stroke="black" points="199.88,-471.62 114.12,-471.62 114.12,-427.62 199.88,-427.62 199.88,-471.62"/>
<text xml:space="preserve" text-anchor="middle" x="157" y="-460.02" font-family="Helvetica,sans-Serif" font-size="8.00">Apply Pending</text>
<text xml:space="preserve" text-anchor="middle" x="157" y="-451.02" font-family="Helvetica,sans-Serif" font-size="8.00">Layouts</text>
<text xml:space="preserve" text-anchor="middle" x="157" y="-442.02" font-family="Helvetica,sans-Serif" font-size="8.00">10s</text>
<text xml:space="preserve" text-anchor="middle" x="157" y="-433.02" font-family="Helvetica,sans-Serif" font-size="8.00">DataBrowser saves</text>
</g>
<!-- worker&#45;&gt;layout_apply -->
<g id="edge12" class="edge">
<title>worker&#45;&gt;layout_apply</title>
<path fill="none" stroke="black" stroke-dasharray="1,5" d="M393.11,-539.69C354.82,-530.72 297.76,-517.43 248,-506.12 232.02,-502.49 226.65,-505.48 212,-498.12 202.48,-493.34 193.25,-486.55 185.17,-479.58"/>
<polygon fill="black" stroke="black" points="187.75,-477.2 178,-473.07 183.04,-482.39 187.75,-477.2"/>
</g>
<!-- keywords -->
<g id="node6" class="node">
<title>keywords</title>
<polygon fill="#fdfefe" stroke="black" points="1316.5,-471.62 1237.5,-471.62 1237.5,-427.62 1316.5,-427.62 1316.5,-471.62"/>
<text xml:space="preserve" text-anchor="middle" x="1277" y="-460.02" font-family="Helvetica,sans-Serif" font-size="8.00">Search Keywords</text>
<text xml:space="preserve" text-anchor="middle" x="1277" y="-451.02" font-family="Helvetica,sans-Serif" font-size="8.00">Refresh</text>
<text xml:space="preserve" text-anchor="middle" x="1277" y="-442.02" font-family="Helvetica,sans-Serif" font-size="8.00">every 15 min</text>
<text xml:space="preserve" text-anchor="middle" x="1277" y="-433.02" font-family="Helvetica,sans-Serif" font-size="8.00">limit=500</text>
</g>
<!-- worker&#45;&gt;keywords -->
<g id="edge13" class="edge">
<title>worker&#45;&gt;keywords</title>
<path fill="none" stroke="black" stroke-dasharray="1,5" d="M480.99,-548.8C636.76,-544.32 1156.5,-527.33 1225,-498.12 1234.91,-493.9 1244.16,-486.95 1252.03,-479.66"/>
<polygon fill="black" stroke="black" points="1254.31,-482.33 1258.92,-472.8 1249.37,-477.38 1254.31,-482.33"/>
</g>
<!-- lib_scan -->
<g id="node26" class="node">
<title>lib_scan</title>
<polygon fill="#fdfefe" stroke="black" points="1660.88,-472.38 1581.12,-472.38 1581.12,-426.88 1660.88,-426.88 1660.88,-472.38"/>
<text xml:space="preserve" text-anchor="middle" x="1621" y="-460.77" font-family="Helvetica,sans-Serif" font-size="8.00">Virus Scan</text>
<text xml:space="preserve" text-anchor="middle" x="1621" y="-451.77" font-family="Helvetica,sans-Serif" font-size="8.00">every 1 min</text>
<text xml:space="preserve" text-anchor="middle" x="1621" y="-442.77" font-family="Helvetica,sans-Serif" font-size="8.00">status → scanned</text>
<text xml:space="preserve" text-anchor="middle" x="1621" y="-432.27" font-family="Helvetica,sans-Serif" font-size="8.00">or virus_detected</text>
</g>
<!-- worker&#45;&gt;lib_scan -->
<g id="edge14" class="edge">
<title>worker&#45;&gt;lib_scan</title>
<path fill="none" stroke="black" stroke-dasharray="1,5" d="M481.1,-549.7C677.23,-548.12 1465.08,-539.27 1567,-498.12 1576.86,-494.14 1586.14,-487.55 1594.13,-480.53"/>
<polygon fill="black" stroke="black" points="1596.3,-483.29 1601.16,-473.88 1591.49,-478.21 1596.3,-483.29"/>
</g>
<!-- beat -->
<g id="node3" class="node">
<title>beat</title>
<polygon fill="#d4e6f1" stroke="black" points="482.5,-746.59 391.5,-746.59 391.5,-709.34 482.5,-709.34 482.5,-746.59"/>
<text xml:space="preserve" text-anchor="middle" x="437" y="-734.04" font-family="Helvetica,sans-Serif" font-size="9.00">Celery Beat</text>
<text xml:space="preserve" text-anchor="middle" x="437" y="-724.29" font-family="Helvetica,sans-Serif" font-size="9.00">Scheduler</text>
<text xml:space="preserve" text-anchor="middle" x="437" y="-714.54" font-family="Helvetica,sans-Serif" font-size="9.00">crontab + intervals</text>
</g>
<!-- beat&#45;&gt;redis -->
<g id="edge2" class="edge">
<title>beat&#45;&gt;redis</title>
<path fill="none" stroke="black" d="M437,-709.05C437,-699.65 437,-687.78 437,-676.58"/>
<polygon fill="black" stroke="black" points="440.5,-676.78 437,-666.78 433.5,-676.78 440.5,-676.78"/>
<text xml:space="preserve" text-anchor="middle" x="470" y="-684.69" font-family="Helvetica,sans-Serif" font-size="7.00">enqueue on schedule</text>
</g>
<!-- db -->
<g id="node35" class="node">
<title>db</title>
<path fill="#fcf3cf" stroke="black" d="M735.5,-376.75C735.5,-379.99 708.38,-382.62 675,-382.62 641.62,-382.62 614.5,-379.99 614.5,-376.75 614.5,-376.75 614.5,-323.88 614.5,-323.88 614.5,-320.63 641.62,-318 675,-318 708.38,-318 735.5,-320.63 735.5,-323.88 735.5,-323.88 735.5,-376.75 735.5,-376.75"/>
<path fill="none" stroke="black" d="M735.5,-376.75C735.5,-373.51 708.38,-370.88 675,-370.88 641.62,-370.88 614.5,-373.51 614.5,-376.75"/>
<text xml:space="preserve" text-anchor="middle" x="675" y="-361.26" font-family="Helvetica,sans-Serif" font-size="9.00">PostgreSQL</text>
<text xml:space="preserve" text-anchor="middle" x="675" y="-351.51" font-family="Helvetica,sans-Serif" font-size="9.00">commerce_expert</text>
<text xml:space="preserve" text-anchor="middle" x="675" y="-341.76" font-family="Helvetica,sans-Serif" font-size="9.00">Document, Setting,</text>
<text xml:space="preserve" text-anchor="middle" x="675" y="-332.01" font-family="Helvetica,sans-Serif" font-size="9.00">Inventory, ScheduledTask</text>
</g>
<!-- inv_drain&#45;&gt;db -->
<g id="edge15" class="edge">
<title>inv_drain&#45;&gt;db</title>
<path fill="none" stroke="black" stroke-dasharray="5,2" d="M88.04,-427.15C93.52,-424.22 99.29,-421.56 105,-419.62 276.84,-361.37 492.55,-351.42 602.82,-350.54"/>
<polygon fill="black" stroke="black" points="602.63,-354.04 612.61,-350.48 602.59,-347.04 602.63,-354.04"/>
</g>
<!-- keywords&#45;&gt;db -->
<g id="edge16" class="edge">
<title>keywords&#45;&gt;db</title>
<path fill="none" stroke="black" stroke-dasharray="5,2" d="M1242.88,-427.19C1237.08,-424.26 1230.99,-421.59 1225,-419.62 1059.78,-365.58 853.83,-353.79 746.93,-351.54"/>
<polygon fill="black" stroke="black" points="747.22,-348.04 737.16,-351.35 747.09,-355.04 747.22,-348.04"/>
</g>
<!-- rel_counts -->
<g id="node7" class="node">
<title>rel_counts</title>
<polygon fill="#fdfefe" stroke="black" points="1393.75,-471.62 1334.25,-471.62 1334.25,-427.62 1393.75,-427.62 1393.75,-471.62"/>
<text xml:space="preserve" text-anchor="middle" x="1364" y="-460.02" font-family="Helvetica,sans-Serif" font-size="8.00">Relationship</text>
<text xml:space="preserve" text-anchor="middle" x="1364" y="-451.02" font-family="Helvetica,sans-Serif" font-size="8.00">Counts</text>
<text xml:space="preserve" text-anchor="middle" x="1364" y="-442.02" font-family="Helvetica,sans-Serif" font-size="8.00">hourly</text>
<text xml:space="preserve" text-anchor="middle" x="1364" y="-433.02" font-family="Helvetica,sans-Serif" font-size="8.00">limit=5000</text>
</g>
<!-- athena -->
<g id="node8" class="node">
<title>athena</title>
<polygon fill="#fdfefe" stroke="black" points="1485.88,-471.62 1412.12,-471.62 1412.12,-427.62 1485.88,-427.62 1485.88,-471.62"/>
<text xml:space="preserve" text-anchor="middle" x="1449" y="-460.02" font-family="Helvetica,sans-Serif" font-size="8.00">Athena Integrity</text>
<text xml:space="preserve" text-anchor="middle" x="1449" y="-451.02" font-family="Helvetica,sans-Serif" font-size="8.00">Verify</text>
<text xml:space="preserve" text-anchor="middle" x="1449" y="-442.02" font-family="Helvetica,sans-Serif" font-size="8.00">every 4 hours</text>
<text xml:space="preserve" text-anchor="middle" x="1449" y="-433.02" font-family="Helvetica,sans-Serif" font-size="8.00">sign + verify files</text>
</g>
<!-- user_logs -->
<g id="node9" class="node">
<title>user_logs</title>
<polygon fill="#fdfefe" stroke="black" points="292.25,-467.62 223.75,-467.62 223.75,-431.62 292.25,-431.62 292.25,-467.62"/>
<text xml:space="preserve" text-anchor="middle" x="258" y="-455.52" font-family="Helvetica,sans-Serif" font-size="8.00">User Daily Log</text>
<text xml:space="preserve" text-anchor="middle" x="258" y="-446.52" font-family="Helvetica,sans-Serif" font-size="8.00">Aggregation</text>
<text xml:space="preserve" text-anchor="middle" x="258" y="-437.52" font-family="Helvetica,sans-Serif" font-size="8.00">1:30 AM</text>
</g>
<!-- defaults -->
<g id="node10" class="node">
<title>defaults</title>
<polygon fill="#fdfefe" stroke="black" points="380,-467.62 310,-467.62 310,-431.62 380,-431.62 380,-467.62"/>
<text xml:space="preserve" text-anchor="middle" x="345" y="-455.52" font-family="Helvetica,sans-Serif" font-size="8.00">Model Defaults</text>
<text xml:space="preserve" text-anchor="middle" x="345" y="-446.52" font-family="Helvetica,sans-Serif" font-size="8.00">Ensure JSONB</text>
<text xml:space="preserve" text-anchor="middle" x="345" y="-437.52" font-family="Helvetica,sans-Serif" font-size="8.00">2:00 AM</text>
</g>
<!-- schema_watch -->
<g id="node11" class="node">
<title>schema_watch</title>
<polygon fill="#d5f5e3" stroke="black" points="464.12,-467.62 397.88,-467.62 397.88,-431.62 464.12,-431.62 464.12,-467.62"/>
<text xml:space="preserve" text-anchor="middle" x="431" y="-455.52" font-family="Helvetica,sans-Serif" font-size="8.00">Alice: Schema</text>
<text xml:space="preserve" text-anchor="middle" x="431" y="-446.52" font-family="Helvetica,sans-Serif" font-size="8.00">Watch</text>
<text xml:space="preserve" text-anchor="middle" x="431" y="-437.52" font-family="Helvetica,sans-Serif" font-size="8.00">2:20 AM</text>
</g>
<!-- health -->
<g id="node12" class="node">
<title>health</title>
<polygon fill="#d5f5e3" stroke="black" points="705.12,-467.62 644.88,-467.62 644.88,-431.62 705.12,-431.62 705.12,-467.62"/>
<text xml:space="preserve" text-anchor="middle" x="675" y="-455.52" font-family="Helvetica,sans-Serif" font-size="8.00">Alice: Health</text>
<text xml:space="preserve" text-anchor="middle" x="675" y="-446.52" font-family="Helvetica,sans-Serif" font-size="8.00">Scoring</text>
<text xml:space="preserve" text-anchor="middle" x="675" y="-437.52" font-family="Helvetica,sans-Serif" font-size="8.00">2:30 AM</text>
</g>
<!-- health&#45;&gt;db -->
<g id="edge17" class="edge">
<title>health&#45;&gt;db</title>
<path fill="none" stroke="black" stroke-dasharray="5,2" d="M675,-431.23C675,-420.91 675,-407.34 675,-394.32"/>
<polygon fill="black" stroke="black" points="678.5,-394.63 675,-384.63 671.5,-394.63 678.5,-394.63"/>
</g>
<!-- aging -->
<g id="node13" class="node">
<title>aging</title>
<polygon fill="#fdfefe" stroke="black" points="626.38,-467.62 561.62,-467.62 561.62,-431.62 626.38,-431.62 626.38,-467.62"/>
<text xml:space="preserve" text-anchor="middle" x="594" y="-455.52" font-family="Helvetica,sans-Serif" font-size="8.00">Aging</text>
<text xml:space="preserve" text-anchor="middle" x="594" y="-446.52" font-family="Helvetica,sans-Serif" font-size="8.00">Reconciliation</text>
<text xml:space="preserve" text-anchor="middle" x="594" y="-437.52" font-family="Helvetica,sans-Serif" font-size="8.00">2:40 AM</text>
</g>
<!-- backup -->
<g id="node14" class="node">
<title>backup</title>
<polygon fill="#fdfefe" stroke="black" points="543.88,-467.62 482.12,-467.62 482.12,-431.62 543.88,-431.62 543.88,-467.62"/>
<text xml:space="preserve" text-anchor="middle" x="513" y="-455.52" font-family="Helvetica,sans-Serif" font-size="8.00">Data Backup</text>
<text xml:space="preserve" text-anchor="middle" x="513" y="-446.52" font-family="Helvetica,sans-Serif" font-size="8.00">Export</text>
<text xml:space="preserve" text-anchor="middle" x="513" y="-437.52" font-family="Helvetica,sans-Serif" font-size="8.00">3:00 AM</text>
</g>
<!-- backup&#45;&gt;db -->
<g id="edge18" class="edge">
<title>backup&#45;&gt;db</title>
<path fill="none" stroke="black" stroke-dasharray="5,2" d="M535.95,-431.29C541.45,-427.33 547.36,-423.23 553,-419.62 570.77,-408.26 590.54,-396.74 608.9,-386.48"/>
<polygon fill="black" stroke="black" points="610.56,-389.56 617.61,-381.65 607.16,-383.44 610.56,-389.56"/>
<text xml:space="preserve" text-anchor="middle" x="592.2" y="-402.23" font-family="Helvetica,sans-Serif" font-size="7.00">export</text>
</g>
<!-- cleanup_alice -->
<g id="node15" class="node">
<title>cleanup_alice</title>
<polygon fill="#d5f5e3" stroke="black" points="777.12,-467.62 722.88,-467.62 722.88,-431.62 777.12,-431.62 777.12,-467.62"/>
<text xml:space="preserve" text-anchor="middle" x="750" y="-455.52" font-family="Helvetica,sans-Serif" font-size="8.00">Alice: Data</text>
<text xml:space="preserve" text-anchor="middle" x="750" y="-446.52" font-family="Helvetica,sans-Serif" font-size="8.00">Cleanup</text>
<text xml:space="preserve" text-anchor="middle" x="750" y="-437.52" font-family="Helvetica,sans-Serif" font-size="8.00">3:10 AM</text>
</g>
<!-- meta_temp -->
<g id="node16" class="node">
<title>meta_temp</title>
<polygon fill="#fdfefe" stroke="black" points="866.75,-467.62 795.25,-467.62 795.25,-431.62 866.75,-431.62 866.75,-467.62"/>
<text xml:space="preserve" text-anchor="middle" x="831" y="-455.52" font-family="Helvetica,sans-Serif" font-size="8.00">Metadata Temp</text>
<text xml:space="preserve" text-anchor="middle" x="831" y="-446.52" font-family="Helvetica,sans-Serif" font-size="8.00">Cleanup</text>
<text xml:space="preserve" text-anchor="middle" x="831" y="-437.52" font-family="Helvetica,sans-Serif" font-size="8.00">3:20 AM</text>
</g>
<!-- json_opt -->
<g id="node17" class="node">
<title>json_opt</title>
<polygon fill="#d5f5e3" stroke="black" points="943,-467.62 885,-467.62 885,-431.62 943,-431.62 943,-467.62"/>
<text xml:space="preserve" text-anchor="middle" x="914" y="-455.52" font-family="Helvetica,sans-Serif" font-size="8.00">Alice: JSON</text>
<text xml:space="preserve" text-anchor="middle" x="914" y="-446.52" font-family="Helvetica,sans-Serif" font-size="8.00">Optimize</text>
<text xml:space="preserve" text-anchor="middle" x="914" y="-437.52" font-family="Helvetica,sans-Serif" font-size="8.00">3:30 AM</text>
</g>
<!-- refs_fk -->
<g id="node18" class="node">
<title>refs_fk</title>
<polygon fill="#fdfefe" stroke="black" points="1031,-467.62 961,-467.62 961,-431.62 1031,-431.62 1031,-467.62"/>
<text xml:space="preserve" text-anchor="middle" x="996" y="-455.9" font-family="Helvetica,sans-Serif" font-size="8.00">Refs↔FK</text>
<text xml:space="preserve" text-anchor="middle" x="996" y="-446.15" font-family="Helvetica,sans-Serif" font-size="8.00">Mismatch Audit</text>
<text xml:space="preserve" text-anchor="middle" x="996" y="-437.15" font-family="Helvetica,sans-Serif" font-size="8.00">3:40 AM</text>
</g>
<!-- rel_scan -->
<g id="node19" class="node">
<title>rel_scan</title>
<polygon fill="#d5f5e3" stroke="black" points="1129.25,-467.62 1048.75,-467.62 1048.75,-431.62 1129.25,-431.62 1129.25,-467.62"/>
<text xml:space="preserve" text-anchor="middle" x="1089" y="-455.52" font-family="Helvetica,sans-Serif" font-size="8.00">Alice: Relationship</text>
<text xml:space="preserve" text-anchor="middle" x="1089" y="-446.52" font-family="Helvetica,sans-Serif" font-size="8.00">Scan</text>
<text xml:space="preserve" text-anchor="middle" x="1089" y="-437.52" font-family="Helvetica,sans-Serif" font-size="8.00">4:00 AM</text>
</g>
<!-- registry -->
<g id="node20" class="node">
<title>registry</title>
<polygon fill="#fdfefe" stroke="black" points="1212.75,-467.62 1147.25,-467.62 1147.25,-431.62 1212.75,-431.62 1212.75,-467.62"/>
<text xml:space="preserve" text-anchor="middle" x="1180" y="-455.52" font-family="Helvetica,sans-Serif" font-size="8.00">Registry Docs</text>
<text xml:space="preserve" text-anchor="middle" x="1180" y="-446.52" font-family="Helvetica,sans-Serif" font-size="8.00">Refresh</text>
<text xml:space="preserve" text-anchor="middle" x="1180" y="-437.52" font-family="Helvetica,sans-Serif" font-size="8.00">5:00 AM</text>
</g>
<!-- stats -->
<g id="node21" class="node">
<title>stats</title>
<polygon fill="#fdfefe" stroke="black" points="570.25,-745.97 507.75,-745.97 507.75,-709.97 570.25,-709.97 570.25,-745.97"/>
<text xml:space="preserve" text-anchor="middle" x="539" y="-733.87" font-family="Helvetica,sans-Serif" font-size="8.00">Basic Stats</text>
<text xml:space="preserve" text-anchor="middle" x="539" y="-724.87" font-family="Helvetica,sans-Serif" font-size="8.00">Normalize</text>
<text xml:space="preserve" text-anchor="middle" x="539" y="-715.87" font-family="Helvetica,sans-Serif" font-size="8.00">Sun 4:00 AM</text>
</g>
<!-- schema_drift -->
<g id="node22" class="node">
<title>schema_drift</title>
<polygon fill="#d5f5e3" stroke="black" points="654.12,-745.97 587.88,-745.97 587.88,-709.97 654.12,-709.97 654.12,-745.97"/>
<text xml:space="preserve" text-anchor="middle" x="621" y="-733.87" font-family="Helvetica,sans-Serif" font-size="8.00">Alice: Schema</text>
<text xml:space="preserve" text-anchor="middle" x="621" y="-724.87" font-family="Helvetica,sans-Serif" font-size="8.00">Drift</text>
<text xml:space="preserve" text-anchor="middle" x="621" y="-715.87" font-family="Helvetica,sans-Serif" font-size="8.00">Mon 4:30 AM</text>
</g>
<!-- margin -->
<g id="node23" class="node">
<title>margin</title>
<polygon fill="#d5f5e3" stroke="black" points="736,-745.97 672,-745.97 672,-709.97 736,-709.97 736,-745.97"/>
<text xml:space="preserve" text-anchor="middle" x="704" y="-733.87" font-family="Helvetica,sans-Serif" font-size="8.00">Alice: Margin</text>
<text xml:space="preserve" text-anchor="middle" x="704" y="-724.87" font-family="Helvetica,sans-Serif" font-size="8.00">Tracking</text>
<text xml:space="preserve" text-anchor="middle" x="704" y="-715.87" font-family="Helvetica,sans-Serif" font-size="8.00">Mon 5:00 AM</text>
</g>
<!-- velocity -->
<g id="node24" class="node">
<title>velocity</title>
<polygon fill="#d5f5e3" stroke="black" points="818,-745.97 754,-745.97 754,-709.97 818,-709.97 818,-745.97"/>
<text xml:space="preserve" text-anchor="middle" x="786" y="-733.87" font-family="Helvetica,sans-Serif" font-size="8.00">Alice: Velocity</text>
<text xml:space="preserve" text-anchor="middle" x="786" y="-724.87" font-family="Helvetica,sans-Serif" font-size="8.00">Analysis</text>
<text xml:space="preserve" text-anchor="middle" x="786" y="-715.87" font-family="Helvetica,sans-Serif" font-size="8.00">Mon 5:30 AM</text>
</g>
<!-- layout_drift -->
<g id="node25" class="node">
<title>layout_drift</title>
<polygon fill="#d5f5e3" stroke="black" points="900,-745.97 836,-745.97 836,-709.97 900,-709.97 900,-745.97"/>
<text xml:space="preserve" text-anchor="middle" x="868" y="-733.87" font-family="Helvetica,sans-Serif" font-size="8.00">Alice: Layout</text>
<text xml:space="preserve" text-anchor="middle" x="868" y="-724.87" font-family="Helvetica,sans-Serif" font-size="8.00">Drift</text>
<text xml:space="preserve" text-anchor="middle" x="868" y="-715.87" font-family="Helvetica,sans-Serif" font-size="8.00">Mon 6:00 AM</text>
</g>
<!-- lib_thumb -->
<g id="node27" class="node">
<title>lib_thumb</title>
<polygon fill="#fdfefe" stroke="black" points="1663.5,-372.31 1596.5,-372.31 1596.5,-328.31 1663.5,-328.31 1663.5,-372.31"/>
<text xml:space="preserve" text-anchor="middle" x="1630" y="-360.71" font-family="Helvetica,sans-Serif" font-size="8.00">Thumbnail</text>
<text xml:space="preserve" text-anchor="middle" x="1630" y="-351.71" font-family="Helvetica,sans-Serif" font-size="8.00">Generation</text>
<text xml:space="preserve" text-anchor="middle" x="1630" y="-342.71" font-family="Helvetica,sans-Serif" font-size="8.00">every 1 min</text>
<text xml:space="preserve" text-anchor="middle" x="1630" y="-333.71" font-family="Helvetica,sans-Serif" font-size="8.00">200×200 PNG</text>
</g>
<!-- lib_scan&#45;&gt;lib_thumb -->
<g id="edge3" class="edge">
<title>lib_scan&#45;&gt;lib_thumb</title>
<path fill="none" stroke="black" d="M1623.04,-426.54C1624.21,-413.93 1625.69,-397.87 1626.99,-383.83"/>
<polygon fill="black" stroke="black" points="1630.45,-384.43 1627.89,-374.15 1623.48,-383.78 1630.45,-384.43"/>
<text xml:space="preserve" text-anchor="middle" x="1633.48" y="-402.23" font-family="Helvetica,sans-Serif" font-size="7.00">clean</text>
</g>
<!-- lib_transfer -->
<g id="node28" class="node">
<title>lib_transfer</title>
<polygon fill="#fdfefe" stroke="black" points="1671.5,-273.75 1598.5,-273.75 1598.5,-237.75 1671.5,-237.75 1671.5,-273.75"/>
<text xml:space="preserve" text-anchor="middle" x="1635" y="-261.65" font-family="Helvetica,sans-Serif" font-size="8.00">Cloud Transfer</text>
<text xml:space="preserve" text-anchor="middle" x="1635" y="-252.65" font-family="Helvetica,sans-Serif" font-size="8.00">async</text>
<text xml:space="preserve" text-anchor="middle" x="1635" y="-243.65" font-family="Helvetica,sans-Serif" font-size="8.00">path.remote_url</text>
</g>
<!-- lib_thumb&#45;&gt;lib_transfer -->
<g id="edge4" class="edge">
<title>lib_thumb&#45;&gt;lib_transfer</title>
<path fill="none" stroke="black" d="M1631.16,-327.84C1631.84,-315.2 1632.71,-299.06 1633.46,-285.35"/>
<polygon fill="black" stroke="black" points="1636.94,-285.76 1633.98,-275.59 1629.95,-285.39 1636.94,-285.76"/>
<text xml:space="preserve" text-anchor="middle" x="1641.72" y="-293.35" font-family="Helvetica,sans-Serif" font-size="7.00">ready</text>
</g>
<!-- lib_verify -->
<g id="node29" class="node">
<title>lib_verify</title>
<polygon fill="#fdfefe" stroke="black" points="1672.62,-200.75 1597.38,-200.75 1597.38,-164.75 1672.62,-164.75 1672.62,-200.75"/>
<text xml:space="preserve" text-anchor="middle" x="1635" y="-188.65" font-family="Helvetica,sans-Serif" font-size="8.00">Transfer Verify</text>
<text xml:space="preserve" text-anchor="middle" x="1635" y="-179.65" font-family="Helvetica,sans-Serif" font-size="8.00">every 2 min</text>
<text xml:space="preserve" text-anchor="middle" x="1635" y="-170.65" font-family="Helvetica,sans-Serif" font-size="8.00">checksum match</text>
</g>
<!-- lib_transfer&#45;&gt;lib_verify -->
<g id="edge5" class="edge">
<title>lib_transfer&#45;&gt;lib_verify</title>
<path fill="none" stroke="black" d="M1635,-237.56C1635,-229.98 1635,-220.85 1635,-212.29"/>
<polygon fill="black" stroke="black" points="1638.5,-212.29 1635,-202.29 1631.5,-212.29 1638.5,-212.29"/>
</g>
<!-- lib_cleanup -->
<g id="node30" class="node">
<title>lib_cleanup</title>
<polygon fill="#fdfefe" stroke="black" points="1658.88,-120.5 1579.12,-120.5 1579.12,-84 1658.88,-84 1658.88,-120.5"/>
<text xml:space="preserve" text-anchor="middle" x="1619" y="-108.9" font-family="Helvetica,sans-Serif" font-size="8.00">Local Cleanup</text>
<text xml:space="preserve" text-anchor="middle" x="1619" y="-99.9" font-family="Helvetica,sans-Serif" font-size="8.00">async</text>
<text xml:space="preserve" text-anchor="middle" x="1619" y="-90.9" font-family="Helvetica,sans-Serif" font-size="8.00">status → archived</text>
</g>
<!-- lib_verify&#45;&gt;lib_cleanup -->
<g id="edge6" class="edge">
<title>lib_verify&#45;&gt;lib_cleanup</title>
<path fill="none" stroke="black" d="M1631.45,-164.33C1629.52,-154.84 1627.07,-142.86 1624.87,-132.03"/>
<polygon fill="black" stroke="black" points="1628.33,-131.48 1622.9,-122.38 1621.47,-132.88 1628.33,-131.48"/>
<text xml:space="preserve" text-anchor="middle" x="1637.23" y="-140.1" font-family="Helvetica,sans-Serif" font-size="7.00">match</text>
</g>
<!-- lib_monitor -->
<g id="node31" class="node">
<title>lib_monitor</title>
<polygon fill="#fdfefe" stroke="black" points="1746.62,-120.25 1677.38,-120.25 1677.38,-84.25 1746.62,-84.25 1746.62,-120.25"/>
<text xml:space="preserve" text-anchor="middle" x="1712" y="-108.15" font-family="Helvetica,sans-Serif" font-size="8.00">Failed Monitor</text>
<text xml:space="preserve" text-anchor="middle" x="1712" y="-99.15" font-family="Helvetica,sans-Serif" font-size="8.00">every 5 min</text>
<text xml:space="preserve" text-anchor="middle" x="1712" y="-90.15" font-family="Helvetica,sans-Serif" font-size="8.00">retry or FAULT</text>
</g>
<!-- lib_verify&#45;&gt;lib_monitor -->
<g id="edge7" class="edge">
<title>lib_verify&#45;&gt;lib_monitor</title>
<path fill="none" stroke="black" d="M1649.97,-164.61C1657.16,-156.54 1665.99,-146.88 1674.25,-138.5 1677.58,-135.12 1681.14,-131.64 1684.7,-128.23"/>
<polygon fill="black" stroke="black" points="1686.91,-130.96 1691.79,-121.56 1682.11,-125.87 1686.91,-130.96"/>
<text xml:space="preserve" text-anchor="middle" x="1689.62" y="-140.1" font-family="Helvetica,sans-Serif" font-size="7.00">mismatch</text>
</g>
<!-- cloud -->
<g id="node34" class="node">
<title>cloud</title>
<polygon fill="#abebc6" stroke="black" points="1660.75,-47 1577.25,-47 1577.25,0 1660.75,0 1660.75,-47"/>
<text xml:space="preserve" text-anchor="middle" x="1619" y="-34.45" font-family="Helvetica,sans-Serif" font-size="9.00">Secure Cloud</text>
<text xml:space="preserve" text-anchor="middle" x="1619" y="-24.7" font-family="Helvetica,sans-Serif" font-size="9.00">Library</text>
<text xml:space="preserve" text-anchor="middle" x="1619" y="-14.95" font-family="Helvetica,sans-Serif" font-size="9.00">encrypted at rest</text>
<text xml:space="preserve" text-anchor="middle" x="1619" y="-5.2" font-family="Helvetica,sans-Serif" font-size="9.00">signed URLs</text>
</g>
<!-- lib_cleanup&#45;&gt;cloud -->
<g id="edge10" class="edge">
<title>lib_cleanup&#45;&gt;cloud</title>
<path fill="none" stroke="black" d="M1619,-83.83C1619,-76.42 1619,-67.49 1619,-58.84"/>
<polygon fill="black" stroke="black" points="1622.5,-58.89 1619,-48.89 1615.5,-58.89 1622.5,-58.89"/>
</g>
<!-- lib_monitor&#45;&gt;lib_transfer -->
<g id="edge8" class="edge">
<title>lib_monitor&#45;&gt;lib_transfer</title>
<path fill="none" stroke="black" stroke-dasharray="5,2" d="M1710.22,-120.4C1709.13,-128.49 1707.46,-138.23 1705,-146.75 1697.76,-171.81 1695.84,-178.64 1682,-200.75 1675.83,-210.6 1667.9,-220.46 1660.31,-229.01"/>
<polygon fill="black" stroke="black" points="1657.83,-226.54 1653.64,-236.27 1662.99,-231.27 1657.83,-226.54"/>
<text xml:space="preserve" text-anchor="middle" x="1706.58" y="-180.22" font-family="Helvetica,sans-Serif" font-size="7.00">retry</text>
</g>
<!-- lib_dedup -->
<g id="node32" class="node">
<title>lib_dedup</title>
<polygon fill="#fdfefe" stroke="black" points="1746.12,-467.62 1679.88,-467.62 1679.88,-431.62 1746.12,-431.62 1746.12,-467.62"/>
<text xml:space="preserve" text-anchor="middle" x="1713" y="-455.52" font-family="Helvetica,sans-Serif" font-size="8.00">Dedup Scan</text>
<text xml:space="preserve" text-anchor="middle" x="1713" y="-446.52" font-family="Helvetica,sans-Serif" font-size="8.00">every 5 min</text>
<text xml:space="preserve" text-anchor="middle" x="1713" y="-437.52" font-family="Helvetica,sans-Serif" font-size="8.00">catchup check</text>
</g>
<!-- upload -->
<g id="node33" class="node">
<title>upload</title>
<polygon fill="#d4e6f1" stroke="black" points="1588.75,-569.62 1487.25,-569.62 1487.25,-532.38 1588.75,-532.38 1588.75,-569.62"/>
<text xml:space="preserve" text-anchor="middle" x="1538" y="-557.08" font-family="Helvetica,sans-Serif" font-size="9.00">POST /wcapi/upload/</text>
<text xml:space="preserve" text-anchor="middle" x="1538" y="-547.33" font-family="Helvetica,sans-Serif" font-size="9.00">Document record</text>
<text xml:space="preserve" text-anchor="middle" x="1538" y="-537.58" font-family="Helvetica,sans-Serif" font-size="9.00">status=uploaded</text>
</g>
<!-- upload&#45;&gt;lib_scan -->
<g id="edge9" class="edge">
<title>upload&#45;&gt;lib_scan</title>
<path fill="none" stroke="black" d="M1552.84,-532.23C1564.67,-518.07 1581.52,-497.9 1595.5,-481.15"/>
<polygon fill="black" stroke="black" points="1597.82,-483.84 1601.54,-473.92 1592.45,-479.35 1597.82,-483.84"/>
<text xml:space="preserve" text-anchor="middle" x="1596.28" y="-507.73" font-family="Helvetica,sans-Serif" font-size="7.00">Alice picks up</text>
</g>
<!-- upload&#45;&gt;db -->
<g id="edge19" class="edge">
<title>upload&#45;&gt;db</title>
<path fill="none" stroke="black" d="M1533.67,-532.03C1525.3,-497.99 1506.94,-426.83 1498,-419.62 1440.17,-373.06 937.08,-357.12 747.17,-352.74"/>
<polygon fill="black" stroke="black" points="747.52,-349.25 737.44,-352.52 747.36,-356.24 747.52,-349.25"/>
<text xml:space="preserve" text-anchor="middle" x="1545.29" y="-447.1" font-family="Helvetica,sans-Serif" font-size="7.00">create record</text>
</g>
</g>
</svg>
